%FSLAX25Y25*%
%MOIN*%
G70*
G01*
G75*
G04 Layer_Physical_Order=1*
G04 Layer_Color=255*
G04:AMPARAMS|DCode=10|XSize=23.62mil|YSize=39.37mil|CornerRadius=5.91mil|HoleSize=0mil|Usage=FLASHONLY|Rotation=90.000|XOffset=0mil|YOffset=0mil|HoleType=Round|Shape=RoundedRectangle|*
%AMROUNDEDRECTD10*
21,1,0.02362,0.02756,0,0,90.0*
21,1,0.01181,0.03937,0,0,90.0*
1,1,0.01181,0.01378,0.00591*
1,1,0.01181,0.01378,-0.00591*
1,1,0.01181,-0.01378,-0.00591*
1,1,0.01181,-0.01378,0.00591*
%
%ADD10ROUNDEDRECTD10*%
%ADD11R,0.03937X0.03740*%
%ADD12R,0.03740X0.03937*%
%ADD13C,0.02000*%
%ADD14C,0.05000*%
%ADD15R,0.05000X0.05000*%
%ADD16R,0.05000X0.05000*%
D10*
X297724Y229000D02*
D03*
X288276Y225260D02*
D03*
Y232740D02*
D03*
X354724Y214000D02*
D03*
X345276Y210260D02*
D03*
Y217740D02*
D03*
X336724Y214000D02*
D03*
X327276Y210260D02*
D03*
Y217740D02*
D03*
X316724Y214000D02*
D03*
X307276Y210260D02*
D03*
Y217740D02*
D03*
X298724Y214000D02*
D03*
X289276Y210260D02*
D03*
Y217740D02*
D03*
X354724Y229000D02*
D03*
X345276Y225260D02*
D03*
Y232740D02*
D03*
X336724Y229000D02*
D03*
X327276Y225260D02*
D03*
Y232740D02*
D03*
X316724Y229000D02*
D03*
X307276Y225260D02*
D03*
Y232740D02*
D03*
D11*
X317150Y241000D02*
D03*
X310850D02*
D03*
D12*
X355000Y246150D02*
D03*
Y239850D02*
D03*
D13*
X317150Y241000D02*
X329000D01*
Y251000D02*
X341000D01*
X305000D02*
X329000D01*
X295000Y241000D02*
X305000Y251000D01*
X348150Y246150D02*
X355000D01*
X343000Y241000D02*
X348150Y246150D01*
X341000Y241000D02*
X343000D01*
X307276Y232740D02*
X327276D01*
X310850Y232890D02*
Y241000D01*
X288276Y232740D02*
X307276D01*
X297724Y229000D02*
Y232689D01*
X327276Y232740D02*
X345276D01*
X279000Y235000D02*
X285000Y241000D01*
X279000Y212000D02*
Y235000D01*
Y212000D02*
X280740Y210260D01*
X289276D01*
X285260Y225260D02*
X288276D01*
X283000Y223000D02*
X285260Y225260D01*
X283000Y215000D02*
Y223000D01*
Y215000D02*
X284000Y214000D01*
X298724D01*
X307276Y217740D02*
Y225260D01*
X345276Y217740D02*
Y225260D01*
X327276Y217740D02*
Y225260D01*
X289276Y217740D02*
X307276D01*
X336724Y229000D02*
X354724D01*
X315724D02*
X336724D01*
X355000Y229276D02*
Y239850D01*
X354724Y229000D02*
X355000Y229276D01*
X327276Y217740D02*
X345276D01*
X336724Y214000D02*
Y217465D01*
X307276Y217740D02*
X327276D01*
X316724Y214000D02*
Y217465D01*
X345276Y217740D02*
X350984D01*
X354724Y214000D01*
X327276Y210260D02*
X345276D01*
X307276D02*
X327276D01*
X289276D02*
X307276D01*
D14*
X285000Y241000D02*
D03*
X341000D02*
D03*
X329000D02*
D03*
D15*
X295000D02*
D03*
D16*
X341000Y251000D02*
D03*
X329000D02*
D03*
M02*
