  0
SECTION
  2
BLOCKS
  0
ENDSEC
  0
SECTION
  2
ENTITIES
  0
LINE
  8
0
 10
21
 20
210
 11
11
 21
210
  0
LINE
  8
0
 10
11
 20
210
 11
11
 21
0
  0
LINE
  8
0
 10
11
 20
0
 11
21
 21
0
  0
LINE
  8
0
 10
21
 20
0
 11
21
 21
210
  0
LINE
  8
0
 10
15.9419
 20
189.077
 11
15.8841
 21
189.082
  0
LINE
  8
0
 10
15.8841
 20
189.082
 11
15.8267
 21
189.091
  0
LINE
  8
0
 10
15.8267
 20
189.091
 11
15.77
 21
189.104
  0
LINE
  8
0
 10
15.77
 20
189.104
 11
15.7142
 21
189.12
  0
LINE
  8
0
 10
15.7142
 20
189.12
 11
15.6595
 21
189.14
  0
LINE
  8
0
 10
15.6595
 20
189.14
 11
15.6061
 21
189.163
  0
LINE
  8
0
 10
15.6061
 20
189.163
 11
15.5544
 21
189.189
  0
LINE
  8
0
 10
15.5544
 20
189.189
 11
15.5043
 21
189.219
  0
LINE
  8
0
 10
15.5043
 20
189.219
 11
15.4563
 21
189.252
  0
LINE
  8
0
 10
15.4563
 20
189.252
 11
15.4104
 21
189.287
  0
LINE
  8
0
 10
15.4104
 20
189.287
 11
15.3668
 21
189.326
  0
LINE
  8
0
 10
15.3668
 20
189.326
 11
15.3257
 21
189.367
  0
LINE
  8
0
 10
15.3257
 20
189.367
 11
15.2873
 21
189.41
  0
LINE
  8
0
 10
15.2873
 20
189.41
 11
15.2516
 21
189.456
  0
LINE
  8
0
 10
15.2516
 20
189.456
 11
15.219
 21
189.504
  0
LINE
  8
0
 10
15.219
 20
189.504
 11
15.1894
 21
189.554
  0
LINE
  8
0
 10
15.1894
 20
189.554
 11
15.163
 21
189.606
  0
LINE
  8
0
 10
15.163
 20
189.606
 11
15.14
 21
189.659
  0
LINE
  8
0
 10
15.14
 20
189.659
 11
15.1203
 21
189.714
  0
LINE
  8
0
 10
15.1203
 20
189.714
 11
15.104
 21
189.77
  0
LINE
  8
0
 10
15.104
 20
189.77
 11
15.0914
 21
189.827
  0
LINE
  8
0
 10
15.0914
 20
189.827
 11
15.0823
 21
189.884
  0
LINE
  8
0
 10
15.0823
 20
189.884
 11
15.0768
 21
189.942
  0
LINE
  8
0
 10
15.0768
 20
189.942
 11
15.075
 21
190
  0
LINE
  8
0
 10
15.075
 20
190
 11
15.0768
 21
190.058
  0
LINE
  8
0
 10
15.0768
 20
190.058
 11
15.0823
 21
190.116
  0
LINE
  8
0
 10
15.0823
 20
190.116
 11
15.0914
 21
190.173
  0
LINE
  8
0
 10
15.0914
 20
190.173
 11
15.104
 21
190.23
  0
LINE
  8
0
 10
15.104
 20
190.23
 11
15.1203
 21
190.286
  0
LINE
  8
0
 10
15.1203
 20
190.286
 11
15.14
 21
190.341
  0
LINE
  8
0
 10
15.14
 20
190.341
 11
15.163
 21
190.394
  0
LINE
  8
0
 10
15.163
 20
190.394
 11
15.1894
 21
190.446
  0
LINE
  8
0
 10
15.1894
 20
190.446
 11
15.219
 21
190.496
  0
LINE
  8
0
 10
15.219
 20
190.496
 11
15.2516
 21
190.544
  0
LINE
  8
0
 10
15.2516
 20
190.544
 11
15.2873
 21
190.59
  0
LINE
  8
0
 10
15.2873
 20
190.59
 11
15.3257
 21
190.633
  0
LINE
  8
0
 10
15.3257
 20
190.633
 11
15.3668
 21
190.674
  0
LINE
  8
0
 10
15.3668
 20
190.674
 11
15.4104
 21
190.713
  0
LINE
  8
0
 10
15.4104
 20
190.713
 11
15.4563
 21
190.748
  0
LINE
  8
0
 10
15.4563
 20
190.748
 11
15.5043
 21
190.781
  0
LINE
  8
0
 10
15.5043
 20
190.781
 11
15.5544
 21
190.811
  0
LINE
  8
0
 10
15.5544
 20
190.811
 11
15.6061
 21
190.837
  0
LINE
  8
0
 10
15.6061
 20
190.837
 11
15.6595
 21
190.86
  0
LINE
  8
0
 10
15.6595
 20
190.86
 11
15.7142
 21
190.88
  0
LINE
  8
0
 10
15.7142
 20
190.88
 11
15.77
 21
190.896
  0
LINE
  8
0
 10
15.77
 20
190.896
 11
15.8267
 21
190.909
  0
LINE
  8
0
 10
15.8267
 20
190.909
 11
15.8841
 21
190.918
  0
LINE
  8
0
 10
15.8841
 20
190.918
 11
15.9419
 21
190.923
  0
LINE
  8
0
 10
15.9419
 20
190.923
 11
16
 21
190.925
  0
LINE
  8
0
 10
16
 20
190.925
 11
16.0581
 21
190.923
  0
LINE
  8
0
 10
16.0581
 20
190.923
 11
16.1159
 21
190.918
  0
LINE
  8
0
 10
16.1159
 20
190.918
 11
16.1733
 21
190.909
  0
LINE
  8
0
 10
16.1733
 20
190.909
 11
16.23
 21
190.896
  0
LINE
  8
0
 10
16.23
 20
190.896
 11
16.2858
 21
190.88
  0
LINE
  8
0
 10
16.2858
 20
190.88
 11
16.3405
 21
190.86
  0
LINE
  8
0
 10
16.3405
 20
190.86
 11
16.3938
 21
190.837
  0
LINE
  8
0
 10
16.3938
 20
190.837
 11
16.4456
 21
190.811
  0
LINE
  8
0
 10
16.4456
 20
190.811
 11
16.4956
 21
190.781
  0
LINE
  8
0
 10
16.4956
 20
190.781
 11
16.5437
 21
190.748
  0
LINE
  8
0
 10
16.5437
 20
190.748
 11
16.5896
 21
190.713
  0
LINE
  8
0
 10
16.5896
 20
190.713
 11
16.6332
 21
190.674
  0
LINE
  8
0
 10
16.6332
 20
190.674
 11
16.6743
 21
190.633
  0
LINE
  8
0
 10
16.6743
 20
190.633
 11
16.7127
 21
190.59
  0
LINE
  8
0
 10
16.7127
 20
190.59
 11
16.7483
 21
190.544
  0
LINE
  8
0
 10
16.7483
 20
190.544
 11
16.781
 21
190.496
  0
LINE
  8
0
 10
16.781
 20
190.496
 11
16.8106
 21
190.446
  0
LINE
  8
0
 10
16.8106
 20
190.446
 11
16.837
 21
190.394
  0
LINE
  8
0
 10
16.837
 20
190.394
 11
16.86
 21
190.341
  0
LINE
  8
0
 10
16.86
 20
190.341
 11
16.8797
 21
190.286
  0
LINE
  8
0
 10
16.8797
 20
190.286
 11
16.8959
 21
190.23
  0
LINE
  8
0
 10
16.8959
 20
190.23
 11
16.9086
 21
190.173
  0
LINE
  8
0
 10
16.9086
 20
190.173
 11
16.9177
 21
190.116
  0
LINE
  8
0
 10
16.9177
 20
190.116
 11
16.9232
 21
190.058
  0
LINE
  8
0
 10
16.9232
 20
190.058
 11
16.925
 21
190
  0
LINE
  8
0
 10
16.925
 20
190
 11
16.9232
 21
189.942
  0
LINE
  8
0
 10
16.9232
 20
189.942
 11
16.9177
 21
189.884
  0
LINE
  8
0
 10
16.9177
 20
189.884
 11
16.9086
 21
189.827
  0
LINE
  8
0
 10
16.9086
 20
189.827
 11
16.8959
 21
189.77
  0
LINE
  8
0
 10
16.8959
 20
189.77
 11
16.8797
 21
189.714
  0
LINE
  8
0
 10
16.8797
 20
189.714
 11
16.86
 21
189.659
  0
LINE
  8
0
 10
16.86
 20
189.659
 11
16.837
 21
189.606
  0
LINE
  8
0
 10
16.837
 20
189.606
 11
16.8106
 21
189.554
  0
LINE
  8
0
 10
16.8106
 20
189.554
 11
16.781
 21
189.504
  0
LINE
  8
0
 10
16.781
 20
189.504
 11
16.7483
 21
189.456
  0
LINE
  8
0
 10
16.7483
 20
189.456
 11
16.7127
 21
189.41
  0
LINE
  8
0
 10
16.7127
 20
189.41
 11
16.6743
 21
189.367
  0
LINE
  8
0
 10
16.6743
 20
189.367
 11
16.6332
 21
189.326
  0
LINE
  8
0
 10
16.6332
 20
189.326
 11
16.5896
 21
189.287
  0
LINE
  8
0
 10
16.5896
 20
189.287
 11
16.5437
 21
189.252
  0
LINE
  8
0
 10
16.5437
 20
189.252
 11
16.4956
 21
189.219
  0
LINE
  8
0
 10
16.4956
 20
189.219
 11
16.4456
 21
189.189
  0
LINE
  8
0
 10
16.4456
 20
189.189
 11
16.3938
 21
189.163
  0
LINE
  8
0
 10
16.3938
 20
189.163
 11
16.3405
 21
189.14
  0
LINE
  8
0
 10
16.3405
 20
189.14
 11
16.2858
 21
189.12
  0
LINE
  8
0
 10
16.2858
 20
189.12
 11
16.23
 21
189.104
  0
LINE
  8
0
 10
16.23
 20
189.104
 11
16.1733
 21
189.091
  0
LINE
  8
0
 10
16.1733
 20
189.091
 11
16.1159
 21
189.082
  0
LINE
  8
0
 10
16.1159
 20
189.082
 11
16.0581
 21
189.077
  0
LINE
  8
0
 10
16.0581
 20
189.077
 11
16
 21
189.075
  0
LINE
  8
0
 10
16
 20
189.075
 11
15.9419
 21
189.077
  0
LINE
  8
0
 10
15.9419
 20
159.077
 11
15.8841
 21
159.082
  0
LINE
  8
0
 10
15.8841
 20
159.082
 11
15.8267
 21
159.091
  0
LINE
  8
0
 10
15.8267
 20
159.091
 11
15.77
 21
159.104
  0
LINE
  8
0
 10
15.77
 20
159.104
 11
15.7142
 21
159.12
  0
LINE
  8
0
 10
15.7142
 20
159.12
 11
15.6595
 21
159.14
  0
LINE
  8
0
 10
15.6595
 20
159.14
 11
15.6061
 21
159.163
  0
LINE
  8
0
 10
15.6061
 20
159.163
 11
15.5544
 21
159.189
  0
LINE
  8
0
 10
15.5544
 20
159.189
 11
15.5043
 21
159.219
  0
LINE
  8
0
 10
15.5043
 20
159.219
 11
15.4563
 21
159.252
  0
LINE
  8
0
 10
15.4563
 20
159.252
 11
15.4104
 21
159.287
  0
LINE
  8
0
 10
15.4104
 20
159.287
 11
15.3668
 21
159.326
  0
LINE
  8
0
 10
15.3668
 20
159.326
 11
15.3257
 21
159.367
  0
LINE
  8
0
 10
15.3257
 20
159.367
 11
15.2873
 21
159.41
  0
LINE
  8
0
 10
15.2873
 20
159.41
 11
15.2516
 21
159.456
  0
LINE
  8
0
 10
15.2516
 20
159.456
 11
15.219
 21
159.504
  0
LINE
  8
0
 10
15.219
 20
159.504
 11
15.1894
 21
159.554
  0
LINE
  8
0
 10
15.1894
 20
159.554
 11
15.163
 21
159.606
  0
LINE
  8
0
 10
15.163
 20
159.606
 11
15.14
 21
159.659
  0
LINE
  8
0
 10
15.14
 20
159.659
 11
15.1203
 21
159.714
  0
LINE
  8
0
 10
15.1203
 20
159.714
 11
15.104
 21
159.77
  0
LINE
  8
0
 10
15.104
 20
159.77
 11
15.0914
 21
159.827
  0
LINE
  8
0
 10
15.0914
 20
159.827
 11
15.0823
 21
159.884
  0
LINE
  8
0
 10
15.0823
 20
159.884
 11
15.0768
 21
159.942
  0
LINE
  8
0
 10
15.0768
 20
159.942
 11
15.075
 21
160
  0
LINE
  8
0
 10
15.075
 20
160
 11
15.0768
 21
160.058
  0
LINE
  8
0
 10
15.0768
 20
160.058
 11
15.0823
 21
160.116
  0
LINE
  8
0
 10
15.0823
 20
160.116
 11
15.0914
 21
160.173
  0
LINE
  8
0
 10
15.0914
 20
160.173
 11
15.104
 21
160.23
  0
LINE
  8
0
 10
15.104
 20
160.23
 11
15.1203
 21
160.286
  0
LINE
  8
0
 10
15.1203
 20
160.286
 11
15.14
 21
160.341
  0
LINE
  8
0
 10
15.14
 20
160.341
 11
15.163
 21
160.394
  0
LINE
  8
0
 10
15.163
 20
160.394
 11
15.1894
 21
160.446
  0
LINE
  8
0
 10
15.1894
 20
160.446
 11
15.219
 21
160.496
  0
LINE
  8
0
 10
15.219
 20
160.496
 11
15.2516
 21
160.544
  0
LINE
  8
0
 10
15.2516
 20
160.544
 11
15.2873
 21
160.59
  0
LINE
  8
0
 10
15.2873
 20
160.59
 11
15.3257
 21
160.633
  0
LINE
  8
0
 10
15.3257
 20
160.633
 11
15.3668
 21
160.674
  0
LINE
  8
0
 10
15.3668
 20
160.674
 11
15.4104
 21
160.713
  0
LINE
  8
0
 10
15.4104
 20
160.713
 11
15.4563
 21
160.748
  0
LINE
  8
0
 10
15.4563
 20
160.748
 11
15.5043
 21
160.781
  0
LINE
  8
0
 10
15.5043
 20
160.781
 11
15.5544
 21
160.811
  0
LINE
  8
0
 10
15.5544
 20
160.811
 11
15.6061
 21
160.837
  0
LINE
  8
0
 10
15.6061
 20
160.837
 11
15.6595
 21
160.86
  0
LINE
  8
0
 10
15.6595
 20
160.86
 11
15.7142
 21
160.88
  0
LINE
  8
0
 10
15.7142
 20
160.88
 11
15.77
 21
160.896
  0
LINE
  8
0
 10
15.77
 20
160.896
 11
15.8267
 21
160.909
  0
LINE
  8
0
 10
15.8267
 20
160.909
 11
15.8841
 21
160.918
  0
LINE
  8
0
 10
15.8841
 20
160.918
 11
15.9419
 21
160.923
  0
LINE
  8
0
 10
15.9419
 20
160.923
 11
16
 21
160.925
  0
LINE
  8
0
 10
16
 20
160.925
 11
16.0581
 21
160.923
  0
LINE
  8
0
 10
16.0581
 20
160.923
 11
16.1159
 21
160.918
  0
LINE
  8
0
 10
16.1159
 20
160.918
 11
16.1733
 21
160.909
  0
LINE
  8
0
 10
16.1733
 20
160.909
 11
16.23
 21
160.896
  0
LINE
  8
0
 10
16.23
 20
160.896
 11
16.2858
 21
160.88
  0
LINE
  8
0
 10
16.2858
 20
160.88
 11
16.3405
 21
160.86
  0
LINE
  8
0
 10
16.3405
 20
160.86
 11
16.3938
 21
160.837
  0
LINE
  8
0
 10
16.3938
 20
160.837
 11
16.4456
 21
160.811
  0
LINE
  8
0
 10
16.4456
 20
160.811
 11
16.4956
 21
160.781
  0
LINE
  8
0
 10
16.4956
 20
160.781
 11
16.5437
 21
160.748
  0
LINE
  8
0
 10
16.5437
 20
160.748
 11
16.5896
 21
160.713
  0
LINE
  8
0
 10
16.5896
 20
160.713
 11
16.6332
 21
160.674
  0
LINE
  8
0
 10
16.6332
 20
160.674
 11
16.6743
 21
160.633
  0
LINE
  8
0
 10
16.6743
 20
160.633
 11
16.7127
 21
160.59
  0
LINE
  8
0
 10
16.7127
 20
160.59
 11
16.7483
 21
160.544
  0
LINE
  8
0
 10
16.7483
 20
160.544
 11
16.781
 21
160.496
  0
LINE
  8
0
 10
16.781
 20
160.496
 11
16.8106
 21
160.446
  0
LINE
  8
0
 10
16.8106
 20
160.446
 11
16.837
 21
160.394
  0
LINE
  8
0
 10
16.837
 20
160.394
 11
16.86
 21
160.341
  0
LINE
  8
0
 10
16.86
 20
160.341
 11
16.8797
 21
160.286
  0
LINE
  8
0
 10
16.8797
 20
160.286
 11
16.8959
 21
160.23
  0
LINE
  8
0
 10
16.8959
 20
160.23
 11
16.9086
 21
160.173
  0
LINE
  8
0
 10
16.9086
 20
160.173
 11
16.9177
 21
160.116
  0
LINE
  8
0
 10
16.9177
 20
160.116
 11
16.9232
 21
160.058
  0
LINE
  8
0
 10
16.9232
 20
160.058
 11
16.925
 21
160
  0
LINE
  8
0
 10
16.925
 20
160
 11
16.9232
 21
159.942
  0
LINE
  8
0
 10
16.9232
 20
159.942
 11
16.9177
 21
159.884
  0
LINE
  8
0
 10
16.9177
 20
159.884
 11
16.9086
 21
159.827
  0
LINE
  8
0
 10
16.9086
 20
159.827
 11
16.8959
 21
159.77
  0
LINE
  8
0
 10
16.8959
 20
159.77
 11
16.8797
 21
159.714
  0
LINE
  8
0
 10
16.8797
 20
159.714
 11
16.86
 21
159.659
  0
LINE
  8
0
 10
16.86
 20
159.659
 11
16.837
 21
159.606
  0
LINE
  8
0
 10
16.837
 20
159.606
 11
16.8106
 21
159.554
  0
LINE
  8
0
 10
16.8106
 20
159.554
 11
16.781
 21
159.504
  0
LINE
  8
0
 10
16.781
 20
159.504
 11
16.7483
 21
159.456
  0
LINE
  8
0
 10
16.7483
 20
159.456
 11
16.7127
 21
159.41
  0
LINE
  8
0
 10
16.7127
 20
159.41
 11
16.6743
 21
159.367
  0
LINE
  8
0
 10
16.6743
 20
159.367
 11
16.6332
 21
159.326
  0
LINE
  8
0
 10
16.6332
 20
159.326
 11
16.5896
 21
159.287
  0
LINE
  8
0
 10
16.5896
 20
159.287
 11
16.5437
 21
159.252
  0
LINE
  8
0
 10
16.5437
 20
159.252
 11
16.4956
 21
159.219
  0
LINE
  8
0
 10
16.4956
 20
159.219
 11
16.4456
 21
159.189
  0
LINE
  8
0
 10
16.4456
 20
159.189
 11
16.3938
 21
159.163
  0
LINE
  8
0
 10
16.3938
 20
159.163
 11
16.3405
 21
159.14
  0
LINE
  8
0
 10
16.3405
 20
159.14
 11
16.2858
 21
159.12
  0
LINE
  8
0
 10
16.2858
 20
159.12
 11
16.23
 21
159.104
  0
LINE
  8
0
 10
16.23
 20
159.104
 11
16.1733
 21
159.091
  0
LINE
  8
0
 10
16.1733
 20
159.091
 11
16.1159
 21
159.082
  0
LINE
  8
0
 10
16.1159
 20
159.082
 11
16.0581
 21
159.077
  0
LINE
  8
0
 10
16.0581
 20
159.077
 11
16
 21
159.075
  0
LINE
  8
0
 10
16
 20
159.075
 11
15.9419
 21
159.077
  0
LINE
  8
0
 10
15.9419
 20
129.077
 11
15.8841
 21
129.082
  0
LINE
  8
0
 10
15.8841
 20
129.082
 11
15.8267
 21
129.091
  0
LINE
  8
0
 10
15.8267
 20
129.091
 11
15.77
 21
129.104
  0
LINE
  8
0
 10
15.77
 20
129.104
 11
15.7142
 21
129.12
  0
LINE
  8
0
 10
15.7142
 20
129.12
 11
15.6595
 21
129.14
  0
LINE
  8
0
 10
15.6595
 20
129.14
 11
15.6061
 21
129.163
  0
LINE
  8
0
 10
15.6061
 20
129.163
 11
15.5544
 21
129.189
  0
LINE
  8
0
 10
15.5544
 20
129.189
 11
15.5043
 21
129.219
  0
LINE
  8
0
 10
15.5043
 20
129.219
 11
15.4563
 21
129.252
  0
LINE
  8
0
 10
15.4563
 20
129.252
 11
15.4104
 21
129.287
  0
LINE
  8
0
 10
15.4104
 20
129.287
 11
15.3668
 21
129.326
  0
LINE
  8
0
 10
15.3668
 20
129.326
 11
15.3257
 21
129.367
  0
LINE
  8
0
 10
15.3257
 20
129.367
 11
15.2873
 21
129.41
  0
LINE
  8
0
 10
15.2873
 20
129.41
 11
15.2516
 21
129.456
  0
LINE
  8
0
 10
15.2516
 20
129.456
 11
15.219
 21
129.504
  0
LINE
  8
0
 10
15.219
 20
129.504
 11
15.1894
 21
129.554
  0
LINE
  8
0
 10
15.1894
 20
129.554
 11
15.163
 21
129.606
  0
LINE
  8
0
 10
15.163
 20
129.606
 11
15.14
 21
129.659
  0
LINE
  8
0
 10
15.14
 20
129.659
 11
15.1203
 21
129.714
  0
LINE
  8
0
 10
15.1203
 20
129.714
 11
15.104
 21
129.77
  0
LINE
  8
0
 10
15.104
 20
129.77
 11
15.0914
 21
129.827
  0
LINE
  8
0
 10
15.0914
 20
129.827
 11
15.0823
 21
129.884
  0
LINE
  8
0
 10
15.0823
 20
129.884
 11
15.0768
 21
129.942
  0
LINE
  8
0
 10
15.0768
 20
129.942
 11
15.075
 21
130
  0
LINE
  8
0
 10
15.075
 20
130
 11
15.0768
 21
130.058
  0
LINE
  8
0
 10
15.0768
 20
130.058
 11
15.0823
 21
130.116
  0
LINE
  8
0
 10
15.0823
 20
130.116
 11
15.0914
 21
130.173
  0
LINE
  8
0
 10
15.0914
 20
130.173
 11
15.104
 21
130.23
  0
LINE
  8
0
 10
15.104
 20
130.23
 11
15.1203
 21
130.286
  0
LINE
  8
0
 10
15.1203
 20
130.286
 11
15.14
 21
130.341
  0
LINE
  8
0
 10
15.14
 20
130.341
 11
15.163
 21
130.394
  0
LINE
  8
0
 10
15.163
 20
130.394
 11
15.1894
 21
130.446
  0
LINE
  8
0
 10
15.1894
 20
130.446
 11
15.219
 21
130.496
  0
LINE
  8
0
 10
15.219
 20
130.496
 11
15.2516
 21
130.544
  0
LINE
  8
0
 10
15.2516
 20
130.544
 11
15.2873
 21
130.59
  0
LINE
  8
0
 10
15.2873
 20
130.59
 11
15.3257
 21
130.633
  0
LINE
  8
0
 10
15.3257
 20
130.633
 11
15.3668
 21
130.674
  0
LINE
  8
0
 10
15.3668
 20
130.674
 11
15.4104
 21
130.713
  0
LINE
  8
0
 10
15.4104
 20
130.713
 11
15.4563
 21
130.748
  0
LINE
  8
0
 10
15.4563
 20
130.748
 11
15.5043
 21
130.781
  0
LINE
  8
0
 10
15.5043
 20
130.781
 11
15.5544
 21
130.811
  0
LINE
  8
0
 10
15.5544
 20
130.811
 11
15.6061
 21
130.837
  0
LINE
  8
0
 10
15.6061
 20
130.837
 11
15.6595
 21
130.86
  0
LINE
  8
0
 10
15.6595
 20
130.86
 11
15.7142
 21
130.88
  0
LINE
  8
0
 10
15.7142
 20
130.88
 11
15.77
 21
130.896
  0
LINE
  8
0
 10
15.77
 20
130.896
 11
15.8267
 21
130.909
  0
LINE
  8
0
 10
15.8267
 20
130.909
 11
15.8841
 21
130.918
  0
LINE
  8
0
 10
15.8841
 20
130.918
 11
15.9419
 21
130.923
  0
LINE
  8
0
 10
15.9419
 20
130.923
 11
16
 21
130.925
  0
LINE
  8
0
 10
16
 20
130.925
 11
16.0581
 21
130.923
  0
LINE
  8
0
 10
16.0581
 20
130.923
 11
16.1159
 21
130.918
  0
LINE
  8
0
 10
16.1159
 20
130.918
 11
16.1733
 21
130.909
  0
LINE
  8
0
 10
16.1733
 20
130.909
 11
16.23
 21
130.896
  0
LINE
  8
0
 10
16.23
 20
130.896
 11
16.2858
 21
130.88
  0
LINE
  8
0
 10
16.2858
 20
130.88
 11
16.3405
 21
130.86
  0
LINE
  8
0
 10
16.3405
 20
130.86
 11
16.3938
 21
130.837
  0
LINE
  8
0
 10
16.3938
 20
130.837
 11
16.4456
 21
130.811
  0
LINE
  8
0
 10
16.4456
 20
130.811
 11
16.4956
 21
130.781
  0
LINE
  8
0
 10
16.4956
 20
130.781
 11
16.5437
 21
130.748
  0
LINE
  8
0
 10
16.5437
 20
130.748
 11
16.5896
 21
130.713
  0
LINE
  8
0
 10
16.5896
 20
130.713
 11
16.6332
 21
130.674
  0
LINE
  8
0
 10
16.6332
 20
130.674
 11
16.6743
 21
130.633
  0
LINE
  8
0
 10
16.6743
 20
130.633
 11
16.7127
 21
130.59
  0
LINE
  8
0
 10
16.7127
 20
130.59
 11
16.7483
 21
130.544
  0
LINE
  8
0
 10
16.7483
 20
130.544
 11
16.781
 21
130.496
  0
LINE
  8
0
 10
16.781
 20
130.496
 11
16.8106
 21
130.446
  0
LINE
  8
0
 10
16.8106
 20
130.446
 11
16.837
 21
130.394
  0
LINE
  8
0
 10
16.837
 20
130.394
 11
16.86
 21
130.341
  0
LINE
  8
0
 10
16.86
 20
130.341
 11
16.8797
 21
130.286
  0
LINE
  8
0
 10
16.8797
 20
130.286
 11
16.8959
 21
130.23
  0
LINE
  8
0
 10
16.8959
 20
130.23
 11
16.9086
 21
130.173
  0
LINE
  8
0
 10
16.9086
 20
130.173
 11
16.9177
 21
130.116
  0
LINE
  8
0
 10
16.9177
 20
130.116
 11
16.9232
 21
130.058
  0
LINE
  8
0
 10
16.9232
 20
130.058
 11
16.925
 21
130
  0
LINE
  8
0
 10
16.925
 20
130
 11
16.9232
 21
129.942
  0
LINE
  8
0
 10
16.9232
 20
129.942
 11
16.9177
 21
129.884
  0
LINE
  8
0
 10
16.9177
 20
129.884
 11
16.9086
 21
129.827
  0
LINE
  8
0
 10
16.9086
 20
129.827
 11
16.8959
 21
129.77
  0
LINE
  8
0
 10
16.8959
 20
129.77
 11
16.8797
 21
129.714
  0
LINE
  8
0
 10
16.8797
 20
129.714
 11
16.86
 21
129.659
  0
LINE
  8
0
 10
16.86
 20
129.659
 11
16.837
 21
129.606
  0
LINE
  8
0
 10
16.837
 20
129.606
 11
16.8106
 21
129.554
  0
LINE
  8
0
 10
16.8106
 20
129.554
 11
16.781
 21
129.504
  0
LINE
  8
0
 10
16.781
 20
129.504
 11
16.7483
 21
129.456
  0
LINE
  8
0
 10
16.7483
 20
129.456
 11
16.7127
 21
129.41
  0
LINE
  8
0
 10
16.7127
 20
129.41
 11
16.6743
 21
129.367
  0
LINE
  8
0
 10
16.6743
 20
129.367
 11
16.6332
 21
129.326
  0
LINE
  8
0
 10
16.6332
 20
129.326
 11
16.5896
 21
129.287
  0
LINE
  8
0
 10
16.5896
 20
129.287
 11
16.5437
 21
129.252
  0
LINE
  8
0
 10
16.5437
 20
129.252
 11
16.4956
 21
129.219
  0
LINE
  8
0
 10
16.4956
 20
129.219
 11
16.4456
 21
129.189
  0
LINE
  8
0
 10
16.4456
 20
129.189
 11
16.3938
 21
129.163
  0
LINE
  8
0
 10
16.3938
 20
129.163
 11
16.3405
 21
129.14
  0
LINE
  8
0
 10
16.3405
 20
129.14
 11
16.2858
 21
129.12
  0
LINE
  8
0
 10
16.2858
 20
129.12
 11
16.23
 21
129.104
  0
LINE
  8
0
 10
16.23
 20
129.104
 11
16.1733
 21
129.091
  0
LINE
  8
0
 10
16.1733
 20
129.091
 11
16.1159
 21
129.082
  0
LINE
  8
0
 10
16.1159
 20
129.082
 11
16.0581
 21
129.077
  0
LINE
  8
0
 10
16.0581
 20
129.077
 11
16
 21
129.075
  0
LINE
  8
0
 10
16
 20
129.075
 11
15.9419
 21
129.077
  0
LINE
  8
0
 10
15.9419
 20
99.0768
 11
15.8841
 21
99.0823
  0
LINE
  8
0
 10
15.8841
 20
99.0823
 11
15.8267
 21
99.0914
  0
LINE
  8
0
 10
15.8267
 20
99.0914
 11
15.77
 21
99.104
  0
LINE
  8
0
 10
15.77
 20
99.104
 11
15.7142
 21
99.1203
  0
LINE
  8
0
 10
15.7142
 20
99.1203
 11
15.6595
 21
99.14
  0
LINE
  8
0
 10
15.6595
 20
99.14
 11
15.6061
 21
99.163
  0
LINE
  8
0
 10
15.6061
 20
99.163
 11
15.5544
 21
99.1894
  0
LINE
  8
0
 10
15.5544
 20
99.1894
 11
15.5043
 21
99.219
  0
LINE
  8
0
 10
15.5043
 20
99.219
 11
15.4563
 21
99.2516
  0
LINE
  8
0
 10
15.4563
 20
99.2516
 11
15.4104
 21
99.2873
  0
LINE
  8
0
 10
15.4104
 20
99.2873
 11
15.3668
 21
99.3257
  0
LINE
  8
0
 10
15.3668
 20
99.3257
 11
15.3257
 21
99.3668
  0
LINE
  8
0
 10
15.3257
 20
99.3668
 11
15.2873
 21
99.4104
  0
LINE
  8
0
 10
15.2873
 20
99.4104
 11
15.2516
 21
99.4563
  0
LINE
  8
0
 10
15.2516
 20
99.4563
 11
15.219
 21
99.5043
  0
LINE
  8
0
 10
15.219
 20
99.5043
 11
15.1894
 21
99.5544
  0
LINE
  8
0
 10
15.1894
 20
99.5544
 11
15.163
 21
99.6061
  0
LINE
  8
0
 10
15.163
 20
99.6061
 11
15.14
 21
99.6595
  0
LINE
  8
0
 10
15.14
 20
99.6595
 11
15.1203
 21
99.7142
  0
LINE
  8
0
 10
15.1203
 20
99.7142
 11
15.104
 21
99.77
  0
LINE
  8
0
 10
15.104
 20
99.77
 11
15.0914
 21
99.8267
  0
LINE
  8
0
 10
15.0914
 20
99.8267
 11
15.0823
 21
99.8841
  0
LINE
  8
0
 10
15.0823
 20
99.8841
 11
15.0768
 21
99.9419
  0
LINE
  8
0
 10
15.0768
 20
99.9419
 11
15.075
 21
100
  0
LINE
  8
0
 10
15.075
 20
100
 11
15.0768
 21
100.058
  0
LINE
  8
0
 10
15.0768
 20
100.058
 11
15.0823
 21
100.116
  0
LINE
  8
0
 10
15.0823
 20
100.116
 11
15.0914
 21
100.173
  0
LINE
  8
0
 10
15.0914
 20
100.173
 11
15.104
 21
100.23
  0
LINE
  8
0
 10
15.104
 20
100.23
 11
15.1203
 21
100.286
  0
LINE
  8
0
 10
15.1203
 20
100.286
 11
15.14
 21
100.341
  0
LINE
  8
0
 10
15.14
 20
100.341
 11
15.163
 21
100.394
  0
LINE
  8
0
 10
15.163
 20
100.394
 11
15.1894
 21
100.446
  0
LINE
  8
0
 10
15.1894
 20
100.446
 11
15.219
 21
100.496
  0
LINE
  8
0
 10
15.219
 20
100.496
 11
15.2516
 21
100.544
  0
LINE
  8
0
 10
15.2516
 20
100.544
 11
15.2873
 21
100.59
  0
LINE
  8
0
 10
15.2873
 20
100.59
 11
15.3257
 21
100.633
  0
LINE
  8
0
 10
15.3257
 20
100.633
 11
15.3668
 21
100.674
  0
LINE
  8
0
 10
15.3668
 20
100.674
 11
15.4104
 21
100.713
  0
LINE
  8
0
 10
15.4104
 20
100.713
 11
15.4563
 21
100.748
  0
LINE
  8
0
 10
15.4563
 20
100.748
 11
15.5043
 21
100.781
  0
LINE
  8
0
 10
15.5043
 20
100.781
 11
15.5544
 21
100.811
  0
LINE
  8
0
 10
15.5544
 20
100.811
 11
15.6061
 21
100.837
  0
LINE
  8
0
 10
15.6061
 20
100.837
 11
15.6595
 21
100.86
  0
LINE
  8
0
 10
15.6595
 20
100.86
 11
15.7142
 21
100.88
  0
LINE
  8
0
 10
15.7142
 20
100.88
 11
15.77
 21
100.896
  0
LINE
  8
0
 10
15.77
 20
100.896
 11
15.8267
 21
100.909
  0
LINE
  8
0
 10
15.8267
 20
100.909
 11
15.8841
 21
100.918
  0
LINE
  8
0
 10
15.8841
 20
100.918
 11
15.9419
 21
100.923
  0
LINE
  8
0
 10
15.9419
 20
100.923
 11
16
 21
100.925
  0
LINE
  8
0
 10
16
 20
100.925
 11
16.0581
 21
100.923
  0
LINE
  8
0
 10
16.0581
 20
100.923
 11
16.1159
 21
100.918
  0
LINE
  8
0
 10
16.1159
 20
100.918
 11
16.1733
 21
100.909
  0
LINE
  8
0
 10
16.1733
 20
100.909
 11
16.23
 21
100.896
  0
LINE
  8
0
 10
16.23
 20
100.896
 11
16.2858
 21
100.88
  0
LINE
  8
0
 10
16.2858
 20
100.88
 11
16.3405
 21
100.86
  0
LINE
  8
0
 10
16.3405
 20
100.86
 11
16.3938
 21
100.837
  0
LINE
  8
0
 10
16.3938
 20
100.837
 11
16.4456
 21
100.811
  0
LINE
  8
0
 10
16.4456
 20
100.811
 11
16.4956
 21
100.781
  0
LINE
  8
0
 10
16.4956
 20
100.781
 11
16.5437
 21
100.748
  0
LINE
  8
0
 10
16.5437
 20
100.748
 11
16.5896
 21
100.713
  0
LINE
  8
0
 10
16.5896
 20
100.713
 11
16.6332
 21
100.674
  0
LINE
  8
0
 10
16.6332
 20
100.674
 11
16.6743
 21
100.633
  0
LINE
  8
0
 10
16.6743
 20
100.633
 11
16.7127
 21
100.59
  0
LINE
  8
0
 10
16.7127
 20
100.59
 11
16.7483
 21
100.544
  0
LINE
  8
0
 10
16.7483
 20
100.544
 11
16.781
 21
100.496
  0
LINE
  8
0
 10
16.781
 20
100.496
 11
16.8106
 21
100.446
  0
LINE
  8
0
 10
16.8106
 20
100.446
 11
16.837
 21
100.394
  0
LINE
  8
0
 10
16.837
 20
100.394
 11
16.86
 21
100.341
  0
LINE
  8
0
 10
16.86
 20
100.341
 11
16.8797
 21
100.286
  0
LINE
  8
0
 10
16.8797
 20
100.286
 11
16.8959
 21
100.23
  0
LINE
  8
0
 10
16.8959
 20
100.23
 11
16.9086
 21
100.173
  0
LINE
  8
0
 10
16.9086
 20
100.173
 11
16.9177
 21
100.116
  0
LINE
  8
0
 10
16.9177
 20
100.116
 11
16.9232
 21
100.058
  0
LINE
  8
0
 10
16.9232
 20
100.058
 11
16.925
 21
100
  0
LINE
  8
0
 10
16.925
 20
100
 11
16.9232
 21
99.9419
  0
LINE
  8
0
 10
16.9232
 20
99.9419
 11
16.9177
 21
99.8841
  0
LINE
  8
0
 10
16.9177
 20
99.8841
 11
16.9086
 21
99.8267
  0
LINE
  8
0
 10
16.9086
 20
99.8267
 11
16.8959
 21
99.77
  0
LINE
  8
0
 10
16.8959
 20
99.77
 11
16.8797
 21
99.7142
  0
LINE
  8
0
 10
16.8797
 20
99.7142
 11
16.86
 21
99.6595
  0
LINE
  8
0
 10
16.86
 20
99.6595
 11
16.837
 21
99.6061
  0
LINE
  8
0
 10
16.837
 20
99.6061
 11
16.8106
 21
99.5544
  0
LINE
  8
0
 10
16.8106
 20
99.5544
 11
16.781
 21
99.5043
  0
LINE
  8
0
 10
16.781
 20
99.5043
 11
16.7483
 21
99.4563
  0
LINE
  8
0
 10
16.7483
 20
99.4563
 11
16.7127
 21
99.4104
  0
LINE
  8
0
 10
16.7127
 20
99.4104
 11
16.6743
 21
99.3668
  0
LINE
  8
0
 10
16.6743
 20
99.3668
 11
16.6332
 21
99.3257
  0
LINE
  8
0
 10
16.6332
 20
99.3257
 11
16.5896
 21
99.2873
  0
LINE
  8
0
 10
16.5896
 20
99.2873
 11
16.5437
 21
99.2516
  0
LINE
  8
0
 10
16.5437
 20
99.2516
 11
16.4956
 21
99.219
  0
LINE
  8
0
 10
16.4956
 20
99.219
 11
16.4456
 21
99.1894
  0
LINE
  8
0
 10
16.4456
 20
99.1894
 11
16.3938
 21
99.163
  0
LINE
  8
0
 10
16.3938
 20
99.163
 11
16.3405
 21
99.14
  0
LINE
  8
0
 10
16.3405
 20
99.14
 11
16.2858
 21
99.1203
  0
LINE
  8
0
 10
16.2858
 20
99.1203
 11
16.23
 21
99.104
  0
LINE
  8
0
 10
16.23
 20
99.104
 11
16.1733
 21
99.0914
  0
LINE
  8
0
 10
16.1733
 20
99.0914
 11
16.1159
 21
99.0823
  0
LINE
  8
0
 10
16.1159
 20
99.0823
 11
16.0581
 21
99.0768
  0
LINE
  8
0
 10
16.0581
 20
99.0768
 11
16
 21
99.075
  0
LINE
  8
0
 10
16
 20
99.075
 11
15.9419
 21
99.0768
  0
LINE
  8
0
 10
15.9419
 20
69.0768
 11
15.8841
 21
69.0823
  0
LINE
  8
0
 10
15.8841
 20
69.0823
 11
15.8267
 21
69.0914
  0
LINE
  8
0
 10
15.8267
 20
69.0914
 11
15.77
 21
69.104
  0
LINE
  8
0
 10
15.77
 20
69.104
 11
15.7142
 21
69.1203
  0
LINE
  8
0
 10
15.7142
 20
69.1203
 11
15.6595
 21
69.14
  0
LINE
  8
0
 10
15.6595
 20
69.14
 11
15.6061
 21
69.163
  0
LINE
  8
0
 10
15.6061
 20
69.163
 11
15.5544
 21
69.1894
  0
LINE
  8
0
 10
15.5544
 20
69.1894
 11
15.5043
 21
69.219
  0
LINE
  8
0
 10
15.5043
 20
69.219
 11
15.4563
 21
69.2516
  0
LINE
  8
0
 10
15.4563
 20
69.2516
 11
15.4104
 21
69.2873
  0
LINE
  8
0
 10
15.4104
 20
69.2873
 11
15.3668
 21
69.3257
  0
LINE
  8
0
 10
15.3668
 20
69.3257
 11
15.3257
 21
69.3668
  0
LINE
  8
0
 10
15.3257
 20
69.3668
 11
15.2873
 21
69.4104
  0
LINE
  8
0
 10
15.2873
 20
69.4104
 11
15.2516
 21
69.4563
  0
LINE
  8
0
 10
15.2516
 20
69.4563
 11
15.219
 21
69.5043
  0
LINE
  8
0
 10
15.219
 20
69.5043
 11
15.1894
 21
69.5544
  0
LINE
  8
0
 10
15.1894
 20
69.5544
 11
15.163
 21
69.6061
  0
LINE
  8
0
 10
15.163
 20
69.6061
 11
15.14
 21
69.6595
  0
LINE
  8
0
 10
15.14
 20
69.6595
 11
15.1203
 21
69.7142
  0
LINE
  8
0
 10
15.1203
 20
69.7142
 11
15.104
 21
69.77
  0
LINE
  8
0
 10
15.104
 20
69.77
 11
15.0914
 21
69.8267
  0
LINE
  8
0
 10
15.0914
 20
69.8267
 11
15.0823
 21
69.8841
  0
LINE
  8
0
 10
15.0823
 20
69.8841
 11
15.0768
 21
69.9419
  0
LINE
  8
0
 10
15.0768
 20
69.9419
 11
15.075
 21
70
  0
LINE
  8
0
 10
15.075
 20
70
 11
15.0768
 21
70.0581
  0
LINE
  8
0
 10
15.0768
 20
70.0581
 11
15.0823
 21
70.1159
  0
LINE
  8
0
 10
15.0823
 20
70.1159
 11
15.0914
 21
70.1733
  0
LINE
  8
0
 10
15.0914
 20
70.1733
 11
15.104
 21
70.23
  0
LINE
  8
0
 10
15.104
 20
70.23
 11
15.1203
 21
70.2858
  0
LINE
  8
0
 10
15.1203
 20
70.2858
 11
15.14
 21
70.3405
  0
LINE
  8
0
 10
15.14
 20
70.3405
 11
15.163
 21
70.3938
  0
LINE
  8
0
 10
15.163
 20
70.3938
 11
15.1894
 21
70.4456
  0
LINE
  8
0
 10
15.1894
 20
70.4456
 11
15.219
 21
70.4956
  0
LINE
  8
0
 10
15.219
 20
70.4956
 11
15.2516
 21
70.5437
  0
LINE
  8
0
 10
15.2516
 20
70.5437
 11
15.2873
 21
70.5896
  0
LINE
  8
0
 10
15.2873
 20
70.5896
 11
15.3257
 21
70.6332
  0
LINE
  8
0
 10
15.3257
 20
70.6332
 11
15.3668
 21
70.6743
  0
LINE
  8
0
 10
15.3668
 20
70.6743
 11
15.4104
 21
70.7127
  0
LINE
  8
0
 10
15.4104
 20
70.7127
 11
15.4563
 21
70.7483
  0
LINE
  8
0
 10
15.4563
 20
70.7483
 11
15.5043
 21
70.781
  0
LINE
  8
0
 10
15.5043
 20
70.781
 11
15.5544
 21
70.8106
  0
LINE
  8
0
 10
15.5544
 20
70.8106
 11
15.6061
 21
70.837
  0
LINE
  8
0
 10
15.6061
 20
70.837
 11
15.6595
 21
70.86
  0
LINE
  8
0
 10
15.6595
 20
70.86
 11
15.7142
 21
70.8797
  0
LINE
  8
0
 10
15.7142
 20
70.8797
 11
15.77
 21
70.8959
  0
LINE
  8
0
 10
15.77
 20
70.8959
 11
15.8267
 21
70.9086
  0
LINE
  8
0
 10
15.8267
 20
70.9086
 11
15.8841
 21
70.9177
  0
LINE
  8
0
 10
15.8841
 20
70.9177
 11
15.9419
 21
70.9232
  0
LINE
  8
0
 10
15.9419
 20
70.9232
 11
16
 21
70.925
  0
LINE
  8
0
 10
16
 20
70.925
 11
16.0581
 21
70.9232
  0
LINE
  8
0
 10
16.0581
 20
70.9232
 11
16.1159
 21
70.9177
  0
LINE
  8
0
 10
16.1159
 20
70.9177
 11
16.1733
 21
70.9086
  0
LINE
  8
0
 10
16.1733
 20
70.9086
 11
16.23
 21
70.8959
  0
LINE
  8
0
 10
16.23
 20
70.8959
 11
16.2858
 21
70.8797
  0
LINE
  8
0
 10
16.2858
 20
70.8797
 11
16.3405
 21
70.86
  0
LINE
  8
0
 10
16.3405
 20
70.86
 11
16.3938
 21
70.837
  0
LINE
  8
0
 10
16.3938
 20
70.837
 11
16.4456
 21
70.8106
  0
LINE
  8
0
 10
16.4456
 20
70.8106
 11
16.4956
 21
70.781
  0
LINE
  8
0
 10
16.4956
 20
70.781
 11
16.5437
 21
70.7483
  0
LINE
  8
0
 10
16.5437
 20
70.7483
 11
16.5896
 21
70.7127
  0
LINE
  8
0
 10
16.5896
 20
70.7127
 11
16.6332
 21
70.6743
  0
LINE
  8
0
 10
16.6332
 20
70.6743
 11
16.6743
 21
70.6332
  0
LINE
  8
0
 10
16.6743
 20
70.6332
 11
16.7127
 21
70.5896
  0
LINE
  8
0
 10
16.7127
 20
70.5896
 11
16.7483
 21
70.5437
  0
LINE
  8
0
 10
16.7483
 20
70.5437
 11
16.781
 21
70.4956
  0
LINE
  8
0
 10
16.781
 20
70.4956
 11
16.8106
 21
70.4456
  0
LINE
  8
0
 10
16.8106
 20
70.4456
 11
16.837
 21
70.3938
  0
LINE
  8
0
 10
16.837
 20
70.3938
 11
16.86
 21
70.3405
  0
LINE
  8
0
 10
16.86
 20
70.3405
 11
16.8797
 21
70.2858
  0
LINE
  8
0
 10
16.8797
 20
70.2858
 11
16.8959
 21
70.23
  0
LINE
  8
0
 10
16.8959
 20
70.23
 11
16.9086
 21
70.1733
  0
LINE
  8
0
 10
16.9086
 20
70.1733
 11
16.9177
 21
70.1159
  0
LINE
  8
0
 10
16.9177
 20
70.1159
 11
16.9232
 21
70.0581
  0
LINE
  8
0
 10
16.9232
 20
70.0581
 11
16.925
 21
70
  0
LINE
  8
0
 10
16.925
 20
70
 11
16.9232
 21
69.9419
  0
LINE
  8
0
 10
16.9232
 20
69.9419
 11
16.9177
 21
69.8841
  0
LINE
  8
0
 10
16.9177
 20
69.8841
 11
16.9086
 21
69.8267
  0
LINE
  8
0
 10
16.9086
 20
69.8267
 11
16.8959
 21
69.77
  0
LINE
  8
0
 10
16.8959
 20
69.77
 11
16.8797
 21
69.7142
  0
LINE
  8
0
 10
16.8797
 20
69.7142
 11
16.86
 21
69.6595
  0
LINE
  8
0
 10
16.86
 20
69.6595
 11
16.837
 21
69.6061
  0
LINE
  8
0
 10
16.837
 20
69.6061
 11
16.8106
 21
69.5544
  0
LINE
  8
0
 10
16.8106
 20
69.5544
 11
16.781
 21
69.5043
  0
LINE
  8
0
 10
16.781
 20
69.5043
 11
16.7483
 21
69.4563
  0
LINE
  8
0
 10
16.7483
 20
69.4563
 11
16.7127
 21
69.4104
  0
LINE
  8
0
 10
16.7127
 20
69.4104
 11
16.6743
 21
69.3668
  0
LINE
  8
0
 10
16.6743
 20
69.3668
 11
16.6332
 21
69.3257
  0
LINE
  8
0
 10
16.6332
 20
69.3257
 11
16.5896
 21
69.2873
  0
LINE
  8
0
 10
16.5896
 20
69.2873
 11
16.5437
 21
69.2516
  0
LINE
  8
0
 10
16.5437
 20
69.2516
 11
16.4956
 21
69.219
  0
LINE
  8
0
 10
16.4956
 20
69.219
 11
16.4456
 21
69.1894
  0
LINE
  8
0
 10
16.4456
 20
69.1894
 11
16.3938
 21
69.163
  0
LINE
  8
0
 10
16.3938
 20
69.163
 11
16.3405
 21
69.14
  0
LINE
  8
0
 10
16.3405
 20
69.14
 11
16.2858
 21
69.1203
  0
LINE
  8
0
 10
16.2858
 20
69.1203
 11
16.23
 21
69.104
  0
LINE
  8
0
 10
16.23
 20
69.104
 11
16.1733
 21
69.0914
  0
LINE
  8
0
 10
16.1733
 20
69.0914
 11
16.1159
 21
69.0823
  0
LINE
  8
0
 10
16.1159
 20
69.0823
 11
16.0581
 21
69.0768
  0
LINE
  8
0
 10
16.0581
 20
69.0768
 11
16
 21
69.075
  0
LINE
  8
0
 10
16
 20
69.075
 11
15.9419
 21
69.0768
  0
LINE
  8
0
 10
15.9419
 20
39.0768
 11
15.8841
 21
39.0823
  0
LINE
  8
0
 10
15.8841
 20
39.0823
 11
15.8267
 21
39.0914
  0
LINE
  8
0
 10
15.8267
 20
39.0914
 11
15.77
 21
39.104
  0
LINE
  8
0
 10
15.77
 20
39.104
 11
15.7142
 21
39.1203
  0
LINE
  8
0
 10
15.7142
 20
39.1203
 11
15.6595
 21
39.14
  0
LINE
  8
0
 10
15.6595
 20
39.14
 11
15.6061
 21
39.163
  0
LINE
  8
0
 10
15.6061
 20
39.163
 11
15.5544
 21
39.1894
  0
LINE
  8
0
 10
15.5544
 20
39.1894
 11
15.5043
 21
39.219
  0
LINE
  8
0
 10
15.5043
 20
39.219
 11
15.4563
 21
39.2516
  0
LINE
  8
0
 10
15.4563
 20
39.2516
 11
15.4104
 21
39.2873
  0
LINE
  8
0
 10
15.4104
 20
39.2873
 11
15.3668
 21
39.3257
  0
LINE
  8
0
 10
15.3668
 20
39.3257
 11
15.3257
 21
39.3668
  0
LINE
  8
0
 10
15.3257
 20
39.3668
 11
15.2873
 21
39.4104
  0
LINE
  8
0
 10
15.2873
 20
39.4104
 11
15.2516
 21
39.4563
  0
LINE
  8
0
 10
15.2516
 20
39.4563
 11
15.219
 21
39.5043
  0
LINE
  8
0
 10
15.219
 20
39.5043
 11
15.1894
 21
39.5544
  0
LINE
  8
0
 10
15.1894
 20
39.5544
 11
15.163
 21
39.6061
  0
LINE
  8
0
 10
15.163
 20
39.6061
 11
15.14
 21
39.6595
  0
LINE
  8
0
 10
15.14
 20
39.6595
 11
15.1203
 21
39.7142
  0
LINE
  8
0
 10
15.1203
 20
39.7142
 11
15.104
 21
39.77
  0
LINE
  8
0
 10
15.104
 20
39.77
 11
15.0914
 21
39.8267
  0
LINE
  8
0
 10
15.0914
 20
39.8267
 11
15.0823
 21
39.8841
  0
LINE
  8
0
 10
15.0823
 20
39.8841
 11
15.0768
 21
39.9419
  0
LINE
  8
0
 10
15.0768
 20
39.9419
 11
15.075
 21
40
  0
LINE
  8
0
 10
15.075
 20
40
 11
15.0768
 21
40.0581
  0
LINE
  8
0
 10
15.0768
 20
40.0581
 11
15.0823
 21
40.1159
  0
LINE
  8
0
 10
15.0823
 20
40.1159
 11
15.0914
 21
40.1733
  0
LINE
  8
0
 10
15.0914
 20
40.1733
 11
15.104
 21
40.23
  0
LINE
  8
0
 10
15.104
 20
40.23
 11
15.1203
 21
40.2858
  0
LINE
  8
0
 10
15.1203
 20
40.2858
 11
15.14
 21
40.3405
  0
LINE
  8
0
 10
15.14
 20
40.3405
 11
15.163
 21
40.3938
  0
LINE
  8
0
 10
15.163
 20
40.3938
 11
15.1894
 21
40.4456
  0
LINE
  8
0
 10
15.1894
 20
40.4456
 11
15.219
 21
40.4956
  0
LINE
  8
0
 10
15.219
 20
40.4956
 11
15.2516
 21
40.5437
  0
LINE
  8
0
 10
15.2516
 20
40.5437
 11
15.2873
 21
40.5896
  0
LINE
  8
0
 10
15.2873
 20
40.5896
 11
15.3257
 21
40.6332
  0
LINE
  8
0
 10
15.3257
 20
40.6332
 11
15.3668
 21
40.6743
  0
LINE
  8
0
 10
15.3668
 20
40.6743
 11
15.4104
 21
40.7127
  0
LINE
  8
0
 10
15.4104
 20
40.7127
 11
15.4563
 21
40.7483
  0
LINE
  8
0
 10
15.4563
 20
40.7483
 11
15.5043
 21
40.781
  0
LINE
  8
0
 10
15.5043
 20
40.781
 11
15.5544
 21
40.8106
  0
LINE
  8
0
 10
15.5544
 20
40.8106
 11
15.6061
 21
40.837
  0
LINE
  8
0
 10
15.6061
 20
40.837
 11
15.6595
 21
40.86
  0
LINE
  8
0
 10
15.6595
 20
40.86
 11
15.7142
 21
40.8797
  0
LINE
  8
0
 10
15.7142
 20
40.8797
 11
15.77
 21
40.8959
  0
LINE
  8
0
 10
15.77
 20
40.8959
 11
15.8267
 21
40.9086
  0
LINE
  8
0
 10
15.8267
 20
40.9086
 11
15.8841
 21
40.9177
  0
LINE
  8
0
 10
15.8841
 20
40.9177
 11
15.9419
 21
40.9232
  0
LINE
  8
0
 10
15.9419
 20
40.9232
 11
16
 21
40.925
  0
LINE
  8
0
 10
16
 20
40.925
 11
16.0581
 21
40.9232
  0
LINE
  8
0
 10
16.0581
 20
40.9232
 11
16.1159
 21
40.9177
  0
LINE
  8
0
 10
16.1159
 20
40.9177
 11
16.1733
 21
40.9086
  0
LINE
  8
0
 10
16.1733
 20
40.9086
 11
16.23
 21
40.8959
  0
LINE
  8
0
 10
16.23
 20
40.8959
 11
16.2858
 21
40.8797
  0
LINE
  8
0
 10
16.2858
 20
40.8797
 11
16.3405
 21
40.86
  0
LINE
  8
0
 10
16.3405
 20
40.86
 11
16.3938
 21
40.837
  0
LINE
  8
0
 10
16.3938
 20
40.837
 11
16.4456
 21
40.8106
  0
LINE
  8
0
 10
16.4456
 20
40.8106
 11
16.4956
 21
40.781
  0
LINE
  8
0
 10
16.4956
 20
40.781
 11
16.5437
 21
40.7483
  0
LINE
  8
0
 10
16.5437
 20
40.7483
 11
16.5896
 21
40.7127
  0
LINE
  8
0
 10
16.5896
 20
40.7127
 11
16.6332
 21
40.6743
  0
LINE
  8
0
 10
16.6332
 20
40.6743
 11
16.6743
 21
40.6332
  0
LINE
  8
0
 10
16.6743
 20
40.6332
 11
16.7127
 21
40.5896
  0
LINE
  8
0
 10
16.7127
 20
40.5896
 11
16.7483
 21
40.5437
  0
LINE
  8
0
 10
16.7483
 20
40.5437
 11
16.781
 21
40.4956
  0
LINE
  8
0
 10
16.781
 20
40.4956
 11
16.8106
 21
40.4456
  0
LINE
  8
0
 10
16.8106
 20
40.4456
 11
16.837
 21
40.3938
  0
LINE
  8
0
 10
16.837
 20
40.3938
 11
16.86
 21
40.3405
  0
LINE
  8
0
 10
16.86
 20
40.3405
 11
16.8797
 21
40.2858
  0
LINE
  8
0
 10
16.8797
 20
40.2858
 11
16.8959
 21
40.23
  0
LINE
  8
0
 10
16.8959
 20
40.23
 11
16.9086
 21
40.1733
  0
LINE
  8
0
 10
16.9086
 20
40.1733
 11
16.9177
 21
40.1159
  0
LINE
  8
0
 10
16.9177
 20
40.1159
 11
16.9232
 21
40.0581
  0
LINE
  8
0
 10
16.9232
 20
40.0581
 11
16.925
 21
40
  0
LINE
  8
0
 10
16.925
 20
40
 11
16.9232
 21
39.9419
  0
LINE
  8
0
 10
16.9232
 20
39.9419
 11
16.9177
 21
39.8841
  0
LINE
  8
0
 10
16.9177
 20
39.8841
 11
16.9086
 21
39.8267
  0
LINE
  8
0
 10
16.9086
 20
39.8267
 11
16.8959
 21
39.77
  0
LINE
  8
0
 10
16.8959
 20
39.77
 11
16.8797
 21
39.7142
  0
LINE
  8
0
 10
16.8797
 20
39.7142
 11
16.86
 21
39.6595
  0
LINE
  8
0
 10
16.86
 20
39.6595
 11
16.837
 21
39.6061
  0
LINE
  8
0
 10
16.837
 20
39.6061
 11
16.8106
 21
39.5544
  0
LINE
  8
0
 10
16.8106
 20
39.5544
 11
16.781
 21
39.5043
  0
LINE
  8
0
 10
16.781
 20
39.5043
 11
16.7483
 21
39.4563
  0
LINE
  8
0
 10
16.7483
 20
39.4563
 11
16.7127
 21
39.4104
  0
LINE
  8
0
 10
16.7127
 20
39.4104
 11
16.6743
 21
39.3668
  0
LINE
  8
0
 10
16.6743
 20
39.3668
 11
16.6332
 21
39.3257
  0
LINE
  8
0
 10
16.6332
 20
39.3257
 11
16.5896
 21
39.2873
  0
LINE
  8
0
 10
16.5896
 20
39.2873
 11
16.5437
 21
39.2516
  0
LINE
  8
0
 10
16.5437
 20
39.2516
 11
16.4956
 21
39.219
  0
LINE
  8
0
 10
16.4956
 20
39.219
 11
16.4456
 21
39.1894
  0
LINE
  8
0
 10
16.4456
 20
39.1894
 11
16.3938
 21
39.163
  0
LINE
  8
0
 10
16.3938
 20
39.163
 11
16.3405
 21
39.14
  0
LINE
  8
0
 10
16.3405
 20
39.14
 11
16.2858
 21
39.1203
  0
LINE
  8
0
 10
16.2858
 20
39.1203
 11
16.23
 21
39.104
  0
LINE
  8
0
 10
16.23
 20
39.104
 11
16.1733
 21
39.0914
  0
LINE
  8
0
 10
16.1733
 20
39.0914
 11
16.1159
 21
39.0823
  0
LINE
  8
0
 10
16.1159
 20
39.0823
 11
16.0581
 21
39.0768
  0
LINE
  8
0
 10
16.0581
 20
39.0768
 11
16
 21
39.075
  0
LINE
  8
0
 10
16
 20
39.075
 11
15.9419
 21
39.0768
  0
LINE
  8
0
 10
15.9419
 20
9.07681
 11
15.8841
 21
9.08229
  0
LINE
  8
0
 10
15.8841
 20
9.08229
 11
15.8267
 21
9.09137
  0
LINE
  8
0
 10
15.8267
 20
9.09137
 11
15.77
 21
9.10405
  0
LINE
  8
0
 10
15.77
 20
9.10405
 11
15.7142
 21
9.12027
  0
LINE
  8
0
 10
15.7142
 20
9.12027
 11
15.6595
 21
9.13995
  0
LINE
  8
0
 10
15.6595
 20
9.13995
 11
15.6061
 21
9.16302
  0
LINE
  8
0
 10
15.6061
 20
9.16302
 11
15.5544
 21
9.18941
  0
LINE
  8
0
 10
15.5544
 20
9.18941
 11
15.5043
 21
9.21899
  0
LINE
  8
0
 10
15.5043
 20
9.21899
 11
15.4563
 21
9.25165
  0
LINE
  8
0
 10
15.4563
 20
9.25165
 11
15.4104
 21
9.28726
  0
LINE
  8
0
 10
15.4104
 20
9.28726
 11
15.3668
 21
9.3257
  0
LINE
  8
0
 10
15.3668
 20
9.3257
 11
15.3257
 21
9.36679
  0
LINE
  8
0
 10
15.3257
 20
9.36679
 11
15.2873
 21
9.41037
  0
LINE
  8
0
 10
15.2873
 20
9.41037
 11
15.2516
 21
9.45628
  0
LINE
  8
0
 10
15.2516
 20
9.45628
 11
15.219
 21
9.50435
  0
LINE
  8
0
 10
15.219
 20
9.50435
 11
15.1894
 21
9.55437
  0
LINE
  8
0
 10
15.1894
 20
9.55437
 11
15.163
 21
9.60614
  0
LINE
  8
0
 10
15.163
 20
9.60614
 11
15.14
 21
9.65947
  0
LINE
  8
0
 10
15.14
 20
9.65947
 11
15.1203
 21
9.71416
  0
LINE
  8
0
 10
15.1203
 20
9.71416
 11
15.104
 21
9.76996
  0
LINE
  8
0
 10
15.104
 20
9.76996
 11
15.0914
 21
9.82666
  0
LINE
  8
0
 10
15.0914
 20
9.82666
 11
15.0823
 21
9.88406
  0
LINE
  8
0
 10
15.0823
 20
9.88406
 11
15.0768
 21
9.94191
  0
LINE
  8
0
 10
15.0768
 20
9.94191
 11
15.075
 21
10
  0
LINE
  8
0
 10
15.075
 20
10
 11
15.0768
 21
10.0581
  0
LINE
  8
0
 10
15.0768
 20
10.0581
 11
15.0823
 21
10.1159
  0
LINE
  8
0
 10
15.0823
 20
10.1159
 11
15.0914
 21
10.1733
  0
LINE
  8
0
 10
15.0914
 20
10.1733
 11
15.104
 21
10.23
  0
LINE
  8
0
 10
15.104
 20
10.23
 11
15.1203
 21
10.2858
  0
LINE
  8
0
 10
15.1203
 20
10.2858
 11
15.14
 21
10.3405
  0
LINE
  8
0
 10
15.14
 20
10.3405
 11
15.163
 21
10.3938
  0
LINE
  8
0
 10
15.163
 20
10.3938
 11
15.1894
 21
10.4456
  0
LINE
  8
0
 10
15.1894
 20
10.4456
 11
15.219
 21
10.4956
  0
LINE
  8
0
 10
15.219
 20
10.4956
 11
15.2516
 21
10.5437
  0
LINE
  8
0
 10
15.2516
 20
10.5437
 11
15.2873
 21
10.5896
  0
LINE
  8
0
 10
15.2873
 20
10.5896
 11
15.3257
 21
10.6332
  0
LINE
  8
0
 10
15.3257
 20
10.6332
 11
15.3668
 21
10.6743
  0
LINE
  8
0
 10
15.3668
 20
10.6743
 11
15.4104
 21
10.7127
  0
LINE
  8
0
 10
15.4104
 20
10.7127
 11
15.4563
 21
10.7483
  0
LINE
  8
0
 10
15.4563
 20
10.7483
 11
15.5043
 21
10.781
  0
LINE
  8
0
 10
15.5043
 20
10.781
 11
15.5544
 21
10.8106
  0
LINE
  8
0
 10
15.5544
 20
10.8106
 11
15.6061
 21
10.837
  0
LINE
  8
0
 10
15.6061
 20
10.837
 11
15.6595
 21
10.86
  0
LINE
  8
0
 10
15.6595
 20
10.86
 11
15.7142
 21
10.8797
  0
LINE
  8
0
 10
15.7142
 20
10.8797
 11
15.77
 21
10.8959
  0
LINE
  8
0
 10
15.77
 20
10.8959
 11
15.8267
 21
10.9086
  0
LINE
  8
0
 10
15.8267
 20
10.9086
 11
15.8841
 21
10.9177
  0
LINE
  8
0
 10
15.8841
 20
10.9177
 11
15.9419
 21
10.9232
  0
LINE
  8
0
 10
15.9419
 20
10.9232
 11
16
 21
10.925
  0
LINE
  8
0
 10
16
 20
10.925
 11
16.0581
 21
10.9232
  0
LINE
  8
0
 10
16.0581
 20
10.9232
 11
16.1159
 21
10.9177
  0
LINE
  8
0
 10
16.1159
 20
10.9177
 11
16.1733
 21
10.9086
  0
LINE
  8
0
 10
16.1733
 20
10.9086
 11
16.23
 21
10.8959
  0
LINE
  8
0
 10
16.23
 20
10.8959
 11
16.2858
 21
10.8797
  0
LINE
  8
0
 10
16.2858
 20
10.8797
 11
16.3405
 21
10.86
  0
LINE
  8
0
 10
16.3405
 20
10.86
 11
16.3938
 21
10.837
  0
LINE
  8
0
 10
16.3938
 20
10.837
 11
16.4456
 21
10.8106
  0
LINE
  8
0
 10
16.4456
 20
10.8106
 11
16.4956
 21
10.781
  0
LINE
  8
0
 10
16.4956
 20
10.781
 11
16.5437
 21
10.7483
  0
LINE
  8
0
 10
16.5437
 20
10.7483
 11
16.5896
 21
10.7127
  0
LINE
  8
0
 10
16.5896
 20
10.7127
 11
16.6332
 21
10.6743
  0
LINE
  8
0
 10
16.6332
 20
10.6743
 11
16.6743
 21
10.6332
  0
LINE
  8
0
 10
16.6743
 20
10.6332
 11
16.7127
 21
10.5896
  0
LINE
  8
0
 10
16.7127
 20
10.5896
 11
16.7483
 21
10.5437
  0
LINE
  8
0
 10
16.7483
 20
10.5437
 11
16.781
 21
10.4956
  0
LINE
  8
0
 10
16.781
 20
10.4956
 11
16.8106
 21
10.4456
  0
LINE
  8
0
 10
16.8106
 20
10.4456
 11
16.837
 21
10.3938
  0
LINE
  8
0
 10
16.837
 20
10.3938
 11
16.86
 21
10.3405
  0
LINE
  8
0
 10
16.86
 20
10.3405
 11
16.8797
 21
10.2858
  0
LINE
  8
0
 10
16.8797
 20
10.2858
 11
16.8959
 21
10.23
  0
LINE
  8
0
 10
16.8959
 20
10.23
 11
16.9086
 21
10.1733
  0
LINE
  8
0
 10
16.9086
 20
10.1733
 11
16.9177
 21
10.1159
  0
LINE
  8
0
 10
16.9177
 20
10.1159
 11
16.9232
 21
10.0581
  0
LINE
  8
0
 10
16.9232
 20
10.0581
 11
16.925
 21
10
  0
LINE
  8
0
 10
16.925
 20
10
 11
16.9232
 21
9.94191
  0
LINE
  8
0
 10
16.9232
 20
9.94191
 11
16.9177
 21
9.88406
  0
LINE
  8
0
 10
16.9177
 20
9.88406
 11
16.9086
 21
9.82666
  0
LINE
  8
0
 10
16.9086
 20
9.82666
 11
16.8959
 21
9.76996
  0
LINE
  8
0
 10
16.8959
 20
9.76996
 11
16.8797
 21
9.71416
  0
LINE
  8
0
 10
16.8797
 20
9.71416
 11
16.86
 21
9.65947
  0
LINE
  8
0
 10
16.86
 20
9.65947
 11
16.837
 21
9.60614
  0
LINE
  8
0
 10
16.837
 20
9.60614
 11
16.8106
 21
9.55437
  0
LINE
  8
0
 10
16.8106
 20
9.55437
 11
16.781
 21
9.50435
  0
LINE
  8
0
 10
16.781
 20
9.50435
 11
16.7483
 21
9.45628
  0
LINE
  8
0
 10
16.7483
 20
9.45628
 11
16.7127
 21
9.41037
  0
LINE
  8
0
 10
16.7127
 20
9.41037
 11
16.6743
 21
9.36679
  0
LINE
  8
0
 10
16.6743
 20
9.36679
 11
16.6332
 21
9.3257
  0
LINE
  8
0
 10
16.6332
 20
9.3257
 11
16.5896
 21
9.28726
  0
LINE
  8
0
 10
16.5896
 20
9.28726
 11
16.5437
 21
9.25165
  0
LINE
  8
0
 10
16.5437
 20
9.25165
 11
16.4956
 21
9.21899
  0
LINE
  8
0
 10
16.4956
 20
9.21899
 11
16.4456
 21
9.18941
  0
LINE
  8
0
 10
16.4456
 20
9.18941
 11
16.3938
 21
9.16302
  0
LINE
  8
0
 10
16.3938
 20
9.16302
 11
16.3405
 21
9.13995
  0
LINE
  8
0
 10
16.3405
 20
9.13995
 11
16.2858
 21
9.12027
  0
LINE
  8
0
 10
16.2858
 20
9.12027
 11
16.23
 21
9.10405
  0
LINE
  8
0
 10
16.23
 20
9.10405
 11
16.1733
 21
9.09137
  0
LINE
  8
0
 10
16.1733
 20
9.09137
 11
16.1159
 21
9.08229
  0
LINE
  8
0
 10
16.1159
 20
9.08229
 11
16.0581
 21
9.07681
  0
LINE
  8
0
 10
16.0581
 20
9.07681
 11
16
 21
9.075
  0
LINE
  8
0
 10
16
 20
9.075
 11
15.9419
 21
9.07681
  0
LINE
  8
0
 10
10
 20
210
 11
0
 21
210
  0
LINE
  8
0
 10
0
 20
210
 11
0
 21
0
  0
LINE
  8
0
 10
0
 20
0
 11
10
 21
0
  0
LINE
  8
0
 10
10
 20
0
 11
10
 21
210
  0
LINE
  8
0
 10
4.94191
 20
189.077
 11
4.88406
 21
189.082
  0
LINE
  8
0
 10
4.88406
 20
189.082
 11
4.82666
 21
189.091
  0
LINE
  8
0
 10
4.82666
 20
189.091
 11
4.76996
 21
189.104
  0
LINE
  8
0
 10
4.76996
 20
189.104
 11
4.71416
 21
189.12
  0
LINE
  8
0
 10
4.71416
 20
189.12
 11
4.65947
 21
189.14
  0
LINE
  8
0
 10
4.65947
 20
189.14
 11
4.60614
 21
189.163
  0
LINE
  8
0
 10
4.60614
 20
189.163
 11
4.55437
 21
189.189
  0
LINE
  8
0
 10
4.55437
 20
189.189
 11
4.50435
 21
189.219
  0
LINE
  8
0
 10
4.50435
 20
189.219
 11
4.45628
 21
189.252
  0
LINE
  8
0
 10
4.45628
 20
189.252
 11
4.41037
 21
189.287
  0
LINE
  8
0
 10
4.41037
 20
189.287
 11
4.36679
 21
189.326
  0
LINE
  8
0
 10
4.36679
 20
189.326
 11
4.3257
 21
189.367
  0
LINE
  8
0
 10
4.3257
 20
189.367
 11
4.28726
 21
189.41
  0
LINE
  8
0
 10
4.28726
 20
189.41
 11
4.25165
 21
189.456
  0
LINE
  8
0
 10
4.25165
 20
189.456
 11
4.21899
 21
189.504
  0
LINE
  8
0
 10
4.21899
 20
189.504
 11
4.18941
 21
189.554
  0
LINE
  8
0
 10
4.18941
 20
189.554
 11
4.16302
 21
189.606
  0
LINE
  8
0
 10
4.16302
 20
189.606
 11
4.13995
 21
189.659
  0
LINE
  8
0
 10
4.13995
 20
189.659
 11
4.12027
 21
189.714
  0
LINE
  8
0
 10
4.12027
 20
189.714
 11
4.10405
 21
189.77
  0
LINE
  8
0
 10
4.10405
 20
189.77
 11
4.09137
 21
189.827
  0
LINE
  8
0
 10
4.09137
 20
189.827
 11
4.08229
 21
189.884
  0
LINE
  8
0
 10
4.08229
 20
189.884
 11
4.07681
 21
189.942
  0
LINE
  8
0
 10
4.07681
 20
189.942
 11
4.075
 21
190
  0
LINE
  8
0
 10
4.075
 20
190
 11
4.07681
 21
190.058
  0
LINE
  8
0
 10
4.07681
 20
190.058
 11
4.08229
 21
190.116
  0
LINE
  8
0
 10
4.08229
 20
190.116
 11
4.09137
 21
190.173
  0
LINE
  8
0
 10
4.09137
 20
190.173
 11
4.10405
 21
190.23
  0
LINE
  8
0
 10
4.10405
 20
190.23
 11
4.12027
 21
190.286
  0
LINE
  8
0
 10
4.12027
 20
190.286
 11
4.13995
 21
190.341
  0
LINE
  8
0
 10
4.13995
 20
190.341
 11
4.16302
 21
190.394
  0
LINE
  8
0
 10
4.16302
 20
190.394
 11
4.18941
 21
190.446
  0
LINE
  8
0
 10
4.18941
 20
190.446
 11
4.21899
 21
190.496
  0
LINE
  8
0
 10
4.21899
 20
190.496
 11
4.25165
 21
190.544
  0
LINE
  8
0
 10
4.25165
 20
190.544
 11
4.28726
 21
190.59
  0
LINE
  8
0
 10
4.28726
 20
190.59
 11
4.3257
 21
190.633
  0
LINE
  8
0
 10
4.3257
 20
190.633
 11
4.36679
 21
190.674
  0
LINE
  8
0
 10
4.36679
 20
190.674
 11
4.41037
 21
190.713
  0
LINE
  8
0
 10
4.41037
 20
190.713
 11
4.45628
 21
190.748
  0
LINE
  8
0
 10
4.45628
 20
190.748
 11
4.50435
 21
190.781
  0
LINE
  8
0
 10
4.50435
 20
190.781
 11
4.55437
 21
190.811
  0
LINE
  8
0
 10
4.55437
 20
190.811
 11
4.60614
 21
190.837
  0
LINE
  8
0
 10
4.60614
 20
190.837
 11
4.65947
 21
190.86
  0
LINE
  8
0
 10
4.65947
 20
190.86
 11
4.71416
 21
190.88
  0
LINE
  8
0
 10
4.71416
 20
190.88
 11
4.76996
 21
190.896
  0
LINE
  8
0
 10
4.76996
 20
190.896
 11
4.82666
 21
190.909
  0
LINE
  8
0
 10
4.82666
 20
190.909
 11
4.88406
 21
190.918
  0
LINE
  8
0
 10
4.88406
 20
190.918
 11
4.94191
 21
190.923
  0
LINE
  8
0
 10
4.94191
 20
190.923
 11
5
 21
190.925
  0
LINE
  8
0
 10
5
 20
190.925
 11
5.05807
 21
190.923
  0
LINE
  8
0
 10
5.05807
 20
190.923
 11
5.11592
 21
190.918
  0
LINE
  8
0
 10
5.11592
 20
190.918
 11
5.17332
 21
190.909
  0
LINE
  8
0
 10
5.17332
 20
190.909
 11
5.23003
 21
190.896
  0
LINE
  8
0
 10
5.23003
 20
190.896
 11
5.28583
 21
190.88
  0
LINE
  8
0
 10
5.28583
 20
190.88
 11
5.34052
 21
190.86
  0
LINE
  8
0
 10
5.34052
 20
190.86
 11
5.39384
 21
190.837
  0
LINE
  8
0
 10
5.39384
 20
190.837
 11
5.44562
 21
190.811
  0
LINE
  8
0
 10
5.44562
 20
190.811
 11
5.49564
 21
190.781
  0
LINE
  8
0
 10
5.49564
 20
190.781
 11
5.5437
 21
190.748
  0
LINE
  8
0
 10
5.5437
 20
190.748
 11
5.58961
 21
190.713
  0
LINE
  8
0
 10
5.58961
 20
190.713
 11
5.63319
 21
190.674
  0
LINE
  8
0
 10
5.63319
 20
190.674
 11
5.67429
 21
190.633
  0
LINE
  8
0
 10
5.67429
 20
190.633
 11
5.71272
 21
190.59
  0
LINE
  8
0
 10
5.71272
 20
190.59
 11
5.74834
 21
190.544
  0
LINE
  8
0
 10
5.74834
 20
190.544
 11
5.78099
 21
190.496
  0
LINE
  8
0
 10
5.78099
 20
190.496
 11
5.81058
 21
190.446
  0
LINE
  8
0
 10
5.81058
 20
190.446
 11
5.83696
 21
190.394
  0
LINE
  8
0
 10
5.83696
 20
190.394
 11
5.86003
 21
190.341
  0
LINE
  8
0
 10
5.86003
 20
190.341
 11
5.87971
 21
190.286
  0
LINE
  8
0
 10
5.87971
 20
190.286
 11
5.89594
 21
190.23
  0
LINE
  8
0
 10
5.89594
 20
190.23
 11
5.90862
 21
190.173
  0
LINE
  8
0
 10
5.90862
 20
190.173
 11
5.91769
 21
190.116
  0
LINE
  8
0
 10
5.91769
 20
190.116
 11
5.92317
 21
190.058
  0
LINE
  8
0
 10
5.92317
 20
190.058
 11
5.92499
 21
190
  0
LINE
  8
0
 10
5.92499
 20
190
 11
5.92317
 21
189.942
  0
LINE
  8
0
 10
5.92317
 20
189.942
 11
5.91769
 21
189.884
  0
LINE
  8
0
 10
5.91769
 20
189.884
 11
5.90862
 21
189.827
  0
LINE
  8
0
 10
5.90862
 20
189.827
 11
5.89594
 21
189.77
  0
LINE
  8
0
 10
5.89594
 20
189.77
 11
5.87971
 21
189.714
  0
LINE
  8
0
 10
5.87971
 20
189.714
 11
5.86003
 21
189.659
  0
LINE
  8
0
 10
5.86003
 20
189.659
 11
5.83696
 21
189.606
  0
LINE
  8
0
 10
5.83696
 20
189.606
 11
5.81058
 21
189.554
  0
LINE
  8
0
 10
5.81058
 20
189.554
 11
5.78099
 21
189.504
  0
LINE
  8
0
 10
5.78099
 20
189.504
 11
5.74834
 21
189.456
  0
LINE
  8
0
 10
5.74834
 20
189.456
 11
5.71272
 21
189.41
  0
LINE
  8
0
 10
5.71272
 20
189.41
 11
5.67429
 21
189.367
  0
LINE
  8
0
 10
5.67429
 20
189.367
 11
5.63319
 21
189.326
  0
LINE
  8
0
 10
5.63319
 20
189.326
 11
5.58961
 21
189.287
  0
LINE
  8
0
 10
5.58961
 20
189.287
 11
5.5437
 21
189.252
  0
LINE
  8
0
 10
5.5437
 20
189.252
 11
5.49564
 21
189.219
  0
LINE
  8
0
 10
5.49564
 20
189.219
 11
5.44562
 21
189.189
  0
LINE
  8
0
 10
5.44562
 20
189.189
 11
5.39384
 21
189.163
  0
LINE
  8
0
 10
5.39384
 20
189.163
 11
5.34052
 21
189.14
  0
LINE
  8
0
 10
5.34052
 20
189.14
 11
5.28583
 21
189.12
  0
LINE
  8
0
 10
5.28583
 20
189.12
 11
5.23003
 21
189.104
  0
LINE
  8
0
 10
5.23003
 20
189.104
 11
5.17332
 21
189.091
  0
LINE
  8
0
 10
5.17332
 20
189.091
 11
5.11592
 21
189.082
  0
LINE
  8
0
 10
5.11592
 20
189.082
 11
5.05807
 21
189.077
  0
LINE
  8
0
 10
5.05807
 20
189.077
 11
5
 21
189.075
  0
LINE
  8
0
 10
5
 20
189.075
 11
4.94191
 21
189.077
  0
LINE
  8
0
 10
4.94191
 20
159.077
 11
4.88406
 21
159.082
  0
LINE
  8
0
 10
4.88406
 20
159.082
 11
4.82666
 21
159.091
  0
LINE
  8
0
 10
4.82666
 20
159.091
 11
4.76996
 21
159.104
  0
LINE
  8
0
 10
4.76996
 20
159.104
 11
4.71416
 21
159.12
  0
LINE
  8
0
 10
4.71416
 20
159.12
 11
4.65947
 21
159.14
  0
LINE
  8
0
 10
4.65947
 20
159.14
 11
4.60614
 21
159.163
  0
LINE
  8
0
 10
4.60614
 20
159.163
 11
4.55437
 21
159.189
  0
LINE
  8
0
 10
4.55437
 20
159.189
 11
4.50435
 21
159.219
  0
LINE
  8
0
 10
4.50435
 20
159.219
 11
4.45628
 21
159.252
  0
LINE
  8
0
 10
4.45628
 20
159.252
 11
4.41037
 21
159.287
  0
LINE
  8
0
 10
4.41037
 20
159.287
 11
4.36679
 21
159.326
  0
LINE
  8
0
 10
4.36679
 20
159.326
 11
4.3257
 21
159.367
  0
LINE
  8
0
 10
4.3257
 20
159.367
 11
4.28726
 21
159.41
  0
LINE
  8
0
 10
4.28726
 20
159.41
 11
4.25165
 21
159.456
  0
LINE
  8
0
 10
4.25165
 20
159.456
 11
4.21899
 21
159.504
  0
LINE
  8
0
 10
4.21899
 20
159.504
 11
4.18941
 21
159.554
  0
LINE
  8
0
 10
4.18941
 20
159.554
 11
4.16302
 21
159.606
  0
LINE
  8
0
 10
4.16302
 20
159.606
 11
4.13995
 21
159.659
  0
LINE
  8
0
 10
4.13995
 20
159.659
 11
4.12027
 21
159.714
  0
LINE
  8
0
 10
4.12027
 20
159.714
 11
4.10405
 21
159.77
  0
LINE
  8
0
 10
4.10405
 20
159.77
 11
4.09137
 21
159.827
  0
LINE
  8
0
 10
4.09137
 20
159.827
 11
4.08229
 21
159.884
  0
LINE
  8
0
 10
4.08229
 20
159.884
 11
4.07681
 21
159.942
  0
LINE
  8
0
 10
4.07681
 20
159.942
 11
4.075
 21
160
  0
LINE
  8
0
 10
4.075
 20
160
 11
4.07681
 21
160.058
  0
LINE
  8
0
 10
4.07681
 20
160.058
 11
4.08229
 21
160.116
  0
LINE
  8
0
 10
4.08229
 20
160.116
 11
4.09137
 21
160.173
  0
LINE
  8
0
 10
4.09137
 20
160.173
 11
4.10405
 21
160.23
  0
LINE
  8
0
 10
4.10405
 20
160.23
 11
4.12027
 21
160.286
  0
LINE
  8
0
 10
4.12027
 20
160.286
 11
4.13995
 21
160.341
  0
LINE
  8
0
 10
4.13995
 20
160.341
 11
4.16302
 21
160.394
  0
LINE
  8
0
 10
4.16302
 20
160.394
 11
4.18941
 21
160.446
  0
LINE
  8
0
 10
4.18941
 20
160.446
 11
4.21899
 21
160.496
  0
LINE
  8
0
 10
4.21899
 20
160.496
 11
4.25165
 21
160.544
  0
LINE
  8
0
 10
4.25165
 20
160.544
 11
4.28726
 21
160.59
  0
LINE
  8
0
 10
4.28726
 20
160.59
 11
4.3257
 21
160.633
  0
LINE
  8
0
 10
4.3257
 20
160.633
 11
4.36679
 21
160.674
  0
LINE
  8
0
 10
4.36679
 20
160.674
 11
4.41037
 21
160.713
  0
LINE
  8
0
 10
4.41037
 20
160.713
 11
4.45628
 21
160.748
  0
LINE
  8
0
 10
4.45628
 20
160.748
 11
4.50435
 21
160.781
  0
LINE
  8
0
 10
4.50435
 20
160.781
 11
4.55437
 21
160.811
  0
LINE
  8
0
 10
4.55437
 20
160.811
 11
4.60614
 21
160.837
  0
LINE
  8
0
 10
4.60614
 20
160.837
 11
4.65947
 21
160.86
  0
LINE
  8
0
 10
4.65947
 20
160.86
 11
4.71416
 21
160.88
  0
LINE
  8
0
 10
4.71416
 20
160.88
 11
4.76996
 21
160.896
  0
LINE
  8
0
 10
4.76996
 20
160.896
 11
4.82666
 21
160.909
  0
LINE
  8
0
 10
4.82666
 20
160.909
 11
4.88406
 21
160.918
  0
LINE
  8
0
 10
4.88406
 20
160.918
 11
4.94191
 21
160.923
  0
LINE
  8
0
 10
4.94191
 20
160.923
 11
5
 21
160.925
  0
LINE
  8
0
 10
5
 20
160.925
 11
5.05807
 21
160.923
  0
LINE
  8
0
 10
5.05807
 20
160.923
 11
5.11592
 21
160.918
  0
LINE
  8
0
 10
5.11592
 20
160.918
 11
5.17332
 21
160.909
  0
LINE
  8
0
 10
5.17332
 20
160.909
 11
5.23003
 21
160.896
  0
LINE
  8
0
 10
5.23003
 20
160.896
 11
5.28583
 21
160.88
  0
LINE
  8
0
 10
5.28583
 20
160.88
 11
5.34052
 21
160.86
  0
LINE
  8
0
 10
5.34052
 20
160.86
 11
5.39384
 21
160.837
  0
LINE
  8
0
 10
5.39384
 20
160.837
 11
5.44562
 21
160.811
  0
LINE
  8
0
 10
5.44562
 20
160.811
 11
5.49564
 21
160.781
  0
LINE
  8
0
 10
5.49564
 20
160.781
 11
5.5437
 21
160.748
  0
LINE
  8
0
 10
5.5437
 20
160.748
 11
5.58961
 21
160.713
  0
LINE
  8
0
 10
5.58961
 20
160.713
 11
5.63319
 21
160.674
  0
LINE
  8
0
 10
5.63319
 20
160.674
 11
5.67429
 21
160.633
  0
LINE
  8
0
 10
5.67429
 20
160.633
 11
5.71272
 21
160.59
  0
LINE
  8
0
 10
5.71272
 20
160.59
 11
5.74834
 21
160.544
  0
LINE
  8
0
 10
5.74834
 20
160.544
 11
5.78099
 21
160.496
  0
LINE
  8
0
 10
5.78099
 20
160.496
 11
5.81058
 21
160.446
  0
LINE
  8
0
 10
5.81058
 20
160.446
 11
5.83696
 21
160.394
  0
LINE
  8
0
 10
5.83696
 20
160.394
 11
5.86003
 21
160.341
  0
LINE
  8
0
 10
5.86003
 20
160.341
 11
5.87971
 21
160.286
  0
LINE
  8
0
 10
5.87971
 20
160.286
 11
5.89594
 21
160.23
  0
LINE
  8
0
 10
5.89594
 20
160.23
 11
5.90862
 21
160.173
  0
LINE
  8
0
 10
5.90862
 20
160.173
 11
5.91769
 21
160.116
  0
LINE
  8
0
 10
5.91769
 20
160.116
 11
5.92317
 21
160.058
  0
LINE
  8
0
 10
5.92317
 20
160.058
 11
5.92499
 21
160
  0
LINE
  8
0
 10
5.92499
 20
160
 11
5.92317
 21
159.942
  0
LINE
  8
0
 10
5.92317
 20
159.942
 11
5.91769
 21
159.884
  0
LINE
  8
0
 10
5.91769
 20
159.884
 11
5.90862
 21
159.827
  0
LINE
  8
0
 10
5.90862
 20
159.827
 11
5.89594
 21
159.77
  0
LINE
  8
0
 10
5.89594
 20
159.77
 11
5.87971
 21
159.714
  0
LINE
  8
0
 10
5.87971
 20
159.714
 11
5.86003
 21
159.659
  0
LINE
  8
0
 10
5.86003
 20
159.659
 11
5.83696
 21
159.606
  0
LINE
  8
0
 10
5.83696
 20
159.606
 11
5.81058
 21
159.554
  0
LINE
  8
0
 10
5.81058
 20
159.554
 11
5.78099
 21
159.504
  0
LINE
  8
0
 10
5.78099
 20
159.504
 11
5.74834
 21
159.456
  0
LINE
  8
0
 10
5.74834
 20
159.456
 11
5.71272
 21
159.41
  0
LINE
  8
0
 10
5.71272
 20
159.41
 11
5.67429
 21
159.367
  0
LINE
  8
0
 10
5.67429
 20
159.367
 11
5.63319
 21
159.326
  0
LINE
  8
0
 10
5.63319
 20
159.326
 11
5.58961
 21
159.287
  0
LINE
  8
0
 10
5.58961
 20
159.287
 11
5.5437
 21
159.252
  0
LINE
  8
0
 10
5.5437
 20
159.252
 11
5.49564
 21
159.219
  0
LINE
  8
0
 10
5.49564
 20
159.219
 11
5.44562
 21
159.189
  0
LINE
  8
0
 10
5.44562
 20
159.189
 11
5.39384
 21
159.163
  0
LINE
  8
0
 10
5.39384
 20
159.163
 11
5.34052
 21
159.14
  0
LINE
  8
0
 10
5.34052
 20
159.14
 11
5.28583
 21
159.12
  0
LINE
  8
0
 10
5.28583
 20
159.12
 11
5.23003
 21
159.104
  0
LINE
  8
0
 10
5.23003
 20
159.104
 11
5.17332
 21
159.091
  0
LINE
  8
0
 10
5.17332
 20
159.091
 11
5.11592
 21
159.082
  0
LINE
  8
0
 10
5.11592
 20
159.082
 11
5.05807
 21
159.077
  0
LINE
  8
0
 10
5.05807
 20
159.077
 11
5
 21
159.075
  0
LINE
  8
0
 10
5
 20
159.075
 11
4.94191
 21
159.077
  0
LINE
  8
0
 10
4.94191
 20
129.077
 11
4.88406
 21
129.082
  0
LINE
  8
0
 10
4.88406
 20
129.082
 11
4.82666
 21
129.091
  0
LINE
  8
0
 10
4.82666
 20
129.091
 11
4.76996
 21
129.104
  0
LINE
  8
0
 10
4.76996
 20
129.104
 11
4.71416
 21
129.12
  0
LINE
  8
0
 10
4.71416
 20
129.12
 11
4.65947
 21
129.14
  0
LINE
  8
0
 10
4.65947
 20
129.14
 11
4.60614
 21
129.163
  0
LINE
  8
0
 10
4.60614
 20
129.163
 11
4.55437
 21
129.189
  0
LINE
  8
0
 10
4.55437
 20
129.189
 11
4.50435
 21
129.219
  0
LINE
  8
0
 10
4.50435
 20
129.219
 11
4.45628
 21
129.252
  0
LINE
  8
0
 10
4.45628
 20
129.252
 11
4.41037
 21
129.287
  0
LINE
  8
0
 10
4.41037
 20
129.287
 11
4.36679
 21
129.326
  0
LINE
  8
0
 10
4.36679
 20
129.326
 11
4.3257
 21
129.367
  0
LINE
  8
0
 10
4.3257
 20
129.367
 11
4.28726
 21
129.41
  0
LINE
  8
0
 10
4.28726
 20
129.41
 11
4.25165
 21
129.456
  0
LINE
  8
0
 10
4.25165
 20
129.456
 11
4.21899
 21
129.504
  0
LINE
  8
0
 10
4.21899
 20
129.504
 11
4.18941
 21
129.554
  0
LINE
  8
0
 10
4.18941
 20
129.554
 11
4.16302
 21
129.606
  0
LINE
  8
0
 10
4.16302
 20
129.606
 11
4.13995
 21
129.659
  0
LINE
  8
0
 10
4.13995
 20
129.659
 11
4.12027
 21
129.714
  0
LINE
  8
0
 10
4.12027
 20
129.714
 11
4.10405
 21
129.77
  0
LINE
  8
0
 10
4.10405
 20
129.77
 11
4.09137
 21
129.827
  0
LINE
  8
0
 10
4.09137
 20
129.827
 11
4.08229
 21
129.884
  0
LINE
  8
0
 10
4.08229
 20
129.884
 11
4.07681
 21
129.942
  0
LINE
  8
0
 10
4.07681
 20
129.942
 11
4.075
 21
130
  0
LINE
  8
0
 10
4.075
 20
130
 11
4.07681
 21
130.058
  0
LINE
  8
0
 10
4.07681
 20
130.058
 11
4.08229
 21
130.116
  0
LINE
  8
0
 10
4.08229
 20
130.116
 11
4.09137
 21
130.173
  0
LINE
  8
0
 10
4.09137
 20
130.173
 11
4.10405
 21
130.23
  0
LINE
  8
0
 10
4.10405
 20
130.23
 11
4.12027
 21
130.286
  0
LINE
  8
0
 10
4.12027
 20
130.286
 11
4.13995
 21
130.341
  0
LINE
  8
0
 10
4.13995
 20
130.341
 11
4.16302
 21
130.394
  0
LINE
  8
0
 10
4.16302
 20
130.394
 11
4.18941
 21
130.446
  0
LINE
  8
0
 10
4.18941
 20
130.446
 11
4.21899
 21
130.496
  0
LINE
  8
0
 10
4.21899
 20
130.496
 11
4.25165
 21
130.544
  0
LINE
  8
0
 10
4.25165
 20
130.544
 11
4.28726
 21
130.59
  0
LINE
  8
0
 10
4.28726
 20
130.59
 11
4.3257
 21
130.633
  0
LINE
  8
0
 10
4.3257
 20
130.633
 11
4.36679
 21
130.674
  0
LINE
  8
0
 10
4.36679
 20
130.674
 11
4.41037
 21
130.713
  0
LINE
  8
0
 10
4.41037
 20
130.713
 11
4.45628
 21
130.748
  0
LINE
  8
0
 10
4.45628
 20
130.748
 11
4.50435
 21
130.781
  0
LINE
  8
0
 10
4.50435
 20
130.781
 11
4.55437
 21
130.811
  0
LINE
  8
0
 10
4.55437
 20
130.811
 11
4.60614
 21
130.837
  0
LINE
  8
0
 10
4.60614
 20
130.837
 11
4.65947
 21
130.86
  0
LINE
  8
0
 10
4.65947
 20
130.86
 11
4.71416
 21
130.88
  0
LINE
  8
0
 10
4.71416
 20
130.88
 11
4.76996
 21
130.896
  0
LINE
  8
0
 10
4.76996
 20
130.896
 11
4.82666
 21
130.909
  0
LINE
  8
0
 10
4.82666
 20
130.909
 11
4.88406
 21
130.918
  0
LINE
  8
0
 10
4.88406
 20
130.918
 11
4.94191
 21
130.923
  0
LINE
  8
0
 10
4.94191
 20
130.923
 11
5
 21
130.925
  0
LINE
  8
0
 10
5
 20
130.925
 11
5.05807
 21
130.923
  0
LINE
  8
0
 10
5.05807
 20
130.923
 11
5.11592
 21
130.918
  0
LINE
  8
0
 10
5.11592
 20
130.918
 11
5.17332
 21
130.909
  0
LINE
  8
0
 10
5.17332
 20
130.909
 11
5.23003
 21
130.896
  0
LINE
  8
0
 10
5.23003
 20
130.896
 11
5.28583
 21
130.88
  0
LINE
  8
0
 10
5.28583
 20
130.88
 11
5.34052
 21
130.86
  0
LINE
  8
0
 10
5.34052
 20
130.86
 11
5.39384
 21
130.837
  0
LINE
  8
0
 10
5.39384
 20
130.837
 11
5.44562
 21
130.811
  0
LINE
  8
0
 10
5.44562
 20
130.811
 11
5.49564
 21
130.781
  0
LINE
  8
0
 10
5.49564
 20
130.781
 11
5.5437
 21
130.748
  0
LINE
  8
0
 10
5.5437
 20
130.748
 11
5.58961
 21
130.713
  0
LINE
  8
0
 10
5.58961
 20
130.713
 11
5.63319
 21
130.674
  0
LINE
  8
0
 10
5.63319
 20
130.674
 11
5.67429
 21
130.633
  0
LINE
  8
0
 10
5.67429
 20
130.633
 11
5.71272
 21
130.59
  0
LINE
  8
0
 10
5.71272
 20
130.59
 11
5.74834
 21
130.544
  0
LINE
  8
0
 10
5.74834
 20
130.544
 11
5.78099
 21
130.496
  0
LINE
  8
0
 10
5.78099
 20
130.496
 11
5.81058
 21
130.446
  0
LINE
  8
0
 10
5.81058
 20
130.446
 11
5.83696
 21
130.394
  0
LINE
  8
0
 10
5.83696
 20
130.394
 11
5.86003
 21
130.341
  0
LINE
  8
0
 10
5.86003
 20
130.341
 11
5.87971
 21
130.286
  0
LINE
  8
0
 10
5.87971
 20
130.286
 11
5.89594
 21
130.23
  0
LINE
  8
0
 10
5.89594
 20
130.23
 11
5.90862
 21
130.173
  0
LINE
  8
0
 10
5.90862
 20
130.173
 11
5.91769
 21
130.116
  0
LINE
  8
0
 10
5.91769
 20
130.116
 11
5.92317
 21
130.058
  0
LINE
  8
0
 10
5.92317
 20
130.058
 11
5.92499
 21
130
  0
LINE
  8
0
 10
5.92499
 20
130
 11
5.92317
 21
129.942
  0
LINE
  8
0
 10
5.92317
 20
129.942
 11
5.91769
 21
129.884
  0
LINE
  8
0
 10
5.91769
 20
129.884
 11
5.90862
 21
129.827
  0
LINE
  8
0
 10
5.90862
 20
129.827
 11
5.89594
 21
129.77
  0
LINE
  8
0
 10
5.89594
 20
129.77
 11
5.87971
 21
129.714
  0
LINE
  8
0
 10
5.87971
 20
129.714
 11
5.86003
 21
129.659
  0
LINE
  8
0
 10
5.86003
 20
129.659
 11
5.83696
 21
129.606
  0
LINE
  8
0
 10
5.83696
 20
129.606
 11
5.81058
 21
129.554
  0
LINE
  8
0
 10
5.81058
 20
129.554
 11
5.78099
 21
129.504
  0
LINE
  8
0
 10
5.78099
 20
129.504
 11
5.74834
 21
129.456
  0
LINE
  8
0
 10
5.74834
 20
129.456
 11
5.71272
 21
129.41
  0
LINE
  8
0
 10
5.71272
 20
129.41
 11
5.67429
 21
129.367
  0
LINE
  8
0
 10
5.67429
 20
129.367
 11
5.63319
 21
129.326
  0
LINE
  8
0
 10
5.63319
 20
129.326
 11
5.58961
 21
129.287
  0
LINE
  8
0
 10
5.58961
 20
129.287
 11
5.5437
 21
129.252
  0
LINE
  8
0
 10
5.5437
 20
129.252
 11
5.49564
 21
129.219
  0
LINE
  8
0
 10
5.49564
 20
129.219
 11
5.44562
 21
129.189
  0
LINE
  8
0
 10
5.44562
 20
129.189
 11
5.39384
 21
129.163
  0
LINE
  8
0
 10
5.39384
 20
129.163
 11
5.34052
 21
129.14
  0
LINE
  8
0
 10
5.34052
 20
129.14
 11
5.28583
 21
129.12
  0
LINE
  8
0
 10
5.28583
 20
129.12
 11
5.23003
 21
129.104
  0
LINE
  8
0
 10
5.23003
 20
129.104
 11
5.17332
 21
129.091
  0
LINE
  8
0
 10
5.17332
 20
129.091
 11
5.11592
 21
129.082
  0
LINE
  8
0
 10
5.11592
 20
129.082
 11
5.05807
 21
129.077
  0
LINE
  8
0
 10
5.05807
 20
129.077
 11
5
 21
129.075
  0
LINE
  8
0
 10
5
 20
129.075
 11
4.94191
 21
129.077
  0
LINE
  8
0
 10
4.94191
 20
99.0768
 11
4.88406
 21
99.0823
  0
LINE
  8
0
 10
4.88406
 20
99.0823
 11
4.82666
 21
99.0914
  0
LINE
  8
0
 10
4.82666
 20
99.0914
 11
4.76996
 21
99.104
  0
LINE
  8
0
 10
4.76996
 20
99.104
 11
4.71416
 21
99.1203
  0
LINE
  8
0
 10
4.71416
 20
99.1203
 11
4.65947
 21
99.14
  0
LINE
  8
0
 10
4.65947
 20
99.14
 11
4.60614
 21
99.163
  0
LINE
  8
0
 10
4.60614
 20
99.163
 11
4.55437
 21
99.1894
  0
LINE
  8
0
 10
4.55437
 20
99.1894
 11
4.50435
 21
99.219
  0
LINE
  8
0
 10
4.50435
 20
99.219
 11
4.45628
 21
99.2516
  0
LINE
  8
0
 10
4.45628
 20
99.2516
 11
4.41037
 21
99.2873
  0
LINE
  8
0
 10
4.41037
 20
99.2873
 11
4.36679
 21
99.3257
  0
LINE
  8
0
 10
4.36679
 20
99.3257
 11
4.3257
 21
99.3668
  0
LINE
  8
0
 10
4.3257
 20
99.3668
 11
4.28726
 21
99.4104
  0
LINE
  8
0
 10
4.28726
 20
99.4104
 11
4.25165
 21
99.4563
  0
LINE
  8
0
 10
4.25165
 20
99.4563
 11
4.21899
 21
99.5043
  0
LINE
  8
0
 10
4.21899
 20
99.5043
 11
4.18941
 21
99.5544
  0
LINE
  8
0
 10
4.18941
 20
99.5544
 11
4.16302
 21
99.6061
  0
LINE
  8
0
 10
4.16302
 20
99.6061
 11
4.13995
 21
99.6595
  0
LINE
  8
0
 10
4.13995
 20
99.6595
 11
4.12027
 21
99.7142
  0
LINE
  8
0
 10
4.12027
 20
99.7142
 11
4.10405
 21
99.77
  0
LINE
  8
0
 10
4.10405
 20
99.77
 11
4.09137
 21
99.8267
  0
LINE
  8
0
 10
4.09137
 20
99.8267
 11
4.08229
 21
99.8841
  0
LINE
  8
0
 10
4.08229
 20
99.8841
 11
4.07681
 21
99.9419
  0
LINE
  8
0
 10
4.07681
 20
99.9419
 11
4.075
 21
100
  0
LINE
  8
0
 10
4.075
 20
100
 11
4.07681
 21
100.058
  0
LINE
  8
0
 10
4.07681
 20
100.058
 11
4.08229
 21
100.116
  0
LINE
  8
0
 10
4.08229
 20
100.116
 11
4.09137
 21
100.173
  0
LINE
  8
0
 10
4.09137
 20
100.173
 11
4.10405
 21
100.23
  0
LINE
  8
0
 10
4.10405
 20
100.23
 11
4.12027
 21
100.286
  0
LINE
  8
0
 10
4.12027
 20
100.286
 11
4.13995
 21
100.341
  0
LINE
  8
0
 10
4.13995
 20
100.341
 11
4.16302
 21
100.394
  0
LINE
  8
0
 10
4.16302
 20
100.394
 11
4.18941
 21
100.446
  0
LINE
  8
0
 10
4.18941
 20
100.446
 11
4.21899
 21
100.496
  0
LINE
  8
0
 10
4.21899
 20
100.496
 11
4.25165
 21
100.544
  0
LINE
  8
0
 10
4.25165
 20
100.544
 11
4.28726
 21
100.59
  0
LINE
  8
0
 10
4.28726
 20
100.59
 11
4.3257
 21
100.633
  0
LINE
  8
0
 10
4.3257
 20
100.633
 11
4.36679
 21
100.674
  0
LINE
  8
0
 10
4.36679
 20
100.674
 11
4.41037
 21
100.713
  0
LINE
  8
0
 10
4.41037
 20
100.713
 11
4.45628
 21
100.748
  0
LINE
  8
0
 10
4.45628
 20
100.748
 11
4.50435
 21
100.781
  0
LINE
  8
0
 10
4.50435
 20
100.781
 11
4.55437
 21
100.811
  0
LINE
  8
0
 10
4.55437
 20
100.811
 11
4.60614
 21
100.837
  0
LINE
  8
0
 10
4.60614
 20
100.837
 11
4.65947
 21
100.86
  0
LINE
  8
0
 10
4.65947
 20
100.86
 11
4.71416
 21
100.88
  0
LINE
  8
0
 10
4.71416
 20
100.88
 11
4.76996
 21
100.896
  0
LINE
  8
0
 10
4.76996
 20
100.896
 11
4.82666
 21
100.909
  0
LINE
  8
0
 10
4.82666
 20
100.909
 11
4.88406
 21
100.918
  0
LINE
  8
0
 10
4.88406
 20
100.918
 11
4.94191
 21
100.923
  0
LINE
  8
0
 10
4.94191
 20
100.923
 11
5
 21
100.925
  0
LINE
  8
0
 10
5
 20
100.925
 11
5.05807
 21
100.923
  0
LINE
  8
0
 10
5.05807
 20
100.923
 11
5.11592
 21
100.918
  0
LINE
  8
0
 10
5.11592
 20
100.918
 11
5.17332
 21
100.909
  0
LINE
  8
0
 10
5.17332
 20
100.909
 11
5.23003
 21
100.896
  0
LINE
  8
0
 10
5.23003
 20
100.896
 11
5.28583
 21
100.88
  0
LINE
  8
0
 10
5.28583
 20
100.88
 11
5.34052
 21
100.86
  0
LINE
  8
0
 10
5.34052
 20
100.86
 11
5.39384
 21
100.837
  0
LINE
  8
0
 10
5.39384
 20
100.837
 11
5.44562
 21
100.811
  0
LINE
  8
0
 10
5.44562
 20
100.811
 11
5.49564
 21
100.781
  0
LINE
  8
0
 10
5.49564
 20
100.781
 11
5.5437
 21
100.748
  0
LINE
  8
0
 10
5.5437
 20
100.748
 11
5.58961
 21
100.713
  0
LINE
  8
0
 10
5.58961
 20
100.713
 11
5.63319
 21
100.674
  0
LINE
  8
0
 10
5.63319
 20
100.674
 11
5.67429
 21
100.633
  0
LINE
  8
0
 10
5.67429
 20
100.633
 11
5.71272
 21
100.59
  0
LINE
  8
0
 10
5.71272
 20
100.59
 11
5.74834
 21
100.544
  0
LINE
  8
0
 10
5.74834
 20
100.544
 11
5.78099
 21
100.496
  0
LINE
  8
0
 10
5.78099
 20
100.496
 11
5.81058
 21
100.446
  0
LINE
  8
0
 10
5.81058
 20
100.446
 11
5.83696
 21
100.394
  0
LINE
  8
0
 10
5.83696
 20
100.394
 11
5.86003
 21
100.341
  0
LINE
  8
0
 10
5.86003
 20
100.341
 11
5.87971
 21
100.286
  0
LINE
  8
0
 10
5.87971
 20
100.286
 11
5.89594
 21
100.23
  0
LINE
  8
0
 10
5.89594
 20
100.23
 11
5.90862
 21
100.173
  0
LINE
  8
0
 10
5.90862
 20
100.173
 11
5.91769
 21
100.116
  0
LINE
  8
0
 10
5.91769
 20
100.116
 11
5.92317
 21
100.058
  0
LINE
  8
0
 10
5.92317
 20
100.058
 11
5.92499
 21
100
  0
LINE
  8
0
 10
5.92499
 20
100
 11
5.92317
 21
99.9419
  0
LINE
  8
0
 10
5.92317
 20
99.9419
 11
5.91769
 21
99.8841
  0
LINE
  8
0
 10
5.91769
 20
99.8841
 11
5.90862
 21
99.8267
  0
LINE
  8
0
 10
5.90862
 20
99.8267
 11
5.89594
 21
99.77
  0
LINE
  8
0
 10
5.89594
 20
99.77
 11
5.87971
 21
99.7142
  0
LINE
  8
0
 10
5.87971
 20
99.7142
 11
5.86003
 21
99.6595
  0
LINE
  8
0
 10
5.86003
 20
99.6595
 11
5.83696
 21
99.6061
  0
LINE
  8
0
 10
5.83696
 20
99.6061
 11
5.81058
 21
99.5544
  0
LINE
  8
0
 10
5.81058
 20
99.5544
 11
5.78099
 21
99.5043
  0
LINE
  8
0
 10
5.78099
 20
99.5043
 11
5.74834
 21
99.4563
  0
LINE
  8
0
 10
5.74834
 20
99.4563
 11
5.71272
 21
99.4104
  0
LINE
  8
0
 10
5.71272
 20
99.4104
 11
5.67429
 21
99.3668
  0
LINE
  8
0
 10
5.67429
 20
99.3668
 11
5.63319
 21
99.3257
  0
LINE
  8
0
 10
5.63319
 20
99.3257
 11
5.58961
 21
99.2873
  0
LINE
  8
0
 10
5.58961
 20
99.2873
 11
5.5437
 21
99.2516
  0
LINE
  8
0
 10
5.5437
 20
99.2516
 11
5.49564
 21
99.219
  0
LINE
  8
0
 10
5.49564
 20
99.219
 11
5.44562
 21
99.1894
  0
LINE
  8
0
 10
5.44562
 20
99.1894
 11
5.39384
 21
99.163
  0
LINE
  8
0
 10
5.39384
 20
99.163
 11
5.34052
 21
99.14
  0
LINE
  8
0
 10
5.34052
 20
99.14
 11
5.28583
 21
99.1203
  0
LINE
  8
0
 10
5.28583
 20
99.1203
 11
5.23003
 21
99.104
  0
LINE
  8
0
 10
5.23003
 20
99.104
 11
5.17332
 21
99.0914
  0
LINE
  8
0
 10
5.17332
 20
99.0914
 11
5.11592
 21
99.0823
  0
LINE
  8
0
 10
5.11592
 20
99.0823
 11
5.05807
 21
99.0768
  0
LINE
  8
0
 10
5.05807
 20
99.0768
 11
5
 21
99.075
  0
LINE
  8
0
 10
5
 20
99.075
 11
4.94191
 21
99.0768
  0
LINE
  8
0
 10
4.94191
 20
69.0768
 11
4.88406
 21
69.0823
  0
LINE
  8
0
 10
4.88406
 20
69.0823
 11
4.82666
 21
69.0914
  0
LINE
  8
0
 10
4.82666
 20
69.0914
 11
4.76996
 21
69.104
  0
LINE
  8
0
 10
4.76996
 20
69.104
 11
4.71416
 21
69.1203
  0
LINE
  8
0
 10
4.71416
 20
69.1203
 11
4.65947
 21
69.14
  0
LINE
  8
0
 10
4.65947
 20
69.14
 11
4.60614
 21
69.163
  0
LINE
  8
0
 10
4.60614
 20
69.163
 11
4.55437
 21
69.1894
  0
LINE
  8
0
 10
4.55437
 20
69.1894
 11
4.50435
 21
69.219
  0
LINE
  8
0
 10
4.50435
 20
69.219
 11
4.45628
 21
69.2516
  0
LINE
  8
0
 10
4.45628
 20
69.2516
 11
4.41037
 21
69.2873
  0
LINE
  8
0
 10
4.41037
 20
69.2873
 11
4.36679
 21
69.3257
  0
LINE
  8
0
 10
4.36679
 20
69.3257
 11
4.3257
 21
69.3668
  0
LINE
  8
0
 10
4.3257
 20
69.3668
 11
4.28726
 21
69.4104
  0
LINE
  8
0
 10
4.28726
 20
69.4104
 11
4.25165
 21
69.4563
  0
LINE
  8
0
 10
4.25165
 20
69.4563
 11
4.21899
 21
69.5043
  0
LINE
  8
0
 10
4.21899
 20
69.5043
 11
4.18941
 21
69.5544
  0
LINE
  8
0
 10
4.18941
 20
69.5544
 11
4.16302
 21
69.6061
  0
LINE
  8
0
 10
4.16302
 20
69.6061
 11
4.13995
 21
69.6595
  0
LINE
  8
0
 10
4.13995
 20
69.6595
 11
4.12027
 21
69.7142
  0
LINE
  8
0
 10
4.12027
 20
69.7142
 11
4.10405
 21
69.77
  0
LINE
  8
0
 10
4.10405
 20
69.77
 11
4.09137
 21
69.8267
  0
LINE
  8
0
 10
4.09137
 20
69.8267
 11
4.08229
 21
69.8841
  0
LINE
  8
0
 10
4.08229
 20
69.8841
 11
4.07681
 21
69.9419
  0
LINE
  8
0
 10
4.07681
 20
69.9419
 11
4.075
 21
70
  0
LINE
  8
0
 10
4.075
 20
70
 11
4.07681
 21
70.0581
  0
LINE
  8
0
 10
4.07681
 20
70.0581
 11
4.08229
 21
70.1159
  0
LINE
  8
0
 10
4.08229
 20
70.1159
 11
4.09137
 21
70.1733
  0
LINE
  8
0
 10
4.09137
 20
70.1733
 11
4.10405
 21
70.23
  0
LINE
  8
0
 10
4.10405
 20
70.23
 11
4.12027
 21
70.2858
  0
LINE
  8
0
 10
4.12027
 20
70.2858
 11
4.13995
 21
70.3405
  0
LINE
  8
0
 10
4.13995
 20
70.3405
 11
4.16302
 21
70.3938
  0
LINE
  8
0
 10
4.16302
 20
70.3938
 11
4.18941
 21
70.4456
  0
LINE
  8
0
 10
4.18941
 20
70.4456
 11
4.21899
 21
70.4956
  0
LINE
  8
0
 10
4.21899
 20
70.4956
 11
4.25165
 21
70.5437
  0
LINE
  8
0
 10
4.25165
 20
70.5437
 11
4.28726
 21
70.5896
  0
LINE
  8
0
 10
4.28726
 20
70.5896
 11
4.3257
 21
70.6332
  0
LINE
  8
0
 10
4.3257
 20
70.6332
 11
4.36679
 21
70.6743
  0
LINE
  8
0
 10
4.36679
 20
70.6743
 11
4.41037
 21
70.7127
  0
LINE
  8
0
 10
4.41037
 20
70.7127
 11
4.45628
 21
70.7483
  0
LINE
  8
0
 10
4.45628
 20
70.7483
 11
4.50435
 21
70.781
  0
LINE
  8
0
 10
4.50435
 20
70.781
 11
4.55437
 21
70.8106
  0
LINE
  8
0
 10
4.55437
 20
70.8106
 11
4.60614
 21
70.837
  0
LINE
  8
0
 10
4.60614
 20
70.837
 11
4.65947
 21
70.86
  0
LINE
  8
0
 10
4.65947
 20
70.86
 11
4.71416
 21
70.8797
  0
LINE
  8
0
 10
4.71416
 20
70.8797
 11
4.76996
 21
70.8959
  0
LINE
  8
0
 10
4.76996
 20
70.8959
 11
4.82666
 21
70.9086
  0
LINE
  8
0
 10
4.82666
 20
70.9086
 11
4.88406
 21
70.9177
  0
LINE
  8
0
 10
4.88406
 20
70.9177
 11
4.94191
 21
70.9232
  0
LINE
  8
0
 10
4.94191
 20
70.9232
 11
5
 21
70.925
  0
LINE
  8
0
 10
5
 20
70.925
 11
5.05807
 21
70.9232
  0
LINE
  8
0
 10
5.05807
 20
70.9232
 11
5.11592
 21
70.9177
  0
LINE
  8
0
 10
5.11592
 20
70.9177
 11
5.17332
 21
70.9086
  0
LINE
  8
0
 10
5.17332
 20
70.9086
 11
5.23003
 21
70.8959
  0
LINE
  8
0
 10
5.23003
 20
70.8959
 11
5.28583
 21
70.8797
  0
LINE
  8
0
 10
5.28583
 20
70.8797
 11
5.34052
 21
70.86
  0
LINE
  8
0
 10
5.34052
 20
70.86
 11
5.39384
 21
70.837
  0
LINE
  8
0
 10
5.39384
 20
70.837
 11
5.44562
 21
70.8106
  0
LINE
  8
0
 10
5.44562
 20
70.8106
 11
5.49564
 21
70.781
  0
LINE
  8
0
 10
5.49564
 20
70.781
 11
5.5437
 21
70.7483
  0
LINE
  8
0
 10
5.5437
 20
70.7483
 11
5.58961
 21
70.7127
  0
LINE
  8
0
 10
5.58961
 20
70.7127
 11
5.63319
 21
70.6743
  0
LINE
  8
0
 10
5.63319
 20
70.6743
 11
5.67429
 21
70.6332
  0
LINE
  8
0
 10
5.67429
 20
70.6332
 11
5.71272
 21
70.5896
  0
LINE
  8
0
 10
5.71272
 20
70.5896
 11
5.74834
 21
70.5437
  0
LINE
  8
0
 10
5.74834
 20
70.5437
 11
5.78099
 21
70.4956
  0
LINE
  8
0
 10
5.78099
 20
70.4956
 11
5.81058
 21
70.4456
  0
LINE
  8
0
 10
5.81058
 20
70.4456
 11
5.83696
 21
70.3938
  0
LINE
  8
0
 10
5.83696
 20
70.3938
 11
5.86003
 21
70.3405
  0
LINE
  8
0
 10
5.86003
 20
70.3405
 11
5.87971
 21
70.2858
  0
LINE
  8
0
 10
5.87971
 20
70.2858
 11
5.89594
 21
70.23
  0
LINE
  8
0
 10
5.89594
 20
70.23
 11
5.90862
 21
70.1733
  0
LINE
  8
0
 10
5.90862
 20
70.1733
 11
5.91769
 21
70.1159
  0
LINE
  8
0
 10
5.91769
 20
70.1159
 11
5.92317
 21
70.0581
  0
LINE
  8
0
 10
5.92317
 20
70.0581
 11
5.92499
 21
70
  0
LINE
  8
0
 10
5.92499
 20
70
 11
5.92317
 21
69.9419
  0
LINE
  8
0
 10
5.92317
 20
69.9419
 11
5.91769
 21
69.8841
  0
LINE
  8
0
 10
5.91769
 20
69.8841
 11
5.90862
 21
69.8267
  0
LINE
  8
0
 10
5.90862
 20
69.8267
 11
5.89594
 21
69.77
  0
LINE
  8
0
 10
5.89594
 20
69.77
 11
5.87971
 21
69.7142
  0
LINE
  8
0
 10
5.87971
 20
69.7142
 11
5.86003
 21
69.6595
  0
LINE
  8
0
 10
5.86003
 20
69.6595
 11
5.83696
 21
69.6061
  0
LINE
  8
0
 10
5.83696
 20
69.6061
 11
5.81058
 21
69.5544
  0
LINE
  8
0
 10
5.81058
 20
69.5544
 11
5.78099
 21
69.5043
  0
LINE
  8
0
 10
5.78099
 20
69.5043
 11
5.74834
 21
69.4563
  0
LINE
  8
0
 10
5.74834
 20
69.4563
 11
5.71272
 21
69.4104
  0
LINE
  8
0
 10
5.71272
 20
69.4104
 11
5.67429
 21
69.3668
  0
LINE
  8
0
 10
5.67429
 20
69.3668
 11
5.63319
 21
69.3257
  0
LINE
  8
0
 10
5.63319
 20
69.3257
 11
5.58961
 21
69.2873
  0
LINE
  8
0
 10
5.58961
 20
69.2873
 11
5.5437
 21
69.2516
  0
LINE
  8
0
 10
5.5437
 20
69.2516
 11
5.49564
 21
69.219
  0
LINE
  8
0
 10
5.49564
 20
69.219
 11
5.44562
 21
69.1894
  0
LINE
  8
0
 10
5.44562
 20
69.1894
 11
5.39384
 21
69.163
  0
LINE
  8
0
 10
5.39384
 20
69.163
 11
5.34052
 21
69.14
  0
LINE
  8
0
 10
5.34052
 20
69.14
 11
5.28583
 21
69.1203
  0
LINE
  8
0
 10
5.28583
 20
69.1203
 11
5.23003
 21
69.104
  0
LINE
  8
0
 10
5.23003
 20
69.104
 11
5.17332
 21
69.0914
  0
LINE
  8
0
 10
5.17332
 20
69.0914
 11
5.11592
 21
69.0823
  0
LINE
  8
0
 10
5.11592
 20
69.0823
 11
5.05807
 21
69.0768
  0
LINE
  8
0
 10
5.05807
 20
69.0768
 11
5
 21
69.075
  0
LINE
  8
0
 10
5
 20
69.075
 11
4.94191
 21
69.0768
  0
LINE
  8
0
 10
4.94191
 20
39.0768
 11
4.88406
 21
39.0823
  0
LINE
  8
0
 10
4.88406
 20
39.0823
 11
4.82666
 21
39.0914
  0
LINE
  8
0
 10
4.82666
 20
39.0914
 11
4.76996
 21
39.104
  0
LINE
  8
0
 10
4.76996
 20
39.104
 11
4.71416
 21
39.1203
  0
LINE
  8
0
 10
4.71416
 20
39.1203
 11
4.65947
 21
39.14
  0
LINE
  8
0
 10
4.65947
 20
39.14
 11
4.60614
 21
39.163
  0
LINE
  8
0
 10
4.60614
 20
39.163
 11
4.55437
 21
39.1894
  0
LINE
  8
0
 10
4.55437
 20
39.1894
 11
4.50435
 21
39.219
  0
LINE
  8
0
 10
4.50435
 20
39.219
 11
4.45628
 21
39.2516
  0
LINE
  8
0
 10
4.45628
 20
39.2516
 11
4.41037
 21
39.2873
  0
LINE
  8
0
 10
4.41037
 20
39.2873
 11
4.36679
 21
39.3257
  0
LINE
  8
0
 10
4.36679
 20
39.3257
 11
4.3257
 21
39.3668
  0
LINE
  8
0
 10
4.3257
 20
39.3668
 11
4.28726
 21
39.4104
  0
LINE
  8
0
 10
4.28726
 20
39.4104
 11
4.25165
 21
39.4563
  0
LINE
  8
0
 10
4.25165
 20
39.4563
 11
4.21899
 21
39.5043
  0
LINE
  8
0
 10
4.21899
 20
39.5043
 11
4.18941
 21
39.5544
  0
LINE
  8
0
 10
4.18941
 20
39.5544
 11
4.16302
 21
39.6061
  0
LINE
  8
0
 10
4.16302
 20
39.6061
 11
4.13995
 21
39.6595
  0
LINE
  8
0
 10
4.13995
 20
39.6595
 11
4.12027
 21
39.7142
  0
LINE
  8
0
 10
4.12027
 20
39.7142
 11
4.10405
 21
39.77
  0
LINE
  8
0
 10
4.10405
 20
39.77
 11
4.09137
 21
39.8267
  0
LINE
  8
0
 10
4.09137
 20
39.8267
 11
4.08229
 21
39.8841
  0
LINE
  8
0
 10
4.08229
 20
39.8841
 11
4.07681
 21
39.9419
  0
LINE
  8
0
 10
4.07681
 20
39.9419
 11
4.075
 21
40
  0
LINE
  8
0
 10
4.075
 20
40
 11
4.07681
 21
40.0581
  0
LINE
  8
0
 10
4.07681
 20
40.0581
 11
4.08229
 21
40.1159
  0
LINE
  8
0
 10
4.08229
 20
40.1159
 11
4.09137
 21
40.1733
  0
LINE
  8
0
 10
4.09137
 20
40.1733
 11
4.10405
 21
40.23
  0
LINE
  8
0
 10
4.10405
 20
40.23
 11
4.12027
 21
40.2858
  0
LINE
  8
0
 10
4.12027
 20
40.2858
 11
4.13995
 21
40.3405
  0
LINE
  8
0
 10
4.13995
 20
40.3405
 11
4.16302
 21
40.3938
  0
LINE
  8
0
 10
4.16302
 20
40.3938
 11
4.18941
 21
40.4456
  0
LINE
  8
0
 10
4.18941
 20
40.4456
 11
4.21899
 21
40.4956
  0
LINE
  8
0
 10
4.21899
 20
40.4956
 11
4.25165
 21
40.5437
  0
LINE
  8
0
 10
4.25165
 20
40.5437
 11
4.28726
 21
40.5896
  0
LINE
  8
0
 10
4.28726
 20
40.5896
 11
4.3257
 21
40.6332
  0
LINE
  8
0
 10
4.3257
 20
40.6332
 11
4.36679
 21
40.6743
  0
LINE
  8
0
 10
4.36679
 20
40.6743
 11
4.41037
 21
40.7127
  0
LINE
  8
0
 10
4.41037
 20
40.7127
 11
4.45628
 21
40.7483
  0
LINE
  8
0
 10
4.45628
 20
40.7483
 11
4.50435
 21
40.781
  0
LINE
  8
0
 10
4.50435
 20
40.781
 11
4.55437
 21
40.8106
  0
LINE
  8
0
 10
4.55437
 20
40.8106
 11
4.60614
 21
40.837
  0
LINE
  8
0
 10
4.60614
 20
40.837
 11
4.65947
 21
40.86
  0
LINE
  8
0
 10
4.65947
 20
40.86
 11
4.71416
 21
40.8797
  0
LINE
  8
0
 10
4.71416
 20
40.8797
 11
4.76996
 21
40.8959
  0
LINE
  8
0
 10
4.76996
 20
40.8959
 11
4.82666
 21
40.9086
  0
LINE
  8
0
 10
4.82666
 20
40.9086
 11
4.88406
 21
40.9177
  0
LINE
  8
0
 10
4.88406
 20
40.9177
 11
4.94191
 21
40.9232
  0
LINE
  8
0
 10
4.94191
 20
40.9232
 11
5
 21
40.925
  0
LINE
  8
0
 10
5
 20
40.925
 11
5.05807
 21
40.9232
  0
LINE
  8
0
 10
5.05807
 20
40.9232
 11
5.11592
 21
40.9177
  0
LINE
  8
0
 10
5.11592
 20
40.9177
 11
5.17332
 21
40.9086
  0
LINE
  8
0
 10
5.17332
 20
40.9086
 11
5.23003
 21
40.8959
  0
LINE
  8
0
 10
5.23003
 20
40.8959
 11
5.28583
 21
40.8797
  0
LINE
  8
0
 10
5.28583
 20
40.8797
 11
5.34052
 21
40.86
  0
LINE
  8
0
 10
5.34052
 20
40.86
 11
5.39384
 21
40.837
  0
LINE
  8
0
 10
5.39384
 20
40.837
 11
5.44562
 21
40.8106
  0
LINE
  8
0
 10
5.44562
 20
40.8106
 11
5.49564
 21
40.781
  0
LINE
  8
0
 10
5.49564
 20
40.781
 11
5.5437
 21
40.7483
  0
LINE
  8
0
 10
5.5437
 20
40.7483
 11
5.58961
 21
40.7127
  0
LINE
  8
0
 10
5.58961
 20
40.7127
 11
5.63319
 21
40.6743
  0
LINE
  8
0
 10
5.63319
 20
40.6743
 11
5.67429
 21
40.6332
  0
LINE
  8
0
 10
5.67429
 20
40.6332
 11
5.71272
 21
40.5896
  0
LINE
  8
0
 10
5.71272
 20
40.5896
 11
5.74834
 21
40.5437
  0
LINE
  8
0
 10
5.74834
 20
40.5437
 11
5.78099
 21
40.4956
  0
LINE
  8
0
 10
5.78099
 20
40.4956
 11
5.81058
 21
40.4456
  0
LINE
  8
0
 10
5.81058
 20
40.4456
 11
5.83696
 21
40.3938
  0
LINE
  8
0
 10
5.83696
 20
40.3938
 11
5.86003
 21
40.3405
  0
LINE
  8
0
 10
5.86003
 20
40.3405
 11
5.87971
 21
40.2858
  0
LINE
  8
0
 10
5.87971
 20
40.2858
 11
5.89594
 21
40.23
  0
LINE
  8
0
 10
5.89594
 20
40.23
 11
5.90862
 21
40.1733
  0
LINE
  8
0
 10
5.90862
 20
40.1733
 11
5.91769
 21
40.1159
  0
LINE
  8
0
 10
5.91769
 20
40.1159
 11
5.92317
 21
40.0581
  0
LINE
  8
0
 10
5.92317
 20
40.0581
 11
5.92499
 21
40
  0
LINE
  8
0
 10
5.92499
 20
40
 11
5.92317
 21
39.9419
  0
LINE
  8
0
 10
5.92317
 20
39.9419
 11
5.91769
 21
39.8841
  0
LINE
  8
0
 10
5.91769
 20
39.8841
 11
5.90862
 21
39.8267
  0
LINE
  8
0
 10
5.90862
 20
39.8267
 11
5.89594
 21
39.77
  0
LINE
  8
0
 10
5.89594
 20
39.77
 11
5.87971
 21
39.7142
  0
LINE
  8
0
 10
5.87971
 20
39.7142
 11
5.86003
 21
39.6595
  0
LINE
  8
0
 10
5.86003
 20
39.6595
 11
5.83696
 21
39.6061
  0
LINE
  8
0
 10
5.83696
 20
39.6061
 11
5.81058
 21
39.5544
  0
LINE
  8
0
 10
5.81058
 20
39.5544
 11
5.78099
 21
39.5043
  0
LINE
  8
0
 10
5.78099
 20
39.5043
 11
5.74834
 21
39.4563
  0
LINE
  8
0
 10
5.74834
 20
39.4563
 11
5.71272
 21
39.4104
  0
LINE
  8
0
 10
5.71272
 20
39.4104
 11
5.67429
 21
39.3668
  0
LINE
  8
0
 10
5.67429
 20
39.3668
 11
5.63319
 21
39.3257
  0
LINE
  8
0
 10
5.63319
 20
39.3257
 11
5.58961
 21
39.2873
  0
LINE
  8
0
 10
5.58961
 20
39.2873
 11
5.5437
 21
39.2516
  0
LINE
  8
0
 10
5.5437
 20
39.2516
 11
5.49564
 21
39.219
  0
LINE
  8
0
 10
5.49564
 20
39.219
 11
5.44562
 21
39.1894
  0
LINE
  8
0
 10
5.44562
 20
39.1894
 11
5.39384
 21
39.163
  0
LINE
  8
0
 10
5.39384
 20
39.163
 11
5.34052
 21
39.14
  0
LINE
  8
0
 10
5.34052
 20
39.14
 11
5.28583
 21
39.1203
  0
LINE
  8
0
 10
5.28583
 20
39.1203
 11
5.23003
 21
39.104
  0
LINE
  8
0
 10
5.23003
 20
39.104
 11
5.17332
 21
39.0914
  0
LINE
  8
0
 10
5.17332
 20
39.0914
 11
5.11592
 21
39.0823
  0
LINE
  8
0
 10
5.11592
 20
39.0823
 11
5.05807
 21
39.0768
  0
LINE
  8
0
 10
5.05807
 20
39.0768
 11
5
 21
39.075
  0
LINE
  8
0
 10
5
 20
39.075
 11
4.94191
 21
39.0768
  0
LINE
  8
0
 10
4.94191
 20
9.07681
 11
4.88406
 21
9.08229
  0
LINE
  8
0
 10
4.88406
 20
9.08229
 11
4.82666
 21
9.09137
  0
LINE
  8
0
 10
4.82666
 20
9.09137
 11
4.76996
 21
9.10405
  0
LINE
  8
0
 10
4.76996
 20
9.10405
 11
4.71416
 21
9.12027
  0
LINE
  8
0
 10
4.71416
 20
9.12027
 11
4.65947
 21
9.13995
  0
LINE
  8
0
 10
4.65947
 20
9.13995
 11
4.60614
 21
9.16302
  0
LINE
  8
0
 10
4.60614
 20
9.16302
 11
4.55437
 21
9.18941
  0
LINE
  8
0
 10
4.55437
 20
9.18941
 11
4.50435
 21
9.21899
  0
LINE
  8
0
 10
4.50435
 20
9.21899
 11
4.45628
 21
9.25165
  0
LINE
  8
0
 10
4.45628
 20
9.25165
 11
4.41037
 21
9.28726
  0
LINE
  8
0
 10
4.41037
 20
9.28726
 11
4.36679
 21
9.3257
  0
LINE
  8
0
 10
4.36679
 20
9.3257
 11
4.3257
 21
9.36679
  0
LINE
  8
0
 10
4.3257
 20
9.36679
 11
4.28726
 21
9.41037
  0
LINE
  8
0
 10
4.28726
 20
9.41037
 11
4.25165
 21
9.45628
  0
LINE
  8
0
 10
4.25165
 20
9.45628
 11
4.21899
 21
9.50435
  0
LINE
  8
0
 10
4.21899
 20
9.50435
 11
4.18941
 21
9.55437
  0
LINE
  8
0
 10
4.18941
 20
9.55437
 11
4.16302
 21
9.60614
  0
LINE
  8
0
 10
4.16302
 20
9.60614
 11
4.13995
 21
9.65947
  0
LINE
  8
0
 10
4.13995
 20
9.65947
 11
4.12027
 21
9.71416
  0
LINE
  8
0
 10
4.12027
 20
9.71416
 11
4.10405
 21
9.76996
  0
LINE
  8
0
 10
4.10405
 20
9.76996
 11
4.09137
 21
9.82666
  0
LINE
  8
0
 10
4.09137
 20
9.82666
 11
4.08229
 21
9.88406
  0
LINE
  8
0
 10
4.08229
 20
9.88406
 11
4.07681
 21
9.94191
  0
LINE
  8
0
 10
4.07681
 20
9.94191
 11
4.075
 21
10
  0
LINE
  8
0
 10
4.075
 20
10
 11
4.07681
 21
10.0581
  0
LINE
  8
0
 10
4.07681
 20
10.0581
 11
4.08229
 21
10.1159
  0
LINE
  8
0
 10
4.08229
 20
10.1159
 11
4.09137
 21
10.1733
  0
LINE
  8
0
 10
4.09137
 20
10.1733
 11
4.10405
 21
10.23
  0
LINE
  8
0
 10
4.10405
 20
10.23
 11
4.12027
 21
10.2858
  0
LINE
  8
0
 10
4.12027
 20
10.2858
 11
4.13995
 21
10.3405
  0
LINE
  8
0
 10
4.13995
 20
10.3405
 11
4.16302
 21
10.3938
  0
LINE
  8
0
 10
4.16302
 20
10.3938
 11
4.18941
 21
10.4456
  0
LINE
  8
0
 10
4.18941
 20
10.4456
 11
4.21899
 21
10.4956
  0
LINE
  8
0
 10
4.21899
 20
10.4956
 11
4.25165
 21
10.5437
  0
LINE
  8
0
 10
4.25165
 20
10.5437
 11
4.28726
 21
10.5896
  0
LINE
  8
0
 10
4.28726
 20
10.5896
 11
4.3257
 21
10.6332
  0
LINE
  8
0
 10
4.3257
 20
10.6332
 11
4.36679
 21
10.6743
  0
LINE
  8
0
 10
4.36679
 20
10.6743
 11
4.41037
 21
10.7127
  0
LINE
  8
0
 10
4.41037
 20
10.7127
 11
4.45628
 21
10.7483
  0
LINE
  8
0
 10
4.45628
 20
10.7483
 11
4.50435
 21
10.781
  0
LINE
  8
0
 10
4.50435
 20
10.781
 11
4.55437
 21
10.8106
  0
LINE
  8
0
 10
4.55437
 20
10.8106
 11
4.60614
 21
10.837
  0
LINE
  8
0
 10
4.60614
 20
10.837
 11
4.65947
 21
10.86
  0
LINE
  8
0
 10
4.65947
 20
10.86
 11
4.71416
 21
10.8797
  0
LINE
  8
0
 10
4.71416
 20
10.8797
 11
4.76996
 21
10.8959
  0
LINE
  8
0
 10
4.76996
 20
10.8959
 11
4.82666
 21
10.9086
  0
LINE
  8
0
 10
4.82666
 20
10.9086
 11
4.88406
 21
10.9177
  0
LINE
  8
0
 10
4.88406
 20
10.9177
 11
4.94191
 21
10.9232
  0
LINE
  8
0
 10
4.94191
 20
10.9232
 11
5
 21
10.925
  0
LINE
  8
0
 10
5
 20
10.925
 11
5.05807
 21
10.9232
  0
LINE
  8
0
 10
5.05807
 20
10.9232
 11
5.11592
 21
10.9177
  0
LINE
  8
0
 10
5.11592
 20
10.9177
 11
5.17332
 21
10.9086
  0
LINE
  8
0
 10
5.17332
 20
10.9086
 11
5.23003
 21
10.8959
  0
LINE
  8
0
 10
5.23003
 20
10.8959
 11
5.28583
 21
10.8797
  0
LINE
  8
0
 10
5.28583
 20
10.8797
 11
5.34052
 21
10.86
  0
LINE
  8
0
 10
5.34052
 20
10.86
 11
5.39384
 21
10.837
  0
LINE
  8
0
 10
5.39384
 20
10.837
 11
5.44562
 21
10.8106
  0
LINE
  8
0
 10
5.44562
 20
10.8106
 11
5.49564
 21
10.781
  0
LINE
  8
0
 10
5.49564
 20
10.781
 11
5.5437
 21
10.7483
  0
LINE
  8
0
 10
5.5437
 20
10.7483
 11
5.58961
 21
10.7127
  0
LINE
  8
0
 10
5.58961
 20
10.7127
 11
5.63319
 21
10.6743
  0
LINE
  8
0
 10
5.63319
 20
10.6743
 11
5.67429
 21
10.6332
  0
LINE
  8
0
 10
5.67429
 20
10.6332
 11
5.71272
 21
10.5896
  0
LINE
  8
0
 10
5.71272
 20
10.5896
 11
5.74834
 21
10.5437
  0
LINE
  8
0
 10
5.74834
 20
10.5437
 11
5.78099
 21
10.4956
  0
LINE
  8
0
 10
5.78099
 20
10.4956
 11
5.81058
 21
10.4456
  0
LINE
  8
0
 10
5.81058
 20
10.4456
 11
5.83696
 21
10.3938
  0
LINE
  8
0
 10
5.83696
 20
10.3938
 11
5.86003
 21
10.3405
  0
LINE
  8
0
 10
5.86003
 20
10.3405
 11
5.87971
 21
10.2858
  0
LINE
  8
0
 10
5.87971
 20
10.2858
 11
5.89594
 21
10.23
  0
LINE
  8
0
 10
5.89594
 20
10.23
 11
5.90862
 21
10.1733
  0
LINE
  8
0
 10
5.90862
 20
10.1733
 11
5.91769
 21
10.1159
  0
LINE
  8
0
 10
5.91769
 20
10.1159
 11
5.92317
 21
10.0581
  0
LINE
  8
0
 10
5.92317
 20
10.0581
 11
5.92499
 21
10
  0
LINE
  8
0
 10
5.92499
 20
10
 11
5.92317
 21
9.94191
  0
LINE
  8
0
 10
5.92317
 20
9.94191
 11
5.91769
 21
9.88406
  0
LINE
  8
0
 10
5.91769
 20
9.88406
 11
5.90862
 21
9.82666
  0
LINE
  8
0
 10
5.90862
 20
9.82666
 11
5.89594
 21
9.76996
  0
LINE
  8
0
 10
5.89594
 20
9.76996
 11
5.87971
 21
9.71416
  0
LINE
  8
0
 10
5.87971
 20
9.71416
 11
5.86003
 21
9.65947
  0
LINE
  8
0
 10
5.86003
 20
9.65947
 11
5.83696
 21
9.60614
  0
LINE
  8
0
 10
5.83696
 20
9.60614
 11
5.81058
 21
9.55437
  0
LINE
  8
0
 10
5.81058
 20
9.55437
 11
5.78099
 21
9.50435
  0
LINE
  8
0
 10
5.78099
 20
9.50435
 11
5.74834
 21
9.45628
  0
LINE
  8
0
 10
5.74834
 20
9.45628
 11
5.71272
 21
9.41037
  0
LINE
  8
0
 10
5.71272
 20
9.41037
 11
5.67429
 21
9.36679
  0
LINE
  8
0
 10
5.67429
 20
9.36679
 11
5.63319
 21
9.3257
  0
LINE
  8
0
 10
5.63319
 20
9.3257
 11
5.58961
 21
9.28726
  0
LINE
  8
0
 10
5.58961
 20
9.28726
 11
5.5437
 21
9.25165
  0
LINE
  8
0
 10
5.5437
 20
9.25165
 11
5.49564
 21
9.21899
  0
LINE
  8
0
 10
5.49564
 20
9.21899
 11
5.44562
 21
9.18941
  0
LINE
  8
0
 10
5.44562
 20
9.18941
 11
5.39384
 21
9.16302
  0
LINE
  8
0
 10
5.39384
 20
9.16302
 11
5.34052
 21
9.13995
  0
LINE
  8
0
 10
5.34052
 20
9.13995
 11
5.28583
 21
9.12027
  0
LINE
  8
0
 10
5.28583
 20
9.12027
 11
5.23003
 21
9.10405
  0
LINE
  8
0
 10
5.23003
 20
9.10405
 11
5.17332
 21
9.09137
  0
LINE
  8
0
 10
5.17332
 20
9.09137
 11
5.11592
 21
9.08229
  0
LINE
  8
0
 10
5.11592
 20
9.08229
 11
5.05807
 21
9.07681
  0
LINE
  8
0
 10
5.05807
 20
9.07681
 11
5
 21
9.075
  0
LINE
  8
0
 10
5
 20
9.075
 11
4.94191
 21
9.07681
  0
LINE
  8
0
 10
32
 20
210
 11
22
 21
210
  0
LINE
  8
0
 10
22
 20
210
 11
22
 21
0
  0
LINE
  8
0
 10
22
 20
0
 11
32
 21
0
  0
LINE
  8
0
 10
32
 20
0
 11
32
 21
210
  0
LINE
  8
0
 10
26.9419
 20
189.077
 11
26.8841
 21
189.082
  0
LINE
  8
0
 10
26.8841
 20
189.082
 11
26.8267
 21
189.091
  0
LINE
  8
0
 10
26.8267
 20
189.091
 11
26.77
 21
189.104
  0
LINE
  8
0
 10
26.77
 20
189.104
 11
26.7142
 21
189.12
  0
LINE
  8
0
 10
26.7142
 20
189.12
 11
26.6595
 21
189.14
  0
LINE
  8
0
 10
26.6595
 20
189.14
 11
26.6061
 21
189.163
  0
LINE
  8
0
 10
26.6061
 20
189.163
 11
26.5544
 21
189.189
  0
LINE
  8
0
 10
26.5544
 20
189.189
 11
26.5043
 21
189.219
  0
LINE
  8
0
 10
26.5043
 20
189.219
 11
26.4563
 21
189.252
  0
LINE
  8
0
 10
26.4563
 20
189.252
 11
26.4104
 21
189.287
  0
LINE
  8
0
 10
26.4104
 20
189.287
 11
26.3668
 21
189.326
  0
LINE
  8
0
 10
26.3668
 20
189.326
 11
26.3257
 21
189.367
  0
LINE
  8
0
 10
26.3257
 20
189.367
 11
26.2873
 21
189.41
  0
LINE
  8
0
 10
26.2873
 20
189.41
 11
26.2516
 21
189.456
  0
LINE
  8
0
 10
26.2516
 20
189.456
 11
26.219
 21
189.504
  0
LINE
  8
0
 10
26.219
 20
189.504
 11
26.1894
 21
189.554
  0
LINE
  8
0
 10
26.1894
 20
189.554
 11
26.163
 21
189.606
  0
LINE
  8
0
 10
26.163
 20
189.606
 11
26.14
 21
189.659
  0
LINE
  8
0
 10
26.14
 20
189.659
 11
26.1203
 21
189.714
  0
LINE
  8
0
 10
26.1203
 20
189.714
 11
26.104
 21
189.77
  0
LINE
  8
0
 10
26.104
 20
189.77
 11
26.0914
 21
189.827
  0
LINE
  8
0
 10
26.0914
 20
189.827
 11
26.0823
 21
189.884
  0
LINE
  8
0
 10
26.0823
 20
189.884
 11
26.0768
 21
189.942
  0
LINE
  8
0
 10
26.0768
 20
189.942
 11
26.075
 21
190
  0
LINE
  8
0
 10
26.075
 20
190
 11
26.0768
 21
190.058
  0
LINE
  8
0
 10
26.0768
 20
190.058
 11
26.0823
 21
190.116
  0
LINE
  8
0
 10
26.0823
 20
190.116
 11
26.0914
 21
190.173
  0
LINE
  8
0
 10
26.0914
 20
190.173
 11
26.104
 21
190.23
  0
LINE
  8
0
 10
26.104
 20
190.23
 11
26.1203
 21
190.286
  0
LINE
  8
0
 10
26.1203
 20
190.286
 11
26.14
 21
190.341
  0
LINE
  8
0
 10
26.14
 20
190.341
 11
26.163
 21
190.394
  0
LINE
  8
0
 10
26.163
 20
190.394
 11
26.1894
 21
190.446
  0
LINE
  8
0
 10
26.1894
 20
190.446
 11
26.219
 21
190.496
  0
LINE
  8
0
 10
26.219
 20
190.496
 11
26.2516
 21
190.544
  0
LINE
  8
0
 10
26.2516
 20
190.544
 11
26.2873
 21
190.59
  0
LINE
  8
0
 10
26.2873
 20
190.59
 11
26.3257
 21
190.633
  0
LINE
  8
0
 10
26.3257
 20
190.633
 11
26.3668
 21
190.674
  0
LINE
  8
0
 10
26.3668
 20
190.674
 11
26.4104
 21
190.713
  0
LINE
  8
0
 10
26.4104
 20
190.713
 11
26.4563
 21
190.748
  0
LINE
  8
0
 10
26.4563
 20
190.748
 11
26.5043
 21
190.781
  0
LINE
  8
0
 10
26.5043
 20
190.781
 11
26.5544
 21
190.811
  0
LINE
  8
0
 10
26.5544
 20
190.811
 11
26.6061
 21
190.837
  0
LINE
  8
0
 10
26.6061
 20
190.837
 11
26.6595
 21
190.86
  0
LINE
  8
0
 10
26.6595
 20
190.86
 11
26.7142
 21
190.88
  0
LINE
  8
0
 10
26.7142
 20
190.88
 11
26.77
 21
190.896
  0
LINE
  8
0
 10
26.77
 20
190.896
 11
26.8267
 21
190.909
  0
LINE
  8
0
 10
26.8267
 20
190.909
 11
26.8841
 21
190.918
  0
LINE
  8
0
 10
26.8841
 20
190.918
 11
26.9419
 21
190.923
  0
LINE
  8
0
 10
26.9419
 20
190.923
 11
27
 21
190.925
  0
LINE
  8
0
 10
27
 20
190.925
 11
27.0581
 21
190.923
  0
LINE
  8
0
 10
27.0581
 20
190.923
 11
27.1159
 21
190.918
  0
LINE
  8
0
 10
27.1159
 20
190.918
 11
27.1733
 21
190.909
  0
LINE
  8
0
 10
27.1733
 20
190.909
 11
27.23
 21
190.896
  0
LINE
  8
0
 10
27.23
 20
190.896
 11
27.2858
 21
190.88
  0
LINE
  8
0
 10
27.2858
 20
190.88
 11
27.3405
 21
190.86
  0
LINE
  8
0
 10
27.3405
 20
190.86
 11
27.3938
 21
190.837
  0
LINE
  8
0
 10
27.3938
 20
190.837
 11
27.4456
 21
190.811
  0
LINE
  8
0
 10
27.4456
 20
190.811
 11
27.4956
 21
190.781
  0
LINE
  8
0
 10
27.4956
 20
190.781
 11
27.5437
 21
190.748
  0
LINE
  8
0
 10
27.5437
 20
190.748
 11
27.5896
 21
190.713
  0
LINE
  8
0
 10
27.5896
 20
190.713
 11
27.6332
 21
190.674
  0
LINE
  8
0
 10
27.6332
 20
190.674
 11
27.6743
 21
190.633
  0
LINE
  8
0
 10
27.6743
 20
190.633
 11
27.7127
 21
190.59
  0
LINE
  8
0
 10
27.7127
 20
190.59
 11
27.7483
 21
190.544
  0
LINE
  8
0
 10
27.7483
 20
190.544
 11
27.781
 21
190.496
  0
LINE
  8
0
 10
27.781
 20
190.496
 11
27.8106
 21
190.446
  0
LINE
  8
0
 10
27.8106
 20
190.446
 11
27.837
 21
190.394
  0
LINE
  8
0
 10
27.837
 20
190.394
 11
27.86
 21
190.341
  0
LINE
  8
0
 10
27.86
 20
190.341
 11
27.8797
 21
190.286
  0
LINE
  8
0
 10
27.8797
 20
190.286
 11
27.8959
 21
190.23
  0
LINE
  8
0
 10
27.8959
 20
190.23
 11
27.9086
 21
190.173
  0
LINE
  8
0
 10
27.9086
 20
190.173
 11
27.9177
 21
190.116
  0
LINE
  8
0
 10
27.9177
 20
190.116
 11
27.9232
 21
190.058
  0
LINE
  8
0
 10
27.9232
 20
190.058
 11
27.925
 21
190
  0
LINE
  8
0
 10
27.925
 20
190
 11
27.9232
 21
189.942
  0
LINE
  8
0
 10
27.9232
 20
189.942
 11
27.9177
 21
189.884
  0
LINE
  8
0
 10
27.9177
 20
189.884
 11
27.9086
 21
189.827
  0
LINE
  8
0
 10
27.9086
 20
189.827
 11
27.8959
 21
189.77
  0
LINE
  8
0
 10
27.8959
 20
189.77
 11
27.8797
 21
189.714
  0
LINE
  8
0
 10
27.8797
 20
189.714
 11
27.86
 21
189.659
  0
LINE
  8
0
 10
27.86
 20
189.659
 11
27.837
 21
189.606
  0
LINE
  8
0
 10
27.837
 20
189.606
 11
27.8106
 21
189.554
  0
LINE
  8
0
 10
27.8106
 20
189.554
 11
27.781
 21
189.504
  0
LINE
  8
0
 10
27.781
 20
189.504
 11
27.7483
 21
189.456
  0
LINE
  8
0
 10
27.7483
 20
189.456
 11
27.7127
 21
189.41
  0
LINE
  8
0
 10
27.7127
 20
189.41
 11
27.6743
 21
189.367
  0
LINE
  8
0
 10
27.6743
 20
189.367
 11
27.6332
 21
189.326
  0
LINE
  8
0
 10
27.6332
 20
189.326
 11
27.5896
 21
189.287
  0
LINE
  8
0
 10
27.5896
 20
189.287
 11
27.5437
 21
189.252
  0
LINE
  8
0
 10
27.5437
 20
189.252
 11
27.4956
 21
189.219
  0
LINE
  8
0
 10
27.4956
 20
189.219
 11
27.4456
 21
189.189
  0
LINE
  8
0
 10
27.4456
 20
189.189
 11
27.3938
 21
189.163
  0
LINE
  8
0
 10
27.3938
 20
189.163
 11
27.3405
 21
189.14
  0
LINE
  8
0
 10
27.3405
 20
189.14
 11
27.2858
 21
189.12
  0
LINE
  8
0
 10
27.2858
 20
189.12
 11
27.23
 21
189.104
  0
LINE
  8
0
 10
27.23
 20
189.104
 11
27.1733
 21
189.091
  0
LINE
  8
0
 10
27.1733
 20
189.091
 11
27.1159
 21
189.082
  0
LINE
  8
0
 10
27.1159
 20
189.082
 11
27.0581
 21
189.077
  0
LINE
  8
0
 10
27.0581
 20
189.077
 11
27
 21
189.075
  0
LINE
  8
0
 10
27
 20
189.075
 11
26.9419
 21
189.077
  0
LINE
  8
0
 10
26.9419
 20
159.077
 11
26.8841
 21
159.082
  0
LINE
  8
0
 10
26.8841
 20
159.082
 11
26.8267
 21
159.091
  0
LINE
  8
0
 10
26.8267
 20
159.091
 11
26.77
 21
159.104
  0
LINE
  8
0
 10
26.77
 20
159.104
 11
26.7142
 21
159.12
  0
LINE
  8
0
 10
26.7142
 20
159.12
 11
26.6595
 21
159.14
  0
LINE
  8
0
 10
26.6595
 20
159.14
 11
26.6061
 21
159.163
  0
LINE
  8
0
 10
26.6061
 20
159.163
 11
26.5544
 21
159.189
  0
LINE
  8
0
 10
26.5544
 20
159.189
 11
26.5043
 21
159.219
  0
LINE
  8
0
 10
26.5043
 20
159.219
 11
26.4563
 21
159.252
  0
LINE
  8
0
 10
26.4563
 20
159.252
 11
26.4104
 21
159.287
  0
LINE
  8
0
 10
26.4104
 20
159.287
 11
26.3668
 21
159.326
  0
LINE
  8
0
 10
26.3668
 20
159.326
 11
26.3257
 21
159.367
  0
LINE
  8
0
 10
26.3257
 20
159.367
 11
26.2873
 21
159.41
  0
LINE
  8
0
 10
26.2873
 20
159.41
 11
26.2516
 21
159.456
  0
LINE
  8
0
 10
26.2516
 20
159.456
 11
26.219
 21
159.504
  0
LINE
  8
0
 10
26.219
 20
159.504
 11
26.1894
 21
159.554
  0
LINE
  8
0
 10
26.1894
 20
159.554
 11
26.163
 21
159.606
  0
LINE
  8
0
 10
26.163
 20
159.606
 11
26.14
 21
159.659
  0
LINE
  8
0
 10
26.14
 20
159.659
 11
26.1203
 21
159.714
  0
LINE
  8
0
 10
26.1203
 20
159.714
 11
26.104
 21
159.77
  0
LINE
  8
0
 10
26.104
 20
159.77
 11
26.0914
 21
159.827
  0
LINE
  8
0
 10
26.0914
 20
159.827
 11
26.0823
 21
159.884
  0
LINE
  8
0
 10
26.0823
 20
159.884
 11
26.0768
 21
159.942
  0
LINE
  8
0
 10
26.0768
 20
159.942
 11
26.075
 21
160
  0
LINE
  8
0
 10
26.075
 20
160
 11
26.0768
 21
160.058
  0
LINE
  8
0
 10
26.0768
 20
160.058
 11
26.0823
 21
160.116
  0
LINE
  8
0
 10
26.0823
 20
160.116
 11
26.0914
 21
160.173
  0
LINE
  8
0
 10
26.0914
 20
160.173
 11
26.104
 21
160.23
  0
LINE
  8
0
 10
26.104
 20
160.23
 11
26.1203
 21
160.286
  0
LINE
  8
0
 10
26.1203
 20
160.286
 11
26.14
 21
160.341
  0
LINE
  8
0
 10
26.14
 20
160.341
 11
26.163
 21
160.394
  0
LINE
  8
0
 10
26.163
 20
160.394
 11
26.1894
 21
160.446
  0
LINE
  8
0
 10
26.1894
 20
160.446
 11
26.219
 21
160.496
  0
LINE
  8
0
 10
26.219
 20
160.496
 11
26.2516
 21
160.544
  0
LINE
  8
0
 10
26.2516
 20
160.544
 11
26.2873
 21
160.59
  0
LINE
  8
0
 10
26.2873
 20
160.59
 11
26.3257
 21
160.633
  0
LINE
  8
0
 10
26.3257
 20
160.633
 11
26.3668
 21
160.674
  0
LINE
  8
0
 10
26.3668
 20
160.674
 11
26.4104
 21
160.713
  0
LINE
  8
0
 10
26.4104
 20
160.713
 11
26.4563
 21
160.748
  0
LINE
  8
0
 10
26.4563
 20
160.748
 11
26.5043
 21
160.781
  0
LINE
  8
0
 10
26.5043
 20
160.781
 11
26.5544
 21
160.811
  0
LINE
  8
0
 10
26.5544
 20
160.811
 11
26.6061
 21
160.837
  0
LINE
  8
0
 10
26.6061
 20
160.837
 11
26.6595
 21
160.86
  0
LINE
  8
0
 10
26.6595
 20
160.86
 11
26.7142
 21
160.88
  0
LINE
  8
0
 10
26.7142
 20
160.88
 11
26.77
 21
160.896
  0
LINE
  8
0
 10
26.77
 20
160.896
 11
26.8267
 21
160.909
  0
LINE
  8
0
 10
26.8267
 20
160.909
 11
26.8841
 21
160.918
  0
LINE
  8
0
 10
26.8841
 20
160.918
 11
26.9419
 21
160.923
  0
LINE
  8
0
 10
26.9419
 20
160.923
 11
27
 21
160.925
  0
LINE
  8
0
 10
27
 20
160.925
 11
27.0581
 21
160.923
  0
LINE
  8
0
 10
27.0581
 20
160.923
 11
27.1159
 21
160.918
  0
LINE
  8
0
 10
27.1159
 20
160.918
 11
27.1733
 21
160.909
  0
LINE
  8
0
 10
27.1733
 20
160.909
 11
27.23
 21
160.896
  0
LINE
  8
0
 10
27.23
 20
160.896
 11
27.2858
 21
160.88
  0
LINE
  8
0
 10
27.2858
 20
160.88
 11
27.3405
 21
160.86
  0
LINE
  8
0
 10
27.3405
 20
160.86
 11
27.3938
 21
160.837
  0
LINE
  8
0
 10
27.3938
 20
160.837
 11
27.4456
 21
160.811
  0
LINE
  8
0
 10
27.4456
 20
160.811
 11
27.4956
 21
160.781
  0
LINE
  8
0
 10
27.4956
 20
160.781
 11
27.5437
 21
160.748
  0
LINE
  8
0
 10
27.5437
 20
160.748
 11
27.5896
 21
160.713
  0
LINE
  8
0
 10
27.5896
 20
160.713
 11
27.6332
 21
160.674
  0
LINE
  8
0
 10
27.6332
 20
160.674
 11
27.6743
 21
160.633
  0
LINE
  8
0
 10
27.6743
 20
160.633
 11
27.7127
 21
160.59
  0
LINE
  8
0
 10
27.7127
 20
160.59
 11
27.7483
 21
160.544
  0
LINE
  8
0
 10
27.7483
 20
160.544
 11
27.781
 21
160.496
  0
LINE
  8
0
 10
27.781
 20
160.496
 11
27.8106
 21
160.446
  0
LINE
  8
0
 10
27.8106
 20
160.446
 11
27.837
 21
160.394
  0
LINE
  8
0
 10
27.837
 20
160.394
 11
27.86
 21
160.341
  0
LINE
  8
0
 10
27.86
 20
160.341
 11
27.8797
 21
160.286
  0
LINE
  8
0
 10
27.8797
 20
160.286
 11
27.8959
 21
160.23
  0
LINE
  8
0
 10
27.8959
 20
160.23
 11
27.9086
 21
160.173
  0
LINE
  8
0
 10
27.9086
 20
160.173
 11
27.9177
 21
160.116
  0
LINE
  8
0
 10
27.9177
 20
160.116
 11
27.9232
 21
160.058
  0
LINE
  8
0
 10
27.9232
 20
160.058
 11
27.925
 21
160
  0
LINE
  8
0
 10
27.925
 20
160
 11
27.9232
 21
159.942
  0
LINE
  8
0
 10
27.9232
 20
159.942
 11
27.9177
 21
159.884
  0
LINE
  8
0
 10
27.9177
 20
159.884
 11
27.9086
 21
159.827
  0
LINE
  8
0
 10
27.9086
 20
159.827
 11
27.8959
 21
159.77
  0
LINE
  8
0
 10
27.8959
 20
159.77
 11
27.8797
 21
159.714
  0
LINE
  8
0
 10
27.8797
 20
159.714
 11
27.86
 21
159.659
  0
LINE
  8
0
 10
27.86
 20
159.659
 11
27.837
 21
159.606
  0
LINE
  8
0
 10
27.837
 20
159.606
 11
27.8106
 21
159.554
  0
LINE
  8
0
 10
27.8106
 20
159.554
 11
27.781
 21
159.504
  0
LINE
  8
0
 10
27.781
 20
159.504
 11
27.7483
 21
159.456
  0
LINE
  8
0
 10
27.7483
 20
159.456
 11
27.7127
 21
159.41
  0
LINE
  8
0
 10
27.7127
 20
159.41
 11
27.6743
 21
159.367
  0
LINE
  8
0
 10
27.6743
 20
159.367
 11
27.6332
 21
159.326
  0
LINE
  8
0
 10
27.6332
 20
159.326
 11
27.5896
 21
159.287
  0
LINE
  8
0
 10
27.5896
 20
159.287
 11
27.5437
 21
159.252
  0
LINE
  8
0
 10
27.5437
 20
159.252
 11
27.4956
 21
159.219
  0
LINE
  8
0
 10
27.4956
 20
159.219
 11
27.4456
 21
159.189
  0
LINE
  8
0
 10
27.4456
 20
159.189
 11
27.3938
 21
159.163
  0
LINE
  8
0
 10
27.3938
 20
159.163
 11
27.3405
 21
159.14
  0
LINE
  8
0
 10
27.3405
 20
159.14
 11
27.2858
 21
159.12
  0
LINE
  8
0
 10
27.2858
 20
159.12
 11
27.23
 21
159.104
  0
LINE
  8
0
 10
27.23
 20
159.104
 11
27.1733
 21
159.091
  0
LINE
  8
0
 10
27.1733
 20
159.091
 11
27.1159
 21
159.082
  0
LINE
  8
0
 10
27.1159
 20
159.082
 11
27.0581
 21
159.077
  0
LINE
  8
0
 10
27.0581
 20
159.077
 11
27
 21
159.075
  0
LINE
  8
0
 10
27
 20
159.075
 11
26.9419
 21
159.077
  0
LINE
  8
0
 10
26.9419
 20
129.077
 11
26.8841
 21
129.082
  0
LINE
  8
0
 10
26.8841
 20
129.082
 11
26.8267
 21
129.091
  0
LINE
  8
0
 10
26.8267
 20
129.091
 11
26.77
 21
129.104
  0
LINE
  8
0
 10
26.77
 20
129.104
 11
26.7142
 21
129.12
  0
LINE
  8
0
 10
26.7142
 20
129.12
 11
26.6595
 21
129.14
  0
LINE
  8
0
 10
26.6595
 20
129.14
 11
26.6061
 21
129.163
  0
LINE
  8
0
 10
26.6061
 20
129.163
 11
26.5544
 21
129.189
  0
LINE
  8
0
 10
26.5544
 20
129.189
 11
26.5043
 21
129.219
  0
LINE
  8
0
 10
26.5043
 20
129.219
 11
26.4563
 21
129.252
  0
LINE
  8
0
 10
26.4563
 20
129.252
 11
26.4104
 21
129.287
  0
LINE
  8
0
 10
26.4104
 20
129.287
 11
26.3668
 21
129.326
  0
LINE
  8
0
 10
26.3668
 20
129.326
 11
26.3257
 21
129.367
  0
LINE
  8
0
 10
26.3257
 20
129.367
 11
26.2873
 21
129.41
  0
LINE
  8
0
 10
26.2873
 20
129.41
 11
26.2516
 21
129.456
  0
LINE
  8
0
 10
26.2516
 20
129.456
 11
26.219
 21
129.504
  0
LINE
  8
0
 10
26.219
 20
129.504
 11
26.1894
 21
129.554
  0
LINE
  8
0
 10
26.1894
 20
129.554
 11
26.163
 21
129.606
  0
LINE
  8
0
 10
26.163
 20
129.606
 11
26.14
 21
129.659
  0
LINE
  8
0
 10
26.14
 20
129.659
 11
26.1203
 21
129.714
  0
LINE
  8
0
 10
26.1203
 20
129.714
 11
26.104
 21
129.77
  0
LINE
  8
0
 10
26.104
 20
129.77
 11
26.0914
 21
129.827
  0
LINE
  8
0
 10
26.0914
 20
129.827
 11
26.0823
 21
129.884
  0
LINE
  8
0
 10
26.0823
 20
129.884
 11
26.0768
 21
129.942
  0
LINE
  8
0
 10
26.0768
 20
129.942
 11
26.075
 21
130
  0
LINE
  8
0
 10
26.075
 20
130
 11
26.0768
 21
130.058
  0
LINE
  8
0
 10
26.0768
 20
130.058
 11
26.0823
 21
130.116
  0
LINE
  8
0
 10
26.0823
 20
130.116
 11
26.0914
 21
130.173
  0
LINE
  8
0
 10
26.0914
 20
130.173
 11
26.104
 21
130.23
  0
LINE
  8
0
 10
26.104
 20
130.23
 11
26.1203
 21
130.286
  0
LINE
  8
0
 10
26.1203
 20
130.286
 11
26.14
 21
130.341
  0
LINE
  8
0
 10
26.14
 20
130.341
 11
26.163
 21
130.394
  0
LINE
  8
0
 10
26.163
 20
130.394
 11
26.1894
 21
130.446
  0
LINE
  8
0
 10
26.1894
 20
130.446
 11
26.219
 21
130.496
  0
LINE
  8
0
 10
26.219
 20
130.496
 11
26.2516
 21
130.544
  0
LINE
  8
0
 10
26.2516
 20
130.544
 11
26.2873
 21
130.59
  0
LINE
  8
0
 10
26.2873
 20
130.59
 11
26.3257
 21
130.633
  0
LINE
  8
0
 10
26.3257
 20
130.633
 11
26.3668
 21
130.674
  0
LINE
  8
0
 10
26.3668
 20
130.674
 11
26.4104
 21
130.713
  0
LINE
  8
0
 10
26.4104
 20
130.713
 11
26.4563
 21
130.748
  0
LINE
  8
0
 10
26.4563
 20
130.748
 11
26.5043
 21
130.781
  0
LINE
  8
0
 10
26.5043
 20
130.781
 11
26.5544
 21
130.811
  0
LINE
  8
0
 10
26.5544
 20
130.811
 11
26.6061
 21
130.837
  0
LINE
  8
0
 10
26.6061
 20
130.837
 11
26.6595
 21
130.86
  0
LINE
  8
0
 10
26.6595
 20
130.86
 11
26.7142
 21
130.88
  0
LINE
  8
0
 10
26.7142
 20
130.88
 11
26.77
 21
130.896
  0
LINE
  8
0
 10
26.77
 20
130.896
 11
26.8267
 21
130.909
  0
LINE
  8
0
 10
26.8267
 20
130.909
 11
26.8841
 21
130.918
  0
LINE
  8
0
 10
26.8841
 20
130.918
 11
26.9419
 21
130.923
  0
LINE
  8
0
 10
26.9419
 20
130.923
 11
27
 21
130.925
  0
LINE
  8
0
 10
27
 20
130.925
 11
27.0581
 21
130.923
  0
LINE
  8
0
 10
27.0581
 20
130.923
 11
27.1159
 21
130.918
  0
LINE
  8
0
 10
27.1159
 20
130.918
 11
27.1733
 21
130.909
  0
LINE
  8
0
 10
27.1733
 20
130.909
 11
27.23
 21
130.896
  0
LINE
  8
0
 10
27.23
 20
130.896
 11
27.2858
 21
130.88
  0
LINE
  8
0
 10
27.2858
 20
130.88
 11
27.3405
 21
130.86
  0
LINE
  8
0
 10
27.3405
 20
130.86
 11
27.3938
 21
130.837
  0
LINE
  8
0
 10
27.3938
 20
130.837
 11
27.4456
 21
130.811
  0
LINE
  8
0
 10
27.4456
 20
130.811
 11
27.4956
 21
130.781
  0
LINE
  8
0
 10
27.4956
 20
130.781
 11
27.5437
 21
130.748
  0
LINE
  8
0
 10
27.5437
 20
130.748
 11
27.5896
 21
130.713
  0
LINE
  8
0
 10
27.5896
 20
130.713
 11
27.6332
 21
130.674
  0
LINE
  8
0
 10
27.6332
 20
130.674
 11
27.6743
 21
130.633
  0
LINE
  8
0
 10
27.6743
 20
130.633
 11
27.7127
 21
130.59
  0
LINE
  8
0
 10
27.7127
 20
130.59
 11
27.7483
 21
130.544
  0
LINE
  8
0
 10
27.7483
 20
130.544
 11
27.781
 21
130.496
  0
LINE
  8
0
 10
27.781
 20
130.496
 11
27.8106
 21
130.446
  0
LINE
  8
0
 10
27.8106
 20
130.446
 11
27.837
 21
130.394
  0
LINE
  8
0
 10
27.837
 20
130.394
 11
27.86
 21
130.341
  0
LINE
  8
0
 10
27.86
 20
130.341
 11
27.8797
 21
130.286
  0
LINE
  8
0
 10
27.8797
 20
130.286
 11
27.8959
 21
130.23
  0
LINE
  8
0
 10
27.8959
 20
130.23
 11
27.9086
 21
130.173
  0
LINE
  8
0
 10
27.9086
 20
130.173
 11
27.9177
 21
130.116
  0
LINE
  8
0
 10
27.9177
 20
130.116
 11
27.9232
 21
130.058
  0
LINE
  8
0
 10
27.9232
 20
130.058
 11
27.925
 21
130
  0
LINE
  8
0
 10
27.925
 20
130
 11
27.9232
 21
129.942
  0
LINE
  8
0
 10
27.9232
 20
129.942
 11
27.9177
 21
129.884
  0
LINE
  8
0
 10
27.9177
 20
129.884
 11
27.9086
 21
129.827
  0
LINE
  8
0
 10
27.9086
 20
129.827
 11
27.8959
 21
129.77
  0
LINE
  8
0
 10
27.8959
 20
129.77
 11
27.8797
 21
129.714
  0
LINE
  8
0
 10
27.8797
 20
129.714
 11
27.86
 21
129.659
  0
LINE
  8
0
 10
27.86
 20
129.659
 11
27.837
 21
129.606
  0
LINE
  8
0
 10
27.837
 20
129.606
 11
27.8106
 21
129.554
  0
LINE
  8
0
 10
27.8106
 20
129.554
 11
27.781
 21
129.504
  0
LINE
  8
0
 10
27.781
 20
129.504
 11
27.7483
 21
129.456
  0
LINE
  8
0
 10
27.7483
 20
129.456
 11
27.7127
 21
129.41
  0
LINE
  8
0
 10
27.7127
 20
129.41
 11
27.6743
 21
129.367
  0
LINE
  8
0
 10
27.6743
 20
129.367
 11
27.6332
 21
129.326
  0
LINE
  8
0
 10
27.6332
 20
129.326
 11
27.5896
 21
129.287
  0
LINE
  8
0
 10
27.5896
 20
129.287
 11
27.5437
 21
129.252
  0
LINE
  8
0
 10
27.5437
 20
129.252
 11
27.4956
 21
129.219
  0
LINE
  8
0
 10
27.4956
 20
129.219
 11
27.4456
 21
129.189
  0
LINE
  8
0
 10
27.4456
 20
129.189
 11
27.3938
 21
129.163
  0
LINE
  8
0
 10
27.3938
 20
129.163
 11
27.3405
 21
129.14
  0
LINE
  8
0
 10
27.3405
 20
129.14
 11
27.2858
 21
129.12
  0
LINE
  8
0
 10
27.2858
 20
129.12
 11
27.23
 21
129.104
  0
LINE
  8
0
 10
27.23
 20
129.104
 11
27.1733
 21
129.091
  0
LINE
  8
0
 10
27.1733
 20
129.091
 11
27.1159
 21
129.082
  0
LINE
  8
0
 10
27.1159
 20
129.082
 11
27.0581
 21
129.077
  0
LINE
  8
0
 10
27.0581
 20
129.077
 11
27
 21
129.075
  0
LINE
  8
0
 10
27
 20
129.075
 11
26.9419
 21
129.077
  0
LINE
  8
0
 10
26.9419
 20
99.0768
 11
26.8841
 21
99.0823
  0
LINE
  8
0
 10
26.8841
 20
99.0823
 11
26.8267
 21
99.0914
  0
LINE
  8
0
 10
26.8267
 20
99.0914
 11
26.77
 21
99.104
  0
LINE
  8
0
 10
26.77
 20
99.104
 11
26.7142
 21
99.1203
  0
LINE
  8
0
 10
26.7142
 20
99.1203
 11
26.6595
 21
99.14
  0
LINE
  8
0
 10
26.6595
 20
99.14
 11
26.6061
 21
99.163
  0
LINE
  8
0
 10
26.6061
 20
99.163
 11
26.5544
 21
99.1894
  0
LINE
  8
0
 10
26.5544
 20
99.1894
 11
26.5043
 21
99.219
  0
LINE
  8
0
 10
26.5043
 20
99.219
 11
26.4563
 21
99.2516
  0
LINE
  8
0
 10
26.4563
 20
99.2516
 11
26.4104
 21
99.2873
  0
LINE
  8
0
 10
26.4104
 20
99.2873
 11
26.3668
 21
99.3257
  0
LINE
  8
0
 10
26.3668
 20
99.3257
 11
26.3257
 21
99.3668
  0
LINE
  8
0
 10
26.3257
 20
99.3668
 11
26.2873
 21
99.4104
  0
LINE
  8
0
 10
26.2873
 20
99.4104
 11
26.2516
 21
99.4563
  0
LINE
  8
0
 10
26.2516
 20
99.4563
 11
26.219
 21
99.5043
  0
LINE
  8
0
 10
26.219
 20
99.5043
 11
26.1894
 21
99.5544
  0
LINE
  8
0
 10
26.1894
 20
99.5544
 11
26.163
 21
99.6061
  0
LINE
  8
0
 10
26.163
 20
99.6061
 11
26.14
 21
99.6595
  0
LINE
  8
0
 10
26.14
 20
99.6595
 11
26.1203
 21
99.7142
  0
LINE
  8
0
 10
26.1203
 20
99.7142
 11
26.104
 21
99.77
  0
LINE
  8
0
 10
26.104
 20
99.77
 11
26.0914
 21
99.8267
  0
LINE
  8
0
 10
26.0914
 20
99.8267
 11
26.0823
 21
99.8841
  0
LINE
  8
0
 10
26.0823
 20
99.8841
 11
26.0768
 21
99.9419
  0
LINE
  8
0
 10
26.0768
 20
99.9419
 11
26.075
 21
100
  0
LINE
  8
0
 10
26.075
 20
100
 11
26.0768
 21
100.058
  0
LINE
  8
0
 10
26.0768
 20
100.058
 11
26.0823
 21
100.116
  0
LINE
  8
0
 10
26.0823
 20
100.116
 11
26.0914
 21
100.173
  0
LINE
  8
0
 10
26.0914
 20
100.173
 11
26.104
 21
100.23
  0
LINE
  8
0
 10
26.104
 20
100.23
 11
26.1203
 21
100.286
  0
LINE
  8
0
 10
26.1203
 20
100.286
 11
26.14
 21
100.341
  0
LINE
  8
0
 10
26.14
 20
100.341
 11
26.163
 21
100.394
  0
LINE
  8
0
 10
26.163
 20
100.394
 11
26.1894
 21
100.446
  0
LINE
  8
0
 10
26.1894
 20
100.446
 11
26.219
 21
100.496
  0
LINE
  8
0
 10
26.219
 20
100.496
 11
26.2516
 21
100.544
  0
LINE
  8
0
 10
26.2516
 20
100.544
 11
26.2873
 21
100.59
  0
LINE
  8
0
 10
26.2873
 20
100.59
 11
26.3257
 21
100.633
  0
LINE
  8
0
 10
26.3257
 20
100.633
 11
26.3668
 21
100.674
  0
LINE
  8
0
 10
26.3668
 20
100.674
 11
26.4104
 21
100.713
  0
LINE
  8
0
 10
26.4104
 20
100.713
 11
26.4563
 21
100.748
  0
LINE
  8
0
 10
26.4563
 20
100.748
 11
26.5043
 21
100.781
  0
LINE
  8
0
 10
26.5043
 20
100.781
 11
26.5544
 21
100.811
  0
LINE
  8
0
 10
26.5544
 20
100.811
 11
26.6061
 21
100.837
  0
LINE
  8
0
 10
26.6061
 20
100.837
 11
26.6595
 21
100.86
  0
LINE
  8
0
 10
26.6595
 20
100.86
 11
26.7142
 21
100.88
  0
LINE
  8
0
 10
26.7142
 20
100.88
 11
26.77
 21
100.896
  0
LINE
  8
0
 10
26.77
 20
100.896
 11
26.8267
 21
100.909
  0
LINE
  8
0
 10
26.8267
 20
100.909
 11
26.8841
 21
100.918
  0
LINE
  8
0
 10
26.8841
 20
100.918
 11
26.9419
 21
100.923
  0
LINE
  8
0
 10
26.9419
 20
100.923
 11
27
 21
100.925
  0
LINE
  8
0
 10
27
 20
100.925
 11
27.0581
 21
100.923
  0
LINE
  8
0
 10
27.0581
 20
100.923
 11
27.1159
 21
100.918
  0
LINE
  8
0
 10
27.1159
 20
100.918
 11
27.1733
 21
100.909
  0
LINE
  8
0
 10
27.1733
 20
100.909
 11
27.23
 21
100.896
  0
LINE
  8
0
 10
27.23
 20
100.896
 11
27.2858
 21
100.88
  0
LINE
  8
0
 10
27.2858
 20
100.88
 11
27.3405
 21
100.86
  0
LINE
  8
0
 10
27.3405
 20
100.86
 11
27.3938
 21
100.837
  0
LINE
  8
0
 10
27.3938
 20
100.837
 11
27.4456
 21
100.811
  0
LINE
  8
0
 10
27.4456
 20
100.811
 11
27.4956
 21
100.781
  0
LINE
  8
0
 10
27.4956
 20
100.781
 11
27.5437
 21
100.748
  0
LINE
  8
0
 10
27.5437
 20
100.748
 11
27.5896
 21
100.713
  0
LINE
  8
0
 10
27.5896
 20
100.713
 11
27.6332
 21
100.674
  0
LINE
  8
0
 10
27.6332
 20
100.674
 11
27.6743
 21
100.633
  0
LINE
  8
0
 10
27.6743
 20
100.633
 11
27.7127
 21
100.59
  0
LINE
  8
0
 10
27.7127
 20
100.59
 11
27.7483
 21
100.544
  0
LINE
  8
0
 10
27.7483
 20
100.544
 11
27.781
 21
100.496
  0
LINE
  8
0
 10
27.781
 20
100.496
 11
27.8106
 21
100.446
  0
LINE
  8
0
 10
27.8106
 20
100.446
 11
27.837
 21
100.394
  0
LINE
  8
0
 10
27.837
 20
100.394
 11
27.86
 21
100.341
  0
LINE
  8
0
 10
27.86
 20
100.341
 11
27.8797
 21
100.286
  0
LINE
  8
0
 10
27.8797
 20
100.286
 11
27.8959
 21
100.23
  0
LINE
  8
0
 10
27.8959
 20
100.23
 11
27.9086
 21
100.173
  0
LINE
  8
0
 10
27.9086
 20
100.173
 11
27.9177
 21
100.116
  0
LINE
  8
0
 10
27.9177
 20
100.116
 11
27.9232
 21
100.058
  0
LINE
  8
0
 10
27.9232
 20
100.058
 11
27.925
 21
100
  0
LINE
  8
0
 10
27.925
 20
100
 11
27.9232
 21
99.9419
  0
LINE
  8
0
 10
27.9232
 20
99.9419
 11
27.9177
 21
99.8841
  0
LINE
  8
0
 10
27.9177
 20
99.8841
 11
27.9086
 21
99.8267
  0
LINE
  8
0
 10
27.9086
 20
99.8267
 11
27.8959
 21
99.77
  0
LINE
  8
0
 10
27.8959
 20
99.77
 11
27.8797
 21
99.7142
  0
LINE
  8
0
 10
27.8797
 20
99.7142
 11
27.86
 21
99.6595
  0
LINE
  8
0
 10
27.86
 20
99.6595
 11
27.837
 21
99.6061
  0
LINE
  8
0
 10
27.837
 20
99.6061
 11
27.8106
 21
99.5544
  0
LINE
  8
0
 10
27.8106
 20
99.5544
 11
27.781
 21
99.5043
  0
LINE
  8
0
 10
27.781
 20
99.5043
 11
27.7483
 21
99.4563
  0
LINE
  8
0
 10
27.7483
 20
99.4563
 11
27.7127
 21
99.4104
  0
LINE
  8
0
 10
27.7127
 20
99.4104
 11
27.6743
 21
99.3668
  0
LINE
  8
0
 10
27.6743
 20
99.3668
 11
27.6332
 21
99.3257
  0
LINE
  8
0
 10
27.6332
 20
99.3257
 11
27.5896
 21
99.2873
  0
LINE
  8
0
 10
27.5896
 20
99.2873
 11
27.5437
 21
99.2516
  0
LINE
  8
0
 10
27.5437
 20
99.2516
 11
27.4956
 21
99.219
  0
LINE
  8
0
 10
27.4956
 20
99.219
 11
27.4456
 21
99.1894
  0
LINE
  8
0
 10
27.4456
 20
99.1894
 11
27.3938
 21
99.163
  0
LINE
  8
0
 10
27.3938
 20
99.163
 11
27.3405
 21
99.14
  0
LINE
  8
0
 10
27.3405
 20
99.14
 11
27.2858
 21
99.1203
  0
LINE
  8
0
 10
27.2858
 20
99.1203
 11
27.23
 21
99.104
  0
LINE
  8
0
 10
27.23
 20
99.104
 11
27.1733
 21
99.0914
  0
LINE
  8
0
 10
27.1733
 20
99.0914
 11
27.1159
 21
99.0823
  0
LINE
  8
0
 10
27.1159
 20
99.0823
 11
27.0581
 21
99.0768
  0
LINE
  8
0
 10
27.0581
 20
99.0768
 11
27
 21
99.075
  0
LINE
  8
0
 10
27
 20
99.075
 11
26.9419
 21
99.0768
  0
LINE
  8
0
 10
26.9419
 20
69.0768
 11
26.8841
 21
69.0823
  0
LINE
  8
0
 10
26.8841
 20
69.0823
 11
26.8267
 21
69.0914
  0
LINE
  8
0
 10
26.8267
 20
69.0914
 11
26.77
 21
69.104
  0
LINE
  8
0
 10
26.77
 20
69.104
 11
26.7142
 21
69.1203
  0
LINE
  8
0
 10
26.7142
 20
69.1203
 11
26.6595
 21
69.14
  0
LINE
  8
0
 10
26.6595
 20
69.14
 11
26.6061
 21
69.163
  0
LINE
  8
0
 10
26.6061
 20
69.163
 11
26.5544
 21
69.1894
  0
LINE
  8
0
 10
26.5544
 20
69.1894
 11
26.5043
 21
69.219
  0
LINE
  8
0
 10
26.5043
 20
69.219
 11
26.4563
 21
69.2516
  0
LINE
  8
0
 10
26.4563
 20
69.2516
 11
26.4104
 21
69.2873
  0
LINE
  8
0
 10
26.4104
 20
69.2873
 11
26.3668
 21
69.3257
  0
LINE
  8
0
 10
26.3668
 20
69.3257
 11
26.3257
 21
69.3668
  0
LINE
  8
0
 10
26.3257
 20
69.3668
 11
26.2873
 21
69.4104
  0
LINE
  8
0
 10
26.2873
 20
69.4104
 11
26.2516
 21
69.4563
  0
LINE
  8
0
 10
26.2516
 20
69.4563
 11
26.219
 21
69.5043
  0
LINE
  8
0
 10
26.219
 20
69.5043
 11
26.1894
 21
69.5544
  0
LINE
  8
0
 10
26.1894
 20
69.5544
 11
26.163
 21
69.6061
  0
LINE
  8
0
 10
26.163
 20
69.6061
 11
26.14
 21
69.6595
  0
LINE
  8
0
 10
26.14
 20
69.6595
 11
26.1203
 21
69.7142
  0
LINE
  8
0
 10
26.1203
 20
69.7142
 11
26.104
 21
69.77
  0
LINE
  8
0
 10
26.104
 20
69.77
 11
26.0914
 21
69.8267
  0
LINE
  8
0
 10
26.0914
 20
69.8267
 11
26.0823
 21
69.8841
  0
LINE
  8
0
 10
26.0823
 20
69.8841
 11
26.0768
 21
69.9419
  0
LINE
  8
0
 10
26.0768
 20
69.9419
 11
26.075
 21
70
  0
LINE
  8
0
 10
26.075
 20
70
 11
26.0768
 21
70.0581
  0
LINE
  8
0
 10
26.0768
 20
70.0581
 11
26.0823
 21
70.1159
  0
LINE
  8
0
 10
26.0823
 20
70.1159
 11
26.0914
 21
70.1733
  0
LINE
  8
0
 10
26.0914
 20
70.1733
 11
26.104
 21
70.23
  0
LINE
  8
0
 10
26.104
 20
70.23
 11
26.1203
 21
70.2858
  0
LINE
  8
0
 10
26.1203
 20
70.2858
 11
26.14
 21
70.3405
  0
LINE
  8
0
 10
26.14
 20
70.3405
 11
26.163
 21
70.3938
  0
LINE
  8
0
 10
26.163
 20
70.3938
 11
26.1894
 21
70.4456
  0
LINE
  8
0
 10
26.1894
 20
70.4456
 11
26.219
 21
70.4956
  0
LINE
  8
0
 10
26.219
 20
70.4956
 11
26.2516
 21
70.5437
  0
LINE
  8
0
 10
26.2516
 20
70.5437
 11
26.2873
 21
70.5896
  0
LINE
  8
0
 10
26.2873
 20
70.5896
 11
26.3257
 21
70.6332
  0
LINE
  8
0
 10
26.3257
 20
70.6332
 11
26.3668
 21
70.6743
  0
LINE
  8
0
 10
26.3668
 20
70.6743
 11
26.4104
 21
70.7127
  0
LINE
  8
0
 10
26.4104
 20
70.7127
 11
26.4563
 21
70.7483
  0
LINE
  8
0
 10
26.4563
 20
70.7483
 11
26.5043
 21
70.781
  0
LINE
  8
0
 10
26.5043
 20
70.781
 11
26.5544
 21
70.8106
  0
LINE
  8
0
 10
26.5544
 20
70.8106
 11
26.6061
 21
70.837
  0
LINE
  8
0
 10
26.6061
 20
70.837
 11
26.6595
 21
70.86
  0
LINE
  8
0
 10
26.6595
 20
70.86
 11
26.7142
 21
70.8797
  0
LINE
  8
0
 10
26.7142
 20
70.8797
 11
26.77
 21
70.8959
  0
LINE
  8
0
 10
26.77
 20
70.8959
 11
26.8267
 21
70.9086
  0
LINE
  8
0
 10
26.8267
 20
70.9086
 11
26.8841
 21
70.9177
  0
LINE
  8
0
 10
26.8841
 20
70.9177
 11
26.9419
 21
70.9232
  0
LINE
  8
0
 10
26.9419
 20
70.9232
 11
27
 21
70.925
  0
LINE
  8
0
 10
27
 20
70.925
 11
27.0581
 21
70.9232
  0
LINE
  8
0
 10
27.0581
 20
70.9232
 11
27.1159
 21
70.9177
  0
LINE
  8
0
 10
27.1159
 20
70.9177
 11
27.1733
 21
70.9086
  0
LINE
  8
0
 10
27.1733
 20
70.9086
 11
27.23
 21
70.8959
  0
LINE
  8
0
 10
27.23
 20
70.8959
 11
27.2858
 21
70.8797
  0
LINE
  8
0
 10
27.2858
 20
70.8797
 11
27.3405
 21
70.86
  0
LINE
  8
0
 10
27.3405
 20
70.86
 11
27.3938
 21
70.837
  0
LINE
  8
0
 10
27.3938
 20
70.837
 11
27.4456
 21
70.8106
  0
LINE
  8
0
 10
27.4456
 20
70.8106
 11
27.4956
 21
70.781
  0
LINE
  8
0
 10
27.4956
 20
70.781
 11
27.5437
 21
70.7483
  0
LINE
  8
0
 10
27.5437
 20
70.7483
 11
27.5896
 21
70.7127
  0
LINE
  8
0
 10
27.5896
 20
70.7127
 11
27.6332
 21
70.6743
  0
LINE
  8
0
 10
27.6332
 20
70.6743
 11
27.6743
 21
70.6332
  0
LINE
  8
0
 10
27.6743
 20
70.6332
 11
27.7127
 21
70.5896
  0
LINE
  8
0
 10
27.7127
 20
70.5896
 11
27.7483
 21
70.5437
  0
LINE
  8
0
 10
27.7483
 20
70.5437
 11
27.781
 21
70.4956
  0
LINE
  8
0
 10
27.781
 20
70.4956
 11
27.8106
 21
70.4456
  0
LINE
  8
0
 10
27.8106
 20
70.4456
 11
27.837
 21
70.3938
  0
LINE
  8
0
 10
27.837
 20
70.3938
 11
27.86
 21
70.3405
  0
LINE
  8
0
 10
27.86
 20
70.3405
 11
27.8797
 21
70.2858
  0
LINE
  8
0
 10
27.8797
 20
70.2858
 11
27.8959
 21
70.23
  0
LINE
  8
0
 10
27.8959
 20
70.23
 11
27.9086
 21
70.1733
  0
LINE
  8
0
 10
27.9086
 20
70.1733
 11
27.9177
 21
70.1159
  0
LINE
  8
0
 10
27.9177
 20
70.1159
 11
27.9232
 21
70.0581
  0
LINE
  8
0
 10
27.9232
 20
70.0581
 11
27.925
 21
70
  0
LINE
  8
0
 10
27.925
 20
70
 11
27.9232
 21
69.9419
  0
LINE
  8
0
 10
27.9232
 20
69.9419
 11
27.9177
 21
69.8841
  0
LINE
  8
0
 10
27.9177
 20
69.8841
 11
27.9086
 21
69.8267
  0
LINE
  8
0
 10
27.9086
 20
69.8267
 11
27.8959
 21
69.77
  0
LINE
  8
0
 10
27.8959
 20
69.77
 11
27.8797
 21
69.7142
  0
LINE
  8
0
 10
27.8797
 20
69.7142
 11
27.86
 21
69.6595
  0
LINE
  8
0
 10
27.86
 20
69.6595
 11
27.837
 21
69.6061
  0
LINE
  8
0
 10
27.837
 20
69.6061
 11
27.8106
 21
69.5544
  0
LINE
  8
0
 10
27.8106
 20
69.5544
 11
27.781
 21
69.5043
  0
LINE
  8
0
 10
27.781
 20
69.5043
 11
27.7483
 21
69.4563
  0
LINE
  8
0
 10
27.7483
 20
69.4563
 11
27.7127
 21
69.4104
  0
LINE
  8
0
 10
27.7127
 20
69.4104
 11
27.6743
 21
69.3668
  0
LINE
  8
0
 10
27.6743
 20
69.3668
 11
27.6332
 21
69.3257
  0
LINE
  8
0
 10
27.6332
 20
69.3257
 11
27.5896
 21
69.2873
  0
LINE
  8
0
 10
27.5896
 20
69.2873
 11
27.5437
 21
69.2516
  0
LINE
  8
0
 10
27.5437
 20
69.2516
 11
27.4956
 21
69.219
  0
LINE
  8
0
 10
27.4956
 20
69.219
 11
27.4456
 21
69.1894
  0
LINE
  8
0
 10
27.4456
 20
69.1894
 11
27.3938
 21
69.163
  0
LINE
  8
0
 10
27.3938
 20
69.163
 11
27.3405
 21
69.14
  0
LINE
  8
0
 10
27.3405
 20
69.14
 11
27.2858
 21
69.1203
  0
LINE
  8
0
 10
27.2858
 20
69.1203
 11
27.23
 21
69.104
  0
LINE
  8
0
 10
27.23
 20
69.104
 11
27.1733
 21
69.0914
  0
LINE
  8
0
 10
27.1733
 20
69.0914
 11
27.1159
 21
69.0823
  0
LINE
  8
0
 10
27.1159
 20
69.0823
 11
27.0581
 21
69.0768
  0
LINE
  8
0
 10
27.0581
 20
69.0768
 11
27
 21
69.075
  0
LINE
  8
0
 10
27
 20
69.075
 11
26.9419
 21
69.0768
  0
LINE
  8
0
 10
26.9419
 20
39.0768
 11
26.8841
 21
39.0823
  0
LINE
  8
0
 10
26.8841
 20
39.0823
 11
26.8267
 21
39.0914
  0
LINE
  8
0
 10
26.8267
 20
39.0914
 11
26.77
 21
39.104
  0
LINE
  8
0
 10
26.77
 20
39.104
 11
26.7142
 21
39.1203
  0
LINE
  8
0
 10
26.7142
 20
39.1203
 11
26.6595
 21
39.14
  0
LINE
  8
0
 10
26.6595
 20
39.14
 11
26.6061
 21
39.163
  0
LINE
  8
0
 10
26.6061
 20
39.163
 11
26.5544
 21
39.1894
  0
LINE
  8
0
 10
26.5544
 20
39.1894
 11
26.5043
 21
39.219
  0
LINE
  8
0
 10
26.5043
 20
39.219
 11
26.4563
 21
39.2516
  0
LINE
  8
0
 10
26.4563
 20
39.2516
 11
26.4104
 21
39.2873
  0
LINE
  8
0
 10
26.4104
 20
39.2873
 11
26.3668
 21
39.3257
  0
LINE
  8
0
 10
26.3668
 20
39.3257
 11
26.3257
 21
39.3668
  0
LINE
  8
0
 10
26.3257
 20
39.3668
 11
26.2873
 21
39.4104
  0
LINE
  8
0
 10
26.2873
 20
39.4104
 11
26.2516
 21
39.4563
  0
LINE
  8
0
 10
26.2516
 20
39.4563
 11
26.219
 21
39.5043
  0
LINE
  8
0
 10
26.219
 20
39.5043
 11
26.1894
 21
39.5544
  0
LINE
  8
0
 10
26.1894
 20
39.5544
 11
26.163
 21
39.6061
  0
LINE
  8
0
 10
26.163
 20
39.6061
 11
26.14
 21
39.6595
  0
LINE
  8
0
 10
26.14
 20
39.6595
 11
26.1203
 21
39.7142
  0
LINE
  8
0
 10
26.1203
 20
39.7142
 11
26.104
 21
39.77
  0
LINE
  8
0
 10
26.104
 20
39.77
 11
26.0914
 21
39.8267
  0
LINE
  8
0
 10
26.0914
 20
39.8267
 11
26.0823
 21
39.8841
  0
LINE
  8
0
 10
26.0823
 20
39.8841
 11
26.0768
 21
39.9419
  0
LINE
  8
0
 10
26.0768
 20
39.9419
 11
26.075
 21
40
  0
LINE
  8
0
 10
26.075
 20
40
 11
26.0768
 21
40.0581
  0
LINE
  8
0
 10
26.0768
 20
40.0581
 11
26.0823
 21
40.1159
  0
LINE
  8
0
 10
26.0823
 20
40.1159
 11
26.0914
 21
40.1733
  0
LINE
  8
0
 10
26.0914
 20
40.1733
 11
26.104
 21
40.23
  0
LINE
  8
0
 10
26.104
 20
40.23
 11
26.1203
 21
40.2858
  0
LINE
  8
0
 10
26.1203
 20
40.2858
 11
26.14
 21
40.3405
  0
LINE
  8
0
 10
26.14
 20
40.3405
 11
26.163
 21
40.3938
  0
LINE
  8
0
 10
26.163
 20
40.3938
 11
26.1894
 21
40.4456
  0
LINE
  8
0
 10
26.1894
 20
40.4456
 11
26.219
 21
40.4956
  0
LINE
  8
0
 10
26.219
 20
40.4956
 11
26.2516
 21
40.5437
  0
LINE
  8
0
 10
26.2516
 20
40.5437
 11
26.2873
 21
40.5896
  0
LINE
  8
0
 10
26.2873
 20
40.5896
 11
26.3257
 21
40.6332
  0
LINE
  8
0
 10
26.3257
 20
40.6332
 11
26.3668
 21
40.6743
  0
LINE
  8
0
 10
26.3668
 20
40.6743
 11
26.4104
 21
40.7127
  0
LINE
  8
0
 10
26.4104
 20
40.7127
 11
26.4563
 21
40.7483
  0
LINE
  8
0
 10
26.4563
 20
40.7483
 11
26.5043
 21
40.781
  0
LINE
  8
0
 10
26.5043
 20
40.781
 11
26.5544
 21
40.8106
  0
LINE
  8
0
 10
26.5544
 20
40.8106
 11
26.6061
 21
40.837
  0
LINE
  8
0
 10
26.6061
 20
40.837
 11
26.6595
 21
40.86
  0
LINE
  8
0
 10
26.6595
 20
40.86
 11
26.7142
 21
40.8797
  0
LINE
  8
0
 10
26.7142
 20
40.8797
 11
26.77
 21
40.8959
  0
LINE
  8
0
 10
26.77
 20
40.8959
 11
26.8267
 21
40.9086
  0
LINE
  8
0
 10
26.8267
 20
40.9086
 11
26.8841
 21
40.9177
  0
LINE
  8
0
 10
26.8841
 20
40.9177
 11
26.9419
 21
40.9232
  0
LINE
  8
0
 10
26.9419
 20
40.9232
 11
27
 21
40.925
  0
LINE
  8
0
 10
27
 20
40.925
 11
27.0581
 21
40.9232
  0
LINE
  8
0
 10
27.0581
 20
40.9232
 11
27.1159
 21
40.9177
  0
LINE
  8
0
 10
27.1159
 20
40.9177
 11
27.1733
 21
40.9086
  0
LINE
  8
0
 10
27.1733
 20
40.9086
 11
27.23
 21
40.8959
  0
LINE
  8
0
 10
27.23
 20
40.8959
 11
27.2858
 21
40.8797
  0
LINE
  8
0
 10
27.2858
 20
40.8797
 11
27.3405
 21
40.86
  0
LINE
  8
0
 10
27.3405
 20
40.86
 11
27.3938
 21
40.837
  0
LINE
  8
0
 10
27.3938
 20
40.837
 11
27.4456
 21
40.8106
  0
LINE
  8
0
 10
27.4456
 20
40.8106
 11
27.4956
 21
40.781
  0
LINE
  8
0
 10
27.4956
 20
40.781
 11
27.5437
 21
40.7483
  0
LINE
  8
0
 10
27.5437
 20
40.7483
 11
27.5896
 21
40.7127
  0
LINE
  8
0
 10
27.5896
 20
40.7127
 11
27.6332
 21
40.6743
  0
LINE
  8
0
 10
27.6332
 20
40.6743
 11
27.6743
 21
40.6332
  0
LINE
  8
0
 10
27.6743
 20
40.6332
 11
27.7127
 21
40.5896
  0
LINE
  8
0
 10
27.7127
 20
40.5896
 11
27.7483
 21
40.5437
  0
LINE
  8
0
 10
27.7483
 20
40.5437
 11
27.781
 21
40.4956
  0
LINE
  8
0
 10
27.781
 20
40.4956
 11
27.8106
 21
40.4456
  0
LINE
  8
0
 10
27.8106
 20
40.4456
 11
27.837
 21
40.3938
  0
LINE
  8
0
 10
27.837
 20
40.3938
 11
27.86
 21
40.3405
  0
LINE
  8
0
 10
27.86
 20
40.3405
 11
27.8797
 21
40.2858
  0
LINE
  8
0
 10
27.8797
 20
40.2858
 11
27.8959
 21
40.23
  0
LINE
  8
0
 10
27.8959
 20
40.23
 11
27.9086
 21
40.1733
  0
LINE
  8
0
 10
27.9086
 20
40.1733
 11
27.9177
 21
40.1159
  0
LINE
  8
0
 10
27.9177
 20
40.1159
 11
27.9232
 21
40.0581
  0
LINE
  8
0
 10
27.9232
 20
40.0581
 11
27.925
 21
40
  0
LINE
  8
0
 10
27.925
 20
40
 11
27.9232
 21
39.9419
  0
LINE
  8
0
 10
27.9232
 20
39.9419
 11
27.9177
 21
39.8841
  0
LINE
  8
0
 10
27.9177
 20
39.8841
 11
27.9086
 21
39.8267
  0
LINE
  8
0
 10
27.9086
 20
39.8267
 11
27.8959
 21
39.77
  0
LINE
  8
0
 10
27.8959
 20
39.77
 11
27.8797
 21
39.7142
  0
LINE
  8
0
 10
27.8797
 20
39.7142
 11
27.86
 21
39.6595
  0
LINE
  8
0
 10
27.86
 20
39.6595
 11
27.837
 21
39.6061
  0
LINE
  8
0
 10
27.837
 20
39.6061
 11
27.8106
 21
39.5544
  0
LINE
  8
0
 10
27.8106
 20
39.5544
 11
27.781
 21
39.5043
  0
LINE
  8
0
 10
27.781
 20
39.5043
 11
27.7483
 21
39.4563
  0
LINE
  8
0
 10
27.7483
 20
39.4563
 11
27.7127
 21
39.4104
  0
LINE
  8
0
 10
27.7127
 20
39.4104
 11
27.6743
 21
39.3668
  0
LINE
  8
0
 10
27.6743
 20
39.3668
 11
27.6332
 21
39.3257
  0
LINE
  8
0
 10
27.6332
 20
39.3257
 11
27.5896
 21
39.2873
  0
LINE
  8
0
 10
27.5896
 20
39.2873
 11
27.5437
 21
39.2516
  0
LINE
  8
0
 10
27.5437
 20
39.2516
 11
27.4956
 21
39.219
  0
LINE
  8
0
 10
27.4956
 20
39.219
 11
27.4456
 21
39.1894
  0
LINE
  8
0
 10
27.4456
 20
39.1894
 11
27.3938
 21
39.163
  0
LINE
  8
0
 10
27.3938
 20
39.163
 11
27.3405
 21
39.14
  0
LINE
  8
0
 10
27.3405
 20
39.14
 11
27.2858
 21
39.1203
  0
LINE
  8
0
 10
27.2858
 20
39.1203
 11
27.23
 21
39.104
  0
LINE
  8
0
 10
27.23
 20
39.104
 11
27.1733
 21
39.0914
  0
LINE
  8
0
 10
27.1733
 20
39.0914
 11
27.1159
 21
39.0823
  0
LINE
  8
0
 10
27.1159
 20
39.0823
 11
27.0581
 21
39.0768
  0
LINE
  8
0
 10
27.0581
 20
39.0768
 11
27
 21
39.075
  0
LINE
  8
0
 10
27
 20
39.075
 11
26.9419
 21
39.0768
  0
LINE
  8
0
 10
26.9419
 20
9.07681
 11
26.8841
 21
9.08229
  0
LINE
  8
0
 10
26.8841
 20
9.08229
 11
26.8267
 21
9.09137
  0
LINE
  8
0
 10
26.8267
 20
9.09137
 11
26.77
 21
9.10405
  0
LINE
  8
0
 10
26.77
 20
9.10405
 11
26.7142
 21
9.12027
  0
LINE
  8
0
 10
26.7142
 20
9.12027
 11
26.6595
 21
9.13995
  0
LINE
  8
0
 10
26.6595
 20
9.13995
 11
26.6061
 21
9.16302
  0
LINE
  8
0
 10
26.6061
 20
9.16302
 11
26.5544
 21
9.18941
  0
LINE
  8
0
 10
26.5544
 20
9.18941
 11
26.5043
 21
9.21899
  0
LINE
  8
0
 10
26.5043
 20
9.21899
 11
26.4563
 21
9.25165
  0
LINE
  8
0
 10
26.4563
 20
9.25165
 11
26.4104
 21
9.28726
  0
LINE
  8
0
 10
26.4104
 20
9.28726
 11
26.3668
 21
9.3257
  0
LINE
  8
0
 10
26.3668
 20
9.3257
 11
26.3257
 21
9.36679
  0
LINE
  8
0
 10
26.3257
 20
9.36679
 11
26.2873
 21
9.41037
  0
LINE
  8
0
 10
26.2873
 20
9.41037
 11
26.2516
 21
9.45628
  0
LINE
  8
0
 10
26.2516
 20
9.45628
 11
26.219
 21
9.50435
  0
LINE
  8
0
 10
26.219
 20
9.50435
 11
26.1894
 21
9.55437
  0
LINE
  8
0
 10
26.1894
 20
9.55437
 11
26.163
 21
9.60614
  0
LINE
  8
0
 10
26.163
 20
9.60614
 11
26.14
 21
9.65947
  0
LINE
  8
0
 10
26.14
 20
9.65947
 11
26.1203
 21
9.71416
  0
LINE
  8
0
 10
26.1203
 20
9.71416
 11
26.104
 21
9.76996
  0
LINE
  8
0
 10
26.104
 20
9.76996
 11
26.0914
 21
9.82666
  0
LINE
  8
0
 10
26.0914
 20
9.82666
 11
26.0823
 21
9.88406
  0
LINE
  8
0
 10
26.0823
 20
9.88406
 11
26.0768
 21
9.94191
  0
LINE
  8
0
 10
26.0768
 20
9.94191
 11
26.075
 21
10
  0
LINE
  8
0
 10
26.075
 20
10
 11
26.0768
 21
10.0581
  0
LINE
  8
0
 10
26.0768
 20
10.0581
 11
26.0823
 21
10.1159
  0
LINE
  8
0
 10
26.0823
 20
10.1159
 11
26.0914
 21
10.1733
  0
LINE
  8
0
 10
26.0914
 20
10.1733
 11
26.104
 21
10.23
  0
LINE
  8
0
 10
26.104
 20
10.23
 11
26.1203
 21
10.2858
  0
LINE
  8
0
 10
26.1203
 20
10.2858
 11
26.14
 21
10.3405
  0
LINE
  8
0
 10
26.14
 20
10.3405
 11
26.163
 21
10.3938
  0
LINE
  8
0
 10
26.163
 20
10.3938
 11
26.1894
 21
10.4456
  0
LINE
  8
0
 10
26.1894
 20
10.4456
 11
26.219
 21
10.4956
  0
LINE
  8
0
 10
26.219
 20
10.4956
 11
26.2516
 21
10.5437
  0
LINE
  8
0
 10
26.2516
 20
10.5437
 11
26.2873
 21
10.5896
  0
LINE
  8
0
 10
26.2873
 20
10.5896
 11
26.3257
 21
10.6332
  0
LINE
  8
0
 10
26.3257
 20
10.6332
 11
26.3668
 21
10.6743
  0
LINE
  8
0
 10
26.3668
 20
10.6743
 11
26.4104
 21
10.7127
  0
LINE
  8
0
 10
26.4104
 20
10.7127
 11
26.4563
 21
10.7483
  0
LINE
  8
0
 10
26.4563
 20
10.7483
 11
26.5043
 21
10.781
  0
LINE
  8
0
 10
26.5043
 20
10.781
 11
26.5544
 21
10.8106
  0
LINE
  8
0
 10
26.5544
 20
10.8106
 11
26.6061
 21
10.837
  0
LINE
  8
0
 10
26.6061
 20
10.837
 11
26.6595
 21
10.86
  0
LINE
  8
0
 10
26.6595
 20
10.86
 11
26.7142
 21
10.8797
  0
LINE
  8
0
 10
26.7142
 20
10.8797
 11
26.77
 21
10.8959
  0
LINE
  8
0
 10
26.77
 20
10.8959
 11
26.8267
 21
10.9086
  0
LINE
  8
0
 10
26.8267
 20
10.9086
 11
26.8841
 21
10.9177
  0
LINE
  8
0
 10
26.8841
 20
10.9177
 11
26.9419
 21
10.9232
  0
LINE
  8
0
 10
26.9419
 20
10.9232
 11
27
 21
10.925
  0
LINE
  8
0
 10
27
 20
10.925
 11
27.0581
 21
10.9232
  0
LINE
  8
0
 10
27.0581
 20
10.9232
 11
27.1159
 21
10.9177
  0
LINE
  8
0
 10
27.1159
 20
10.9177
 11
27.1733
 21
10.9086
  0
LINE
  8
0
 10
27.1733
 20
10.9086
 11
27.23
 21
10.8959
  0
LINE
  8
0
 10
27.23
 20
10.8959
 11
27.2858
 21
10.8797
  0
LINE
  8
0
 10
27.2858
 20
10.8797
 11
27.3405
 21
10.86
  0
LINE
  8
0
 10
27.3405
 20
10.86
 11
27.3938
 21
10.837
  0
LINE
  8
0
 10
27.3938
 20
10.837
 11
27.4456
 21
10.8106
  0
LINE
  8
0
 10
27.4456
 20
10.8106
 11
27.4956
 21
10.781
  0
LINE
  8
0
 10
27.4956
 20
10.781
 11
27.5437
 21
10.7483
  0
LINE
  8
0
 10
27.5437
 20
10.7483
 11
27.5896
 21
10.7127
  0
LINE
  8
0
 10
27.5896
 20
10.7127
 11
27.6332
 21
10.6743
  0
LINE
  8
0
 10
27.6332
 20
10.6743
 11
27.6743
 21
10.6332
  0
LINE
  8
0
 10
27.6743
 20
10.6332
 11
27.7127
 21
10.5896
  0
LINE
  8
0
 10
27.7127
 20
10.5896
 11
27.7483
 21
10.5437
  0
LINE
  8
0
 10
27.7483
 20
10.5437
 11
27.781
 21
10.4956
  0
LINE
  8
0
 10
27.781
 20
10.4956
 11
27.8106
 21
10.4456
  0
LINE
  8
0
 10
27.8106
 20
10.4456
 11
27.837
 21
10.3938
  0
LINE
  8
0
 10
27.837
 20
10.3938
 11
27.86
 21
10.3405
  0
LINE
  8
0
 10
27.86
 20
10.3405
 11
27.8797
 21
10.2858
  0
LINE
  8
0
 10
27.8797
 20
10.2858
 11
27.8959
 21
10.23
  0
LINE
  8
0
 10
27.8959
 20
10.23
 11
27.9086
 21
10.1733
  0
LINE
  8
0
 10
27.9086
 20
10.1733
 11
27.9177
 21
10.1159
  0
LINE
  8
0
 10
27.9177
 20
10.1159
 11
27.9232
 21
10.0581
  0
LINE
  8
0
 10
27.9232
 20
10.0581
 11
27.925
 21
10
  0
LINE
  8
0
 10
27.925
 20
10
 11
27.9232
 21
9.94191
  0
LINE
  8
0
 10
27.9232
 20
9.94191
 11
27.9177
 21
9.88406
  0
LINE
  8
0
 10
27.9177
 20
9.88406
 11
27.9086
 21
9.82666
  0
LINE
  8
0
 10
27.9086
 20
9.82666
 11
27.8959
 21
9.76996
  0
LINE
  8
0
 10
27.8959
 20
9.76996
 11
27.8797
 21
9.71416
  0
LINE
  8
0
 10
27.8797
 20
9.71416
 11
27.86
 21
9.65947
  0
LINE
  8
0
 10
27.86
 20
9.65947
 11
27.837
 21
9.60614
  0
LINE
  8
0
 10
27.837
 20
9.60614
 11
27.8106
 21
9.55437
  0
LINE
  8
0
 10
27.8106
 20
9.55437
 11
27.781
 21
9.50435
  0
LINE
  8
0
 10
27.781
 20
9.50435
 11
27.7483
 21
9.45628
  0
LINE
  8
0
 10
27.7483
 20
9.45628
 11
27.7127
 21
9.41037
  0
LINE
  8
0
 10
27.7127
 20
9.41037
 11
27.6743
 21
9.36679
  0
LINE
  8
0
 10
27.6743
 20
9.36679
 11
27.6332
 21
9.3257
  0
LINE
  8
0
 10
27.6332
 20
9.3257
 11
27.5896
 21
9.28726
  0
LINE
  8
0
 10
27.5896
 20
9.28726
 11
27.5437
 21
9.25165
  0
LINE
  8
0
 10
27.5437
 20
9.25165
 11
27.4956
 21
9.21899
  0
LINE
  8
0
 10
27.4956
 20
9.21899
 11
27.4456
 21
9.18941
  0
LINE
  8
0
 10
27.4456
 20
9.18941
 11
27.3938
 21
9.16302
  0
LINE
  8
0
 10
27.3938
 20
9.16302
 11
27.3405
 21
9.13995
  0
LINE
  8
0
 10
27.3405
 20
9.13995
 11
27.2858
 21
9.12027
  0
LINE
  8
0
 10
27.2858
 20
9.12027
 11
27.23
 21
9.10405
  0
LINE
  8
0
 10
27.23
 20
9.10405
 11
27.1733
 21
9.09137
  0
LINE
  8
0
 10
27.1733
 20
9.09137
 11
27.1159
 21
9.08229
  0
LINE
  8
0
 10
27.1159
 20
9.08229
 11
27.0581
 21
9.07681
  0
LINE
  8
0
 10
27.0581
 20
9.07681
 11
27
 21
9.075
  0
LINE
  8
0
 10
27
 20
9.075
 11
26.9419
 21
9.07681
  0
ENDSEC
  0
SECTION
  2
OBJECTS
  0
DICTIONARY
  0
ENDSEC
  0
EOF
