<?xml version="1.0" standalone="no"?>
<!DOCTYPE svg PUBLIC "-//W3C//DTD SVG 1.1//EN" "http://www.w3.org/Graphics/SVG/1.1/DTD/svg11.dtd">
<svg width="318mm" height="78mm" viewBox="0 -75 318 78" xmlns="http://www.w3.org/2000/svg" version="1.1">
<title>OpenSCAD Model</title>
<path d="
M 318,-74.5 L 300,-74.5 L 240,-57.5 L 0,-57.5 L 0,2.5 L 318,2.5
 z
M 308.926,-70.7273 L 308.853,-70.7343 L 308.78,-70.7458 L 308.708,-70.7619 L 308.637,-70.7825 L 308.567,-70.8075
 L 308.5,-70.8368 L 308.434,-70.8703 L 308.37,-70.9079 L 308.309,-70.9494 L 308.251,-70.9946 L 308.196,-71.0435
 L 308.143,-71.0956 L 308.095,-71.151 L 308.049,-71.2094 L 308.008,-71.2704 L 307.97,-71.3339 L 307.937,-71.3997
 L 307.908,-71.4675 L 307.883,-71.5369 L 307.862,-71.6078 L 307.846,-71.6798 L 307.834,-71.7527 L 307.827,-71.8262
 L 307.825,-71.9 L 307.827,-71.9738 L 307.834,-72.0473 L 307.846,-72.1202 L 307.862,-72.1922 L 307.883,-72.2631
 L 307.908,-72.3325 L 307.937,-72.4003 L 307.97,-72.466 L 308.008,-72.5296 L 308.049,-72.5906 L 308.095,-72.649
 L 308.143,-72.7043 L 308.196,-72.7565 L 308.251,-72.8053 L 308.309,-72.8506 L 308.37,-72.8921 L 308.434,-72.9297
 L 308.5,-72.9632 L 308.567,-72.9925 L 308.637,-73.0175 L 308.708,-73.0381 L 308.78,-73.0542 L 308.853,-73.0657
 L 308.926,-73.0727 L 309,-73.075 L 309.074,-73.0727 L 309.147,-73.0657 L 309.22,-73.0542 L 309.292,-73.0381
 L 309.363,-73.0175 L 309.433,-72.9925 L 309.5,-72.9632 L 309.566,-72.9297 L 309.63,-72.8921 L 309.691,-72.8506
 L 309.749,-72.8053 L 309.804,-72.7565 L 309.857,-72.7043 L 309.905,-72.649 L 309.951,-72.5906 L 309.992,-72.5296
 L 310.03,-72.466 L 310.063,-72.4003 L 310.092,-72.3325 L 310.117,-72.2631 L 310.138,-72.1922 L 310.154,-72.1202
 L 310.166,-72.0473 L 310.173,-71.9738 L 310.175,-71.9 L 310.173,-71.8262 L 310.166,-71.7527 L 310.154,-71.6798
 L 310.138,-71.6078 L 310.117,-71.5369 L 310.092,-71.4675 L 310.063,-71.3997 L 310.03,-71.3339 L 309.992,-71.2704
 L 309.951,-71.2094 L 309.905,-71.151 L 309.857,-71.0956 L 309.804,-71.0435 L 309.749,-70.9946 L 309.691,-70.9494
 L 309.63,-70.9079 L 309.566,-70.8703 L 309.5,-70.8368 L 309.433,-70.8075 L 309.363,-70.7825 L 309.292,-70.7619
 L 309.22,-70.7458 L 309.147,-70.7343 L 309.074,-70.7273 L 309,-70.725 z
M 308.926,-60.7273 L 308.853,-60.7343 L 308.78,-60.7458 L 308.708,-60.7619 L 308.637,-60.7825 L 308.567,-60.8075
 L 308.5,-60.8368 L 308.434,-60.8703 L 308.37,-60.9079 L 308.309,-60.9494 L 308.251,-60.9946 L 308.196,-61.0435
 L 308.143,-61.0956 L 308.095,-61.151 L 308.049,-61.2094 L 308.008,-61.2704 L 307.97,-61.3339 L 307.937,-61.3997
 L 307.908,-61.4675 L 307.883,-61.5369 L 307.862,-61.6078 L 307.846,-61.6798 L 307.834,-61.7527 L 307.827,-61.8262
 L 307.825,-61.9 L 307.827,-61.9738 L 307.834,-62.0473 L 307.846,-62.1202 L 307.862,-62.1922 L 307.883,-62.2631
 L 307.908,-62.3325 L 307.937,-62.4003 L 307.97,-62.466 L 308.008,-62.5296 L 308.049,-62.5906 L 308.095,-62.649
 L 308.143,-62.7043 L 308.196,-62.7565 L 308.251,-62.8053 L 308.309,-62.8506 L 308.37,-62.8921 L 308.434,-62.9297
 L 308.5,-62.9632 L 308.567,-62.9925 L 308.637,-63.0175 L 308.708,-63.0381 L 308.78,-63.0542 L 308.853,-63.0657
 L 308.926,-63.0727 L 309,-63.075 L 309.074,-63.0727 L 309.147,-63.0657 L 309.22,-63.0542 L 309.292,-63.0381
 L 309.363,-63.0175 L 309.433,-62.9925 L 309.5,-62.9632 L 309.566,-62.9297 L 309.63,-62.8921 L 309.691,-62.8506
 L 309.749,-62.8053 L 309.804,-62.7565 L 309.857,-62.7043 L 309.905,-62.649 L 309.951,-62.5906 L 309.992,-62.5296
 L 310.03,-62.466 L 310.063,-62.4003 L 310.092,-62.3325 L 310.117,-62.2631 L 310.138,-62.1922 L 310.154,-62.1202
 L 310.166,-62.0473 L 310.173,-61.9738 L 310.175,-61.9 L 310.173,-61.8262 L 310.166,-61.7527 L 310.154,-61.6798
 L 310.138,-61.6078 L 310.117,-61.5369 L 310.092,-61.4675 L 310.063,-61.3997 L 310.03,-61.3339 L 309.992,-61.2704
 L 309.951,-61.2094 L 309.905,-61.151 L 309.857,-61.0956 L 309.804,-61.0435 L 309.749,-60.9946 L 309.691,-60.9494
 L 309.63,-60.9079 L 309.566,-60.8703 L 309.5,-60.8368 L 309.433,-60.8075 L 309.363,-60.7825 L 309.292,-60.7619
 L 309.22,-60.7458 L 309.147,-60.7343 L 309.074,-60.7273 L 309,-60.725 z
M 8.92621,-53.8273 L 8.85272,-53.8343 L 8.77982,-53.8458 L 8.70778,-53.8619 L 8.6369,-53.8825 L 8.56744,-53.9075
 L 8.49969,-53.9368 L 8.43393,-53.9703 L 8.37039,-54.0079 L 8.30934,-54.0494 L 8.25102,-54.0946 L 8.19565,-54.1434
 L 8.14345,-54.1956 L 8.09464,-54.251 L 8.04939,-54.3093 L 8.0079,-54.3704 L 7.97034,-54.4339 L 7.93681,-54.4997
 L 7.9075,-54.5674 L 7.88251,-54.6369 L 7.86191,-54.7078 L 7.84581,-54.7798 L 7.83426,-54.8527 L 7.82732,-54.9262
 L 7.825,-55 L 7.82732,-55.0738 L 7.83426,-55.1473 L 7.84581,-55.2202 L 7.86191,-55.2922 L 7.88251,-55.3631
 L 7.9075,-55.4325 L 7.93681,-55.5003 L 7.97034,-55.5661 L 8.0079,-55.6296 L 8.04939,-55.6906 L 8.09464,-55.749
 L 8.14345,-55.8043 L 8.19565,-55.8565 L 8.25102,-55.9053 L 8.30934,-55.9506 L 8.37039,-55.9921 L 8.43393,-56.0296
 L 8.49969,-56.0632 L 8.56744,-56.0925 L 8.6369,-56.1175 L 8.70778,-56.1381 L 8.77982,-56.1542 L 8.85272,-56.1657
 L 8.92621,-56.1727 L 9,-56.175 L 9.07378,-56.1727 L 9.14726,-56.1657 L 9.22017,-56.1542 L 9.29221,-56.1381
 L 9.36308,-56.1175 L 9.43254,-56.0925 L 9.50029,-56.0632 L 9.56606,-56.0296 L 9.62959,-55.9921 L 9.69064,-55.9506
 L 9.74896,-55.9053 L 9.80434,-55.8565 L 9.85654,-55.8043 L 9.90535,-55.749 L 9.95059,-55.6906 L 9.99208,-55.6296
 L 10.0296,-55.5661 L 10.0632,-55.5003 L 10.0925,-55.4325 L 10.1175,-55.3631 L 10.1381,-55.2922 L 10.1542,-55.2202
 L 10.1657,-55.1473 L 10.1727,-55.0738 L 10.175,-55 L 10.1727,-54.9262 L 10.1657,-54.8527 L 10.1542,-54.7798
 L 10.1381,-54.7078 L 10.1175,-54.6369 L 10.0925,-54.5674 L 10.0632,-54.4997 L 10.0296,-54.4339 L 9.99208,-54.3704
 L 9.95059,-54.3093 L 9.90535,-54.251 L 9.85654,-54.1956 L 9.80434,-54.1434 L 9.74896,-54.0946 L 9.69064,-54.0494
 L 9.62959,-54.0079 L 9.56606,-53.9703 L 9.50029,-53.9368 L 9.43254,-53.9075 L 9.36308,-53.8825 L 9.29221,-53.8619
 L 9.22017,-53.8458 L 9.14726,-53.8343 L 9.07378,-53.8273 L 9,-53.825 z
M 128.931,-52.1022 L 128.862,-52.1087 L 128.794,-52.1195 L 128.726,-52.1346 L 128.66,-52.1538 L 128.595,-52.1772
 L 128.532,-52.2047 L 128.47,-52.2361 L 128.411,-52.2712 L 128.353,-52.3101 L 128.299,-52.3524 L 128.247,-52.3981
 L 128.198,-52.447 L 128.152,-52.4988 L 128.11,-52.5534 L 128.071,-52.6106 L 128.036,-52.6701 L 128.005,-52.7316
 L 127.977,-52.7951 L 127.954,-52.8601 L 127.935,-52.9264 L 127.919,-52.9939 L 127.909,-53.0621 L 127.902,-53.1309
 L 127.9,-53.2 L 127.902,-53.2691 L 127.909,-53.3379 L 127.919,-53.4061 L 127.935,-53.4736 L 127.954,-53.5399
 L 127.977,-53.6049 L 128.005,-53.6684 L 128.036,-53.7299 L 128.071,-53.7894 L 128.11,-53.8466 L 128.152,-53.9012
 L 128.198,-53.953 L 128.247,-54.0019 L 128.299,-54.0476 L 128.353,-54.0899 L 128.411,-54.1288 L 128.47,-54.1639
 L 128.532,-54.1953 L 128.595,-54.2227 L 128.66,-54.2462 L 128.726,-54.2654 L 128.794,-54.2805 L 128.862,-54.2913
 L 128.931,-54.2978 L 129,-54.3 L 129.069,-54.2978 L 129.138,-54.2913 L 129.206,-54.2805 L 129.274,-54.2654
 L 129.34,-54.2462 L 129.405,-54.2227 L 129.468,-54.1953 L 129.53,-54.1639 L 129.589,-54.1288 L 129.647,-54.0899
 L 129.701,-54.0476 L 129.753,-54.0019 L 129.802,-53.953 L 129.848,-53.9012 L 129.89,-53.8466 L 129.929,-53.7894
 L 129.964,-53.7299 L 129.995,-53.6684 L 130.023,-53.6049 L 130.046,-53.5399 L 130.065,-53.4736 L 130.081,-53.4061
 L 130.091,-53.3379 L 130.098,-53.2691 L 130.1,-53.2 L 130.098,-53.1309 L 130.091,-53.0621 L 130.081,-52.9939
 L 130.065,-52.9264 L 130.046,-52.8601 L 130.023,-52.7951 L 129.995,-52.7316 L 129.964,-52.6701 L 129.929,-52.6106
 L 129.89,-52.5534 L 129.848,-52.4988 L 129.802,-52.447 L 129.753,-52.3981 L 129.701,-52.3524 L 129.647,-52.3101
 L 129.589,-52.2712 L 129.53,-52.2361 L 129.468,-52.2047 L 129.405,-52.1772 L 129.34,-52.1538 L 129.274,-52.1346
 L 129.206,-52.1195 L 129.138,-52.1087 L 129.069,-52.1022 L 129,-52.1 z
M 188.931,-51.4022 L 188.862,-51.4087 L 188.794,-51.4195 L 188.726,-51.4346 L 188.66,-51.4538 L 188.595,-51.4772
 L 188.532,-51.5047 L 188.47,-51.5361 L 188.411,-51.5712 L 188.353,-51.6101 L 188.299,-51.6524 L 188.247,-51.6981
 L 188.198,-51.747 L 188.152,-51.7988 L 188.11,-51.8534 L 188.071,-51.9106 L 188.036,-51.9701 L 188.005,-52.0316
 L 187.977,-52.0951 L 187.954,-52.1601 L 187.935,-52.2264 L 187.919,-52.2939 L 187.909,-52.3621 L 187.902,-52.4309
 L 187.9,-52.5 L 187.902,-52.5691 L 187.909,-52.6379 L 187.919,-52.7061 L 187.935,-52.7735 L 187.954,-52.8399
 L 187.977,-52.9049 L 188.005,-52.9684 L 188.036,-53.0299 L 188.071,-53.0894 L 188.11,-53.1466 L 188.152,-53.2012
 L 188.198,-53.253 L 188.247,-53.3019 L 188.299,-53.3475 L 188.353,-53.3899 L 188.411,-53.4288 L 188.47,-53.4639
 L 188.532,-53.4953 L 188.595,-53.5228 L 188.66,-53.5462 L 188.726,-53.5654 L 188.794,-53.5805 L 188.862,-53.5913
 L 188.931,-53.5978 L 189,-53.6 L 189.069,-53.5978 L 189.138,-53.5913 L 189.206,-53.5805 L 189.274,-53.5654
 L 189.34,-53.5462 L 189.405,-53.5228 L 189.468,-53.4953 L 189.53,-53.4639 L 189.589,-53.4288 L 189.647,-53.3899
 L 189.701,-53.3475 L 189.753,-53.3019 L 189.802,-53.253 L 189.848,-53.2012 L 189.89,-53.1466 L 189.929,-53.0894
 L 189.964,-53.0299 L 189.995,-52.9684 L 190.023,-52.9049 L 190.046,-52.8399 L 190.065,-52.7735 L 190.081,-52.7061
 L 190.091,-52.6379 L 190.098,-52.5691 L 190.1,-52.5 L 190.098,-52.4309 L 190.091,-52.3621 L 190.081,-52.2939
 L 190.065,-52.2264 L 190.046,-52.1601 L 190.023,-52.0951 L 189.995,-52.0316 L 189.964,-51.9701 L 189.929,-51.9106
 L 189.89,-51.8534 L 189.848,-51.7988 L 189.802,-51.747 L 189.753,-51.6981 L 189.701,-51.6524 L 189.647,-51.6101
 L 189.589,-51.5712 L 189.53,-51.5361 L 189.468,-51.5047 L 189.405,-51.4772 L 189.34,-51.4538 L 189.274,-51.4346
 L 189.206,-51.4195 L 189.138,-51.4087 L 189.069,-51.4022 L 189,-51.4 z
M 300.5,-50.3 L 300.425,-50.3024 L 300.35,-50.3094 L 300.275,-50.3212 L 300.202,-50.3377 L 300.129,-50.3587
 L 300.058,-50.3843 L 299.989,-50.4142 L 299.922,-50.4484 L 299.857,-50.4868 L 299.795,-50.5292 L 299.735,-50.5754
 L 299.679,-50.6252 L 299.625,-50.6785 L 299.575,-50.7351 L 299.529,-50.7946 L 299.487,-50.857 L 299.448,-50.9219
 L 299.414,-50.9891 L 299.384,-51.0582 L 299.359,-51.1292 L 299.338,-51.2016 L 299.321,-51.2751 L 299.309,-51.3496
 L 299.302,-51.4246 L 299.3,-51.5 L 299.302,-51.5753 L 299.309,-51.6504 L 299.321,-51.7249 L 299.338,-51.7984
 L 299.359,-51.8708 L 299.384,-51.9417 L 299.414,-52.0109 L 299.448,-52.0781 L 299.487,-52.143 L 299.529,-52.2053
 L 299.575,-52.2649 L 299.625,-52.3214 L 299.679,-52.3748 L 299.735,-52.4246 L 299.795,-52.4708 L 299.857,-52.5132
 L 299.922,-52.5516 L 299.989,-52.5858 L 300.058,-52.6157 L 300.129,-52.6413 L 300.202,-52.6623 L 300.275,-52.6787
 L 300.35,-52.6905 L 300.425,-52.6976 L 300.5,-52.7 L 315.5,-52.7 L 315.575,-52.6976 L 315.65,-52.6905
 L 315.725,-52.6787 L 315.798,-52.6623 L 315.871,-52.6413 L 315.942,-52.6157 L 316.011,-52.5858 L 316.078,-52.5516
 L 316.143,-52.5132 L 316.205,-52.4708 L 316.265,-52.4246 L 316.321,-52.3748 L 316.375,-52.3214 L 316.425,-52.2649
 L 316.471,-52.2053 L 316.513,-52.143 L 316.552,-52.0781 L 316.586,-52.0109 L 316.616,-51.9417 L 316.641,-51.8708
 L 316.662,-51.7984 L 316.679,-51.7249 L 316.691,-51.6504 L 316.698,-51.5753 L 316.7,-51.5 L 316.698,-51.4246
 L 316.691,-51.3496 L 316.679,-51.2751 L 316.662,-51.2016 L 316.641,-51.1292 L 316.616,-51.0582 L 316.586,-50.9891
 L 316.552,-50.9219 L 316.513,-50.857 L 316.471,-50.7946 L 316.425,-50.7351 L 316.375,-50.6785 L 316.321,-50.6252
 L 316.265,-50.5754 L 316.205,-50.5292 L 316.143,-50.4868 L 316.078,-50.4484 L 316.011,-50.4142 L 315.942,-50.3843
 L 315.871,-50.3587 L 315.798,-50.3377 L 315.725,-50.3212 L 315.65,-50.3094 L 315.575,-50.3024 L 315.5,-50.3
 z
M 259.5,-50.3 L 259.425,-50.3024 L 259.35,-50.3094 L 259.275,-50.3212 L 259.202,-50.3377 L 259.129,-50.3587
 L 259.058,-50.3843 L 258.989,-50.4142 L 258.922,-50.4484 L 258.857,-50.4868 L 258.795,-50.5292 L 258.735,-50.5754
 L 258.679,-50.6252 L 258.625,-50.6785 L 258.575,-50.7351 L 258.529,-50.7946 L 258.487,-50.857 L 258.448,-50.9219
 L 258.414,-50.9891 L 258.384,-51.0582 L 258.359,-51.1292 L 258.338,-51.2016 L 258.321,-51.2751 L 258.309,-51.3496
 L 258.302,-51.4246 L 258.3,-51.5 L 258.302,-51.5753 L 258.309,-51.6504 L 258.321,-51.7249 L 258.338,-51.7984
 L 258.359,-51.8708 L 258.384,-51.9417 L 258.414,-52.0109 L 258.448,-52.0781 L 258.487,-52.143 L 258.529,-52.2053
 L 258.575,-52.2649 L 258.625,-52.3214 L 258.679,-52.3748 L 258.735,-52.4246 L 258.795,-52.4708 L 258.857,-52.5132
 L 258.922,-52.5516 L 258.989,-52.5858 L 259.058,-52.6157 L 259.129,-52.6413 L 259.202,-52.6623 L 259.275,-52.6787
 L 259.35,-52.6905 L 259.425,-52.6976 L 259.5,-52.7 L 274.5,-52.7 L 274.575,-52.6976 L 274.65,-52.6905
 L 274.725,-52.6787 L 274.798,-52.6623 L 274.871,-52.6413 L 274.942,-52.6157 L 275.011,-52.5858 L 275.078,-52.5516
 L 275.143,-52.5132 L 275.205,-52.4708 L 275.265,-52.4246 L 275.321,-52.3748 L 275.375,-52.3214 L 275.425,-52.2649
 L 275.471,-52.2053 L 275.513,-52.143 L 275.552,-52.0781 L 275.586,-52.0109 L 275.616,-51.9417 L 275.641,-51.8708
 L 275.662,-51.7984 L 275.679,-51.7249 L 275.691,-51.6504 L 275.698,-51.5753 L 275.7,-51.5 L 275.698,-51.4246
 L 275.691,-51.3496 L 275.679,-51.2751 L 275.662,-51.2016 L 275.641,-51.1292 L 275.616,-51.0582 L 275.586,-50.9891
 L 275.552,-50.9219 L 275.513,-50.857 L 275.471,-50.7946 L 275.425,-50.7351 L 275.375,-50.6785 L 275.321,-50.6252
 L 275.265,-50.5754 L 275.205,-50.5292 L 275.143,-50.4868 L 275.078,-50.4484 L 275.011,-50.4142 L 274.942,-50.3843
 L 274.871,-50.3587 L 274.798,-50.3377 L 274.725,-50.3212 L 274.65,-50.3094 L 274.575,-50.3024 L 274.5,-50.3
 z
M 285,-25 L 284.309,-25.0217 L 283.621,-25.0867 L 282.939,-25.1949 L 282.264,-25.3456 L 281.601,-25.5384
 L 280.951,-25.7725 L 280.316,-26.0469 L 279.701,-26.3606 L 279.106,-26.7124 L 278.534,-27.1008 L 277.988,-27.5244
 L 277.47,-27.9814 L 276.981,-28.47 L 276.524,-28.9883 L 276.101,-29.5344 L 275.712,-30.1059 L 275.361,-30.7007
 L 275.047,-31.3164 L 274.772,-31.9506 L 274.538,-32.6008 L 274.346,-33.2644 L 274.195,-33.9388 L 274.087,-34.6213
 L 274.022,-35.3093 L 274,-36 L 274.022,-36.6907 L 274.087,-37.3787 L 274.195,-38.0612 L 274.346,-38.7356
 L 274.538,-39.3992 L 274.772,-40.0494 L 275.047,-40.6836 L 275.361,-41.2993 L 275.712,-41.8941 L 276.101,-42.4656
 L 276.524,-43.0117 L 276.981,-43.53 L 277.47,-44.0186 L 277.988,-44.4756 L 278.534,-44.8992 L 279.106,-45.2876
 L 279.701,-45.6394 L 280.316,-45.9531 L 280.951,-46.2275 L 281.601,-46.4616 L 282.264,-46.6544 L 282.939,-46.8051
 L 283.621,-46.9133 L 284.309,-46.9783 L 285,-47 L 290,-47 L 290.691,-46.9783 L 291.379,-46.9133
 L 292.061,-46.8051 L 292.736,-46.6544 L 293.399,-46.4616 L 294.049,-46.2275 L 294.684,-45.9531 L 295.299,-45.6394
 L 295.894,-45.2876 L 296.466,-44.8992 L 297.012,-44.4756 L 297.53,-44.0186 L 298.019,-43.53 L 298.476,-43.0117
 L 298.899,-42.4656 L 299.288,-41.8941 L 299.639,-41.2993 L 299.953,-40.6836 L 300.228,-40.0494 L 300.462,-39.3992
 L 300.654,-38.7356 L 300.805,-38.0612 L 300.913,-37.3787 L 300.978,-36.6907 L 301,-36 L 300.978,-35.3093
 L 300.913,-34.6213 L 300.805,-33.9388 L 300.654,-33.2644 L 300.462,-32.6008 L 300.228,-31.9506 L 299.953,-31.3164
 L 299.639,-30.7007 L 299.288,-30.1059 L 298.899,-29.5344 L 298.476,-28.9883 L 298.019,-28.47 L 297.53,-27.9814
 L 297.012,-27.5244 L 296.466,-27.1008 L 295.894,-26.7124 L 295.299,-26.3606 L 294.684,-26.0469 L 294.049,-25.7725
 L 293.399,-25.5384 L 292.736,-25.3456 L 292.061,-25.1949 L 291.379,-25.0867 L 290.691,-25.0217 L 290,-25
 z
M 8.92621,-43.8273 L 8.85272,-43.8343 L 8.77982,-43.8458 L 8.70778,-43.8619 L 8.6369,-43.8825 L 8.56744,-43.9075
 L 8.49969,-43.9368 L 8.43393,-43.9703 L 8.37039,-44.0079 L 8.30934,-44.0494 L 8.25102,-44.0946 L 8.19565,-44.1434
 L 8.14345,-44.1956 L 8.09464,-44.251 L 8.04939,-44.3093 L 8.0079,-44.3704 L 7.97034,-44.4339 L 7.93681,-44.4997
 L 7.9075,-44.5674 L 7.88251,-44.6369 L 7.86191,-44.7078 L 7.84581,-44.7798 L 7.83426,-44.8527 L 7.82732,-44.9262
 L 7.825,-45 L 7.82732,-45.0738 L 7.83426,-45.1473 L 7.84581,-45.2202 L 7.86191,-45.2922 L 7.88251,-45.3631
 L 7.9075,-45.4325 L 7.93681,-45.5003 L 7.97034,-45.5661 L 8.0079,-45.6296 L 8.04939,-45.6906 L 8.09464,-45.749
 L 8.14345,-45.8043 L 8.19565,-45.8565 L 8.25102,-45.9053 L 8.30934,-45.9506 L 8.37039,-45.9921 L 8.43393,-46.0296
 L 8.49969,-46.0632 L 8.56744,-46.0925 L 8.6369,-46.1175 L 8.70778,-46.1381 L 8.77982,-46.1542 L 8.85272,-46.1657
 L 8.92621,-46.1727 L 9,-46.175 L 9.07378,-46.1727 L 9.14726,-46.1657 L 9.22017,-46.1542 L 9.29221,-46.1381
 L 9.36308,-46.1175 L 9.43254,-46.0925 L 9.50029,-46.0632 L 9.56606,-46.0296 L 9.62959,-45.9921 L 9.69064,-45.9506
 L 9.74896,-45.9053 L 9.80434,-45.8565 L 9.85654,-45.8043 L 9.90535,-45.749 L 9.95059,-45.6906 L 9.99208,-45.6296
 L 10.0296,-45.5661 L 10.0632,-45.5003 L 10.0925,-45.4325 L 10.1175,-45.3631 L 10.1381,-45.2922 L 10.1542,-45.2202
 L 10.1657,-45.1473 L 10.1727,-45.0738 L 10.175,-45 L 10.1727,-44.9262 L 10.1657,-44.8527 L 10.1542,-44.7798
 L 10.1381,-44.7078 L 10.1175,-44.6369 L 10.0925,-44.5674 L 10.0632,-44.4997 L 10.0296,-44.4339 L 9.99208,-44.3704
 L 9.95059,-44.3093 L 9.90535,-44.251 L 9.85654,-44.1956 L 9.80434,-44.1434 L 9.74896,-44.0946 L 9.69064,-44.0494
 L 9.62959,-44.0079 L 9.56606,-43.9703 L 9.50029,-43.9368 L 9.43254,-43.9075 L 9.36308,-43.8825 L 9.29221,-43.8619
 L 9.22017,-43.8458 L 9.14726,-43.8343 L 9.07378,-43.8273 L 9,-43.825 z
M 40,-16 L 40,-42 L 66,-42 L 66,-16 z
M 300.5,-19.3 L 300.425,-19.3024 L 300.35,-19.3095 L 300.275,-19.3213 L 300.202,-19.3377 L 300.129,-19.3587
 L 300.058,-19.3843 L 299.989,-19.4142 L 299.922,-19.4484 L 299.857,-19.4868 L 299.795,-19.5292 L 299.735,-19.5754
 L 299.679,-19.6252 L 299.625,-19.6786 L 299.575,-19.7351 L 299.529,-19.7947 L 299.487,-19.857 L 299.448,-19.9219
 L 299.414,-19.9891 L 299.384,-20.0583 L 299.359,-20.1292 L 299.338,-20.2016 L 299.321,-20.2751 L 299.309,-20.3496
 L 299.302,-20.4247 L 299.3,-20.5 L 299.302,-20.5754 L 299.309,-20.6504 L 299.321,-20.7249 L 299.338,-20.7984
 L 299.359,-20.8708 L 299.384,-20.9418 L 299.414,-21.0109 L 299.448,-21.0781 L 299.487,-21.143 L 299.529,-21.2054
 L 299.575,-21.2649 L 299.625,-21.3215 L 299.679,-21.3748 L 299.735,-21.4246 L 299.795,-21.4708 L 299.857,-21.5132
 L 299.922,-21.5516 L 299.989,-21.5858 L 300.058,-21.6157 L 300.129,-21.6413 L 300.202,-21.6623 L 300.275,-21.6788
 L 300.35,-21.6906 L 300.425,-21.6976 L 300.5,-21.7 L 315.5,-21.7 L 315.575,-21.6976 L 315.65,-21.6906
 L 315.725,-21.6788 L 315.798,-21.6623 L 315.871,-21.6413 L 315.942,-21.6157 L 316.011,-21.5858 L 316.078,-21.5516
 L 316.143,-21.5132 L 316.205,-21.4708 L 316.265,-21.4246 L 316.321,-21.3748 L 316.375,-21.3215 L 316.425,-21.2649
 L 316.471,-21.2054 L 316.513,-21.143 L 316.552,-21.0781 L 316.586,-21.0109 L 316.616,-20.9418 L 316.641,-20.8708
 L 316.662,-20.7984 L 316.679,-20.7249 L 316.691,-20.6504 L 316.698,-20.5754 L 316.7,-20.5 L 316.698,-20.4247
 L 316.691,-20.3496 L 316.679,-20.2751 L 316.662,-20.2016 L 316.641,-20.1292 L 316.616,-20.0583 L 316.586,-19.9891
 L 316.552,-19.9219 L 316.513,-19.857 L 316.471,-19.7947 L 316.425,-19.7351 L 316.375,-19.6786 L 316.321,-19.6252
 L 316.265,-19.5754 L 316.205,-19.5292 L 316.143,-19.4868 L 316.078,-19.4484 L 316.011,-19.4142 L 315.942,-19.3843
 L 315.871,-19.3587 L 315.798,-19.3377 L 315.725,-19.3213 L 315.65,-19.3095 L 315.575,-19.3024 L 315.5,-19.3
 z
M 259.5,-19.3 L 259.425,-19.3024 L 259.35,-19.3095 L 259.275,-19.3213 L 259.202,-19.3377 L 259.129,-19.3587
 L 259.058,-19.3843 L 258.989,-19.4142 L 258.922,-19.4484 L 258.857,-19.4868 L 258.795,-19.5292 L 258.735,-19.5754
 L 258.679,-19.6252 L 258.625,-19.6786 L 258.575,-19.7351 L 258.529,-19.7947 L 258.487,-19.857 L 258.448,-19.9219
 L 258.414,-19.9891 L 258.384,-20.0583 L 258.359,-20.1292 L 258.338,-20.2016 L 258.321,-20.2751 L 258.309,-20.3496
 L 258.302,-20.4247 L 258.3,-20.5 L 258.302,-20.5754 L 258.309,-20.6504 L 258.321,-20.7249 L 258.338,-20.7984
 L 258.359,-20.8708 L 258.384,-20.9418 L 258.414,-21.0109 L 258.448,-21.0781 L 258.487,-21.143 L 258.529,-21.2054
 L 258.575,-21.2649 L 258.625,-21.3215 L 258.679,-21.3748 L 258.735,-21.4246 L 258.795,-21.4708 L 258.857,-21.5132
 L 258.922,-21.5516 L 258.989,-21.5858 L 259.058,-21.6157 L 259.129,-21.6413 L 259.202,-21.6623 L 259.275,-21.6788
 L 259.35,-21.6906 L 259.425,-21.6976 L 259.5,-21.7 L 274.5,-21.7 L 274.575,-21.6976 L 274.65,-21.6906
 L 274.725,-21.6788 L 274.798,-21.6623 L 274.871,-21.6413 L 274.942,-21.6157 L 275.011,-21.5858 L 275.078,-21.5516
 L 275.143,-21.5132 L 275.205,-21.4708 L 275.265,-21.4246 L 275.321,-21.3748 L 275.375,-21.3215 L 275.425,-21.2649
 L 275.471,-21.2054 L 275.513,-21.143 L 275.552,-21.0781 L 275.586,-21.0109 L 275.616,-20.9418 L 275.641,-20.8708
 L 275.662,-20.7984 L 275.679,-20.7249 L 275.691,-20.6504 L 275.698,-20.5754 L 275.7,-20.5 L 275.698,-20.4247
 L 275.691,-20.3496 L 275.679,-20.2751 L 275.662,-20.2016 L 275.641,-20.1292 L 275.616,-20.0583 L 275.586,-19.9891
 L 275.552,-19.9219 L 275.513,-19.857 L 275.471,-19.7947 L 275.425,-19.7351 L 275.375,-19.6786 L 275.321,-19.6252
 L 275.265,-19.5754 L 275.205,-19.5292 L 275.143,-19.4868 L 275.078,-19.4484 L 275.011,-19.4142 L 274.942,-19.3843
 L 274.871,-19.3587 L 274.798,-19.3377 L 274.725,-19.3213 L 274.65,-19.3095 L 274.575,-19.3024 L 274.5,-19.3
 z
M 308.926,-8.82732 L 308.853,-8.83426 L 308.78,-8.84581 L 308.708,-8.86191 L 308.637,-8.88251 L 308.567,-8.9075
 L 308.5,-8.93681 L 308.434,-8.97034 L 308.37,-9.0079 L 308.309,-9.04939 L 308.251,-9.09464 L 308.196,-9.14345
 L 308.143,-9.19565 L 308.095,-9.25102 L 308.049,-9.30934 L 308.008,-9.37039 L 307.97,-9.43393 L 307.937,-9.49969
 L 307.908,-9.56744 L 307.883,-9.6369 L 307.862,-9.70778 L 307.846,-9.77982 L 307.834,-9.85272 L 307.827,-9.92621
 L 307.825,-10 L 307.827,-10.0738 L 307.834,-10.1473 L 307.846,-10.2202 L 307.862,-10.2922 L 307.883,-10.3631
 L 307.908,-10.4325 L 307.937,-10.5003 L 307.97,-10.5661 L 308.008,-10.6296 L 308.049,-10.6906 L 308.095,-10.749
 L 308.143,-10.8043 L 308.196,-10.8565 L 308.251,-10.9053 L 308.309,-10.9506 L 308.37,-10.9921 L 308.434,-11.0296
 L 308.5,-11.0632 L 308.567,-11.0925 L 308.637,-11.1175 L 308.708,-11.1381 L 308.78,-11.1542 L 308.853,-11.1657
 L 308.926,-11.1727 L 309,-11.175 L 309.074,-11.1727 L 309.147,-11.1657 L 309.22,-11.1542 L 309.292,-11.1381
 L 309.363,-11.1175 L 309.433,-11.0925 L 309.5,-11.0632 L 309.566,-11.0296 L 309.63,-10.9921 L 309.691,-10.9506
 L 309.749,-10.9053 L 309.804,-10.8565 L 309.857,-10.8043 L 309.905,-10.749 L 309.951,-10.6906 L 309.992,-10.6296
 L 310.03,-10.5661 L 310.063,-10.5003 L 310.092,-10.4325 L 310.117,-10.3631 L 310.138,-10.2922 L 310.154,-10.2202
 L 310.166,-10.1473 L 310.173,-10.0738 L 310.175,-10 L 310.173,-9.92621 L 310.166,-9.85272 L 310.154,-9.77982
 L 310.138,-9.70778 L 310.117,-9.6369 L 310.092,-9.56744 L 310.063,-9.49969 L 310.03,-9.43393 L 309.992,-9.37039
 L 309.951,-9.30934 L 309.905,-9.25102 L 309.857,-9.19565 L 309.804,-9.14345 L 309.749,-9.09464 L 309.691,-9.04939
 L 309.63,-9.0079 L 309.566,-8.97034 L 309.5,-8.93681 L 309.433,-8.9075 L 309.363,-8.88251 L 309.292,-8.86191
 L 309.22,-8.84581 L 309.147,-8.83426 L 309.074,-8.82732 L 309,-8.825 z
M 8.92621,-8.82732 L 8.85272,-8.83426 L 8.77982,-8.84581 L 8.70778,-8.86191 L 8.6369,-8.88251 L 8.56744,-8.9075
 L 8.49969,-8.93681 L 8.43393,-8.97034 L 8.37039,-9.0079 L 8.30934,-9.04939 L 8.25102,-9.09464 L 8.19565,-9.14345
 L 8.14345,-9.19565 L 8.09464,-9.25102 L 8.04939,-9.30934 L 8.0079,-9.37039 L 7.97034,-9.43393 L 7.93681,-9.49969
 L 7.9075,-9.56744 L 7.88251,-9.6369 L 7.86191,-9.70778 L 7.84581,-9.77982 L 7.83426,-9.85272 L 7.82732,-9.92621
 L 7.825,-10 L 7.82732,-10.0738 L 7.83426,-10.1473 L 7.84581,-10.2202 L 7.86191,-10.2922 L 7.88251,-10.3631
 L 7.9075,-10.4325 L 7.93681,-10.5003 L 7.97034,-10.5661 L 8.0079,-10.6296 L 8.04939,-10.6906 L 8.09464,-10.749
 L 8.14345,-10.8043 L 8.19565,-10.8565 L 8.25102,-10.9053 L 8.30934,-10.9506 L 8.37039,-10.9921 L 8.43393,-11.0296
 L 8.49969,-11.0632 L 8.56744,-11.0925 L 8.6369,-11.1175 L 8.70778,-11.1381 L 8.77982,-11.1542 L 8.85272,-11.1657
 L 8.92621,-11.1727 L 9,-11.175 L 9.07378,-11.1727 L 9.14726,-11.1657 L 9.22017,-11.1542 L 9.29221,-11.1381
 L 9.36308,-11.1175 L 9.43254,-11.0925 L 9.50029,-11.0632 L 9.56606,-11.0296 L 9.62959,-10.9921 L 9.69064,-10.9506
 L 9.74896,-10.9053 L 9.80434,-10.8565 L 9.85654,-10.8043 L 9.90535,-10.749 L 9.95059,-10.6906 L 9.99208,-10.6296
 L 10.0296,-10.5661 L 10.0632,-10.5003 L 10.0925,-10.4325 L 10.1175,-10.3631 L 10.1381,-10.2922 L 10.1542,-10.2202
 L 10.1657,-10.1473 L 10.1727,-10.0738 L 10.175,-10 L 10.1727,-9.92621 L 10.1657,-9.85272 L 10.1542,-9.77982
 L 10.1381,-9.70778 L 10.1175,-9.6369 L 10.0925,-9.56744 L 10.0632,-9.49969 L 10.0296,-9.43393 L 9.99208,-9.37039
 L 9.95059,-9.30934 L 9.90535,-9.25102 L 9.85654,-9.19565 L 9.80434,-9.14345 L 9.74896,-9.09464 L 9.69064,-9.04939
 L 9.62959,-9.0079 L 9.56606,-8.97034 L 9.50029,-8.93681 L 9.43254,-8.9075 L 9.36308,-8.88251 L 9.29221,-8.86191
 L 9.22017,-8.84581 L 9.14726,-8.83426 L 9.07378,-8.82732 L 9,-8.825 z
M 308.926,1.17267 L 308.853,1.16573 L 308.78,1.15417 L 308.708,1.13808 L 308.637,1.11748 L 308.567,1.09248
 L 308.5,1.06317 L 308.434,1.02965 L 308.37,0.992081 L 308.309,0.950592 L 308.251,0.90535 L 308.196,0.856537
 L 308.143,0.804337 L 308.095,0.748962 L 308.049,0.690643 L 308.008,0.629593 L 307.97,0.566055 L 307.937,0.50029
 L 307.908,0.432541 L 307.883,0.363083 L 307.862,0.292206 L 307.846,0.220169 L 307.834,0.147263 L 307.827,0.0737762
 L 307.825,-0 L 307.827,-0.0737762 L 307.834,-0.147263 L 307.846,-0.220169 L 307.862,-0.292206 L 307.883,-0.363083
 L 307.908,-0.432541 L 307.937,-0.50029 L 307.97,-0.566055 L 308.008,-0.629593 L 308.049,-0.690643 L 308.095,-0.748962
 L 308.143,-0.804337 L 308.196,-0.856537 L 308.251,-0.90535 L 308.309,-0.950592 L 308.37,-0.992081 L 308.434,-1.02965
 L 308.5,-1.06317 L 308.567,-1.09248 L 308.637,-1.11748 L 308.708,-1.13808 L 308.78,-1.15417 L 308.853,-1.16573
 L 308.926,-1.17267 L 309,-1.17499 L 309.074,-1.17267 L 309.147,-1.16573 L 309.22,-1.15417 L 309.292,-1.13808
 L 309.363,-1.11748 L 309.433,-1.09248 L 309.5,-1.06317 L 309.566,-1.02965 L 309.63,-0.992081 L 309.691,-0.950592
 L 309.749,-0.90535 L 309.804,-0.856537 L 309.857,-0.804337 L 309.905,-0.748962 L 309.951,-0.690643 L 309.992,-0.629593
 L 310.03,-0.566055 L 310.063,-0.50029 L 310.092,-0.432541 L 310.117,-0.363083 L 310.138,-0.292206 L 310.154,-0.220169
 L 310.166,-0.147263 L 310.173,-0.0737762 L 310.175,-0 L 310.173,0.0737762 L 310.166,0.147263 L 310.154,0.220169
 L 310.138,0.292206 L 310.117,0.363083 L 310.092,0.432541 L 310.063,0.50029 L 310.03,0.566055 L 309.992,0.629593
 L 309.951,0.690643 L 309.905,0.748962 L 309.857,0.804337 L 309.804,0.856537 L 309.749,0.90535 L 309.691,0.950592
 L 309.63,0.992081 L 309.566,1.02965 L 309.5,1.06317 L 309.433,1.09248 L 309.363,1.11748 L 309.292,1.13808
 L 309.22,1.15417 L 309.147,1.16573 L 309.074,1.17267 L 309,1.17499 z
M 8.92621,1.17267 L 8.85272,1.16573 L 8.77982,1.15417 L 8.70778,1.13808 L 8.6369,1.11748 L 8.56744,1.09248
 L 8.49969,1.06317 L 8.43393,1.02965 L 8.37039,0.992081 L 8.30934,0.950592 L 8.25102,0.90535 L 8.19565,0.856537
 L 8.14345,0.804337 L 8.09464,0.748962 L 8.04939,0.690643 L 8.0079,0.629593 L 7.97034,0.566055 L 7.93681,0.50029
 L 7.9075,0.432541 L 7.88251,0.363083 L 7.86191,0.292206 L 7.84581,0.220169 L 7.83426,0.147263 L 7.82732,0.0737762
 L 7.825,-0 L 7.82732,-0.0737762 L 7.83426,-0.147263 L 7.84581,-0.220169 L 7.86191,-0.292206 L 7.88251,-0.363083
 L 7.9075,-0.432541 L 7.93681,-0.50029 L 7.97034,-0.566055 L 8.0079,-0.629593 L 8.04939,-0.690643 L 8.09464,-0.748962
 L 8.14345,-0.804337 L 8.19565,-0.856537 L 8.25102,-0.90535 L 8.30934,-0.950592 L 8.37039,-0.992081 L 8.43393,-1.02965
 L 8.49969,-1.06317 L 8.56744,-1.09248 L 8.6369,-1.11748 L 8.70778,-1.13808 L 8.77982,-1.15417 L 8.85272,-1.16573
 L 8.92621,-1.17267 L 9,-1.17499 L 9.07378,-1.17267 L 9.14726,-1.16573 L 9.22017,-1.15417 L 9.29221,-1.13808
 L 9.36308,-1.11748 L 9.43254,-1.09248 L 9.50029,-1.06317 L 9.56606,-1.02965 L 9.62959,-0.992081 L 9.69064,-0.950592
 L 9.74896,-0.90535 L 9.80434,-0.856537 L 9.85654,-0.804337 L 9.90535,-0.748962 L 9.95059,-0.690643 L 9.99208,-0.629593
 L 10.0296,-0.566055 L 10.0632,-0.50029 L 10.0925,-0.432541 L 10.1175,-0.363083 L 10.1381,-0.292206 L 10.1542,-0.220169
 L 10.1657,-0.147263 L 10.1727,-0.0737762 L 10.175,-0 L 10.1727,0.0737762 L 10.1657,0.147263 L 10.1542,0.220169
 L 10.1381,0.292206 L 10.1175,0.363083 L 10.0925,0.432541 L 10.0632,0.50029 L 10.0296,0.566055 L 9.99208,0.629593
 L 9.95059,0.690643 L 9.90535,0.748962 L 9.85654,0.804337 L 9.80434,0.856537 L 9.74896,0.90535 L 9.69064,0.950592
 L 9.62959,0.992081 L 9.56606,1.02965 L 9.50029,1.06317 L 9.43254,1.09248 L 9.36308,1.11748 L 9.29221,1.13808
 L 9.22017,1.15417 L 9.14726,1.16573 L 9.07378,1.17267 L 9,1.17499 z
" stroke="black" fill="lightgray" stroke-width="0.5"/>
</svg>
