  0
SECTION
  2
BLOCKS
  0
ENDSEC
  0
SECTION
  2
ENTITIES
  0
LINE
  8
0
 10
318
 20
55
 11
0
 21
55
  0
LINE
  8
0
 10
0
 20
55
 11
0
 21
0
  0
LINE
  8
0
 10
0
 20
0
 11
318
 21
0
  0
LINE
  8
0
 10
318
 20
0
 11
318
 21
55
  0
LINE
  8
0
 10
8.92621
 20
51.3273
 11
8.85272
 21
51.3343
  0
LINE
  8
0
 10
8.85272
 20
51.3343
 11
8.77982
 21
51.3458
  0
LINE
  8
0
 10
8.77982
 20
51.3458
 11
8.70778
 21
51.3619
  0
LINE
  8
0
 10
8.70778
 20
51.3619
 11
8.6369
 21
51.3825
  0
LINE
  8
0
 10
8.6369
 20
51.3825
 11
8.56744
 21
51.4075
  0
LINE
  8
0
 10
8.56744
 20
51.4075
 11
8.49969
 21
51.4368
  0
LINE
  8
0
 10
8.49969
 20
51.4368
 11
8.43393
 21
51.4703
  0
LINE
  8
0
 10
8.43393
 20
51.4703
 11
8.37039
 21
51.5079
  0
LINE
  8
0
 10
8.37039
 20
51.5079
 11
8.30934
 21
51.5494
  0
LINE
  8
0
 10
8.30934
 20
51.5494
 11
8.25102
 21
51.5946
  0
LINE
  8
0
 10
8.25102
 20
51.5946
 11
8.19565
 21
51.6434
  0
LINE
  8
0
 10
8.19565
 20
51.6434
 11
8.14345
 21
51.6956
  0
LINE
  8
0
 10
8.14345
 20
51.6956
 11
8.09464
 21
51.751
  0
LINE
  8
0
 10
8.09464
 20
51.751
 11
8.04939
 21
51.8093
  0
LINE
  8
0
 10
8.04939
 20
51.8093
 11
8.0079
 21
51.8704
  0
LINE
  8
0
 10
8.0079
 20
51.8704
 11
7.97034
 21
51.9339
  0
LINE
  8
0
 10
7.97034
 20
51.9339
 11
7.93681
 21
51.9997
  0
LINE
  8
0
 10
7.93681
 20
51.9997
 11
7.9075
 21
52.0674
  0
LINE
  8
0
 10
7.9075
 20
52.0674
 11
7.88251
 21
52.1369
  0
LINE
  8
0
 10
7.88251
 20
52.1369
 11
7.86191
 21
52.2078
  0
LINE
  8
0
 10
7.86191
 20
52.2078
 11
7.84581
 21
52.2798
  0
LINE
  8
0
 10
7.84581
 20
52.2798
 11
7.83426
 21
52.3527
  0
LINE
  8
0
 10
7.83426
 20
52.3527
 11
7.82732
 21
52.4262
  0
LINE
  8
0
 10
7.82732
 20
52.4262
 11
7.825
 21
52.5
  0
LINE
  8
0
 10
7.825
 20
52.5
 11
7.82732
 21
52.5738
  0
LINE
  8
0
 10
7.82732
 20
52.5738
 11
7.83426
 21
52.6473
  0
LINE
  8
0
 10
7.83426
 20
52.6473
 11
7.84581
 21
52.7202
  0
LINE
  8
0
 10
7.84581
 20
52.7202
 11
7.86191
 21
52.7922
  0
LINE
  8
0
 10
7.86191
 20
52.7922
 11
7.88251
 21
52.8631
  0
LINE
  8
0
 10
7.88251
 20
52.8631
 11
7.9075
 21
52.9325
  0
LINE
  8
0
 10
7.9075
 20
52.9325
 11
7.93681
 21
53.0003
  0
LINE
  8
0
 10
7.93681
 20
53.0003
 11
7.97034
 21
53.0661
  0
LINE
  8
0
 10
7.97034
 20
53.0661
 11
8.0079
 21
53.1296
  0
LINE
  8
0
 10
8.0079
 20
53.1296
 11
8.04939
 21
53.1906
  0
LINE
  8
0
 10
8.04939
 20
53.1906
 11
8.09464
 21
53.249
  0
LINE
  8
0
 10
8.09464
 20
53.249
 11
8.14345
 21
53.3043
  0
LINE
  8
0
 10
8.14345
 20
53.3043
 11
8.19565
 21
53.3565
  0
LINE
  8
0
 10
8.19565
 20
53.3565
 11
8.25102
 21
53.4053
  0
LINE
  8
0
 10
8.25102
 20
53.4053
 11
8.30934
 21
53.4506
  0
LINE
  8
0
 10
8.30934
 20
53.4506
 11
8.37039
 21
53.4921
  0
LINE
  8
0
 10
8.37039
 20
53.4921
 11
8.43393
 21
53.5296
  0
LINE
  8
0
 10
8.43393
 20
53.5296
 11
8.49969
 21
53.5632
  0
LINE
  8
0
 10
8.49969
 20
53.5632
 11
8.56744
 21
53.5925
  0
LINE
  8
0
 10
8.56744
 20
53.5925
 11
8.6369
 21
53.6175
  0
LINE
  8
0
 10
8.6369
 20
53.6175
 11
8.70778
 21
53.6381
  0
LINE
  8
0
 10
8.70778
 20
53.6381
 11
8.77982
 21
53.6542
  0
LINE
  8
0
 10
8.77982
 20
53.6542
 11
8.85272
 21
53.6657
  0
LINE
  8
0
 10
8.85272
 20
53.6657
 11
8.92621
 21
53.6727
  0
LINE
  8
0
 10
8.92621
 20
53.6727
 11
9
 21
53.675
  0
LINE
  8
0
 10
9
 20
53.675
 11
9.07378
 21
53.6727
  0
LINE
  8
0
 10
9.07378
 20
53.6727
 11
9.14726
 21
53.6657
  0
LINE
  8
0
 10
9.14726
 20
53.6657
 11
9.22017
 21
53.6542
  0
LINE
  8
0
 10
9.22017
 20
53.6542
 11
9.29221
 21
53.6381
  0
LINE
  8
0
 10
9.29221
 20
53.6381
 11
9.36308
 21
53.6175
  0
LINE
  8
0
 10
9.36308
 20
53.6175
 11
9.43254
 21
53.5925
  0
LINE
  8
0
 10
9.43254
 20
53.5925
 11
9.50029
 21
53.5632
  0
LINE
  8
0
 10
9.50029
 20
53.5632
 11
9.56606
 21
53.5296
  0
LINE
  8
0
 10
9.56606
 20
53.5296
 11
9.62959
 21
53.4921
  0
LINE
  8
0
 10
9.62959
 20
53.4921
 11
9.69064
 21
53.4506
  0
LINE
  8
0
 10
9.69064
 20
53.4506
 11
9.74896
 21
53.4053
  0
LINE
  8
0
 10
9.74896
 20
53.4053
 11
9.80434
 21
53.3565
  0
LINE
  8
0
 10
9.80434
 20
53.3565
 11
9.85654
 21
53.3043
  0
LINE
  8
0
 10
9.85654
 20
53.3043
 11
9.90535
 21
53.249
  0
LINE
  8
0
 10
9.90535
 20
53.249
 11
9.95059
 21
53.1906
  0
LINE
  8
0
 10
9.95059
 20
53.1906
 11
9.99208
 21
53.1296
  0
LINE
  8
0
 10
9.99208
 20
53.1296
 11
10.0296
 21
53.0661
  0
LINE
  8
0
 10
10.0296
 20
53.0661
 11
10.0632
 21
53.0003
  0
LINE
  8
0
 10
10.0632
 20
53.0003
 11
10.0925
 21
52.9325
  0
LINE
  8
0
 10
10.0925
 20
52.9325
 11
10.1175
 21
52.8631
  0
LINE
  8
0
 10
10.1175
 20
52.8631
 11
10.1381
 21
52.7922
  0
LINE
  8
0
 10
10.1381
 20
52.7922
 11
10.1542
 21
52.7202
  0
LINE
  8
0
 10
10.1542
 20
52.7202
 11
10.1657
 21
52.6473
  0
LINE
  8
0
 10
10.1657
 20
52.6473
 11
10.1727
 21
52.5738
  0
LINE
  8
0
 10
10.1727
 20
52.5738
 11
10.175
 21
52.5
  0
LINE
  8
0
 10
10.175
 20
52.5
 11
10.1727
 21
52.4262
  0
LINE
  8
0
 10
10.1727
 20
52.4262
 11
10.1657
 21
52.3527
  0
LINE
  8
0
 10
10.1657
 20
52.3527
 11
10.1542
 21
52.2798
  0
LINE
  8
0
 10
10.1542
 20
52.2798
 11
10.1381
 21
52.2078
  0
LINE
  8
0
 10
10.1381
 20
52.2078
 11
10.1175
 21
52.1369
  0
LINE
  8
0
 10
10.1175
 20
52.1369
 11
10.0925
 21
52.0674
  0
LINE
  8
0
 10
10.0925
 20
52.0674
 11
10.0632
 21
51.9997
  0
LINE
  8
0
 10
10.0632
 20
51.9997
 11
10.0296
 21
51.9339
  0
LINE
  8
0
 10
10.0296
 20
51.9339
 11
9.99208
 21
51.8704
  0
LINE
  8
0
 10
9.99208
 20
51.8704
 11
9.95059
 21
51.8093
  0
LINE
  8
0
 10
9.95059
 20
51.8093
 11
9.90535
 21
51.751
  0
LINE
  8
0
 10
9.90535
 20
51.751
 11
9.85654
 21
51.6956
  0
LINE
  8
0
 10
9.85654
 20
51.6956
 11
9.80434
 21
51.6434
  0
LINE
  8
0
 10
9.80434
 20
51.6434
 11
9.74896
 21
51.5946
  0
LINE
  8
0
 10
9.74896
 20
51.5946
 11
9.69064
 21
51.5494
  0
LINE
  8
0
 10
9.69064
 20
51.5494
 11
9.62959
 21
51.5079
  0
LINE
  8
0
 10
9.62959
 20
51.5079
 11
9.56606
 21
51.4703
  0
LINE
  8
0
 10
9.56606
 20
51.4703
 11
9.50029
 21
51.4368
  0
LINE
  8
0
 10
9.50029
 20
51.4368
 11
9.43254
 21
51.4075
  0
LINE
  8
0
 10
9.43254
 20
51.4075
 11
9.36308
 21
51.3825
  0
LINE
  8
0
 10
9.36308
 20
51.3825
 11
9.29221
 21
51.3619
  0
LINE
  8
0
 10
9.29221
 20
51.3619
 11
9.22017
 21
51.3458
  0
LINE
  8
0
 10
9.22017
 20
51.3458
 11
9.14726
 21
51.3343
  0
LINE
  8
0
 10
9.14726
 20
51.3343
 11
9.07378
 21
51.3273
  0
LINE
  8
0
 10
9.07378
 20
51.3273
 11
9
 21
51.325
  0
LINE
  8
0
 10
9
 20
51.325
 11
8.92621
 21
51.3273
  0
LINE
  8
0
 10
308.926
 20
51.3273
 11
308.853
 21
51.3343
  0
LINE
  8
0
 10
308.853
 20
51.3343
 11
308.78
 21
51.3458
  0
LINE
  8
0
 10
308.78
 20
51.3458
 11
308.708
 21
51.3619
  0
LINE
  8
0
 10
308.708
 20
51.3619
 11
308.637
 21
51.3825
  0
LINE
  8
0
 10
308.637
 20
51.3825
 11
308.567
 21
51.4075
  0
LINE
  8
0
 10
308.567
 20
51.4075
 11
308.5
 21
51.4368
  0
LINE
  8
0
 10
308.5
 20
51.4368
 11
308.434
 21
51.4703
  0
LINE
  8
0
 10
308.434
 20
51.4703
 11
308.37
 21
51.5079
  0
LINE
  8
0
 10
308.37
 20
51.5079
 11
308.309
 21
51.5494
  0
LINE
  8
0
 10
308.309
 20
51.5494
 11
308.251
 21
51.5946
  0
LINE
  8
0
 10
308.251
 20
51.5946
 11
308.196
 21
51.6434
  0
LINE
  8
0
 10
308.196
 20
51.6434
 11
308.143
 21
51.6956
  0
LINE
  8
0
 10
308.143
 20
51.6956
 11
308.095
 21
51.751
  0
LINE
  8
0
 10
308.095
 20
51.751
 11
308.049
 21
51.8093
  0
LINE
  8
0
 10
308.049
 20
51.8093
 11
308.008
 21
51.8704
  0
LINE
  8
0
 10
308.008
 20
51.8704
 11
307.97
 21
51.9339
  0
LINE
  8
0
 10
307.97
 20
51.9339
 11
307.937
 21
51.9997
  0
LINE
  8
0
 10
307.937
 20
51.9997
 11
307.908
 21
52.0674
  0
LINE
  8
0
 10
307.908
 20
52.0674
 11
307.883
 21
52.1369
  0
LINE
  8
0
 10
307.883
 20
52.1369
 11
307.862
 21
52.2078
  0
LINE
  8
0
 10
307.862
 20
52.2078
 11
307.846
 21
52.2798
  0
LINE
  8
0
 10
307.846
 20
52.2798
 11
307.834
 21
52.3527
  0
LINE
  8
0
 10
307.834
 20
52.3527
 11
307.827
 21
52.4262
  0
LINE
  8
0
 10
307.827
 20
52.4262
 11
307.825
 21
52.5
  0
LINE
  8
0
 10
307.825
 20
52.5
 11
307.827
 21
52.5738
  0
LINE
  8
0
 10
307.827
 20
52.5738
 11
307.834
 21
52.6473
  0
LINE
  8
0
 10
307.834
 20
52.6473
 11
307.846
 21
52.7202
  0
LINE
  8
0
 10
307.846
 20
52.7202
 11
307.862
 21
52.7922
  0
LINE
  8
0
 10
307.862
 20
52.7922
 11
307.883
 21
52.8631
  0
LINE
  8
0
 10
307.883
 20
52.8631
 11
307.908
 21
52.9325
  0
LINE
  8
0
 10
307.908
 20
52.9325
 11
307.937
 21
53.0003
  0
LINE
  8
0
 10
307.937
 20
53.0003
 11
307.97
 21
53.0661
  0
LINE
  8
0
 10
307.97
 20
53.0661
 11
308.008
 21
53.1296
  0
LINE
  8
0
 10
308.008
 20
53.1296
 11
308.049
 21
53.1906
  0
LINE
  8
0
 10
308.049
 20
53.1906
 11
308.095
 21
53.249
  0
LINE
  8
0
 10
308.095
 20
53.249
 11
308.143
 21
53.3043
  0
LINE
  8
0
 10
308.143
 20
53.3043
 11
308.196
 21
53.3565
  0
LINE
  8
0
 10
308.196
 20
53.3565
 11
308.251
 21
53.4053
  0
LINE
  8
0
 10
308.251
 20
53.4053
 11
308.309
 21
53.4506
  0
LINE
  8
0
 10
308.309
 20
53.4506
 11
308.37
 21
53.4921
  0
LINE
  8
0
 10
308.37
 20
53.4921
 11
308.434
 21
53.5296
  0
LINE
  8
0
 10
308.434
 20
53.5296
 11
308.5
 21
53.5632
  0
LINE
  8
0
 10
308.5
 20
53.5632
 11
308.567
 21
53.5925
  0
LINE
  8
0
 10
308.567
 20
53.5925
 11
308.637
 21
53.6175
  0
LINE
  8
0
 10
308.637
 20
53.6175
 11
308.708
 21
53.6381
  0
LINE
  8
0
 10
308.708
 20
53.6381
 11
308.78
 21
53.6542
  0
LINE
  8
0
 10
308.78
 20
53.6542
 11
308.853
 21
53.6657
  0
LINE
  8
0
 10
308.853
 20
53.6657
 11
308.926
 21
53.6727
  0
LINE
  8
0
 10
308.926
 20
53.6727
 11
309
 21
53.675
  0
LINE
  8
0
 10
309
 20
53.675
 11
309.074
 21
53.6727
  0
LINE
  8
0
 10
309.074
 20
53.6727
 11
309.147
 21
53.6657
  0
LINE
  8
0
 10
309.147
 20
53.6657
 11
309.22
 21
53.6542
  0
LINE
  8
0
 10
309.22
 20
53.6542
 11
309.292
 21
53.6381
  0
LINE
  8
0
 10
309.292
 20
53.6381
 11
309.363
 21
53.6175
  0
LINE
  8
0
 10
309.363
 20
53.6175
 11
309.433
 21
53.5925
  0
LINE
  8
0
 10
309.433
 20
53.5925
 11
309.5
 21
53.5632
  0
LINE
  8
0
 10
309.5
 20
53.5632
 11
309.566
 21
53.5296
  0
LINE
  8
0
 10
309.566
 20
53.5296
 11
309.63
 21
53.4921
  0
LINE
  8
0
 10
309.63
 20
53.4921
 11
309.691
 21
53.4506
  0
LINE
  8
0
 10
309.691
 20
53.4506
 11
309.749
 21
53.4053
  0
LINE
  8
0
 10
309.749
 20
53.4053
 11
309.804
 21
53.3565
  0
LINE
  8
0
 10
309.804
 20
53.3565
 11
309.857
 21
53.3043
  0
LINE
  8
0
 10
309.857
 20
53.3043
 11
309.905
 21
53.249
  0
LINE
  8
0
 10
309.905
 20
53.249
 11
309.951
 21
53.1906
  0
LINE
  8
0
 10
309.951
 20
53.1906
 11
309.992
 21
53.1296
  0
LINE
  8
0
 10
309.992
 20
53.1296
 11
310.03
 21
53.0661
  0
LINE
  8
0
 10
310.03
 20
53.0661
 11
310.063
 21
53.0003
  0
LINE
  8
0
 10
310.063
 20
53.0003
 11
310.092
 21
52.9325
  0
LINE
  8
0
 10
310.092
 20
52.9325
 11
310.117
 21
52.8631
  0
LINE
  8
0
 10
310.117
 20
52.8631
 11
310.138
 21
52.7922
  0
LINE
  8
0
 10
310.138
 20
52.7922
 11
310.154
 21
52.7202
  0
LINE
  8
0
 10
310.154
 20
52.7202
 11
310.166
 21
52.6473
  0
LINE
  8
0
 10
310.166
 20
52.6473
 11
310.173
 21
52.5738
  0
LINE
  8
0
 10
310.173
 20
52.5738
 11
310.175
 21
52.5
  0
LINE
  8
0
 10
310.175
 20
52.5
 11
310.173
 21
52.4262
  0
LINE
  8
0
 10
310.173
 20
52.4262
 11
310.166
 21
52.3527
  0
LINE
  8
0
 10
310.166
 20
52.3527
 11
310.154
 21
52.2798
  0
LINE
  8
0
 10
310.154
 20
52.2798
 11
310.138
 21
52.2078
  0
LINE
  8
0
 10
310.138
 20
52.2078
 11
310.117
 21
52.1369
  0
LINE
  8
0
 10
310.117
 20
52.1369
 11
310.092
 21
52.0674
  0
LINE
  8
0
 10
310.092
 20
52.0674
 11
310.063
 21
51.9997
  0
LINE
  8
0
 10
310.063
 20
51.9997
 11
310.03
 21
51.9339
  0
LINE
  8
0
 10
310.03
 20
51.9339
 11
309.992
 21
51.8704
  0
LINE
  8
0
 10
309.992
 20
51.8704
 11
309.951
 21
51.8093
  0
LINE
  8
0
 10
309.951
 20
51.8093
 11
309.905
 21
51.751
  0
LINE
  8
0
 10
309.905
 20
51.751
 11
309.857
 21
51.6956
  0
LINE
  8
0
 10
309.857
 20
51.6956
 11
309.804
 21
51.6434
  0
LINE
  8
0
 10
309.804
 20
51.6434
 11
309.749
 21
51.5946
  0
LINE
  8
0
 10
309.749
 20
51.5946
 11
309.691
 21
51.5494
  0
LINE
  8
0
 10
309.691
 20
51.5494
 11
309.63
 21
51.5079
  0
LINE
  8
0
 10
309.63
 20
51.5079
 11
309.566
 21
51.4703
  0
LINE
  8
0
 10
309.566
 20
51.4703
 11
309.5
 21
51.4368
  0
LINE
  8
0
 10
309.5
 20
51.4368
 11
309.433
 21
51.4075
  0
LINE
  8
0
 10
309.433
 20
51.4075
 11
309.363
 21
51.3825
  0
LINE
  8
0
 10
309.363
 20
51.3825
 11
309.292
 21
51.3619
  0
LINE
  8
0
 10
309.292
 20
51.3619
 11
309.22
 21
51.3458
  0
LINE
  8
0
 10
309.22
 20
51.3458
 11
309.147
 21
51.3343
  0
LINE
  8
0
 10
309.147
 20
51.3343
 11
309.074
 21
51.3273
  0
LINE
  8
0
 10
309.074
 20
51.3273
 11
309
 21
51.325
  0
LINE
  8
0
 10
309
 20
51.325
 11
308.926
 21
51.3273
  0
LINE
  8
0
 10
8.8022
 20
44.3562
 11
8.60519
 21
44.3748
  0
LINE
  8
0
 10
8.60519
 20
44.3748
 11
8.40974
 21
44.4058
  0
LINE
  8
0
 10
8.40974
 20
44.4058
 11
8.21661
 21
44.449
  0
LINE
  8
0
 10
8.21661
 20
44.449
 11
8.0266
 21
44.5042
  0
LINE
  8
0
 10
8.0266
 20
44.5042
 11
7.84039
 21
44.5712
  0
LINE
  8
0
 10
7.84039
 20
44.5712
 11
7.65878
 21
44.6498
  0
LINE
  8
0
 10
7.65878
 20
44.6498
 11
7.48247
 21
44.7396
  0
LINE
  8
0
 10
7.48247
 20
44.7396
 11
7.31213
 21
44.8404
  0
LINE
  8
0
 10
7.31213
 20
44.8404
 11
7.14847
 21
44.9516
  0
LINE
  8
0
 10
7.14847
 20
44.9516
 11
6.99211
 21
45.0729
  0
LINE
  8
0
 10
6.99211
 20
45.0729
 11
6.84367
 21
45.2037
  0
LINE
  8
0
 10
6.84367
 20
45.2037
 11
6.70374
 21
45.3437
  0
LINE
  8
0
 10
6.70374
 20
45.3437
 11
6.57288
 21
45.4921
  0
LINE
  8
0
 10
6.57288
 20
45.4921
 11
6.45158
 21
45.6485
  0
LINE
  8
0
 10
6.45158
 20
45.6485
 11
6.34036
 21
45.8121
  0
LINE
  8
0
 10
6.34036
 20
45.8121
 11
6.23962
 21
45.9825
  0
LINE
  8
0
 10
6.23962
 20
45.9825
 11
6.14978
 21
46.1588
  0
LINE
  8
0
 10
6.14978
 20
46.1588
 11
6.0712
 21
46.3404
  0
LINE
  8
0
 10
6.0712
 20
46.3404
 11
6.00417
 21
46.5266
  0
LINE
  8
0
 10
6.00417
 20
46.5266
 11
5.94896
 21
46.7166
  0
LINE
  8
0
 10
5.94896
 20
46.7166
 11
5.90579
 21
46.9097
  0
LINE
  8
0
 10
5.90579
 20
46.9097
 11
5.87483
 21
47.1052
  0
LINE
  8
0
 10
5.87483
 20
47.1052
 11
5.8562
 21
47.3022
  0
LINE
  8
0
 10
5.8562
 20
47.3022
 11
5.84999
 21
47.5
  0
LINE
  8
0
 10
5.84999
 20
47.5
 11
5.8562
 21
47.6978
  0
LINE
  8
0
 10
5.8562
 20
47.6978
 11
5.87483
 21
47.8948
  0
LINE
  8
0
 10
5.87483
 20
47.8948
 11
5.90579
 21
48.0902
  0
LINE
  8
0
 10
5.90579
 20
48.0902
 11
5.94896
 21
48.2834
  0
LINE
  8
0
 10
5.94896
 20
48.2834
 11
6.00417
 21
48.4734
  0
LINE
  8
0
 10
6.00417
 20
48.4734
 11
6.0712
 21
48.6596
  0
LINE
  8
0
 10
6.0712
 20
48.6596
 11
6.14978
 21
48.8412
  0
LINE
  8
0
 10
6.14978
 20
48.8412
 11
6.23962
 21
49.0175
  0
LINE
  8
0
 10
6.23962
 20
49.0175
 11
6.34036
 21
49.1879
  0
LINE
  8
0
 10
6.34036
 20
49.1879
 11
6.45158
 21
49.3515
  0
LINE
  8
0
 10
6.45158
 20
49.3515
 11
6.57288
 21
49.5079
  0
LINE
  8
0
 10
6.57288
 20
49.5079
 11
6.70374
 21
49.6563
  0
LINE
  8
0
 10
6.70374
 20
49.6563
 11
6.84367
 21
49.7962
  0
LINE
  8
0
 10
6.84367
 20
49.7962
 11
6.99211
 21
49.9271
  0
LINE
  8
0
 10
6.99211
 20
49.9271
 11
7.14847
 21
50.0484
  0
LINE
  8
0
 10
7.14847
 20
50.0484
 11
7.31213
 21
50.1596
  0
LINE
  8
0
 10
7.31213
 20
50.1596
 11
7.48247
 21
50.2604
  0
LINE
  8
0
 10
7.48247
 20
50.2604
 11
7.65878
 21
50.3502
  0
LINE
  8
0
 10
7.65878
 20
50.3502
 11
7.84039
 21
50.4288
  0
LINE
  8
0
 10
7.84039
 20
50.4288
 11
8.0266
 21
50.4958
  0
LINE
  8
0
 10
8.0266
 20
50.4958
 11
8.21661
 21
50.551
  0
LINE
  8
0
 10
8.21661
 20
50.551
 11
8.40974
 21
50.5942
  0
LINE
  8
0
 10
8.40974
 20
50.5942
 11
8.60519
 21
50.6252
  0
LINE
  8
0
 10
8.60519
 20
50.6252
 11
8.8022
 21
50.6438
  0
LINE
  8
0
 10
8.8022
 20
50.6438
 11
9
 21
50.65
  0
LINE
  8
0
 10
9
 20
50.65
 11
9.19778
 21
50.6438
  0
LINE
  8
0
 10
9.19778
 20
50.6438
 11
9.39479
 21
50.6252
  0
LINE
  8
0
 10
9.39479
 20
50.6252
 11
9.59024
 21
50.5942
  0
LINE
  8
0
 10
9.59024
 20
50.5942
 11
9.78337
 21
50.551
  0
LINE
  8
0
 10
9.78337
 20
50.551
 11
9.97339
 21
50.4958
  0
LINE
  8
0
 10
9.97339
 20
50.4958
 11
10.1596
 21
50.4288
  0
LINE
  8
0
 10
10.1596
 20
50.4288
 11
10.3412
 21
50.3502
  0
LINE
  8
0
 10
10.3412
 20
50.3502
 11
10.5175
 21
50.2604
  0
LINE
  8
0
 10
10.5175
 20
50.2604
 11
10.6879
 21
50.1596
  0
LINE
  8
0
 10
10.6879
 20
50.1596
 11
10.8515
 21
50.0484
  0
LINE
  8
0
 10
10.8515
 20
50.0484
 11
11.0079
 21
49.9271
  0
LINE
  8
0
 10
11.0079
 20
49.9271
 11
11.1563
 21
49.7962
  0
LINE
  8
0
 10
11.1563
 20
49.7962
 11
11.2962
 21
49.6563
  0
LINE
  8
0
 10
11.2962
 20
49.6563
 11
11.4271
 21
49.5079
  0
LINE
  8
0
 10
11.4271
 20
49.5079
 11
11.5484
 21
49.3515
  0
LINE
  8
0
 10
11.5484
 20
49.3515
 11
11.6596
 21
49.1879
  0
LINE
  8
0
 10
11.6596
 20
49.1879
 11
11.7604
 21
49.0175
  0
LINE
  8
0
 10
11.7604
 20
49.0175
 11
11.8502
 21
48.8412
  0
LINE
  8
0
 10
11.8502
 20
48.8412
 11
11.9288
 21
48.6596
  0
LINE
  8
0
 10
11.9288
 20
48.6596
 11
11.9958
 21
48.4734
  0
LINE
  8
0
 10
11.9958
 20
48.4734
 11
12.051
 21
48.2834
  0
LINE
  8
0
 10
12.051
 20
48.2834
 11
12.0942
 21
48.0902
  0
LINE
  8
0
 10
12.0942
 20
48.0902
 11
12.1252
 21
47.8948
  0
LINE
  8
0
 10
12.1252
 20
47.8948
 11
12.1438
 21
47.6978
  0
LINE
  8
0
 10
12.1438
 20
47.6978
 11
12.15
 21
47.5
  0
LINE
  8
0
 10
12.15
 20
47.5
 11
12.1438
 21
47.3022
  0
LINE
  8
0
 10
12.1438
 20
47.3022
 11
12.1252
 21
47.1052
  0
LINE
  8
0
 10
12.1252
 20
47.1052
 11
12.0942
 21
46.9097
  0
LINE
  8
0
 10
12.0942
 20
46.9097
 11
12.051
 21
46.7166
  0
LINE
  8
0
 10
12.051
 20
46.7166
 11
11.9958
 21
46.5266
  0
LINE
  8
0
 10
11.9958
 20
46.5266
 11
11.9288
 21
46.3404
  0
LINE
  8
0
 10
11.9288
 20
46.3404
 11
11.8502
 21
46.1588
  0
LINE
  8
0
 10
11.8502
 20
46.1588
 11
11.7604
 21
45.9825
  0
LINE
  8
0
 10
11.7604
 20
45.9825
 11
11.6596
 21
45.8121
  0
LINE
  8
0
 10
11.6596
 20
45.8121
 11
11.5484
 21
45.6485
  0
LINE
  8
0
 10
11.5484
 20
45.6485
 11
11.4271
 21
45.4921
  0
LINE
  8
0
 10
11.4271
 20
45.4921
 11
11.2962
 21
45.3437
  0
LINE
  8
0
 10
11.2962
 20
45.3437
 11
11.1563
 21
45.2037
  0
LINE
  8
0
 10
11.1563
 20
45.2037
 11
11.0079
 21
45.0729
  0
LINE
  8
0
 10
11.0079
 20
45.0729
 11
10.8515
 21
44.9516
  0
LINE
  8
0
 10
10.8515
 20
44.9516
 11
10.6879
 21
44.8404
  0
LINE
  8
0
 10
10.6879
 20
44.8404
 11
10.5175
 21
44.7396
  0
LINE
  8
0
 10
10.5175
 20
44.7396
 11
10.3412
 21
44.6498
  0
LINE
  8
0
 10
10.3412
 20
44.6498
 11
10.1596
 21
44.5712
  0
LINE
  8
0
 10
10.1596
 20
44.5712
 11
9.97339
 21
44.5042
  0
LINE
  8
0
 10
9.97339
 20
44.5042
 11
9.78337
 21
44.449
  0
LINE
  8
0
 10
9.78337
 20
44.449
 11
9.59024
 21
44.4058
  0
LINE
  8
0
 10
9.59024
 20
44.4058
 11
9.39479
 21
44.3748
  0
LINE
  8
0
 10
9.39479
 20
44.3748
 11
9.19778
 21
44.3562
  0
LINE
  8
0
 10
9.19778
 20
44.3562
 11
9
 21
44.35
  0
LINE
  8
0
 10
9
 20
44.35
 11
8.8022
 21
44.3562
  0
LINE
  8
0
 10
308.802
 20
44.3562
 11
308.605
 21
44.3748
  0
LINE
  8
0
 10
308.605
 20
44.3748
 11
308.41
 21
44.4058
  0
LINE
  8
0
 10
308.41
 20
44.4058
 11
308.217
 21
44.449
  0
LINE
  8
0
 10
308.217
 20
44.449
 11
308.027
 21
44.5042
  0
LINE
  8
0
 10
308.027
 20
44.5042
 11
307.84
 21
44.5712
  0
LINE
  8
0
 10
307.84
 20
44.5712
 11
307.659
 21
44.6498
  0
LINE
  8
0
 10
307.659
 20
44.6498
 11
307.482
 21
44.7396
  0
LINE
  8
0
 10
307.482
 20
44.7396
 11
307.312
 21
44.8404
  0
LINE
  8
0
 10
307.312
 20
44.8404
 11
307.148
 21
44.9516
  0
LINE
  8
0
 10
307.148
 20
44.9516
 11
306.992
 21
45.0729
  0
LINE
  8
0
 10
306.992
 20
45.0729
 11
306.844
 21
45.2037
  0
LINE
  8
0
 10
306.844
 20
45.2037
 11
306.704
 21
45.3437
  0
LINE
  8
0
 10
306.704
 20
45.3437
 11
306.573
 21
45.4921
  0
LINE
  8
0
 10
306.573
 20
45.4921
 11
306.452
 21
45.6485
  0
LINE
  8
0
 10
306.452
 20
45.6485
 11
306.34
 21
45.8121
  0
LINE
  8
0
 10
306.34
 20
45.8121
 11
306.24
 21
45.9825
  0
LINE
  8
0
 10
306.24
 20
45.9825
 11
306.15
 21
46.1588
  0
LINE
  8
0
 10
306.15
 20
46.1588
 11
306.071
 21
46.3404
  0
LINE
  8
0
 10
306.071
 20
46.3404
 11
306.004
 21
46.5266
  0
LINE
  8
0
 10
306.004
 20
46.5266
 11
305.949
 21
46.7166
  0
LINE
  8
0
 10
305.949
 20
46.7166
 11
305.906
 21
46.9097
  0
LINE
  8
0
 10
305.906
 20
46.9097
 11
305.875
 21
47.1052
  0
LINE
  8
0
 10
305.875
 20
47.1052
 11
305.856
 21
47.3022
  0
LINE
  8
0
 10
305.856
 20
47.3022
 11
305.85
 21
47.5
  0
LINE
  8
0
 10
305.85
 20
47.5
 11
305.856
 21
47.6978
  0
LINE
  8
0
 10
305.856
 20
47.6978
 11
305.875
 21
47.8948
  0
LINE
  8
0
 10
305.875
 20
47.8948
 11
305.906
 21
48.0902
  0
LINE
  8
0
 10
305.906
 20
48.0902
 11
305.949
 21
48.2834
  0
LINE
  8
0
 10
305.949
 20
48.2834
 11
306.004
 21
48.4734
  0
LINE
  8
0
 10
306.004
 20
48.4734
 11
306.071
 21
48.6596
  0
LINE
  8
0
 10
306.071
 20
48.6596
 11
306.15
 21
48.8412
  0
LINE
  8
0
 10
306.15
 20
48.8412
 11
306.24
 21
49.0175
  0
LINE
  8
0
 10
306.24
 20
49.0175
 11
306.34
 21
49.1879
  0
LINE
  8
0
 10
306.34
 20
49.1879
 11
306.452
 21
49.3515
  0
LINE
  8
0
 10
306.452
 20
49.3515
 11
306.573
 21
49.5079
  0
LINE
  8
0
 10
306.573
 20
49.5079
 11
306.704
 21
49.6563
  0
LINE
  8
0
 10
306.704
 20
49.6563
 11
306.844
 21
49.7962
  0
LINE
  8
0
 10
306.844
 20
49.7962
 11
306.992
 21
49.9271
  0
LINE
  8
0
 10
306.992
 20
49.9271
 11
307.148
 21
50.0484
  0
LINE
  8
0
 10
307.148
 20
50.0484
 11
307.312
 21
50.1596
  0
LINE
  8
0
 10
307.312
 20
50.1596
 11
307.482
 21
50.2604
  0
LINE
  8
0
 10
307.482
 20
50.2604
 11
307.659
 21
50.3502
  0
LINE
  8
0
 10
307.659
 20
50.3502
 11
307.84
 21
50.4288
  0
LINE
  8
0
 10
307.84
 20
50.4288
 11
308.027
 21
50.4958
  0
LINE
  8
0
 10
308.027
 20
50.4958
 11
308.217
 21
50.551
  0
LINE
  8
0
 10
308.217
 20
50.551
 11
308.41
 21
50.5942
  0
LINE
  8
0
 10
308.41
 20
50.5942
 11
308.605
 21
50.6252
  0
LINE
  8
0
 10
308.605
 20
50.6252
 11
308.802
 21
50.6438
  0
LINE
  8
0
 10
308.802
 20
50.6438
 11
309
 21
50.65
  0
LINE
  8
0
 10
309
 20
50.65
 11
309.198
 21
50.6438
  0
LINE
  8
0
 10
309.198
 20
50.6438
 11
309.395
 21
50.6252
  0
LINE
  8
0
 10
309.395
 20
50.6252
 11
309.59
 21
50.5942
  0
LINE
  8
0
 10
309.59
 20
50.5942
 11
309.783
 21
50.551
  0
LINE
  8
0
 10
309.783
 20
50.551
 11
309.973
 21
50.4958
  0
LINE
  8
0
 10
309.973
 20
50.4958
 11
310.16
 21
50.4288
  0
LINE
  8
0
 10
310.16
 20
50.4288
 11
310.341
 21
50.3502
  0
LINE
  8
0
 10
310.341
 20
50.3502
 11
310.518
 21
50.2604
  0
LINE
  8
0
 10
310.518
 20
50.2604
 11
310.688
 21
50.1596
  0
LINE
  8
0
 10
310.688
 20
50.1596
 11
310.852
 21
50.0484
  0
LINE
  8
0
 10
310.852
 20
50.0484
 11
311.008
 21
49.9271
  0
LINE
  8
0
 10
311.008
 20
49.9271
 11
311.156
 21
49.7962
  0
LINE
  8
0
 10
311.156
 20
49.7962
 11
311.296
 21
49.6563
  0
LINE
  8
0
 10
311.296
 20
49.6563
 11
311.427
 21
49.5079
  0
LINE
  8
0
 10
311.427
 20
49.5079
 11
311.548
 21
49.3515
  0
LINE
  8
0
 10
311.548
 20
49.3515
 11
311.66
 21
49.1879
  0
LINE
  8
0
 10
311.66
 20
49.1879
 11
311.76
 21
49.0175
  0
LINE
  8
0
 10
311.76
 20
49.0175
 11
311.85
 21
48.8412
  0
LINE
  8
0
 10
311.85
 20
48.8412
 11
311.929
 21
48.6596
  0
LINE
  8
0
 10
311.929
 20
48.6596
 11
311.996
 21
48.4734
  0
LINE
  8
0
 10
311.996
 20
48.4734
 11
312.051
 21
48.2834
  0
LINE
  8
0
 10
312.051
 20
48.2834
 11
312.094
 21
48.0902
  0
LINE
  8
0
 10
312.094
 20
48.0902
 11
312.125
 21
47.8948
  0
LINE
  8
0
 10
312.125
 20
47.8948
 11
312.144
 21
47.6978
  0
LINE
  8
0
 10
312.144
 20
47.6978
 11
312.15
 21
47.5
  0
LINE
  8
0
 10
312.15
 20
47.5
 11
312.144
 21
47.3022
  0
LINE
  8
0
 10
312.144
 20
47.3022
 11
312.125
 21
47.1052
  0
LINE
  8
0
 10
312.125
 20
47.1052
 11
312.094
 21
46.9097
  0
LINE
  8
0
 10
312.094
 20
46.9097
 11
312.051
 21
46.7166
  0
LINE
  8
0
 10
312.051
 20
46.7166
 11
311.996
 21
46.5266
  0
LINE
  8
0
 10
311.996
 20
46.5266
 11
311.929
 21
46.3404
  0
LINE
  8
0
 10
311.929
 20
46.3404
 11
311.85
 21
46.1588
  0
LINE
  8
0
 10
311.85
 20
46.1588
 11
311.76
 21
45.9825
  0
LINE
  8
0
 10
311.76
 20
45.9825
 11
311.66
 21
45.8121
  0
LINE
  8
0
 10
311.66
 20
45.8121
 11
311.548
 21
45.6485
  0
LINE
  8
0
 10
311.548
 20
45.6485
 11
311.427
 21
45.4921
  0
LINE
  8
0
 10
311.427
 20
45.4921
 11
311.296
 21
45.3437
  0
LINE
  8
0
 10
311.296
 20
45.3437
 11
311.156
 21
45.2037
  0
LINE
  8
0
 10
311.156
 20
45.2037
 11
311.008
 21
45.0729
  0
LINE
  8
0
 10
311.008
 20
45.0729
 11
310.852
 21
44.9516
  0
LINE
  8
0
 10
310.852
 20
44.9516
 11
310.688
 21
44.8404
  0
LINE
  8
0
 10
310.688
 20
44.8404
 11
310.518
 21
44.7396
  0
LINE
  8
0
 10
310.518
 20
44.7396
 11
310.341
 21
44.6498
  0
LINE
  8
0
 10
310.341
 20
44.6498
 11
310.16
 21
44.5712
  0
LINE
  8
0
 10
310.16
 20
44.5712
 11
309.973
 21
44.5042
  0
LINE
  8
0
 10
309.973
 20
44.5042
 11
309.783
 21
44.449
  0
LINE
  8
0
 10
309.783
 20
44.449
 11
309.59
 21
44.4058
  0
LINE
  8
0
 10
309.59
 20
44.4058
 11
309.395
 21
44.3748
  0
LINE
  8
0
 10
309.395
 20
44.3748
 11
309.198
 21
44.3562
  0
LINE
  8
0
 10
309.198
 20
44.3562
 11
309
 21
44.35
  0
LINE
  8
0
 10
309
 20
44.35
 11
308.802
 21
44.3562
  0
LINE
  8
0
 10
183.931
 20
48.4022
 11
183.862
 21
48.4087
  0
LINE
  8
0
 10
183.862
 20
48.4087
 11
183.794
 21
48.4195
  0
LINE
  8
0
 10
183.794
 20
48.4195
 11
183.726
 21
48.4346
  0
LINE
  8
0
 10
183.726
 20
48.4346
 11
183.66
 21
48.4538
  0
LINE
  8
0
 10
183.66
 20
48.4538
 11
183.595
 21
48.4772
  0
LINE
  8
0
 10
183.595
 20
48.4772
 11
183.532
 21
48.5047
  0
LINE
  8
0
 10
183.532
 20
48.5047
 11
183.47
 21
48.5361
  0
LINE
  8
0
 10
183.47
 20
48.5361
 11
183.411
 21
48.5712
  0
LINE
  8
0
 10
183.411
 20
48.5712
 11
183.353
 21
48.6101
  0
LINE
  8
0
 10
183.353
 20
48.6101
 11
183.299
 21
48.6524
  0
LINE
  8
0
 10
183.299
 20
48.6524
 11
183.247
 21
48.6981
  0
LINE
  8
0
 10
183.247
 20
48.6981
 11
183.198
 21
48.747
  0
LINE
  8
0
 10
183.198
 20
48.747
 11
183.152
 21
48.7988
  0
LINE
  8
0
 10
183.152
 20
48.7988
 11
183.11
 21
48.8534
  0
LINE
  8
0
 10
183.11
 20
48.8534
 11
183.071
 21
48.9106
  0
LINE
  8
0
 10
183.071
 20
48.9106
 11
183.036
 21
48.9701
  0
LINE
  8
0
 10
183.036
 20
48.9701
 11
183.005
 21
49.0316
  0
LINE
  8
0
 10
183.005
 20
49.0316
 11
182.977
 21
49.0951
  0
LINE
  8
0
 10
182.977
 20
49.0951
 11
182.954
 21
49.1601
  0
LINE
  8
0
 10
182.954
 20
49.1601
 11
182.935
 21
49.2264
  0
LINE
  8
0
 10
182.935
 20
49.2264
 11
182.919
 21
49.2939
  0
LINE
  8
0
 10
182.919
 20
49.2939
 11
182.909
 21
49.3621
  0
LINE
  8
0
 10
182.909
 20
49.3621
 11
182.902
 21
49.4309
  0
LINE
  8
0
 10
182.902
 20
49.4309
 11
182.9
 21
49.5
  0
LINE
  8
0
 10
182.9
 20
49.5
 11
182.902
 21
49.5691
  0
LINE
  8
0
 10
182.902
 20
49.5691
 11
182.909
 21
49.6379
  0
LINE
  8
0
 10
182.909
 20
49.6379
 11
182.919
 21
49.7061
  0
LINE
  8
0
 10
182.919
 20
49.7061
 11
182.935
 21
49.7735
  0
LINE
  8
0
 10
182.935
 20
49.7735
 11
182.954
 21
49.8399
  0
LINE
  8
0
 10
182.954
 20
49.8399
 11
182.977
 21
49.9049
  0
LINE
  8
0
 10
182.977
 20
49.9049
 11
183.005
 21
49.9684
  0
LINE
  8
0
 10
183.005
 20
49.9684
 11
183.036
 21
50.0299
  0
LINE
  8
0
 10
183.036
 20
50.0299
 11
183.071
 21
50.0894
  0
LINE
  8
0
 10
183.071
 20
50.0894
 11
183.11
 21
50.1466
  0
LINE
  8
0
 10
183.11
 20
50.1466
 11
183.152
 21
50.2012
  0
LINE
  8
0
 10
183.152
 20
50.2012
 11
183.198
 21
50.253
  0
LINE
  8
0
 10
183.198
 20
50.253
 11
183.247
 21
50.3019
  0
LINE
  8
0
 10
183.247
 20
50.3019
 11
183.299
 21
50.3475
  0
LINE
  8
0
 10
183.299
 20
50.3475
 11
183.353
 21
50.3899
  0
LINE
  8
0
 10
183.353
 20
50.3899
 11
183.411
 21
50.4288
  0
LINE
  8
0
 10
183.411
 20
50.4288
 11
183.47
 21
50.4639
  0
LINE
  8
0
 10
183.47
 20
50.4639
 11
183.532
 21
50.4953
  0
LINE
  8
0
 10
183.532
 20
50.4953
 11
183.595
 21
50.5228
  0
LINE
  8
0
 10
183.595
 20
50.5228
 11
183.66
 21
50.5462
  0
LINE
  8
0
 10
183.66
 20
50.5462
 11
183.726
 21
50.5654
  0
LINE
  8
0
 10
183.726
 20
50.5654
 11
183.794
 21
50.5805
  0
LINE
  8
0
 10
183.794
 20
50.5805
 11
183.862
 21
50.5913
  0
LINE
  8
0
 10
183.862
 20
50.5913
 11
183.931
 21
50.5978
  0
LINE
  8
0
 10
183.931
 20
50.5978
 11
184
 21
50.6
  0
LINE
  8
0
 10
184
 20
50.6
 11
184.069
 21
50.5978
  0
LINE
  8
0
 10
184.069
 20
50.5978
 11
184.138
 21
50.5913
  0
LINE
  8
0
 10
184.138
 20
50.5913
 11
184.206
 21
50.5805
  0
LINE
  8
0
 10
184.206
 20
50.5805
 11
184.274
 21
50.5654
  0
LINE
  8
0
 10
184.274
 20
50.5654
 11
184.34
 21
50.5462
  0
LINE
  8
0
 10
184.34
 20
50.5462
 11
184.405
 21
50.5228
  0
LINE
  8
0
 10
184.405
 20
50.5228
 11
184.468
 21
50.4953
  0
LINE
  8
0
 10
184.468
 20
50.4953
 11
184.53
 21
50.4639
  0
LINE
  8
0
 10
184.53
 20
50.4639
 11
184.589
 21
50.4288
  0
LINE
  8
0
 10
184.589
 20
50.4288
 11
184.647
 21
50.3899
  0
LINE
  8
0
 10
184.647
 20
50.3899
 11
184.701
 21
50.3475
  0
LINE
  8
0
 10
184.701
 20
50.3475
 11
184.753
 21
50.3019
  0
LINE
  8
0
 10
184.753
 20
50.3019
 11
184.802
 21
50.253
  0
LINE
  8
0
 10
184.802
 20
50.253
 11
184.848
 21
50.2012
  0
LINE
  8
0
 10
184.848
 20
50.2012
 11
184.89
 21
50.1466
  0
LINE
  8
0
 10
184.89
 20
50.1466
 11
184.929
 21
50.0894
  0
LINE
  8
0
 10
184.929
 20
50.0894
 11
184.964
 21
50.0299
  0
LINE
  8
0
 10
184.964
 20
50.0299
 11
184.995
 21
49.9684
  0
LINE
  8
0
 10
184.995
 20
49.9684
 11
185.023
 21
49.9049
  0
LINE
  8
0
 10
185.023
 20
49.9049
 11
185.046
 21
49.8399
  0
LINE
  8
0
 10
185.046
 20
49.8399
 11
185.065
 21
49.7735
  0
LINE
  8
0
 10
185.065
 20
49.7735
 11
185.081
 21
49.7061
  0
LINE
  8
0
 10
185.081
 20
49.7061
 11
185.091
 21
49.6379
  0
LINE
  8
0
 10
185.091
 20
49.6379
 11
185.098
 21
49.5691
  0
LINE
  8
0
 10
185.098
 20
49.5691
 11
185.1
 21
49.5
  0
LINE
  8
0
 10
185.1
 20
49.5
 11
185.098
 21
49.4309
  0
LINE
  8
0
 10
185.098
 20
49.4309
 11
185.091
 21
49.3621
  0
LINE
  8
0
 10
185.091
 20
49.3621
 11
185.081
 21
49.2939
  0
LINE
  8
0
 10
185.081
 20
49.2939
 11
185.065
 21
49.2264
  0
LINE
  8
0
 10
185.065
 20
49.2264
 11
185.046
 21
49.1601
  0
LINE
  8
0
 10
185.046
 20
49.1601
 11
185.023
 21
49.0951
  0
LINE
  8
0
 10
185.023
 20
49.0951
 11
184.995
 21
49.0316
  0
LINE
  8
0
 10
184.995
 20
49.0316
 11
184.964
 21
48.9701
  0
LINE
  8
0
 10
184.964
 20
48.9701
 11
184.929
 21
48.9106
  0
LINE
  8
0
 10
184.929
 20
48.9106
 11
184.89
 21
48.8534
  0
LINE
  8
0
 10
184.89
 20
48.8534
 11
184.848
 21
48.7988
  0
LINE
  8
0
 10
184.848
 20
48.7988
 11
184.802
 21
48.747
  0
LINE
  8
0
 10
184.802
 20
48.747
 11
184.753
 21
48.6981
  0
LINE
  8
0
 10
184.753
 20
48.6981
 11
184.701
 21
48.6524
  0
LINE
  8
0
 10
184.701
 20
48.6524
 11
184.647
 21
48.6101
  0
LINE
  8
0
 10
184.647
 20
48.6101
 11
184.589
 21
48.5712
  0
LINE
  8
0
 10
184.589
 20
48.5712
 11
184.53
 21
48.5361
  0
LINE
  8
0
 10
184.53
 20
48.5361
 11
184.468
 21
48.5047
  0
LINE
  8
0
 10
184.468
 20
48.5047
 11
184.405
 21
48.4772
  0
LINE
  8
0
 10
184.405
 20
48.4772
 11
184.34
 21
48.4538
  0
LINE
  8
0
 10
184.34
 20
48.4538
 11
184.274
 21
48.4346
  0
LINE
  8
0
 10
184.274
 20
48.4346
 11
184.206
 21
48.4195
  0
LINE
  8
0
 10
184.206
 20
48.4195
 11
184.138
 21
48.4087
  0
LINE
  8
0
 10
184.138
 20
48.4087
 11
184.069
 21
48.4022
  0
LINE
  8
0
 10
184.069
 20
48.4022
 11
184
 21
48.4
  0
LINE
  8
0
 10
184
 20
48.4
 11
183.931
 21
48.4022
  0
LINE
  8
0
 10
193.931
 20
48.4022
 11
193.862
 21
48.4087
  0
LINE
  8
0
 10
193.862
 20
48.4087
 11
193.794
 21
48.4195
  0
LINE
  8
0
 10
193.794
 20
48.4195
 11
193.726
 21
48.4346
  0
LINE
  8
0
 10
193.726
 20
48.4346
 11
193.66
 21
48.4538
  0
LINE
  8
0
 10
193.66
 20
48.4538
 11
193.595
 21
48.4772
  0
LINE
  8
0
 10
193.595
 20
48.4772
 11
193.532
 21
48.5047
  0
LINE
  8
0
 10
193.532
 20
48.5047
 11
193.47
 21
48.5361
  0
LINE
  8
0
 10
193.47
 20
48.5361
 11
193.411
 21
48.5712
  0
LINE
  8
0
 10
193.411
 20
48.5712
 11
193.353
 21
48.6101
  0
LINE
  8
0
 10
193.353
 20
48.6101
 11
193.299
 21
48.6524
  0
LINE
  8
0
 10
193.299
 20
48.6524
 11
193.247
 21
48.6981
  0
LINE
  8
0
 10
193.247
 20
48.6981
 11
193.198
 21
48.747
  0
LINE
  8
0
 10
193.198
 20
48.747
 11
193.152
 21
48.7988
  0
LINE
  8
0
 10
193.152
 20
48.7988
 11
193.11
 21
48.8534
  0
LINE
  8
0
 10
193.11
 20
48.8534
 11
193.071
 21
48.9106
  0
LINE
  8
0
 10
193.071
 20
48.9106
 11
193.036
 21
48.9701
  0
LINE
  8
0
 10
193.036
 20
48.9701
 11
193.005
 21
49.0316
  0
LINE
  8
0
 10
193.005
 20
49.0316
 11
192.977
 21
49.0951
  0
LINE
  8
0
 10
192.977
 20
49.0951
 11
192.954
 21
49.1601
  0
LINE
  8
0
 10
192.954
 20
49.1601
 11
192.935
 21
49.2264
  0
LINE
  8
0
 10
192.935
 20
49.2264
 11
192.919
 21
49.2939
  0
LINE
  8
0
 10
192.919
 20
49.2939
 11
192.909
 21
49.3621
  0
LINE
  8
0
 10
192.909
 20
49.3621
 11
192.902
 21
49.4309
  0
LINE
  8
0
 10
192.902
 20
49.4309
 11
192.9
 21
49.5
  0
LINE
  8
0
 10
192.9
 20
49.5
 11
192.902
 21
49.5691
  0
LINE
  8
0
 10
192.902
 20
49.5691
 11
192.909
 21
49.6379
  0
LINE
  8
0
 10
192.909
 20
49.6379
 11
192.919
 21
49.7061
  0
LINE
  8
0
 10
192.919
 20
49.7061
 11
192.935
 21
49.7735
  0
LINE
  8
0
 10
192.935
 20
49.7735
 11
192.954
 21
49.8399
  0
LINE
  8
0
 10
192.954
 20
49.8399
 11
192.977
 21
49.9049
  0
LINE
  8
0
 10
192.977
 20
49.9049
 11
193.005
 21
49.9684
  0
LINE
  8
0
 10
193.005
 20
49.9684
 11
193.036
 21
50.0299
  0
LINE
  8
0
 10
193.036
 20
50.0299
 11
193.071
 21
50.0894
  0
LINE
  8
0
 10
193.071
 20
50.0894
 11
193.11
 21
50.1466
  0
LINE
  8
0
 10
193.11
 20
50.1466
 11
193.152
 21
50.2012
  0
LINE
  8
0
 10
193.152
 20
50.2012
 11
193.198
 21
50.253
  0
LINE
  8
0
 10
193.198
 20
50.253
 11
193.247
 21
50.3019
  0
LINE
  8
0
 10
193.247
 20
50.3019
 11
193.299
 21
50.3475
  0
LINE
  8
0
 10
193.299
 20
50.3475
 11
193.353
 21
50.3899
  0
LINE
  8
0
 10
193.353
 20
50.3899
 11
193.411
 21
50.4288
  0
LINE
  8
0
 10
193.411
 20
50.4288
 11
193.47
 21
50.4639
  0
LINE
  8
0
 10
193.47
 20
50.4639
 11
193.532
 21
50.4953
  0
LINE
  8
0
 10
193.532
 20
50.4953
 11
193.595
 21
50.5228
  0
LINE
  8
0
 10
193.595
 20
50.5228
 11
193.66
 21
50.5462
  0
LINE
  8
0
 10
193.66
 20
50.5462
 11
193.726
 21
50.5654
  0
LINE
  8
0
 10
193.726
 20
50.5654
 11
193.794
 21
50.5805
  0
LINE
  8
0
 10
193.794
 20
50.5805
 11
193.862
 21
50.5913
  0
LINE
  8
0
 10
193.862
 20
50.5913
 11
193.931
 21
50.5978
  0
LINE
  8
0
 10
193.931
 20
50.5978
 11
194
 21
50.6
  0
LINE
  8
0
 10
194
 20
50.6
 11
194.069
 21
50.5978
  0
LINE
  8
0
 10
194.069
 20
50.5978
 11
194.138
 21
50.5913
  0
LINE
  8
0
 10
194.138
 20
50.5913
 11
194.206
 21
50.5805
  0
LINE
  8
0
 10
194.206
 20
50.5805
 11
194.274
 21
50.5654
  0
LINE
  8
0
 10
194.274
 20
50.5654
 11
194.34
 21
50.5462
  0
LINE
  8
0
 10
194.34
 20
50.5462
 11
194.405
 21
50.5228
  0
LINE
  8
0
 10
194.405
 20
50.5228
 11
194.468
 21
50.4953
  0
LINE
  8
0
 10
194.468
 20
50.4953
 11
194.53
 21
50.4639
  0
LINE
  8
0
 10
194.53
 20
50.4639
 11
194.589
 21
50.4288
  0
LINE
  8
0
 10
194.589
 20
50.4288
 11
194.647
 21
50.3899
  0
LINE
  8
0
 10
194.647
 20
50.3899
 11
194.701
 21
50.3475
  0
LINE
  8
0
 10
194.701
 20
50.3475
 11
194.753
 21
50.3019
  0
LINE
  8
0
 10
194.753
 20
50.3019
 11
194.802
 21
50.253
  0
LINE
  8
0
 10
194.802
 20
50.253
 11
194.848
 21
50.2012
  0
LINE
  8
0
 10
194.848
 20
50.2012
 11
194.89
 21
50.1466
  0
LINE
  8
0
 10
194.89
 20
50.1466
 11
194.929
 21
50.0894
  0
LINE
  8
0
 10
194.929
 20
50.0894
 11
194.964
 21
50.0299
  0
LINE
  8
0
 10
194.964
 20
50.0299
 11
194.995
 21
49.9684
  0
LINE
  8
0
 10
194.995
 20
49.9684
 11
195.023
 21
49.9049
  0
LINE
  8
0
 10
195.023
 20
49.9049
 11
195.046
 21
49.8399
  0
LINE
  8
0
 10
195.046
 20
49.8399
 11
195.065
 21
49.7735
  0
LINE
  8
0
 10
195.065
 20
49.7735
 11
195.081
 21
49.7061
  0
LINE
  8
0
 10
195.081
 20
49.7061
 11
195.091
 21
49.6379
  0
LINE
  8
0
 10
195.091
 20
49.6379
 11
195.098
 21
49.5691
  0
LINE
  8
0
 10
195.098
 20
49.5691
 11
195.1
 21
49.5
  0
LINE
  8
0
 10
195.1
 20
49.5
 11
195.098
 21
49.4309
  0
LINE
  8
0
 10
195.098
 20
49.4309
 11
195.091
 21
49.3621
  0
LINE
  8
0
 10
195.091
 20
49.3621
 11
195.081
 21
49.2939
  0
LINE
  8
0
 10
195.081
 20
49.2939
 11
195.065
 21
49.2264
  0
LINE
  8
0
 10
195.065
 20
49.2264
 11
195.046
 21
49.1601
  0
LINE
  8
0
 10
195.046
 20
49.1601
 11
195.023
 21
49.0951
  0
LINE
  8
0
 10
195.023
 20
49.0951
 11
194.995
 21
49.0316
  0
LINE
  8
0
 10
194.995
 20
49.0316
 11
194.964
 21
48.9701
  0
LINE
  8
0
 10
194.964
 20
48.9701
 11
194.929
 21
48.9106
  0
LINE
  8
0
 10
194.929
 20
48.9106
 11
194.89
 21
48.8534
  0
LINE
  8
0
 10
194.89
 20
48.8534
 11
194.848
 21
48.7988
  0
LINE
  8
0
 10
194.848
 20
48.7988
 11
194.802
 21
48.747
  0
LINE
  8
0
 10
194.802
 20
48.747
 11
194.753
 21
48.6981
  0
LINE
  8
0
 10
194.753
 20
48.6981
 11
194.701
 21
48.6524
  0
LINE
  8
0
 10
194.701
 20
48.6524
 11
194.647
 21
48.6101
  0
LINE
  8
0
 10
194.647
 20
48.6101
 11
194.589
 21
48.5712
  0
LINE
  8
0
 10
194.589
 20
48.5712
 11
194.53
 21
48.5361
  0
LINE
  8
0
 10
194.53
 20
48.5361
 11
194.468
 21
48.5047
  0
LINE
  8
0
 10
194.468
 20
48.5047
 11
194.405
 21
48.4772
  0
LINE
  8
0
 10
194.405
 20
48.4772
 11
194.34
 21
48.4538
  0
LINE
  8
0
 10
194.34
 20
48.4538
 11
194.274
 21
48.4346
  0
LINE
  8
0
 10
194.274
 20
48.4346
 11
194.206
 21
48.4195
  0
LINE
  8
0
 10
194.206
 20
48.4195
 11
194.138
 21
48.4087
  0
LINE
  8
0
 10
194.138
 20
48.4087
 11
194.069
 21
48.4022
  0
LINE
  8
0
 10
194.069
 20
48.4022
 11
194
 21
48.4
  0
LINE
  8
0
 10
194
 20
48.4
 11
193.931
 21
48.4022
  0
LINE
  8
0
 10
296.5
 20
42.3
 11
296.425
 21
42.3024
  0
LINE
  8
0
 10
296.425
 20
42.3024
 11
296.35
 21
42.3094
  0
LINE
  8
0
 10
296.35
 20
42.3094
 11
296.275
 21
42.3212
  0
LINE
  8
0
 10
296.275
 20
42.3212
 11
296.202
 21
42.3377
  0
LINE
  8
0
 10
296.202
 20
42.3377
 11
296.129
 21
42.3587
  0
LINE
  8
0
 10
296.129
 20
42.3587
 11
296.058
 21
42.3843
  0
LINE
  8
0
 10
296.058
 20
42.3843
 11
295.989
 21
42.4142
  0
LINE
  8
0
 10
295.989
 20
42.4142
 11
295.922
 21
42.4484
  0
LINE
  8
0
 10
295.922
 20
42.4484
 11
295.857
 21
42.4868
  0
LINE
  8
0
 10
295.857
 20
42.4868
 11
295.795
 21
42.5292
  0
LINE
  8
0
 10
295.795
 20
42.5292
 11
295.735
 21
42.5754
  0
LINE
  8
0
 10
295.735
 20
42.5754
 11
295.679
 21
42.6252
  0
LINE
  8
0
 10
295.679
 20
42.6252
 11
295.625
 21
42.6785
  0
LINE
  8
0
 10
295.625
 20
42.6785
 11
295.575
 21
42.7351
  0
LINE
  8
0
 10
295.575
 20
42.7351
 11
295.529
 21
42.7946
  0
LINE
  8
0
 10
295.529
 20
42.7946
 11
295.487
 21
42.857
  0
LINE
  8
0
 10
295.487
 20
42.857
 11
295.448
 21
42.9219
  0
LINE
  8
0
 10
295.448
 20
42.9219
 11
295.414
 21
42.9891
  0
LINE
  8
0
 10
295.414
 20
42.9891
 11
295.384
 21
43.0582
  0
LINE
  8
0
 10
295.384
 20
43.0582
 11
295.359
 21
43.1292
  0
LINE
  8
0
 10
295.359
 20
43.1292
 11
295.338
 21
43.2016
  0
LINE
  8
0
 10
295.338
 20
43.2016
 11
295.321
 21
43.2751
  0
LINE
  8
0
 10
295.321
 20
43.2751
 11
295.309
 21
43.3496
  0
LINE
  8
0
 10
295.309
 20
43.3496
 11
295.302
 21
43.4246
  0
LINE
  8
0
 10
295.302
 20
43.4246
 11
295.3
 21
43.5
  0
LINE
  8
0
 10
295.3
 20
43.5
 11
295.302
 21
43.5753
  0
LINE
  8
0
 10
295.302
 20
43.5753
 11
295.309
 21
43.6504
  0
LINE
  8
0
 10
295.309
 20
43.6504
 11
295.321
 21
43.7249
  0
LINE
  8
0
 10
295.321
 20
43.7249
 11
295.338
 21
43.7984
  0
LINE
  8
0
 10
295.338
 20
43.7984
 11
295.359
 21
43.8708
  0
LINE
  8
0
 10
295.359
 20
43.8708
 11
295.384
 21
43.9417
  0
LINE
  8
0
 10
295.384
 20
43.9417
 11
295.414
 21
44.0109
  0
LINE
  8
0
 10
295.414
 20
44.0109
 11
295.448
 21
44.0781
  0
LINE
  8
0
 10
295.448
 20
44.0781
 11
295.487
 21
44.143
  0
LINE
  8
0
 10
295.487
 20
44.143
 11
295.529
 21
44.2053
  0
LINE
  8
0
 10
295.529
 20
44.2053
 11
295.575
 21
44.2649
  0
LINE
  8
0
 10
295.575
 20
44.2649
 11
295.625
 21
44.3214
  0
LINE
  8
0
 10
295.625
 20
44.3214
 11
295.679
 21
44.3748
  0
LINE
  8
0
 10
295.679
 20
44.3748
 11
295.735
 21
44.4246
  0
LINE
  8
0
 10
295.735
 20
44.4246
 11
295.795
 21
44.4708
  0
LINE
  8
0
 10
295.795
 20
44.4708
 11
295.857
 21
44.5132
  0
LINE
  8
0
 10
295.857
 20
44.5132
 11
295.922
 21
44.5516
  0
LINE
  8
0
 10
295.922
 20
44.5516
 11
295.989
 21
44.5858
  0
LINE
  8
0
 10
295.989
 20
44.5858
 11
296.058
 21
44.6157
  0
LINE
  8
0
 10
296.058
 20
44.6157
 11
296.129
 21
44.6413
  0
LINE
  8
0
 10
296.129
 20
44.6413
 11
296.202
 21
44.6623
  0
LINE
  8
0
 10
296.202
 20
44.6623
 11
296.275
 21
44.6787
  0
LINE
  8
0
 10
296.275
 20
44.6787
 11
296.35
 21
44.6905
  0
LINE
  8
0
 10
296.35
 20
44.6905
 11
296.425
 21
44.6976
  0
LINE
  8
0
 10
296.425
 20
44.6976
 11
296.5
 21
44.7
  0
LINE
  8
0
 10
296.5
 20
44.7
 11
305.5
 21
44.7
  0
LINE
  8
0
 10
305.5
 20
44.7
 11
305.575
 21
44.6976
  0
LINE
  8
0
 10
305.575
 20
44.6976
 11
305.65
 21
44.6905
  0
LINE
  8
0
 10
305.65
 20
44.6905
 11
305.725
 21
44.6787
  0
LINE
  8
0
 10
305.725
 20
44.6787
 11
305.798
 21
44.6623
  0
LINE
  8
0
 10
305.798
 20
44.6623
 11
305.871
 21
44.6413
  0
LINE
  8
0
 10
305.871
 20
44.6413
 11
305.942
 21
44.6157
  0
LINE
  8
0
 10
305.942
 20
44.6157
 11
306.011
 21
44.5858
  0
LINE
  8
0
 10
306.011
 20
44.5858
 11
306.078
 21
44.5516
  0
LINE
  8
0
 10
306.078
 20
44.5516
 11
306.143
 21
44.5132
  0
LINE
  8
0
 10
306.143
 20
44.5132
 11
306.205
 21
44.4708
  0
LINE
  8
0
 10
306.205
 20
44.4708
 11
306.265
 21
44.4246
  0
LINE
  8
0
 10
306.265
 20
44.4246
 11
306.321
 21
44.3748
  0
LINE
  8
0
 10
306.321
 20
44.3748
 11
306.375
 21
44.3214
  0
LINE
  8
0
 10
306.375
 20
44.3214
 11
306.425
 21
44.2649
  0
LINE
  8
0
 10
306.425
 20
44.2649
 11
306.471
 21
44.2053
  0
LINE
  8
0
 10
306.471
 20
44.2053
 11
306.513
 21
44.143
  0
LINE
  8
0
 10
306.513
 20
44.143
 11
306.552
 21
44.0781
  0
LINE
  8
0
 10
306.552
 20
44.0781
 11
306.586
 21
44.0109
  0
LINE
  8
0
 10
306.586
 20
44.0109
 11
306.616
 21
43.9417
  0
LINE
  8
0
 10
306.616
 20
43.9417
 11
306.641
 21
43.8708
  0
LINE
  8
0
 10
306.641
 20
43.8708
 11
306.662
 21
43.7984
  0
LINE
  8
0
 10
306.662
 20
43.7984
 11
306.679
 21
43.7249
  0
LINE
  8
0
 10
306.679
 20
43.7249
 11
306.691
 21
43.6504
  0
LINE
  8
0
 10
306.691
 20
43.6504
 11
306.698
 21
43.5753
  0
LINE
  8
0
 10
306.698
 20
43.5753
 11
306.7
 21
43.5
  0
LINE
  8
0
 10
306.7
 20
43.5
 11
306.698
 21
43.4246
  0
LINE
  8
0
 10
306.698
 20
43.4246
 11
306.691
 21
43.3496
  0
LINE
  8
0
 10
306.691
 20
43.3496
 11
306.679
 21
43.2751
  0
LINE
  8
0
 10
306.679
 20
43.2751
 11
306.662
 21
43.2016
  0
LINE
  8
0
 10
306.662
 20
43.2016
 11
306.641
 21
43.1292
  0
LINE
  8
0
 10
306.641
 20
43.1292
 11
306.616
 21
43.0582
  0
LINE
  8
0
 10
306.616
 20
43.0582
 11
306.586
 21
42.9891
  0
LINE
  8
0
 10
306.586
 20
42.9891
 11
306.552
 21
42.9219
  0
LINE
  8
0
 10
306.552
 20
42.9219
 11
306.513
 21
42.857
  0
LINE
  8
0
 10
306.513
 20
42.857
 11
306.471
 21
42.7946
  0
LINE
  8
0
 10
306.471
 20
42.7946
 11
306.425
 21
42.7351
  0
LINE
  8
0
 10
306.425
 20
42.7351
 11
306.375
 21
42.6785
  0
LINE
  8
0
 10
306.375
 20
42.6785
 11
306.321
 21
42.6252
  0
LINE
  8
0
 10
306.321
 20
42.6252
 11
306.265
 21
42.5754
  0
LINE
  8
0
 10
306.265
 20
42.5754
 11
306.205
 21
42.5292
  0
LINE
  8
0
 10
306.205
 20
42.5292
 11
306.143
 21
42.4868
  0
LINE
  8
0
 10
306.143
 20
42.4868
 11
306.078
 21
42.4484
  0
LINE
  8
0
 10
306.078
 20
42.4484
 11
306.011
 21
42.4142
  0
LINE
  8
0
 10
306.011
 20
42.4142
 11
305.942
 21
42.3843
  0
LINE
  8
0
 10
305.942
 20
42.3843
 11
305.871
 21
42.3587
  0
LINE
  8
0
 10
305.871
 20
42.3587
 11
305.798
 21
42.3377
  0
LINE
  8
0
 10
305.798
 20
42.3377
 11
305.725
 21
42.3212
  0
LINE
  8
0
 10
305.725
 20
42.3212
 11
305.65
 21
42.3094
  0
LINE
  8
0
 10
305.65
 20
42.3094
 11
305.575
 21
42.3024
  0
LINE
  8
0
 10
305.575
 20
42.3024
 11
305.5
 21
42.3
  0
LINE
  8
0
 10
305.5
 20
42.3
 11
296.5
 21
42.3
  0
LINE
  8
0
 10
269.5
 20
42.3
 11
269.425
 21
42.3024
  0
LINE
  8
0
 10
269.425
 20
42.3024
 11
269.35
 21
42.3094
  0
LINE
  8
0
 10
269.35
 20
42.3094
 11
269.275
 21
42.3212
  0
LINE
  8
0
 10
269.275
 20
42.3212
 11
269.202
 21
42.3377
  0
LINE
  8
0
 10
269.202
 20
42.3377
 11
269.129
 21
42.3587
  0
LINE
  8
0
 10
269.129
 20
42.3587
 11
269.058
 21
42.3843
  0
LINE
  8
0
 10
269.058
 20
42.3843
 11
268.989
 21
42.4142
  0
LINE
  8
0
 10
268.989
 20
42.4142
 11
268.922
 21
42.4484
  0
LINE
  8
0
 10
268.922
 20
42.4484
 11
268.857
 21
42.4868
  0
LINE
  8
0
 10
268.857
 20
42.4868
 11
268.795
 21
42.5292
  0
LINE
  8
0
 10
268.795
 20
42.5292
 11
268.735
 21
42.5754
  0
LINE
  8
0
 10
268.735
 20
42.5754
 11
268.679
 21
42.6252
  0
LINE
  8
0
 10
268.679
 20
42.6252
 11
268.625
 21
42.6785
  0
LINE
  8
0
 10
268.625
 20
42.6785
 11
268.575
 21
42.7351
  0
LINE
  8
0
 10
268.575
 20
42.7351
 11
268.529
 21
42.7946
  0
LINE
  8
0
 10
268.529
 20
42.7946
 11
268.487
 21
42.857
  0
LINE
  8
0
 10
268.487
 20
42.857
 11
268.448
 21
42.9219
  0
LINE
  8
0
 10
268.448
 20
42.9219
 11
268.414
 21
42.9891
  0
LINE
  8
0
 10
268.414
 20
42.9891
 11
268.384
 21
43.0582
  0
LINE
  8
0
 10
268.384
 20
43.0582
 11
268.359
 21
43.1292
  0
LINE
  8
0
 10
268.359
 20
43.1292
 11
268.338
 21
43.2016
  0
LINE
  8
0
 10
268.338
 20
43.2016
 11
268.321
 21
43.2751
  0
LINE
  8
0
 10
268.321
 20
43.2751
 11
268.309
 21
43.3496
  0
LINE
  8
0
 10
268.309
 20
43.3496
 11
268.302
 21
43.4246
  0
LINE
  8
0
 10
268.302
 20
43.4246
 11
268.3
 21
43.5
  0
LINE
  8
0
 10
268.3
 20
43.5
 11
268.302
 21
43.5753
  0
LINE
  8
0
 10
268.302
 20
43.5753
 11
268.309
 21
43.6504
  0
LINE
  8
0
 10
268.309
 20
43.6504
 11
268.321
 21
43.7249
  0
LINE
  8
0
 10
268.321
 20
43.7249
 11
268.338
 21
43.7984
  0
LINE
  8
0
 10
268.338
 20
43.7984
 11
268.359
 21
43.8708
  0
LINE
  8
0
 10
268.359
 20
43.8708
 11
268.384
 21
43.9417
  0
LINE
  8
0
 10
268.384
 20
43.9417
 11
268.414
 21
44.0109
  0
LINE
  8
0
 10
268.414
 20
44.0109
 11
268.448
 21
44.0781
  0
LINE
  8
0
 10
268.448
 20
44.0781
 11
268.487
 21
44.143
  0
LINE
  8
0
 10
268.487
 20
44.143
 11
268.529
 21
44.2053
  0
LINE
  8
0
 10
268.529
 20
44.2053
 11
268.575
 21
44.2649
  0
LINE
  8
0
 10
268.575
 20
44.2649
 11
268.625
 21
44.3214
  0
LINE
  8
0
 10
268.625
 20
44.3214
 11
268.679
 21
44.3748
  0
LINE
  8
0
 10
268.679
 20
44.3748
 11
268.735
 21
44.4246
  0
LINE
  8
0
 10
268.735
 20
44.4246
 11
268.795
 21
44.4708
  0
LINE
  8
0
 10
268.795
 20
44.4708
 11
268.857
 21
44.5132
  0
LINE
  8
0
 10
268.857
 20
44.5132
 11
268.922
 21
44.5516
  0
LINE
  8
0
 10
268.922
 20
44.5516
 11
268.989
 21
44.5858
  0
LINE
  8
0
 10
268.989
 20
44.5858
 11
269.058
 21
44.6157
  0
LINE
  8
0
 10
269.058
 20
44.6157
 11
269.129
 21
44.6413
  0
LINE
  8
0
 10
269.129
 20
44.6413
 11
269.202
 21
44.6623
  0
LINE
  8
0
 10
269.202
 20
44.6623
 11
269.275
 21
44.6787
  0
LINE
  8
0
 10
269.275
 20
44.6787
 11
269.35
 21
44.6905
  0
LINE
  8
0
 10
269.35
 20
44.6905
 11
269.425
 21
44.6976
  0
LINE
  8
0
 10
269.425
 20
44.6976
 11
269.5
 21
44.7
  0
LINE
  8
0
 10
269.5
 20
44.7
 11
278.5
 21
44.7
  0
LINE
  8
0
 10
278.5
 20
44.7
 11
278.575
 21
44.6976
  0
LINE
  8
0
 10
278.575
 20
44.6976
 11
278.65
 21
44.6905
  0
LINE
  8
0
 10
278.65
 20
44.6905
 11
278.725
 21
44.6787
  0
LINE
  8
0
 10
278.725
 20
44.6787
 11
278.798
 21
44.6623
  0
LINE
  8
0
 10
278.798
 20
44.6623
 11
278.871
 21
44.6413
  0
LINE
  8
0
 10
278.871
 20
44.6413
 11
278.942
 21
44.6157
  0
LINE
  8
0
 10
278.942
 20
44.6157
 11
279.011
 21
44.5858
  0
LINE
  8
0
 10
279.011
 20
44.5858
 11
279.078
 21
44.5516
  0
LINE
  8
0
 10
279.078
 20
44.5516
 11
279.143
 21
44.5132
  0
LINE
  8
0
 10
279.143
 20
44.5132
 11
279.205
 21
44.4708
  0
LINE
  8
0
 10
279.205
 20
44.4708
 11
279.265
 21
44.4246
  0
LINE
  8
0
 10
279.265
 20
44.4246
 11
279.321
 21
44.3748
  0
LINE
  8
0
 10
279.321
 20
44.3748
 11
279.375
 21
44.3214
  0
LINE
  8
0
 10
279.375
 20
44.3214
 11
279.425
 21
44.2649
  0
LINE
  8
0
 10
279.425
 20
44.2649
 11
279.471
 21
44.2053
  0
LINE
  8
0
 10
279.471
 20
44.2053
 11
279.513
 21
44.143
  0
LINE
  8
0
 10
279.513
 20
44.143
 11
279.552
 21
44.0781
  0
LINE
  8
0
 10
279.552
 20
44.0781
 11
279.586
 21
44.0109
  0
LINE
  8
0
 10
279.586
 20
44.0109
 11
279.616
 21
43.9417
  0
LINE
  8
0
 10
279.616
 20
43.9417
 11
279.641
 21
43.8708
  0
LINE
  8
0
 10
279.641
 20
43.8708
 11
279.662
 21
43.7984
  0
LINE
  8
0
 10
279.662
 20
43.7984
 11
279.679
 21
43.7249
  0
LINE
  8
0
 10
279.679
 20
43.7249
 11
279.691
 21
43.6504
  0
LINE
  8
0
 10
279.691
 20
43.6504
 11
279.698
 21
43.5753
  0
LINE
  8
0
 10
279.698
 20
43.5753
 11
279.7
 21
43.5
  0
LINE
  8
0
 10
279.7
 20
43.5
 11
279.698
 21
43.4246
  0
LINE
  8
0
 10
279.698
 20
43.4246
 11
279.691
 21
43.3496
  0
LINE
  8
0
 10
279.691
 20
43.3496
 11
279.679
 21
43.2751
  0
LINE
  8
0
 10
279.679
 20
43.2751
 11
279.662
 21
43.2016
  0
LINE
  8
0
 10
279.662
 20
43.2016
 11
279.641
 21
43.1292
  0
LINE
  8
0
 10
279.641
 20
43.1292
 11
279.616
 21
43.0582
  0
LINE
  8
0
 10
279.616
 20
43.0582
 11
279.586
 21
42.9891
  0
LINE
  8
0
 10
279.586
 20
42.9891
 11
279.552
 21
42.9219
  0
LINE
  8
0
 10
279.552
 20
42.9219
 11
279.513
 21
42.857
  0
LINE
  8
0
 10
279.513
 20
42.857
 11
279.471
 21
42.7946
  0
LINE
  8
0
 10
279.471
 20
42.7946
 11
279.425
 21
42.7351
  0
LINE
  8
0
 10
279.425
 20
42.7351
 11
279.375
 21
42.6785
  0
LINE
  8
0
 10
279.375
 20
42.6785
 11
279.321
 21
42.6252
  0
LINE
  8
0
 10
279.321
 20
42.6252
 11
279.265
 21
42.5754
  0
LINE
  8
0
 10
279.265
 20
42.5754
 11
279.205
 21
42.5292
  0
LINE
  8
0
 10
279.205
 20
42.5292
 11
279.143
 21
42.4868
  0
LINE
  8
0
 10
279.143
 20
42.4868
 11
279.078
 21
42.4484
  0
LINE
  8
0
 10
279.078
 20
42.4484
 11
279.011
 21
42.4142
  0
LINE
  8
0
 10
279.011
 20
42.4142
 11
278.942
 21
42.3843
  0
LINE
  8
0
 10
278.942
 20
42.3843
 11
278.871
 21
42.3587
  0
LINE
  8
0
 10
278.871
 20
42.3587
 11
278.798
 21
42.3377
  0
LINE
  8
0
 10
278.798
 20
42.3377
 11
278.725
 21
42.3212
  0
LINE
  8
0
 10
278.725
 20
42.3212
 11
278.65
 21
42.3094
  0
LINE
  8
0
 10
278.65
 20
42.3094
 11
278.575
 21
42.3024
  0
LINE
  8
0
 10
278.575
 20
42.3024
 11
278.5
 21
42.3
  0
LINE
  8
0
 10
278.5
 20
42.3
 11
269.5
 21
42.3
  0
LINE
  8
0
 10
308.926
 20
41.3273
 11
308.853
 21
41.3343
  0
LINE
  8
0
 10
308.853
 20
41.3343
 11
308.78
 21
41.3458
  0
LINE
  8
0
 10
308.78
 20
41.3458
 11
308.708
 21
41.3619
  0
LINE
  8
0
 10
308.708
 20
41.3619
 11
308.637
 21
41.3825
  0
LINE
  8
0
 10
308.637
 20
41.3825
 11
308.567
 21
41.4075
  0
LINE
  8
0
 10
308.567
 20
41.4075
 11
308.5
 21
41.4368
  0
LINE
  8
0
 10
308.5
 20
41.4368
 11
308.434
 21
41.4703
  0
LINE
  8
0
 10
308.434
 20
41.4703
 11
308.37
 21
41.5079
  0
LINE
  8
0
 10
308.37
 20
41.5079
 11
308.309
 21
41.5494
  0
LINE
  8
0
 10
308.309
 20
41.5494
 11
308.251
 21
41.5946
  0
LINE
  8
0
 10
308.251
 20
41.5946
 11
308.196
 21
41.6434
  0
LINE
  8
0
 10
308.196
 20
41.6434
 11
308.143
 21
41.6956
  0
LINE
  8
0
 10
308.143
 20
41.6956
 11
308.095
 21
41.751
  0
LINE
  8
0
 10
308.095
 20
41.751
 11
308.049
 21
41.8093
  0
LINE
  8
0
 10
308.049
 20
41.8093
 11
308.008
 21
41.8704
  0
LINE
  8
0
 10
308.008
 20
41.8704
 11
307.97
 21
41.9339
  0
LINE
  8
0
 10
307.97
 20
41.9339
 11
307.937
 21
41.9997
  0
LINE
  8
0
 10
307.937
 20
41.9997
 11
307.908
 21
42.0674
  0
LINE
  8
0
 10
307.908
 20
42.0674
 11
307.883
 21
42.1369
  0
LINE
  8
0
 10
307.883
 20
42.1369
 11
307.862
 21
42.2078
  0
LINE
  8
0
 10
307.862
 20
42.2078
 11
307.846
 21
42.2798
  0
LINE
  8
0
 10
307.846
 20
42.2798
 11
307.834
 21
42.3527
  0
LINE
  8
0
 10
307.834
 20
42.3527
 11
307.827
 21
42.4262
  0
LINE
  8
0
 10
307.827
 20
42.4262
 11
307.825
 21
42.5
  0
LINE
  8
0
 10
307.825
 20
42.5
 11
307.827
 21
42.5738
  0
LINE
  8
0
 10
307.827
 20
42.5738
 11
307.834
 21
42.6473
  0
LINE
  8
0
 10
307.834
 20
42.6473
 11
307.846
 21
42.7202
  0
LINE
  8
0
 10
307.846
 20
42.7202
 11
307.862
 21
42.7922
  0
LINE
  8
0
 10
307.862
 20
42.7922
 11
307.883
 21
42.8631
  0
LINE
  8
0
 10
307.883
 20
42.8631
 11
307.908
 21
42.9325
  0
LINE
  8
0
 10
307.908
 20
42.9325
 11
307.937
 21
43.0003
  0
LINE
  8
0
 10
307.937
 20
43.0003
 11
307.97
 21
43.0661
  0
LINE
  8
0
 10
307.97
 20
43.0661
 11
308.008
 21
43.1296
  0
LINE
  8
0
 10
308.008
 20
43.1296
 11
308.049
 21
43.1906
  0
LINE
  8
0
 10
308.049
 20
43.1906
 11
308.095
 21
43.249
  0
LINE
  8
0
 10
308.095
 20
43.249
 11
308.143
 21
43.3043
  0
LINE
  8
0
 10
308.143
 20
43.3043
 11
308.196
 21
43.3565
  0
LINE
  8
0
 10
308.196
 20
43.3565
 11
308.251
 21
43.4053
  0
LINE
  8
0
 10
308.251
 20
43.4053
 11
308.309
 21
43.4506
  0
LINE
  8
0
 10
308.309
 20
43.4506
 11
308.37
 21
43.4921
  0
LINE
  8
0
 10
308.37
 20
43.4921
 11
308.434
 21
43.5296
  0
LINE
  8
0
 10
308.434
 20
43.5296
 11
308.5
 21
43.5632
  0
LINE
  8
0
 10
308.5
 20
43.5632
 11
308.567
 21
43.5925
  0
LINE
  8
0
 10
308.567
 20
43.5925
 11
308.637
 21
43.6175
  0
LINE
  8
0
 10
308.637
 20
43.6175
 11
308.708
 21
43.6381
  0
LINE
  8
0
 10
308.708
 20
43.6381
 11
308.78
 21
43.6542
  0
LINE
  8
0
 10
308.78
 20
43.6542
 11
308.853
 21
43.6657
  0
LINE
  8
0
 10
308.853
 20
43.6657
 11
308.926
 21
43.6727
  0
LINE
  8
0
 10
308.926
 20
43.6727
 11
309
 21
43.675
  0
LINE
  8
0
 10
309
 20
43.675
 11
309.074
 21
43.6727
  0
LINE
  8
0
 10
309.074
 20
43.6727
 11
309.147
 21
43.6657
  0
LINE
  8
0
 10
309.147
 20
43.6657
 11
309.22
 21
43.6542
  0
LINE
  8
0
 10
309.22
 20
43.6542
 11
309.292
 21
43.6381
  0
LINE
  8
0
 10
309.292
 20
43.6381
 11
309.363
 21
43.6175
  0
LINE
  8
0
 10
309.363
 20
43.6175
 11
309.433
 21
43.5925
  0
LINE
  8
0
 10
309.433
 20
43.5925
 11
309.5
 21
43.5632
  0
LINE
  8
0
 10
309.5
 20
43.5632
 11
309.566
 21
43.5296
  0
LINE
  8
0
 10
309.566
 20
43.5296
 11
309.63
 21
43.4921
  0
LINE
  8
0
 10
309.63
 20
43.4921
 11
309.691
 21
43.4506
  0
LINE
  8
0
 10
309.691
 20
43.4506
 11
309.749
 21
43.4053
  0
LINE
  8
0
 10
309.749
 20
43.4053
 11
309.804
 21
43.3565
  0
LINE
  8
0
 10
309.804
 20
43.3565
 11
309.857
 21
43.3043
  0
LINE
  8
0
 10
309.857
 20
43.3043
 11
309.905
 21
43.249
  0
LINE
  8
0
 10
309.905
 20
43.249
 11
309.951
 21
43.1906
  0
LINE
  8
0
 10
309.951
 20
43.1906
 11
309.992
 21
43.1296
  0
LINE
  8
0
 10
309.992
 20
43.1296
 11
310.03
 21
43.0661
  0
LINE
  8
0
 10
310.03
 20
43.0661
 11
310.063
 21
43.0003
  0
LINE
  8
0
 10
310.063
 20
43.0003
 11
310.092
 21
42.9325
  0
LINE
  8
0
 10
310.092
 20
42.9325
 11
310.117
 21
42.8631
  0
LINE
  8
0
 10
310.117
 20
42.8631
 11
310.138
 21
42.7922
  0
LINE
  8
0
 10
310.138
 20
42.7922
 11
310.154
 21
42.7202
  0
LINE
  8
0
 10
310.154
 20
42.7202
 11
310.166
 21
42.6473
  0
LINE
  8
0
 10
310.166
 20
42.6473
 11
310.173
 21
42.5738
  0
LINE
  8
0
 10
310.173
 20
42.5738
 11
310.175
 21
42.5
  0
LINE
  8
0
 10
310.175
 20
42.5
 11
310.173
 21
42.4262
  0
LINE
  8
0
 10
310.173
 20
42.4262
 11
310.166
 21
42.3527
  0
LINE
  8
0
 10
310.166
 20
42.3527
 11
310.154
 21
42.2798
  0
LINE
  8
0
 10
310.154
 20
42.2798
 11
310.138
 21
42.2078
  0
LINE
  8
0
 10
310.138
 20
42.2078
 11
310.117
 21
42.1369
  0
LINE
  8
0
 10
310.117
 20
42.1369
 11
310.092
 21
42.0674
  0
LINE
  8
0
 10
310.092
 20
42.0674
 11
310.063
 21
41.9997
  0
LINE
  8
0
 10
310.063
 20
41.9997
 11
310.03
 21
41.9339
  0
LINE
  8
0
 10
310.03
 20
41.9339
 11
309.992
 21
41.8704
  0
LINE
  8
0
 10
309.992
 20
41.8704
 11
309.951
 21
41.8093
  0
LINE
  8
0
 10
309.951
 20
41.8093
 11
309.905
 21
41.751
  0
LINE
  8
0
 10
309.905
 20
41.751
 11
309.857
 21
41.6956
  0
LINE
  8
0
 10
309.857
 20
41.6956
 11
309.804
 21
41.6434
  0
LINE
  8
0
 10
309.804
 20
41.6434
 11
309.749
 21
41.5946
  0
LINE
  8
0
 10
309.749
 20
41.5946
 11
309.691
 21
41.5494
  0
LINE
  8
0
 10
309.691
 20
41.5494
 11
309.63
 21
41.5079
  0
LINE
  8
0
 10
309.63
 20
41.5079
 11
309.566
 21
41.4703
  0
LINE
  8
0
 10
309.566
 20
41.4703
 11
309.5
 21
41.4368
  0
LINE
  8
0
 10
309.5
 20
41.4368
 11
309.433
 21
41.4075
  0
LINE
  8
0
 10
309.433
 20
41.4075
 11
309.363
 21
41.3825
  0
LINE
  8
0
 10
309.363
 20
41.3825
 11
309.292
 21
41.3619
  0
LINE
  8
0
 10
309.292
 20
41.3619
 11
309.22
 21
41.3458
  0
LINE
  8
0
 10
309.22
 20
41.3458
 11
309.147
 21
41.3343
  0
LINE
  8
0
 10
309.147
 20
41.3343
 11
309.074
 21
41.3273
  0
LINE
  8
0
 10
309.074
 20
41.3273
 11
309
 21
41.325
  0
LINE
  8
0
 10
309
 20
41.325
 11
308.926
 21
41.3273
  0
LINE
  8
0
 10
8.92621
 20
41.3273
 11
8.85272
 21
41.3343
  0
LINE
  8
0
 10
8.85272
 20
41.3343
 11
8.77982
 21
41.3458
  0
LINE
  8
0
 10
8.77982
 20
41.3458
 11
8.70778
 21
41.3619
  0
LINE
  8
0
 10
8.70778
 20
41.3619
 11
8.6369
 21
41.3825
  0
LINE
  8
0
 10
8.6369
 20
41.3825
 11
8.56744
 21
41.4075
  0
LINE
  8
0
 10
8.56744
 20
41.4075
 11
8.49969
 21
41.4368
  0
LINE
  8
0
 10
8.49969
 20
41.4368
 11
8.43393
 21
41.4703
  0
LINE
  8
0
 10
8.43393
 20
41.4703
 11
8.37039
 21
41.5079
  0
LINE
  8
0
 10
8.37039
 20
41.5079
 11
8.30934
 21
41.5494
  0
LINE
  8
0
 10
8.30934
 20
41.5494
 11
8.25102
 21
41.5946
  0
LINE
  8
0
 10
8.25102
 20
41.5946
 11
8.19565
 21
41.6434
  0
LINE
  8
0
 10
8.19565
 20
41.6434
 11
8.14345
 21
41.6956
  0
LINE
  8
0
 10
8.14345
 20
41.6956
 11
8.09464
 21
41.751
  0
LINE
  8
0
 10
8.09464
 20
41.751
 11
8.04939
 21
41.8093
  0
LINE
  8
0
 10
8.04939
 20
41.8093
 11
8.0079
 21
41.8704
  0
LINE
  8
0
 10
8.0079
 20
41.8704
 11
7.97034
 21
41.9339
  0
LINE
  8
0
 10
7.97034
 20
41.9339
 11
7.93681
 21
41.9997
  0
LINE
  8
0
 10
7.93681
 20
41.9997
 11
7.9075
 21
42.0674
  0
LINE
  8
0
 10
7.9075
 20
42.0674
 11
7.88251
 21
42.1369
  0
LINE
  8
0
 10
7.88251
 20
42.1369
 11
7.86191
 21
42.2078
  0
LINE
  8
0
 10
7.86191
 20
42.2078
 11
7.84581
 21
42.2798
  0
LINE
  8
0
 10
7.84581
 20
42.2798
 11
7.83426
 21
42.3527
  0
LINE
  8
0
 10
7.83426
 20
42.3527
 11
7.82732
 21
42.4262
  0
LINE
  8
0
 10
7.82732
 20
42.4262
 11
7.825
 21
42.5
  0
LINE
  8
0
 10
7.825
 20
42.5
 11
7.82732
 21
42.5738
  0
LINE
  8
0
 10
7.82732
 20
42.5738
 11
7.83426
 21
42.6473
  0
LINE
  8
0
 10
7.83426
 20
42.6473
 11
7.84581
 21
42.7202
  0
LINE
  8
0
 10
7.84581
 20
42.7202
 11
7.86191
 21
42.7922
  0
LINE
  8
0
 10
7.86191
 20
42.7922
 11
7.88251
 21
42.8631
  0
LINE
  8
0
 10
7.88251
 20
42.8631
 11
7.9075
 21
42.9325
  0
LINE
  8
0
 10
7.9075
 20
42.9325
 11
7.93681
 21
43.0003
  0
LINE
  8
0
 10
7.93681
 20
43.0003
 11
7.97034
 21
43.0661
  0
LINE
  8
0
 10
7.97034
 20
43.0661
 11
8.0079
 21
43.1296
  0
LINE
  8
0
 10
8.0079
 20
43.1296
 11
8.04939
 21
43.1906
  0
LINE
  8
0
 10
8.04939
 20
43.1906
 11
8.09464
 21
43.249
  0
LINE
  8
0
 10
8.09464
 20
43.249
 11
8.14345
 21
43.3043
  0
LINE
  8
0
 10
8.14345
 20
43.3043
 11
8.19565
 21
43.3565
  0
LINE
  8
0
 10
8.19565
 20
43.3565
 11
8.25102
 21
43.4053
  0
LINE
  8
0
 10
8.25102
 20
43.4053
 11
8.30934
 21
43.4506
  0
LINE
  8
0
 10
8.30934
 20
43.4506
 11
8.37039
 21
43.4921
  0
LINE
  8
0
 10
8.37039
 20
43.4921
 11
8.43393
 21
43.5296
  0
LINE
  8
0
 10
8.43393
 20
43.5296
 11
8.49969
 21
43.5632
  0
LINE
  8
0
 10
8.49969
 20
43.5632
 11
8.56744
 21
43.5925
  0
LINE
  8
0
 10
8.56744
 20
43.5925
 11
8.6369
 21
43.6175
  0
LINE
  8
0
 10
8.6369
 20
43.6175
 11
8.70778
 21
43.6381
  0
LINE
  8
0
 10
8.70778
 20
43.6381
 11
8.77982
 21
43.6542
  0
LINE
  8
0
 10
8.77982
 20
43.6542
 11
8.85272
 21
43.6657
  0
LINE
  8
0
 10
8.85272
 20
43.6657
 11
8.92621
 21
43.6727
  0
LINE
  8
0
 10
8.92621
 20
43.6727
 11
9
 21
43.675
  0
LINE
  8
0
 10
9
 20
43.675
 11
9.07378
 21
43.6727
  0
LINE
  8
0
 10
9.07378
 20
43.6727
 11
9.14726
 21
43.6657
  0
LINE
  8
0
 10
9.14726
 20
43.6657
 11
9.22017
 21
43.6542
  0
LINE
  8
0
 10
9.22017
 20
43.6542
 11
9.29221
 21
43.6381
  0
LINE
  8
0
 10
9.29221
 20
43.6381
 11
9.36308
 21
43.6175
  0
LINE
  8
0
 10
9.36308
 20
43.6175
 11
9.43254
 21
43.5925
  0
LINE
  8
0
 10
9.43254
 20
43.5925
 11
9.50029
 21
43.5632
  0
LINE
  8
0
 10
9.50029
 20
43.5632
 11
9.56606
 21
43.5296
  0
LINE
  8
0
 10
9.56606
 20
43.5296
 11
9.62959
 21
43.4921
  0
LINE
  8
0
 10
9.62959
 20
43.4921
 11
9.69064
 21
43.4506
  0
LINE
  8
0
 10
9.69064
 20
43.4506
 11
9.74896
 21
43.4053
  0
LINE
  8
0
 10
9.74896
 20
43.4053
 11
9.80434
 21
43.3565
  0
LINE
  8
0
 10
9.80434
 20
43.3565
 11
9.85654
 21
43.3043
  0
LINE
  8
0
 10
9.85654
 20
43.3043
 11
9.90535
 21
43.249
  0
LINE
  8
0
 10
9.90535
 20
43.249
 11
9.95059
 21
43.1906
  0
LINE
  8
0
 10
9.95059
 20
43.1906
 11
9.99208
 21
43.1296
  0
LINE
  8
0
 10
9.99208
 20
43.1296
 11
10.0296
 21
43.0661
  0
LINE
  8
0
 10
10.0296
 20
43.0661
 11
10.0632
 21
43.0003
  0
LINE
  8
0
 10
10.0632
 20
43.0003
 11
10.0925
 21
42.9325
  0
LINE
  8
0
 10
10.0925
 20
42.9325
 11
10.1175
 21
42.8631
  0
LINE
  8
0
 10
10.1175
 20
42.8631
 11
10.1381
 21
42.7922
  0
LINE
  8
0
 10
10.1381
 20
42.7922
 11
10.1542
 21
42.7202
  0
LINE
  8
0
 10
10.1542
 20
42.7202
 11
10.1657
 21
42.6473
  0
LINE
  8
0
 10
10.1657
 20
42.6473
 11
10.1727
 21
42.5738
  0
LINE
  8
0
 10
10.1727
 20
42.5738
 11
10.175
 21
42.5
  0
LINE
  8
0
 10
10.175
 20
42.5
 11
10.1727
 21
42.4262
  0
LINE
  8
0
 10
10.1727
 20
42.4262
 11
10.1657
 21
42.3527
  0
LINE
  8
0
 10
10.1657
 20
42.3527
 11
10.1542
 21
42.2798
  0
LINE
  8
0
 10
10.1542
 20
42.2798
 11
10.1381
 21
42.2078
  0
LINE
  8
0
 10
10.1381
 20
42.2078
 11
10.1175
 21
42.1369
  0
LINE
  8
0
 10
10.1175
 20
42.1369
 11
10.0925
 21
42.0674
  0
LINE
  8
0
 10
10.0925
 20
42.0674
 11
10.0632
 21
41.9997
  0
LINE
  8
0
 10
10.0632
 20
41.9997
 11
10.0296
 21
41.9339
  0
LINE
  8
0
 10
10.0296
 20
41.9339
 11
9.99208
 21
41.8704
  0
LINE
  8
0
 10
9.99208
 20
41.8704
 11
9.95059
 21
41.8093
  0
LINE
  8
0
 10
9.95059
 20
41.8093
 11
9.90535
 21
41.751
  0
LINE
  8
0
 10
9.90535
 20
41.751
 11
9.85654
 21
41.6956
  0
LINE
  8
0
 10
9.85654
 20
41.6956
 11
9.80434
 21
41.6434
  0
LINE
  8
0
 10
9.80434
 20
41.6434
 11
9.74896
 21
41.5946
  0
LINE
  8
0
 10
9.74896
 20
41.5946
 11
9.69064
 21
41.5494
  0
LINE
  8
0
 10
9.69064
 20
41.5494
 11
9.62959
 21
41.5079
  0
LINE
  8
0
 10
9.62959
 20
41.5079
 11
9.56606
 21
41.4703
  0
LINE
  8
0
 10
9.56606
 20
41.4703
 11
9.50029
 21
41.4368
  0
LINE
  8
0
 10
9.50029
 20
41.4368
 11
9.43254
 21
41.4075
  0
LINE
  8
0
 10
9.43254
 20
41.4075
 11
9.36308
 21
41.3825
  0
LINE
  8
0
 10
9.36308
 20
41.3825
 11
9.29221
 21
41.3619
  0
LINE
  8
0
 10
9.29221
 20
41.3619
 11
9.22017
 21
41.3458
  0
LINE
  8
0
 10
9.22017
 20
41.3458
 11
9.14726
 21
41.3343
  0
LINE
  8
0
 10
9.14726
 20
41.3343
 11
9.07378
 21
41.3273
  0
LINE
  8
0
 10
9.07378
 20
41.3273
 11
9
 21
41.325
  0
LINE
  8
0
 10
9
 20
41.325
 11
8.92621
 21
41.3273
  0
LINE
  8
0
 10
285
 20
21
 11
284.309
 21
21.0217
  0
LINE
  8
0
 10
284.309
 20
21.0217
 11
283.621
 21
21.0867
  0
LINE
  8
0
 10
283.621
 20
21.0867
 11
282.939
 21
21.1949
  0
LINE
  8
0
 10
282.939
 20
21.1949
 11
282.264
 21
21.3456
  0
LINE
  8
0
 10
282.264
 20
21.3456
 11
281.601
 21
21.5384
  0
LINE
  8
0
 10
281.601
 20
21.5384
 11
280.951
 21
21.7725
  0
LINE
  8
0
 10
280.951
 20
21.7725
 11
280.316
 21
22.0469
  0
LINE
  8
0
 10
280.316
 20
22.0469
 11
279.701
 21
22.3606
  0
LINE
  8
0
 10
279.701
 20
22.3606
 11
279.106
 21
22.7124
  0
LINE
  8
0
 10
279.106
 20
22.7124
 11
278.534
 21
23.1008
  0
LINE
  8
0
 10
278.534
 20
23.1008
 11
277.988
 21
23.5244
  0
LINE
  8
0
 10
277.988
 20
23.5244
 11
277.47
 21
23.9814
  0
LINE
  8
0
 10
277.47
 20
23.9814
 11
276.981
 21
24.47
  0
LINE
  8
0
 10
276.981
 20
24.47
 11
276.524
 21
24.9883
  0
LINE
  8
0
 10
276.524
 20
24.9883
 11
276.101
 21
25.5344
  0
LINE
  8
0
 10
276.101
 20
25.5344
 11
275.712
 21
26.1059
  0
LINE
  8
0
 10
275.712
 20
26.1059
 11
275.361
 21
26.7007
  0
LINE
  8
0
 10
275.361
 20
26.7007
 11
275.047
 21
27.3164
  0
LINE
  8
0
 10
275.047
 20
27.3164
 11
274.772
 21
27.9506
  0
LINE
  8
0
 10
274.772
 20
27.9506
 11
274.538
 21
28.6008
  0
LINE
  8
0
 10
274.538
 20
28.6008
 11
274.346
 21
29.2644
  0
LINE
  8
0
 10
274.346
 20
29.2644
 11
274.195
 21
29.9388
  0
LINE
  8
0
 10
274.195
 20
29.9388
 11
274.087
 21
30.6213
  0
LINE
  8
0
 10
274.087
 20
30.6213
 11
274.022
 21
31.3093
  0
LINE
  8
0
 10
274.022
 20
31.3093
 11
274
 21
32
  0
LINE
  8
0
 10
274
 20
32
 11
274.022
 21
32.6907
  0
LINE
  8
0
 10
274.022
 20
32.6907
 11
274.087
 21
33.3787
  0
LINE
  8
0
 10
274.087
 20
33.3787
 11
274.195
 21
34.0612
  0
LINE
  8
0
 10
274.195
 20
34.0612
 11
274.346
 21
34.7356
  0
LINE
  8
0
 10
274.346
 20
34.7356
 11
274.538
 21
35.3992
  0
LINE
  8
0
 10
274.538
 20
35.3992
 11
274.772
 21
36.0494
  0
LINE
  8
0
 10
274.772
 20
36.0494
 11
275.047
 21
36.6836
  0
LINE
  8
0
 10
275.047
 20
36.6836
 11
275.361
 21
37.2993
  0
LINE
  8
0
 10
275.361
 20
37.2993
 11
275.712
 21
37.8941
  0
LINE
  8
0
 10
275.712
 20
37.8941
 11
276.101
 21
38.4656
  0
LINE
  8
0
 10
276.101
 20
38.4656
 11
276.524
 21
39.0117
  0
LINE
  8
0
 10
276.524
 20
39.0117
 11
276.981
 21
39.53
  0
LINE
  8
0
 10
276.981
 20
39.53
 11
277.47
 21
40.0186
  0
LINE
  8
0
 10
277.47
 20
40.0186
 11
277.988
 21
40.4756
  0
LINE
  8
0
 10
277.988
 20
40.4756
 11
278.534
 21
40.8992
  0
LINE
  8
0
 10
278.534
 20
40.8992
 11
279.106
 21
41.2876
  0
LINE
  8
0
 10
279.106
 20
41.2876
 11
279.701
 21
41.6394
  0
LINE
  8
0
 10
279.701
 20
41.6394
 11
280.316
 21
41.9531
  0
LINE
  8
0
 10
280.316
 20
41.9531
 11
280.951
 21
42.2275
  0
LINE
  8
0
 10
280.951
 20
42.2275
 11
281.601
 21
42.4616
  0
LINE
  8
0
 10
281.601
 20
42.4616
 11
282.264
 21
42.6544
  0
LINE
  8
0
 10
282.264
 20
42.6544
 11
282.939
 21
42.8051
  0
LINE
  8
0
 10
282.939
 20
42.8051
 11
283.621
 21
42.9133
  0
LINE
  8
0
 10
283.621
 20
42.9133
 11
284.309
 21
42.9783
  0
LINE
  8
0
 10
284.309
 20
42.9783
 11
285
 21
43
  0
LINE
  8
0
 10
285
 20
43
 11
290
 21
43
  0
LINE
  8
0
 10
290
 20
43
 11
290.691
 21
42.9783
  0
LINE
  8
0
 10
290.691
 20
42.9783
 11
291.379
 21
42.9133
  0
LINE
  8
0
 10
291.379
 20
42.9133
 11
292.061
 21
42.8051
  0
LINE
  8
0
 10
292.061
 20
42.8051
 11
292.736
 21
42.6544
  0
LINE
  8
0
 10
292.736
 20
42.6544
 11
293.399
 21
42.4616
  0
LINE
  8
0
 10
293.399
 20
42.4616
 11
294.049
 21
42.2275
  0
LINE
  8
0
 10
294.049
 20
42.2275
 11
294.684
 21
41.9531
  0
LINE
  8
0
 10
294.684
 20
41.9531
 11
295.299
 21
41.6394
  0
LINE
  8
0
 10
295.299
 20
41.6394
 11
295.894
 21
41.2876
  0
LINE
  8
0
 10
295.894
 20
41.2876
 11
296.466
 21
40.8992
  0
LINE
  8
0
 10
296.466
 20
40.8992
 11
297.012
 21
40.4756
  0
LINE
  8
0
 10
297.012
 20
40.4756
 11
297.53
 21
40.0186
  0
LINE
  8
0
 10
297.53
 20
40.0186
 11
298.019
 21
39.53
  0
LINE
  8
0
 10
298.019
 20
39.53
 11
298.476
 21
39.0117
  0
LINE
  8
0
 10
298.476
 20
39.0117
 11
298.899
 21
38.4656
  0
LINE
  8
0
 10
298.899
 20
38.4656
 11
299.288
 21
37.8941
  0
LINE
  8
0
 10
299.288
 20
37.8941
 11
299.639
 21
37.2993
  0
LINE
  8
0
 10
299.639
 20
37.2993
 11
299.953
 21
36.6836
  0
LINE
  8
0
 10
299.953
 20
36.6836
 11
300.228
 21
36.0494
  0
LINE
  8
0
 10
300.228
 20
36.0494
 11
300.462
 21
35.3992
  0
LINE
  8
0
 10
300.462
 20
35.3992
 11
300.654
 21
34.7356
  0
LINE
  8
0
 10
300.654
 20
34.7356
 11
300.805
 21
34.0612
  0
LINE
  8
0
 10
300.805
 20
34.0612
 11
300.913
 21
33.3787
  0
LINE
  8
0
 10
300.913
 20
33.3787
 11
300.978
 21
32.6907
  0
LINE
  8
0
 10
300.978
 20
32.6907
 11
301
 21
32
  0
LINE
  8
0
 10
301
 20
32
 11
300.978
 21
31.3093
  0
LINE
  8
0
 10
300.978
 20
31.3093
 11
300.913
 21
30.6213
  0
LINE
  8
0
 10
300.913
 20
30.6213
 11
300.805
 21
29.9388
  0
LINE
  8
0
 10
300.805
 20
29.9388
 11
300.654
 21
29.2644
  0
LINE
  8
0
 10
300.654
 20
29.2644
 11
300.462
 21
28.6008
  0
LINE
  8
0
 10
300.462
 20
28.6008
 11
300.228
 21
27.9506
  0
LINE
  8
0
 10
300.228
 20
27.9506
 11
299.953
 21
27.3164
  0
LINE
  8
0
 10
299.953
 20
27.3164
 11
299.639
 21
26.7007
  0
LINE
  8
0
 10
299.639
 20
26.7007
 11
299.288
 21
26.1059
  0
LINE
  8
0
 10
299.288
 20
26.1059
 11
298.899
 21
25.5344
  0
LINE
  8
0
 10
298.899
 20
25.5344
 11
298.476
 21
24.9883
  0
LINE
  8
0
 10
298.476
 20
24.9883
 11
298.019
 21
24.47
  0
LINE
  8
0
 10
298.019
 20
24.47
 11
297.53
 21
23.9814
  0
LINE
  8
0
 10
297.53
 20
23.9814
 11
297.012
 21
23.5244
  0
LINE
  8
0
 10
297.012
 20
23.5244
 11
296.466
 21
23.1008
  0
LINE
  8
0
 10
296.466
 20
23.1008
 11
295.894
 21
22.7124
  0
LINE
  8
0
 10
295.894
 20
22.7124
 11
295.299
 21
22.3606
  0
LINE
  8
0
 10
295.299
 20
22.3606
 11
294.684
 21
22.0469
  0
LINE
  8
0
 10
294.684
 20
22.0469
 11
294.049
 21
21.7725
  0
LINE
  8
0
 10
294.049
 20
21.7725
 11
293.399
 21
21.5384
  0
LINE
  8
0
 10
293.399
 20
21.5384
 11
292.736
 21
21.3456
  0
LINE
  8
0
 10
292.736
 20
21.3456
 11
292.061
 21
21.1949
  0
LINE
  8
0
 10
292.061
 20
21.1949
 11
291.379
 21
21.0867
  0
LINE
  8
0
 10
291.379
 20
21.0867
 11
290.691
 21
21.0217
  0
LINE
  8
0
 10
290.691
 20
21.0217
 11
290
 21
21
  0
LINE
  8
0
 10
290
 20
21
 11
285
 21
21
  0
LINE
  8
0
 10
296.5
 20
19.3
 11
296.425
 21
19.3024
  0
LINE
  8
0
 10
296.425
 20
19.3024
 11
296.35
 21
19.3095
  0
LINE
  8
0
 10
296.35
 20
19.3095
 11
296.275
 21
19.3213
  0
LINE
  8
0
 10
296.275
 20
19.3213
 11
296.202
 21
19.3377
  0
LINE
  8
0
 10
296.202
 20
19.3377
 11
296.129
 21
19.3587
  0
LINE
  8
0
 10
296.129
 20
19.3587
 11
296.058
 21
19.3843
  0
LINE
  8
0
 10
296.058
 20
19.3843
 11
295.989
 21
19.4142
  0
LINE
  8
0
 10
295.989
 20
19.4142
 11
295.922
 21
19.4484
  0
LINE
  8
0
 10
295.922
 20
19.4484
 11
295.857
 21
19.4868
  0
LINE
  8
0
 10
295.857
 20
19.4868
 11
295.795
 21
19.5292
  0
LINE
  8
0
 10
295.795
 20
19.5292
 11
295.735
 21
19.5754
  0
LINE
  8
0
 10
295.735
 20
19.5754
 11
295.679
 21
19.6252
  0
LINE
  8
0
 10
295.679
 20
19.6252
 11
295.625
 21
19.6786
  0
LINE
  8
0
 10
295.625
 20
19.6786
 11
295.575
 21
19.7351
  0
LINE
  8
0
 10
295.575
 20
19.7351
 11
295.529
 21
19.7947
  0
LINE
  8
0
 10
295.529
 20
19.7947
 11
295.487
 21
19.857
  0
LINE
  8
0
 10
295.487
 20
19.857
 11
295.448
 21
19.9219
  0
LINE
  8
0
 10
295.448
 20
19.9219
 11
295.414
 21
19.9891
  0
LINE
  8
0
 10
295.414
 20
19.9891
 11
295.384
 21
20.0583
  0
LINE
  8
0
 10
295.384
 20
20.0583
 11
295.359
 21
20.1292
  0
LINE
  8
0
 10
295.359
 20
20.1292
 11
295.338
 21
20.2016
  0
LINE
  8
0
 10
295.338
 20
20.2016
 11
295.321
 21
20.2751
  0
LINE
  8
0
 10
295.321
 20
20.2751
 11
295.309
 21
20.3496
  0
LINE
  8
0
 10
295.309
 20
20.3496
 11
295.302
 21
20.4247
  0
LINE
  8
0
 10
295.302
 20
20.4247
 11
295.3
 21
20.5
  0
LINE
  8
0
 10
295.3
 20
20.5
 11
295.302
 21
20.5754
  0
LINE
  8
0
 10
295.302
 20
20.5754
 11
295.309
 21
20.6504
  0
LINE
  8
0
 10
295.309
 20
20.6504
 11
295.321
 21
20.7249
  0
LINE
  8
0
 10
295.321
 20
20.7249
 11
295.338
 21
20.7984
  0
LINE
  8
0
 10
295.338
 20
20.7984
 11
295.359
 21
20.8708
  0
LINE
  8
0
 10
295.359
 20
20.8708
 11
295.384
 21
20.9418
  0
LINE
  8
0
 10
295.384
 20
20.9418
 11
295.414
 21
21.0109
  0
LINE
  8
0
 10
295.414
 20
21.0109
 11
295.448
 21
21.0781
  0
LINE
  8
0
 10
295.448
 20
21.0781
 11
295.487
 21
21.143
  0
LINE
  8
0
 10
295.487
 20
21.143
 11
295.529
 21
21.2054
  0
LINE
  8
0
 10
295.529
 20
21.2054
 11
295.575
 21
21.2649
  0
LINE
  8
0
 10
295.575
 20
21.2649
 11
295.625
 21
21.3215
  0
LINE
  8
0
 10
295.625
 20
21.3215
 11
295.679
 21
21.3748
  0
LINE
  8
0
 10
295.679
 20
21.3748
 11
295.735
 21
21.4246
  0
LINE
  8
0
 10
295.735
 20
21.4246
 11
295.795
 21
21.4708
  0
LINE
  8
0
 10
295.795
 20
21.4708
 11
295.857
 21
21.5132
  0
LINE
  8
0
 10
295.857
 20
21.5132
 11
295.922
 21
21.5516
  0
LINE
  8
0
 10
295.922
 20
21.5516
 11
295.989
 21
21.5858
  0
LINE
  8
0
 10
295.989
 20
21.5858
 11
296.058
 21
21.6157
  0
LINE
  8
0
 10
296.058
 20
21.6157
 11
296.129
 21
21.6413
  0
LINE
  8
0
 10
296.129
 20
21.6413
 11
296.202
 21
21.6623
  0
LINE
  8
0
 10
296.202
 20
21.6623
 11
296.275
 21
21.6788
  0
LINE
  8
0
 10
296.275
 20
21.6788
 11
296.35
 21
21.6906
  0
LINE
  8
0
 10
296.35
 20
21.6906
 11
296.425
 21
21.6976
  0
LINE
  8
0
 10
296.425
 20
21.6976
 11
296.5
 21
21.7
  0
LINE
  8
0
 10
296.5
 20
21.7
 11
305.5
 21
21.7
  0
LINE
  8
0
 10
305.5
 20
21.7
 11
305.575
 21
21.6976
  0
LINE
  8
0
 10
305.575
 20
21.6976
 11
305.65
 21
21.6906
  0
LINE
  8
0
 10
305.65
 20
21.6906
 11
305.725
 21
21.6788
  0
LINE
  8
0
 10
305.725
 20
21.6788
 11
305.798
 21
21.6623
  0
LINE
  8
0
 10
305.798
 20
21.6623
 11
305.871
 21
21.6413
  0
LINE
  8
0
 10
305.871
 20
21.6413
 11
305.942
 21
21.6157
  0
LINE
  8
0
 10
305.942
 20
21.6157
 11
306.011
 21
21.5858
  0
LINE
  8
0
 10
306.011
 20
21.5858
 11
306.078
 21
21.5516
  0
LINE
  8
0
 10
306.078
 20
21.5516
 11
306.143
 21
21.5132
  0
LINE
  8
0
 10
306.143
 20
21.5132
 11
306.205
 21
21.4708
  0
LINE
  8
0
 10
306.205
 20
21.4708
 11
306.265
 21
21.4246
  0
LINE
  8
0
 10
306.265
 20
21.4246
 11
306.321
 21
21.3748
  0
LINE
  8
0
 10
306.321
 20
21.3748
 11
306.375
 21
21.3215
  0
LINE
  8
0
 10
306.375
 20
21.3215
 11
306.425
 21
21.2649
  0
LINE
  8
0
 10
306.425
 20
21.2649
 11
306.471
 21
21.2054
  0
LINE
  8
0
 10
306.471
 20
21.2054
 11
306.513
 21
21.143
  0
LINE
  8
0
 10
306.513
 20
21.143
 11
306.552
 21
21.0781
  0
LINE
  8
0
 10
306.552
 20
21.0781
 11
306.586
 21
21.0109
  0
LINE
  8
0
 10
306.586
 20
21.0109
 11
306.616
 21
20.9418
  0
LINE
  8
0
 10
306.616
 20
20.9418
 11
306.641
 21
20.8708
  0
LINE
  8
0
 10
306.641
 20
20.8708
 11
306.662
 21
20.7984
  0
LINE
  8
0
 10
306.662
 20
20.7984
 11
306.679
 21
20.7249
  0
LINE
  8
0
 10
306.679
 20
20.7249
 11
306.691
 21
20.6504
  0
LINE
  8
0
 10
306.691
 20
20.6504
 11
306.698
 21
20.5754
  0
LINE
  8
0
 10
306.698
 20
20.5754
 11
306.7
 21
20.5
  0
LINE
  8
0
 10
306.7
 20
20.5
 11
306.698
 21
20.4247
  0
LINE
  8
0
 10
306.698
 20
20.4247
 11
306.691
 21
20.3496
  0
LINE
  8
0
 10
306.691
 20
20.3496
 11
306.679
 21
20.2751
  0
LINE
  8
0
 10
306.679
 20
20.2751
 11
306.662
 21
20.2016
  0
LINE
  8
0
 10
306.662
 20
20.2016
 11
306.641
 21
20.1292
  0
LINE
  8
0
 10
306.641
 20
20.1292
 11
306.616
 21
20.0583
  0
LINE
  8
0
 10
306.616
 20
20.0583
 11
306.586
 21
19.9891
  0
LINE
  8
0
 10
306.586
 20
19.9891
 11
306.552
 21
19.9219
  0
LINE
  8
0
 10
306.552
 20
19.9219
 11
306.513
 21
19.857
  0
LINE
  8
0
 10
306.513
 20
19.857
 11
306.471
 21
19.7947
  0
LINE
  8
0
 10
306.471
 20
19.7947
 11
306.425
 21
19.7351
  0
LINE
  8
0
 10
306.425
 20
19.7351
 11
306.375
 21
19.6786
  0
LINE
  8
0
 10
306.375
 20
19.6786
 11
306.321
 21
19.6252
  0
LINE
  8
0
 10
306.321
 20
19.6252
 11
306.265
 21
19.5754
  0
LINE
  8
0
 10
306.265
 20
19.5754
 11
306.205
 21
19.5292
  0
LINE
  8
0
 10
306.205
 20
19.5292
 11
306.143
 21
19.4868
  0
LINE
  8
0
 10
306.143
 20
19.4868
 11
306.078
 21
19.4484
  0
LINE
  8
0
 10
306.078
 20
19.4484
 11
306.011
 21
19.4142
  0
LINE
  8
0
 10
306.011
 20
19.4142
 11
305.942
 21
19.3843
  0
LINE
  8
0
 10
305.942
 20
19.3843
 11
305.871
 21
19.3587
  0
LINE
  8
0
 10
305.871
 20
19.3587
 11
305.798
 21
19.3377
  0
LINE
  8
0
 10
305.798
 20
19.3377
 11
305.725
 21
19.3213
  0
LINE
  8
0
 10
305.725
 20
19.3213
 11
305.65
 21
19.3095
  0
LINE
  8
0
 10
305.65
 20
19.3095
 11
305.575
 21
19.3024
  0
LINE
  8
0
 10
305.575
 20
19.3024
 11
305.5
 21
19.3
  0
LINE
  8
0
 10
305.5
 20
19.3
 11
296.5
 21
19.3
  0
LINE
  8
0
 10
269.5
 20
19.3
 11
269.425
 21
19.3024
  0
LINE
  8
0
 10
269.425
 20
19.3024
 11
269.35
 21
19.3095
  0
LINE
  8
0
 10
269.35
 20
19.3095
 11
269.275
 21
19.3213
  0
LINE
  8
0
 10
269.275
 20
19.3213
 11
269.202
 21
19.3377
  0
LINE
  8
0
 10
269.202
 20
19.3377
 11
269.129
 21
19.3587
  0
LINE
  8
0
 10
269.129
 20
19.3587
 11
269.058
 21
19.3843
  0
LINE
  8
0
 10
269.058
 20
19.3843
 11
268.989
 21
19.4142
  0
LINE
  8
0
 10
268.989
 20
19.4142
 11
268.922
 21
19.4484
  0
LINE
  8
0
 10
268.922
 20
19.4484
 11
268.857
 21
19.4868
  0
LINE
  8
0
 10
268.857
 20
19.4868
 11
268.795
 21
19.5292
  0
LINE
  8
0
 10
268.795
 20
19.5292
 11
268.735
 21
19.5754
  0
LINE
  8
0
 10
268.735
 20
19.5754
 11
268.679
 21
19.6252
  0
LINE
  8
0
 10
268.679
 20
19.6252
 11
268.625
 21
19.6786
  0
LINE
  8
0
 10
268.625
 20
19.6786
 11
268.575
 21
19.7351
  0
LINE
  8
0
 10
268.575
 20
19.7351
 11
268.529
 21
19.7947
  0
LINE
  8
0
 10
268.529
 20
19.7947
 11
268.487
 21
19.857
  0
LINE
  8
0
 10
268.487
 20
19.857
 11
268.448
 21
19.9219
  0
LINE
  8
0
 10
268.448
 20
19.9219
 11
268.414
 21
19.9891
  0
LINE
  8
0
 10
268.414
 20
19.9891
 11
268.384
 21
20.0583
  0
LINE
  8
0
 10
268.384
 20
20.0583
 11
268.359
 21
20.1292
  0
LINE
  8
0
 10
268.359
 20
20.1292
 11
268.338
 21
20.2016
  0
LINE
  8
0
 10
268.338
 20
20.2016
 11
268.321
 21
20.2751
  0
LINE
  8
0
 10
268.321
 20
20.2751
 11
268.309
 21
20.3496
  0
LINE
  8
0
 10
268.309
 20
20.3496
 11
268.302
 21
20.4247
  0
LINE
  8
0
 10
268.302
 20
20.4247
 11
268.3
 21
20.5
  0
LINE
  8
0
 10
268.3
 20
20.5
 11
268.302
 21
20.5754
  0
LINE
  8
0
 10
268.302
 20
20.5754
 11
268.309
 21
20.6504
  0
LINE
  8
0
 10
268.309
 20
20.6504
 11
268.321
 21
20.7249
  0
LINE
  8
0
 10
268.321
 20
20.7249
 11
268.338
 21
20.7984
  0
LINE
  8
0
 10
268.338
 20
20.7984
 11
268.359
 21
20.8708
  0
LINE
  8
0
 10
268.359
 20
20.8708
 11
268.384
 21
20.9418
  0
LINE
  8
0
 10
268.384
 20
20.9418
 11
268.414
 21
21.0109
  0
LINE
  8
0
 10
268.414
 20
21.0109
 11
268.448
 21
21.0781
  0
LINE
  8
0
 10
268.448
 20
21.0781
 11
268.487
 21
21.143
  0
LINE
  8
0
 10
268.487
 20
21.143
 11
268.529
 21
21.2054
  0
LINE
  8
0
 10
268.529
 20
21.2054
 11
268.575
 21
21.2649
  0
LINE
  8
0
 10
268.575
 20
21.2649
 11
268.625
 21
21.3215
  0
LINE
  8
0
 10
268.625
 20
21.3215
 11
268.679
 21
21.3748
  0
LINE
  8
0
 10
268.679
 20
21.3748
 11
268.735
 21
21.4246
  0
LINE
  8
0
 10
268.735
 20
21.4246
 11
268.795
 21
21.4708
  0
LINE
  8
0
 10
268.795
 20
21.4708
 11
268.857
 21
21.5132
  0
LINE
  8
0
 10
268.857
 20
21.5132
 11
268.922
 21
21.5516
  0
LINE
  8
0
 10
268.922
 20
21.5516
 11
268.989
 21
21.5858
  0
LINE
  8
0
 10
268.989
 20
21.5858
 11
269.058
 21
21.6157
  0
LINE
  8
0
 10
269.058
 20
21.6157
 11
269.129
 21
21.6413
  0
LINE
  8
0
 10
269.129
 20
21.6413
 11
269.202
 21
21.6623
  0
LINE
  8
0
 10
269.202
 20
21.6623
 11
269.275
 21
21.6788
  0
LINE
  8
0
 10
269.275
 20
21.6788
 11
269.35
 21
21.6906
  0
LINE
  8
0
 10
269.35
 20
21.6906
 11
269.425
 21
21.6976
  0
LINE
  8
0
 10
269.425
 20
21.6976
 11
269.5
 21
21.7
  0
LINE
  8
0
 10
269.5
 20
21.7
 11
278.5
 21
21.7
  0
LINE
  8
0
 10
278.5
 20
21.7
 11
278.575
 21
21.6976
  0
LINE
  8
0
 10
278.575
 20
21.6976
 11
278.65
 21
21.6906
  0
LINE
  8
0
 10
278.65
 20
21.6906
 11
278.725
 21
21.6788
  0
LINE
  8
0
 10
278.725
 20
21.6788
 11
278.798
 21
21.6623
  0
LINE
  8
0
 10
278.798
 20
21.6623
 11
278.871
 21
21.6413
  0
LINE
  8
0
 10
278.871
 20
21.6413
 11
278.942
 21
21.6157
  0
LINE
  8
0
 10
278.942
 20
21.6157
 11
279.011
 21
21.5858
  0
LINE
  8
0
 10
279.011
 20
21.5858
 11
279.078
 21
21.5516
  0
LINE
  8
0
 10
279.078
 20
21.5516
 11
279.143
 21
21.5132
  0
LINE
  8
0
 10
279.143
 20
21.5132
 11
279.205
 21
21.4708
  0
LINE
  8
0
 10
279.205
 20
21.4708
 11
279.265
 21
21.4246
  0
LINE
  8
0
 10
279.265
 20
21.4246
 11
279.321
 21
21.3748
  0
LINE
  8
0
 10
279.321
 20
21.3748
 11
279.375
 21
21.3215
  0
LINE
  8
0
 10
279.375
 20
21.3215
 11
279.425
 21
21.2649
  0
LINE
  8
0
 10
279.425
 20
21.2649
 11
279.471
 21
21.2054
  0
LINE
  8
0
 10
279.471
 20
21.2054
 11
279.513
 21
21.143
  0
LINE
  8
0
 10
279.513
 20
21.143
 11
279.552
 21
21.0781
  0
LINE
  8
0
 10
279.552
 20
21.0781
 11
279.586
 21
21.0109
  0
LINE
  8
0
 10
279.586
 20
21.0109
 11
279.616
 21
20.9418
  0
LINE
  8
0
 10
279.616
 20
20.9418
 11
279.641
 21
20.8708
  0
LINE
  8
0
 10
279.641
 20
20.8708
 11
279.662
 21
20.7984
  0
LINE
  8
0
 10
279.662
 20
20.7984
 11
279.679
 21
20.7249
  0
LINE
  8
0
 10
279.679
 20
20.7249
 11
279.691
 21
20.6504
  0
LINE
  8
0
 10
279.691
 20
20.6504
 11
279.698
 21
20.5754
  0
LINE
  8
0
 10
279.698
 20
20.5754
 11
279.7
 21
20.5
  0
LINE
  8
0
 10
279.7
 20
20.5
 11
279.698
 21
20.4247
  0
LINE
  8
0
 10
279.698
 20
20.4247
 11
279.691
 21
20.3496
  0
LINE
  8
0
 10
279.691
 20
20.3496
 11
279.679
 21
20.2751
  0
LINE
  8
0
 10
279.679
 20
20.2751
 11
279.662
 21
20.2016
  0
LINE
  8
0
 10
279.662
 20
20.2016
 11
279.641
 21
20.1292
  0
LINE
  8
0
 10
279.641
 20
20.1292
 11
279.616
 21
20.0583
  0
LINE
  8
0
 10
279.616
 20
20.0583
 11
279.586
 21
19.9891
  0
LINE
  8
0
 10
279.586
 20
19.9891
 11
279.552
 21
19.9219
  0
LINE
  8
0
 10
279.552
 20
19.9219
 11
279.513
 21
19.857
  0
LINE
  8
0
 10
279.513
 20
19.857
 11
279.471
 21
19.7947
  0
LINE
  8
0
 10
279.471
 20
19.7947
 11
279.425
 21
19.7351
  0
LINE
  8
0
 10
279.425
 20
19.7351
 11
279.375
 21
19.6786
  0
LINE
  8
0
 10
279.375
 20
19.6786
 11
279.321
 21
19.6252
  0
LINE
  8
0
 10
279.321
 20
19.6252
 11
279.265
 21
19.5754
  0
LINE
  8
0
 10
279.265
 20
19.5754
 11
279.205
 21
19.5292
  0
LINE
  8
0
 10
279.205
 20
19.5292
 11
279.143
 21
19.4868
  0
LINE
  8
0
 10
279.143
 20
19.4868
 11
279.078
 21
19.4484
  0
LINE
  8
0
 10
279.078
 20
19.4484
 11
279.011
 21
19.4142
  0
LINE
  8
0
 10
279.011
 20
19.4142
 11
278.942
 21
19.3843
  0
LINE
  8
0
 10
278.942
 20
19.3843
 11
278.871
 21
19.3587
  0
LINE
  8
0
 10
278.871
 20
19.3587
 11
278.798
 21
19.3377
  0
LINE
  8
0
 10
278.798
 20
19.3377
 11
278.725
 21
19.3213
  0
LINE
  8
0
 10
278.725
 20
19.3213
 11
278.65
 21
19.3095
  0
LINE
  8
0
 10
278.65
 20
19.3095
 11
278.575
 21
19.3024
  0
LINE
  8
0
 10
278.575
 20
19.3024
 11
278.5
 21
19.3
  0
LINE
  8
0
 10
278.5
 20
19.3
 11
269.5
 21
19.3
  0
LINE
  8
0
 10
308.926
 20
11.3273
 11
308.853
 21
11.3343
  0
LINE
  8
0
 10
308.853
 20
11.3343
 11
308.78
 21
11.3458
  0
LINE
  8
0
 10
308.78
 20
11.3458
 11
308.708
 21
11.3619
  0
LINE
  8
0
 10
308.708
 20
11.3619
 11
308.637
 21
11.3825
  0
LINE
  8
0
 10
308.637
 20
11.3825
 11
308.567
 21
11.4075
  0
LINE
  8
0
 10
308.567
 20
11.4075
 11
308.5
 21
11.4368
  0
LINE
  8
0
 10
308.5
 20
11.4368
 11
308.434
 21
11.4703
  0
LINE
  8
0
 10
308.434
 20
11.4703
 11
308.37
 21
11.5079
  0
LINE
  8
0
 10
308.37
 20
11.5079
 11
308.309
 21
11.5494
  0
LINE
  8
0
 10
308.309
 20
11.5494
 11
308.251
 21
11.5946
  0
LINE
  8
0
 10
308.251
 20
11.5946
 11
308.196
 21
11.6434
  0
LINE
  8
0
 10
308.196
 20
11.6434
 11
308.143
 21
11.6956
  0
LINE
  8
0
 10
308.143
 20
11.6956
 11
308.095
 21
11.751
  0
LINE
  8
0
 10
308.095
 20
11.751
 11
308.049
 21
11.8093
  0
LINE
  8
0
 10
308.049
 20
11.8093
 11
308.008
 21
11.8704
  0
LINE
  8
0
 10
308.008
 20
11.8704
 11
307.97
 21
11.9339
  0
LINE
  8
0
 10
307.97
 20
11.9339
 11
307.937
 21
11.9997
  0
LINE
  8
0
 10
307.937
 20
11.9997
 11
307.908
 21
12.0674
  0
LINE
  8
0
 10
307.908
 20
12.0674
 11
307.883
 21
12.1369
  0
LINE
  8
0
 10
307.883
 20
12.1369
 11
307.862
 21
12.2078
  0
LINE
  8
0
 10
307.862
 20
12.2078
 11
307.846
 21
12.2798
  0
LINE
  8
0
 10
307.846
 20
12.2798
 11
307.834
 21
12.3527
  0
LINE
  8
0
 10
307.834
 20
12.3527
 11
307.827
 21
12.4262
  0
LINE
  8
0
 10
307.827
 20
12.4262
 11
307.825
 21
12.5
  0
LINE
  8
0
 10
307.825
 20
12.5
 11
307.827
 21
12.5738
  0
LINE
  8
0
 10
307.827
 20
12.5738
 11
307.834
 21
12.6473
  0
LINE
  8
0
 10
307.834
 20
12.6473
 11
307.846
 21
12.7202
  0
LINE
  8
0
 10
307.846
 20
12.7202
 11
307.862
 21
12.7922
  0
LINE
  8
0
 10
307.862
 20
12.7922
 11
307.883
 21
12.8631
  0
LINE
  8
0
 10
307.883
 20
12.8631
 11
307.908
 21
12.9325
  0
LINE
  8
0
 10
307.908
 20
12.9325
 11
307.937
 21
13.0003
  0
LINE
  8
0
 10
307.937
 20
13.0003
 11
307.97
 21
13.0661
  0
LINE
  8
0
 10
307.97
 20
13.0661
 11
308.008
 21
13.1296
  0
LINE
  8
0
 10
308.008
 20
13.1296
 11
308.049
 21
13.1906
  0
LINE
  8
0
 10
308.049
 20
13.1906
 11
308.095
 21
13.249
  0
LINE
  8
0
 10
308.095
 20
13.249
 11
308.143
 21
13.3043
  0
LINE
  8
0
 10
308.143
 20
13.3043
 11
308.196
 21
13.3565
  0
LINE
  8
0
 10
308.196
 20
13.3565
 11
308.251
 21
13.4053
  0
LINE
  8
0
 10
308.251
 20
13.4053
 11
308.309
 21
13.4506
  0
LINE
  8
0
 10
308.309
 20
13.4506
 11
308.37
 21
13.4921
  0
LINE
  8
0
 10
308.37
 20
13.4921
 11
308.434
 21
13.5296
  0
LINE
  8
0
 10
308.434
 20
13.5296
 11
308.5
 21
13.5632
  0
LINE
  8
0
 10
308.5
 20
13.5632
 11
308.567
 21
13.5925
  0
LINE
  8
0
 10
308.567
 20
13.5925
 11
308.637
 21
13.6175
  0
LINE
  8
0
 10
308.637
 20
13.6175
 11
308.708
 21
13.6381
  0
LINE
  8
0
 10
308.708
 20
13.6381
 11
308.78
 21
13.6542
  0
LINE
  8
0
 10
308.78
 20
13.6542
 11
308.853
 21
13.6657
  0
LINE
  8
0
 10
308.853
 20
13.6657
 11
308.926
 21
13.6727
  0
LINE
  8
0
 10
308.926
 20
13.6727
 11
309
 21
13.675
  0
LINE
  8
0
 10
309
 20
13.675
 11
309.074
 21
13.6727
  0
LINE
  8
0
 10
309.074
 20
13.6727
 11
309.147
 21
13.6657
  0
LINE
  8
0
 10
309.147
 20
13.6657
 11
309.22
 21
13.6542
  0
LINE
  8
0
 10
309.22
 20
13.6542
 11
309.292
 21
13.6381
  0
LINE
  8
0
 10
309.292
 20
13.6381
 11
309.363
 21
13.6175
  0
LINE
  8
0
 10
309.363
 20
13.6175
 11
309.433
 21
13.5925
  0
LINE
  8
0
 10
309.433
 20
13.5925
 11
309.5
 21
13.5632
  0
LINE
  8
0
 10
309.5
 20
13.5632
 11
309.566
 21
13.5296
  0
LINE
  8
0
 10
309.566
 20
13.5296
 11
309.63
 21
13.4921
  0
LINE
  8
0
 10
309.63
 20
13.4921
 11
309.691
 21
13.4506
  0
LINE
  8
0
 10
309.691
 20
13.4506
 11
309.749
 21
13.4053
  0
LINE
  8
0
 10
309.749
 20
13.4053
 11
309.804
 21
13.3565
  0
LINE
  8
0
 10
309.804
 20
13.3565
 11
309.857
 21
13.3043
  0
LINE
  8
0
 10
309.857
 20
13.3043
 11
309.905
 21
13.249
  0
LINE
  8
0
 10
309.905
 20
13.249
 11
309.951
 21
13.1906
  0
LINE
  8
0
 10
309.951
 20
13.1906
 11
309.992
 21
13.1296
  0
LINE
  8
0
 10
309.992
 20
13.1296
 11
310.03
 21
13.0661
  0
LINE
  8
0
 10
310.03
 20
13.0661
 11
310.063
 21
13.0003
  0
LINE
  8
0
 10
310.063
 20
13.0003
 11
310.092
 21
12.9325
  0
LINE
  8
0
 10
310.092
 20
12.9325
 11
310.117
 21
12.8631
  0
LINE
  8
0
 10
310.117
 20
12.8631
 11
310.138
 21
12.7922
  0
LINE
  8
0
 10
310.138
 20
12.7922
 11
310.154
 21
12.7202
  0
LINE
  8
0
 10
310.154
 20
12.7202
 11
310.166
 21
12.6473
  0
LINE
  8
0
 10
310.166
 20
12.6473
 11
310.173
 21
12.5738
  0
LINE
  8
0
 10
310.173
 20
12.5738
 11
310.175
 21
12.5
  0
LINE
  8
0
 10
310.175
 20
12.5
 11
310.173
 21
12.4262
  0
LINE
  8
0
 10
310.173
 20
12.4262
 11
310.166
 21
12.3527
  0
LINE
  8
0
 10
310.166
 20
12.3527
 11
310.154
 21
12.2798
  0
LINE
  8
0
 10
310.154
 20
12.2798
 11
310.138
 21
12.2078
  0
LINE
  8
0
 10
310.138
 20
12.2078
 11
310.117
 21
12.1369
  0
LINE
  8
0
 10
310.117
 20
12.1369
 11
310.092
 21
12.0674
  0
LINE
  8
0
 10
310.092
 20
12.0674
 11
310.063
 21
11.9997
  0
LINE
  8
0
 10
310.063
 20
11.9997
 11
310.03
 21
11.9339
  0
LINE
  8
0
 10
310.03
 20
11.9339
 11
309.992
 21
11.8704
  0
LINE
  8
0
 10
309.992
 20
11.8704
 11
309.951
 21
11.8093
  0
LINE
  8
0
 10
309.951
 20
11.8093
 11
309.905
 21
11.751
  0
LINE
  8
0
 10
309.905
 20
11.751
 11
309.857
 21
11.6956
  0
LINE
  8
0
 10
309.857
 20
11.6956
 11
309.804
 21
11.6434
  0
LINE
  8
0
 10
309.804
 20
11.6434
 11
309.749
 21
11.5946
  0
LINE
  8
0
 10
309.749
 20
11.5946
 11
309.691
 21
11.5494
  0
LINE
  8
0
 10
309.691
 20
11.5494
 11
309.63
 21
11.5079
  0
LINE
  8
0
 10
309.63
 20
11.5079
 11
309.566
 21
11.4703
  0
LINE
  8
0
 10
309.566
 20
11.4703
 11
309.5
 21
11.4368
  0
LINE
  8
0
 10
309.5
 20
11.4368
 11
309.433
 21
11.4075
  0
LINE
  8
0
 10
309.433
 20
11.4075
 11
309.363
 21
11.3825
  0
LINE
  8
0
 10
309.363
 20
11.3825
 11
309.292
 21
11.3619
  0
LINE
  8
0
 10
309.292
 20
11.3619
 11
309.22
 21
11.3458
  0
LINE
  8
0
 10
309.22
 20
11.3458
 11
309.147
 21
11.3343
  0
LINE
  8
0
 10
309.147
 20
11.3343
 11
309.074
 21
11.3273
  0
LINE
  8
0
 10
309.074
 20
11.3273
 11
309
 21
11.325
  0
LINE
  8
0
 10
309
 20
11.325
 11
308.926
 21
11.3273
  0
LINE
  8
0
 10
8.92621
 20
11.3273
 11
8.85272
 21
11.3343
  0
LINE
  8
0
 10
8.85272
 20
11.3343
 11
8.77982
 21
11.3458
  0
LINE
  8
0
 10
8.77982
 20
11.3458
 11
8.70778
 21
11.3619
  0
LINE
  8
0
 10
8.70778
 20
11.3619
 11
8.6369
 21
11.3825
  0
LINE
  8
0
 10
8.6369
 20
11.3825
 11
8.56744
 21
11.4075
  0
LINE
  8
0
 10
8.56744
 20
11.4075
 11
8.49969
 21
11.4368
  0
LINE
  8
0
 10
8.49969
 20
11.4368
 11
8.43393
 21
11.4703
  0
LINE
  8
0
 10
8.43393
 20
11.4703
 11
8.37039
 21
11.5079
  0
LINE
  8
0
 10
8.37039
 20
11.5079
 11
8.30934
 21
11.5494
  0
LINE
  8
0
 10
8.30934
 20
11.5494
 11
8.25102
 21
11.5946
  0
LINE
  8
0
 10
8.25102
 20
11.5946
 11
8.19565
 21
11.6434
  0
LINE
  8
0
 10
8.19565
 20
11.6434
 11
8.14345
 21
11.6956
  0
LINE
  8
0
 10
8.14345
 20
11.6956
 11
8.09464
 21
11.751
  0
LINE
  8
0
 10
8.09464
 20
11.751
 11
8.04939
 21
11.8093
  0
LINE
  8
0
 10
8.04939
 20
11.8093
 11
8.0079
 21
11.8704
  0
LINE
  8
0
 10
8.0079
 20
11.8704
 11
7.97034
 21
11.9339
  0
LINE
  8
0
 10
7.97034
 20
11.9339
 11
7.93681
 21
11.9997
  0
LINE
  8
0
 10
7.93681
 20
11.9997
 11
7.9075
 21
12.0674
  0
LINE
  8
0
 10
7.9075
 20
12.0674
 11
7.88251
 21
12.1369
  0
LINE
  8
0
 10
7.88251
 20
12.1369
 11
7.86191
 21
12.2078
  0
LINE
  8
0
 10
7.86191
 20
12.2078
 11
7.84581
 21
12.2798
  0
LINE
  8
0
 10
7.84581
 20
12.2798
 11
7.83426
 21
12.3527
  0
LINE
  8
0
 10
7.83426
 20
12.3527
 11
7.82732
 21
12.4262
  0
LINE
  8
0
 10
7.82732
 20
12.4262
 11
7.825
 21
12.5
  0
LINE
  8
0
 10
7.825
 20
12.5
 11
7.82732
 21
12.5738
  0
LINE
  8
0
 10
7.82732
 20
12.5738
 11
7.83426
 21
12.6473
  0
LINE
  8
0
 10
7.83426
 20
12.6473
 11
7.84581
 21
12.7202
  0
LINE
  8
0
 10
7.84581
 20
12.7202
 11
7.86191
 21
12.7922
  0
LINE
  8
0
 10
7.86191
 20
12.7922
 11
7.88251
 21
12.8631
  0
LINE
  8
0
 10
7.88251
 20
12.8631
 11
7.9075
 21
12.9325
  0
LINE
  8
0
 10
7.9075
 20
12.9325
 11
7.93681
 21
13.0003
  0
LINE
  8
0
 10
7.93681
 20
13.0003
 11
7.97034
 21
13.0661
  0
LINE
  8
0
 10
7.97034
 20
13.0661
 11
8.0079
 21
13.1296
  0
LINE
  8
0
 10
8.0079
 20
13.1296
 11
8.04939
 21
13.1906
  0
LINE
  8
0
 10
8.04939
 20
13.1906
 11
8.09464
 21
13.249
  0
LINE
  8
0
 10
8.09464
 20
13.249
 11
8.14345
 21
13.3043
  0
LINE
  8
0
 10
8.14345
 20
13.3043
 11
8.19565
 21
13.3565
  0
LINE
  8
0
 10
8.19565
 20
13.3565
 11
8.25102
 21
13.4053
  0
LINE
  8
0
 10
8.25102
 20
13.4053
 11
8.30934
 21
13.4506
  0
LINE
  8
0
 10
8.30934
 20
13.4506
 11
8.37039
 21
13.4921
  0
LINE
  8
0
 10
8.37039
 20
13.4921
 11
8.43393
 21
13.5296
  0
LINE
  8
0
 10
8.43393
 20
13.5296
 11
8.49969
 21
13.5632
  0
LINE
  8
0
 10
8.49969
 20
13.5632
 11
8.56744
 21
13.5925
  0
LINE
  8
0
 10
8.56744
 20
13.5925
 11
8.6369
 21
13.6175
  0
LINE
  8
0
 10
8.6369
 20
13.6175
 11
8.70778
 21
13.6381
  0
LINE
  8
0
 10
8.70778
 20
13.6381
 11
8.77982
 21
13.6542
  0
LINE
  8
0
 10
8.77982
 20
13.6542
 11
8.85272
 21
13.6657
  0
LINE
  8
0
 10
8.85272
 20
13.6657
 11
8.92621
 21
13.6727
  0
LINE
  8
0
 10
8.92621
 20
13.6727
 11
9
 21
13.675
  0
LINE
  8
0
 10
9
 20
13.675
 11
9.07378
 21
13.6727
  0
LINE
  8
0
 10
9.07378
 20
13.6727
 11
9.14726
 21
13.6657
  0
LINE
  8
0
 10
9.14726
 20
13.6657
 11
9.22017
 21
13.6542
  0
LINE
  8
0
 10
9.22017
 20
13.6542
 11
9.29221
 21
13.6381
  0
LINE
  8
0
 10
9.29221
 20
13.6381
 11
9.36308
 21
13.6175
  0
LINE
  8
0
 10
9.36308
 20
13.6175
 11
9.43254
 21
13.5925
  0
LINE
  8
0
 10
9.43254
 20
13.5925
 11
9.50029
 21
13.5632
  0
LINE
  8
0
 10
9.50029
 20
13.5632
 11
9.56606
 21
13.5296
  0
LINE
  8
0
 10
9.56606
 20
13.5296
 11
9.62959
 21
13.4921
  0
LINE
  8
0
 10
9.62959
 20
13.4921
 11
9.69064
 21
13.4506
  0
LINE
  8
0
 10
9.69064
 20
13.4506
 11
9.74896
 21
13.4053
  0
LINE
  8
0
 10
9.74896
 20
13.4053
 11
9.80434
 21
13.3565
  0
LINE
  8
0
 10
9.80434
 20
13.3565
 11
9.85654
 21
13.3043
  0
LINE
  8
0
 10
9.85654
 20
13.3043
 11
9.90535
 21
13.249
  0
LINE
  8
0
 10
9.90535
 20
13.249
 11
9.95059
 21
13.1906
  0
LINE
  8
0
 10
9.95059
 20
13.1906
 11
9.99208
 21
13.1296
  0
LINE
  8
0
 10
9.99208
 20
13.1296
 11
10.0296
 21
13.0661
  0
LINE
  8
0
 10
10.0296
 20
13.0661
 11
10.0632
 21
13.0003
  0
LINE
  8
0
 10
10.0632
 20
13.0003
 11
10.0925
 21
12.9325
  0
LINE
  8
0
 10
10.0925
 20
12.9325
 11
10.1175
 21
12.8631
  0
LINE
  8
0
 10
10.1175
 20
12.8631
 11
10.1381
 21
12.7922
  0
LINE
  8
0
 10
10.1381
 20
12.7922
 11
10.1542
 21
12.7202
  0
LINE
  8
0
 10
10.1542
 20
12.7202
 11
10.1657
 21
12.6473
  0
LINE
  8
0
 10
10.1657
 20
12.6473
 11
10.1727
 21
12.5738
  0
LINE
  8
0
 10
10.1727
 20
12.5738
 11
10.175
 21
12.5
  0
LINE
  8
0
 10
10.175
 20
12.5
 11
10.1727
 21
12.4262
  0
LINE
  8
0
 10
10.1727
 20
12.4262
 11
10.1657
 21
12.3527
  0
LINE
  8
0
 10
10.1657
 20
12.3527
 11
10.1542
 21
12.2798
  0
LINE
  8
0
 10
10.1542
 20
12.2798
 11
10.1381
 21
12.2078
  0
LINE
  8
0
 10
10.1381
 20
12.2078
 11
10.1175
 21
12.1369
  0
LINE
  8
0
 10
10.1175
 20
12.1369
 11
10.0925
 21
12.0674
  0
LINE
  8
0
 10
10.0925
 20
12.0674
 11
10.0632
 21
11.9997
  0
LINE
  8
0
 10
10.0632
 20
11.9997
 11
10.0296
 21
11.9339
  0
LINE
  8
0
 10
10.0296
 20
11.9339
 11
9.99208
 21
11.8704
  0
LINE
  8
0
 10
9.99208
 20
11.8704
 11
9.95059
 21
11.8093
  0
LINE
  8
0
 10
9.95059
 20
11.8093
 11
9.90535
 21
11.751
  0
LINE
  8
0
 10
9.90535
 20
11.751
 11
9.85654
 21
11.6956
  0
LINE
  8
0
 10
9.85654
 20
11.6956
 11
9.80434
 21
11.6434
  0
LINE
  8
0
 10
9.80434
 20
11.6434
 11
9.74896
 21
11.5946
  0
LINE
  8
0
 10
9.74896
 20
11.5946
 11
9.69064
 21
11.5494
  0
LINE
  8
0
 10
9.69064
 20
11.5494
 11
9.62959
 21
11.5079
  0
LINE
  8
0
 10
9.62959
 20
11.5079
 11
9.56606
 21
11.4703
  0
LINE
  8
0
 10
9.56606
 20
11.4703
 11
9.50029
 21
11.4368
  0
LINE
  8
0
 10
9.50029
 20
11.4368
 11
9.43254
 21
11.4075
  0
LINE
  8
0
 10
9.43254
 20
11.4075
 11
9.36308
 21
11.3825
  0
LINE
  8
0
 10
9.36308
 20
11.3825
 11
9.29221
 21
11.3619
  0
LINE
  8
0
 10
9.29221
 20
11.3619
 11
9.22017
 21
11.3458
  0
LINE
  8
0
 10
9.22017
 20
11.3458
 11
9.14726
 21
11.3343
  0
LINE
  8
0
 10
9.14726
 20
11.3343
 11
9.07378
 21
11.3273
  0
LINE
  8
0
 10
9.07378
 20
11.3273
 11
9
 21
11.325
  0
LINE
  8
0
 10
9
 20
11.325
 11
8.92621
 21
11.3273
  0
LINE
  8
0
 10
8.8022
 20
4.3562
 11
8.60519
 21
4.37483
  0
LINE
  8
0
 10
8.60519
 20
4.37483
 11
8.40974
 21
4.40579
  0
LINE
  8
0
 10
8.40974
 20
4.40579
 11
8.21661
 21
4.44896
  0
LINE
  8
0
 10
8.21661
 20
4.44896
 11
8.0266
 21
4.50417
  0
LINE
  8
0
 10
8.0266
 20
4.50417
 11
7.84039
 21
4.5712
  0
LINE
  8
0
 10
7.84039
 20
4.5712
 11
7.65878
 21
4.64978
  0
LINE
  8
0
 10
7.65878
 20
4.64978
 11
7.48247
 21
4.73962
  0
LINE
  8
0
 10
7.48247
 20
4.73962
 11
7.31213
 21
4.84036
  0
LINE
  8
0
 10
7.31213
 20
4.84036
 11
7.14847
 21
4.95158
  0
LINE
  8
0
 10
7.14847
 20
4.95158
 11
6.99211
 21
5.07288
  0
LINE
  8
0
 10
6.99211
 20
5.07288
 11
6.84367
 21
5.20374
  0
LINE
  8
0
 10
6.84367
 20
5.20374
 11
6.70374
 21
5.34367
  0
LINE
  8
0
 10
6.70374
 20
5.34367
 11
6.57288
 21
5.49211
  0
LINE
  8
0
 10
6.57288
 20
5.49211
 11
6.45158
 21
5.64847
  0
LINE
  8
0
 10
6.45158
 20
5.64847
 11
6.34036
 21
5.81213
  0
LINE
  8
0
 10
6.34036
 20
5.81213
 11
6.23962
 21
5.98247
  0
LINE
  8
0
 10
6.23962
 20
5.98247
 11
6.14978
 21
6.15878
  0
LINE
  8
0
 10
6.14978
 20
6.15878
 11
6.0712
 21
6.34039
  0
LINE
  8
0
 10
6.0712
 20
6.34039
 11
6.00417
 21
6.5266
  0
LINE
  8
0
 10
6.00417
 20
6.5266
 11
5.94896
 21
6.71661
  0
LINE
  8
0
 10
5.94896
 20
6.71661
 11
5.90579
 21
6.90974
  0
LINE
  8
0
 10
5.90579
 20
6.90974
 11
5.87483
 21
7.10519
  0
LINE
  8
0
 10
5.87483
 20
7.10519
 11
5.8562
 21
7.3022
  0
LINE
  8
0
 10
5.8562
 20
7.3022
 11
5.84999
 21
7.5
  0
LINE
  8
0
 10
5.84999
 20
7.5
 11
5.8562
 21
7.69778
  0
LINE
  8
0
 10
5.8562
 20
7.69778
 11
5.87483
 21
7.89479
  0
LINE
  8
0
 10
5.87483
 20
7.89479
 11
5.90579
 21
8.09024
  0
LINE
  8
0
 10
5.90579
 20
8.09024
 11
5.94896
 21
8.28337
  0
LINE
  8
0
 10
5.94896
 20
8.28337
 11
6.00417
 21
8.47339
  0
LINE
  8
0
 10
6.00417
 20
8.47339
 11
6.0712
 21
8.65959
  0
LINE
  8
0
 10
6.0712
 20
8.65959
 11
6.14978
 21
8.8412
  0
LINE
  8
0
 10
6.14978
 20
8.8412
 11
6.23962
 21
9.01752
  0
LINE
  8
0
 10
6.23962
 20
9.01752
 11
6.34036
 21
9.18785
  0
LINE
  8
0
 10
6.34036
 20
9.18785
 11
6.45158
 21
9.35152
  0
LINE
  8
0
 10
6.45158
 20
9.35152
 11
6.57288
 21
9.50787
  0
LINE
  8
0
 10
6.57288
 20
9.50787
 11
6.70374
 21
9.65631
  0
LINE
  8
0
 10
6.70374
 20
9.65631
 11
6.84367
 21
9.79625
  0
LINE
  8
0
 10
6.84367
 20
9.79625
 11
6.99211
 21
9.92711
  0
LINE
  8
0
 10
6.99211
 20
9.92711
 11
7.14847
 21
10.0484
  0
LINE
  8
0
 10
7.14847
 20
10.0484
 11
7.31213
 21
10.1596
  0
LINE
  8
0
 10
7.31213
 20
10.1596
 11
7.48247
 21
10.2604
  0
LINE
  8
0
 10
7.48247
 20
10.2604
 11
7.65878
 21
10.3502
  0
LINE
  8
0
 10
7.65878
 20
10.3502
 11
7.84039
 21
10.4288
  0
LINE
  8
0
 10
7.84039
 20
10.4288
 11
8.0266
 21
10.4958
  0
LINE
  8
0
 10
8.0266
 20
10.4958
 11
8.21661
 21
10.551
  0
LINE
  8
0
 10
8.21661
 20
10.551
 11
8.40974
 21
10.5942
  0
LINE
  8
0
 10
8.40974
 20
10.5942
 11
8.60519
 21
10.6252
  0
LINE
  8
0
 10
8.60519
 20
10.6252
 11
8.8022
 21
10.6438
  0
LINE
  8
0
 10
8.8022
 20
10.6438
 11
9
 21
10.65
  0
LINE
  8
0
 10
9
 20
10.65
 11
9.19778
 21
10.6438
  0
LINE
  8
0
 10
9.19778
 20
10.6438
 11
9.39479
 21
10.6252
  0
LINE
  8
0
 10
9.39479
 20
10.6252
 11
9.59024
 21
10.5942
  0
LINE
  8
0
 10
9.59024
 20
10.5942
 11
9.78337
 21
10.551
  0
LINE
  8
0
 10
9.78337
 20
10.551
 11
9.97339
 21
10.4958
  0
LINE
  8
0
 10
9.97339
 20
10.4958
 11
10.1596
 21
10.4288
  0
LINE
  8
0
 10
10.1596
 20
10.4288
 11
10.3412
 21
10.3502
  0
LINE
  8
0
 10
10.3412
 20
10.3502
 11
10.5175
 21
10.2604
  0
LINE
  8
0
 10
10.5175
 20
10.2604
 11
10.6879
 21
10.1596
  0
LINE
  8
0
 10
10.6879
 20
10.1596
 11
10.8515
 21
10.0484
  0
LINE
  8
0
 10
10.8515
 20
10.0484
 11
11.0079
 21
9.92711
  0
LINE
  8
0
 10
11.0079
 20
9.92711
 11
11.1563
 21
9.79625
  0
LINE
  8
0
 10
11.1563
 20
9.79625
 11
11.2962
 21
9.65631
  0
LINE
  8
0
 10
11.2962
 20
9.65631
 11
11.4271
 21
9.50787
  0
LINE
  8
0
 10
11.4271
 20
9.50787
 11
11.5484
 21
9.35152
  0
LINE
  8
0
 10
11.5484
 20
9.35152
 11
11.6596
 21
9.18785
  0
LINE
  8
0
 10
11.6596
 20
9.18785
 11
11.7604
 21
9.01752
  0
LINE
  8
0
 10
11.7604
 20
9.01752
 11
11.8502
 21
8.8412
  0
LINE
  8
0
 10
11.8502
 20
8.8412
 11
11.9288
 21
8.65959
  0
LINE
  8
0
 10
11.9288
 20
8.65959
 11
11.9958
 21
8.47339
  0
LINE
  8
0
 10
11.9958
 20
8.47339
 11
12.051
 21
8.28337
  0
LINE
  8
0
 10
12.051
 20
8.28337
 11
12.0942
 21
8.09024
  0
LINE
  8
0
 10
12.0942
 20
8.09024
 11
12.1252
 21
7.89479
  0
LINE
  8
0
 10
12.1252
 20
7.89479
 11
12.1438
 21
7.69778
  0
LINE
  8
0
 10
12.1438
 20
7.69778
 11
12.15
 21
7.5
  0
LINE
  8
0
 10
12.15
 20
7.5
 11
12.1438
 21
7.3022
  0
LINE
  8
0
 10
12.1438
 20
7.3022
 11
12.1252
 21
7.10519
  0
LINE
  8
0
 10
12.1252
 20
7.10519
 11
12.0942
 21
6.90974
  0
LINE
  8
0
 10
12.0942
 20
6.90974
 11
12.051
 21
6.71661
  0
LINE
  8
0
 10
12.051
 20
6.71661
 11
11.9958
 21
6.5266
  0
LINE
  8
0
 10
11.9958
 20
6.5266
 11
11.9288
 21
6.34039
  0
LINE
  8
0
 10
11.9288
 20
6.34039
 11
11.8502
 21
6.15878
  0
LINE
  8
0
 10
11.8502
 20
6.15878
 11
11.7604
 21
5.98247
  0
LINE
  8
0
 10
11.7604
 20
5.98247
 11
11.6596
 21
5.81213
  0
LINE
  8
0
 10
11.6596
 20
5.81213
 11
11.5484
 21
5.64847
  0
LINE
  8
0
 10
11.5484
 20
5.64847
 11
11.4271
 21
5.49211
  0
LINE
  8
0
 10
11.4271
 20
5.49211
 11
11.2962
 21
5.34367
  0
LINE
  8
0
 10
11.2962
 20
5.34367
 11
11.1563
 21
5.20374
  0
LINE
  8
0
 10
11.1563
 20
5.20374
 11
11.0079
 21
5.07288
  0
LINE
  8
0
 10
11.0079
 20
5.07288
 11
10.8515
 21
4.95158
  0
LINE
  8
0
 10
10.8515
 20
4.95158
 11
10.6879
 21
4.84036
  0
LINE
  8
0
 10
10.6879
 20
4.84036
 11
10.5175
 21
4.73962
  0
LINE
  8
0
 10
10.5175
 20
4.73962
 11
10.3412
 21
4.64978
  0
LINE
  8
0
 10
10.3412
 20
4.64978
 11
10.1596
 21
4.5712
  0
LINE
  8
0
 10
10.1596
 20
4.5712
 11
9.97339
 21
4.50417
  0
LINE
  8
0
 10
9.97339
 20
4.50417
 11
9.78337
 21
4.44896
  0
LINE
  8
0
 10
9.78337
 20
4.44896
 11
9.59024
 21
4.40579
  0
LINE
  8
0
 10
9.59024
 20
4.40579
 11
9.39479
 21
4.37483
  0
LINE
  8
0
 10
9.39479
 20
4.37483
 11
9.19778
 21
4.3562
  0
LINE
  8
0
 10
9.19778
 20
4.3562
 11
9
 21
4.34999
  0
LINE
  8
0
 10
9
 20
4.34999
 11
8.8022
 21
4.3562
  0
LINE
  8
0
 10
308.802
 20
4.3562
 11
308.605
 21
4.37483
  0
LINE
  8
0
 10
308.605
 20
4.37483
 11
308.41
 21
4.40579
  0
LINE
  8
0
 10
308.41
 20
4.40579
 11
308.217
 21
4.44896
  0
LINE
  8
0
 10
308.217
 20
4.44896
 11
308.027
 21
4.50417
  0
LINE
  8
0
 10
308.027
 20
4.50417
 11
307.84
 21
4.5712
  0
LINE
  8
0
 10
307.84
 20
4.5712
 11
307.659
 21
4.64978
  0
LINE
  8
0
 10
307.659
 20
4.64978
 11
307.482
 21
4.73962
  0
LINE
  8
0
 10
307.482
 20
4.73962
 11
307.312
 21
4.84036
  0
LINE
  8
0
 10
307.312
 20
4.84036
 11
307.148
 21
4.95158
  0
LINE
  8
0
 10
307.148
 20
4.95158
 11
306.992
 21
5.07288
  0
LINE
  8
0
 10
306.992
 20
5.07288
 11
306.844
 21
5.20374
  0
LINE
  8
0
 10
306.844
 20
5.20374
 11
306.704
 21
5.34367
  0
LINE
  8
0
 10
306.704
 20
5.34367
 11
306.573
 21
5.49211
  0
LINE
  8
0
 10
306.573
 20
5.49211
 11
306.452
 21
5.64847
  0
LINE
  8
0
 10
306.452
 20
5.64847
 11
306.34
 21
5.81213
  0
LINE
  8
0
 10
306.34
 20
5.81213
 11
306.24
 21
5.98247
  0
LINE
  8
0
 10
306.24
 20
5.98247
 11
306.15
 21
6.15878
  0
LINE
  8
0
 10
306.15
 20
6.15878
 11
306.071
 21
6.34039
  0
LINE
  8
0
 10
306.071
 20
6.34039
 11
306.004
 21
6.5266
  0
LINE
  8
0
 10
306.004
 20
6.5266
 11
305.949
 21
6.71661
  0
LINE
  8
0
 10
305.949
 20
6.71661
 11
305.906
 21
6.90974
  0
LINE
  8
0
 10
305.906
 20
6.90974
 11
305.875
 21
7.10519
  0
LINE
  8
0
 10
305.875
 20
7.10519
 11
305.856
 21
7.3022
  0
LINE
  8
0
 10
305.856
 20
7.3022
 11
305.85
 21
7.5
  0
LINE
  8
0
 10
305.85
 20
7.5
 11
305.856
 21
7.69778
  0
LINE
  8
0
 10
305.856
 20
7.69778
 11
305.875
 21
7.89479
  0
LINE
  8
0
 10
305.875
 20
7.89479
 11
305.906
 21
8.09024
  0
LINE
  8
0
 10
305.906
 20
8.09024
 11
305.949
 21
8.28337
  0
LINE
  8
0
 10
305.949
 20
8.28337
 11
306.004
 21
8.47339
  0
LINE
  8
0
 10
306.004
 20
8.47339
 11
306.071
 21
8.65959
  0
LINE
  8
0
 10
306.071
 20
8.65959
 11
306.15
 21
8.8412
  0
LINE
  8
0
 10
306.15
 20
8.8412
 11
306.24
 21
9.01752
  0
LINE
  8
0
 10
306.24
 20
9.01752
 11
306.34
 21
9.18785
  0
LINE
  8
0
 10
306.34
 20
9.18785
 11
306.452
 21
9.35152
  0
LINE
  8
0
 10
306.452
 20
9.35152
 11
306.573
 21
9.50787
  0
LINE
  8
0
 10
306.573
 20
9.50787
 11
306.704
 21
9.65631
  0
LINE
  8
0
 10
306.704
 20
9.65631
 11
306.844
 21
9.79625
  0
LINE
  8
0
 10
306.844
 20
9.79625
 11
306.992
 21
9.92711
  0
LINE
  8
0
 10
306.992
 20
9.92711
 11
307.148
 21
10.0484
  0
LINE
  8
0
 10
307.148
 20
10.0484
 11
307.312
 21
10.1596
  0
LINE
  8
0
 10
307.312
 20
10.1596
 11
307.482
 21
10.2604
  0
LINE
  8
0
 10
307.482
 20
10.2604
 11
307.659
 21
10.3502
  0
LINE
  8
0
 10
307.659
 20
10.3502
 11
307.84
 21
10.4288
  0
LINE
  8
0
 10
307.84
 20
10.4288
 11
308.027
 21
10.4958
  0
LINE
  8
0
 10
308.027
 20
10.4958
 11
308.217
 21
10.551
  0
LINE
  8
0
 10
308.217
 20
10.551
 11
308.41
 21
10.5942
  0
LINE
  8
0
 10
308.41
 20
10.5942
 11
308.605
 21
10.6252
  0
LINE
  8
0
 10
308.605
 20
10.6252
 11
308.802
 21
10.6438
  0
LINE
  8
0
 10
308.802
 20
10.6438
 11
309
 21
10.65
  0
LINE
  8
0
 10
309
 20
10.65
 11
309.198
 21
10.6438
  0
LINE
  8
0
 10
309.198
 20
10.6438
 11
309.395
 21
10.6252
  0
LINE
  8
0
 10
309.395
 20
10.6252
 11
309.59
 21
10.5942
  0
LINE
  8
0
 10
309.59
 20
10.5942
 11
309.783
 21
10.551
  0
LINE
  8
0
 10
309.783
 20
10.551
 11
309.973
 21
10.4958
  0
LINE
  8
0
 10
309.973
 20
10.4958
 11
310.16
 21
10.4288
  0
LINE
  8
0
 10
310.16
 20
10.4288
 11
310.341
 21
10.3502
  0
LINE
  8
0
 10
310.341
 20
10.3502
 11
310.518
 21
10.2604
  0
LINE
  8
0
 10
310.518
 20
10.2604
 11
310.688
 21
10.1596
  0
LINE
  8
0
 10
310.688
 20
10.1596
 11
310.852
 21
10.0484
  0
LINE
  8
0
 10
310.852
 20
10.0484
 11
311.008
 21
9.92711
  0
LINE
  8
0
 10
311.008
 20
9.92711
 11
311.156
 21
9.79625
  0
LINE
  8
0
 10
311.156
 20
9.79625
 11
311.296
 21
9.65631
  0
LINE
  8
0
 10
311.296
 20
9.65631
 11
311.427
 21
9.50787
  0
LINE
  8
0
 10
311.427
 20
9.50787
 11
311.548
 21
9.35152
  0
LINE
  8
0
 10
311.548
 20
9.35152
 11
311.66
 21
9.18785
  0
LINE
  8
0
 10
311.66
 20
9.18785
 11
311.76
 21
9.01752
  0
LINE
  8
0
 10
311.76
 20
9.01752
 11
311.85
 21
8.8412
  0
LINE
  8
0
 10
311.85
 20
8.8412
 11
311.929
 21
8.65959
  0
LINE
  8
0
 10
311.929
 20
8.65959
 11
311.996
 21
8.47339
  0
LINE
  8
0
 10
311.996
 20
8.47339
 11
312.051
 21
8.28337
  0
LINE
  8
0
 10
312.051
 20
8.28337
 11
312.094
 21
8.09024
  0
LINE
  8
0
 10
312.094
 20
8.09024
 11
312.125
 21
7.89479
  0
LINE
  8
0
 10
312.125
 20
7.89479
 11
312.144
 21
7.69778
  0
LINE
  8
0
 10
312.144
 20
7.69778
 11
312.15
 21
7.5
  0
LINE
  8
0
 10
312.15
 20
7.5
 11
312.144
 21
7.3022
  0
LINE
  8
0
 10
312.144
 20
7.3022
 11
312.125
 21
7.10519
  0
LINE
  8
0
 10
312.125
 20
7.10519
 11
312.094
 21
6.90974
  0
LINE
  8
0
 10
312.094
 20
6.90974
 11
312.051
 21
6.71661
  0
LINE
  8
0
 10
312.051
 20
6.71661
 11
311.996
 21
6.5266
  0
LINE
  8
0
 10
311.996
 20
6.5266
 11
311.929
 21
6.34039
  0
LINE
  8
0
 10
311.929
 20
6.34039
 11
311.85
 21
6.15878
  0
LINE
  8
0
 10
311.85
 20
6.15878
 11
311.76
 21
5.98247
  0
LINE
  8
0
 10
311.76
 20
5.98247
 11
311.66
 21
5.81213
  0
LINE
  8
0
 10
311.66
 20
5.81213
 11
311.548
 21
5.64847
  0
LINE
  8
0
 10
311.548
 20
5.64847
 11
311.427
 21
5.49211
  0
LINE
  8
0
 10
311.427
 20
5.49211
 11
311.296
 21
5.34367
  0
LINE
  8
0
 10
311.296
 20
5.34367
 11
311.156
 21
5.20374
  0
LINE
  8
0
 10
311.156
 20
5.20374
 11
311.008
 21
5.07288
  0
LINE
  8
0
 10
311.008
 20
5.07288
 11
310.852
 21
4.95158
  0
LINE
  8
0
 10
310.852
 20
4.95158
 11
310.688
 21
4.84036
  0
LINE
  8
0
 10
310.688
 20
4.84036
 11
310.518
 21
4.73962
  0
LINE
  8
0
 10
310.518
 20
4.73962
 11
310.341
 21
4.64978
  0
LINE
  8
0
 10
310.341
 20
4.64978
 11
310.16
 21
4.5712
  0
LINE
  8
0
 10
310.16
 20
4.5712
 11
309.973
 21
4.50417
  0
LINE
  8
0
 10
309.973
 20
4.50417
 11
309.783
 21
4.44896
  0
LINE
  8
0
 10
309.783
 20
4.44896
 11
309.59
 21
4.40579
  0
LINE
  8
0
 10
309.59
 20
4.40579
 11
309.395
 21
4.37483
  0
LINE
  8
0
 10
309.395
 20
4.37483
 11
309.198
 21
4.3562
  0
LINE
  8
0
 10
309.198
 20
4.3562
 11
309
 21
4.34999
  0
LINE
  8
0
 10
309
 20
4.34999
 11
308.802
 21
4.3562
  0
LINE
  8
0
 10
148.931
 20
3.90216
 11
148.862
 21
3.90866
  0
LINE
  8
0
 10
148.862
 20
3.90866
 11
148.794
 21
3.91948
  0
LINE
  8
0
 10
148.794
 20
3.91948
 11
148.726
 21
3.93456
  0
LINE
  8
0
 10
148.726
 20
3.93456
 11
148.66
 21
3.95383
  0
LINE
  8
0
 10
148.66
 20
3.95383
 11
148.595
 21
3.97723
  0
LINE
  8
0
 10
148.595
 20
3.97723
 11
148.532
 21
4.00468
  0
LINE
  8
0
 10
148.532
 20
4.00468
 11
148.47
 21
4.03606
  0
LINE
  8
0
 10
148.47
 20
4.03606
 11
148.411
 21
4.07123
  0
LINE
  8
0
 10
148.411
 20
4.07123
 11
148.353
 21
4.11008
  0
LINE
  8
0
 10
148.353
 20
4.11008
 11
148.299
 21
4.15244
  0
LINE
  8
0
 10
148.299
 20
4.15244
 11
148.247
 21
4.19812
  0
LINE
  8
0
 10
148.247
 20
4.19812
 11
148.198
 21
4.24699
  0
LINE
  8
0
 10
148.198
 20
4.24699
 11
148.152
 21
4.29883
  0
LINE
  8
0
 10
148.152
 20
4.29883
 11
148.11
 21
4.35342
  0
LINE
  8
0
 10
148.11
 20
4.35342
 11
148.071
 21
4.41058
  0
LINE
  8
0
 10
148.071
 20
4.41058
 11
148.036
 21
4.47006
  0
LINE
  8
0
 10
148.036
 20
4.47006
 11
148.005
 21
4.53163
  0
LINE
  8
0
 10
148.005
 20
4.53163
 11
147.977
 21
4.59506
  0
LINE
  8
0
 10
147.977
 20
4.59506
 11
147.954
 21
4.66008
  0
LINE
  8
0
 10
147.954
 20
4.66008
 11
147.935
 21
4.72644
  0
LINE
  8
0
 10
147.935
 20
4.72644
 11
147.919
 21
4.79387
  0
LINE
  8
0
 10
147.919
 20
4.79387
 11
147.909
 21
4.86212
  0
LINE
  8
0
 10
147.909
 20
4.86212
 11
147.902
 21
4.93092
  0
LINE
  8
0
 10
147.902
 20
4.93092
 11
147.9
 21
5
  0
LINE
  8
0
 10
147.9
 20
5
 11
147.902
 21
5.06906
  0
LINE
  8
0
 10
147.902
 20
5.06906
 11
147.909
 21
5.13786
  0
LINE
  8
0
 10
147.909
 20
5.13786
 11
147.919
 21
5.20612
  0
LINE
  8
0
 10
147.919
 20
5.20612
 11
147.935
 21
5.27354
  0
LINE
  8
0
 10
147.935
 20
5.27354
 11
147.954
 21
5.3399
  0
LINE
  8
0
 10
147.954
 20
5.3399
 11
147.977
 21
5.40492
  0
LINE
  8
0
 10
147.977
 20
5.40492
 11
148.005
 21
5.46835
  0
LINE
  8
0
 10
148.005
 20
5.46835
 11
148.036
 21
5.52992
  0
LINE
  8
0
 10
148.036
 20
5.52992
 11
148.071
 21
5.5894
  0
LINE
  8
0
 10
148.071
 20
5.5894
 11
148.11
 21
5.64656
  0
LINE
  8
0
 10
148.11
 20
5.64656
 11
148.152
 21
5.70116
  0
LINE
  8
0
 10
148.152
 20
5.70116
 11
148.198
 21
5.75299
  0
LINE
  8
0
 10
148.198
 20
5.75299
 11
148.247
 21
5.80186
  0
LINE
  8
0
 10
148.247
 20
5.80186
 11
148.299
 21
5.84755
  0
LINE
  8
0
 10
148.299
 20
5.84755
 11
148.353
 21
5.88991
  0
LINE
  8
0
 10
148.353
 20
5.88991
 11
148.411
 21
5.92876
  0
LINE
  8
0
 10
148.411
 20
5.92876
 11
148.47
 21
5.96393
  0
LINE
  8
0
 10
148.47
 20
5.96393
 11
148.532
 21
5.9953
  0
LINE
  8
0
 10
148.532
 20
5.9953
 11
148.595
 21
6.02275
  0
LINE
  8
0
 10
148.595
 20
6.02275
 11
148.66
 21
6.04616
  0
LINE
  8
0
 10
148.66
 20
6.04616
 11
148.726
 21
6.06543
  0
LINE
  8
0
 10
148.726
 20
6.06543
 11
148.794
 21
6.08051
  0
LINE
  8
0
 10
148.794
 20
6.08051
 11
148.862
 21
6.09132
  0
LINE
  8
0
 10
148.862
 20
6.09132
 11
148.931
 21
6.09782
  0
LINE
  8
0
 10
148.931
 20
6.09782
 11
149
 21
6.09999
  0
LINE
  8
0
 10
149
 20
6.09999
 11
149.069
 21
6.09782
  0
LINE
  8
0
 10
149.069
 20
6.09782
 11
149.138
 21
6.09132
  0
LINE
  8
0
 10
149.138
 20
6.09132
 11
149.206
 21
6.08051
  0
LINE
  8
0
 10
149.206
 20
6.08051
 11
149.274
 21
6.06543
  0
LINE
  8
0
 10
149.274
 20
6.06543
 11
149.34
 21
6.04616
  0
LINE
  8
0
 10
149.34
 20
6.04616
 11
149.405
 21
6.02275
  0
LINE
  8
0
 10
149.405
 20
6.02275
 11
149.468
 21
5.9953
  0
LINE
  8
0
 10
149.468
 20
5.9953
 11
149.53
 21
5.96393
  0
LINE
  8
0
 10
149.53
 20
5.96393
 11
149.589
 21
5.92876
  0
LINE
  8
0
 10
149.589
 20
5.92876
 11
149.647
 21
5.88991
  0
LINE
  8
0
 10
149.647
 20
5.88991
 11
149.701
 21
5.84755
  0
LINE
  8
0
 10
149.701
 20
5.84755
 11
149.753
 21
5.80186
  0
LINE
  8
0
 10
149.753
 20
5.80186
 11
149.802
 21
5.75299
  0
LINE
  8
0
 10
149.802
 20
5.75299
 11
149.848
 21
5.70116
  0
LINE
  8
0
 10
149.848
 20
5.70116
 11
149.89
 21
5.64656
  0
LINE
  8
0
 10
149.89
 20
5.64656
 11
149.929
 21
5.5894
  0
LINE
  8
0
 10
149.929
 20
5.5894
 11
149.964
 21
5.52992
  0
LINE
  8
0
 10
149.964
 20
5.52992
 11
149.995
 21
5.46835
  0
LINE
  8
0
 10
149.995
 20
5.46835
 11
150.023
 21
5.40492
  0
LINE
  8
0
 10
150.023
 20
5.40492
 11
150.046
 21
5.3399
  0
LINE
  8
0
 10
150.046
 20
5.3399
 11
150.065
 21
5.27354
  0
LINE
  8
0
 10
150.065
 20
5.27354
 11
150.081
 21
5.20612
  0
LINE
  8
0
 10
150.081
 20
5.20612
 11
150.091
 21
5.13786
  0
LINE
  8
0
 10
150.091
 20
5.13786
 11
150.098
 21
5.06906
  0
LINE
  8
0
 10
150.098
 20
5.06906
 11
150.1
 21
5
  0
LINE
  8
0
 10
150.1
 20
5
 11
150.098
 21
4.93092
  0
LINE
  8
0
 10
150.098
 20
4.93092
 11
150.091
 21
4.86212
  0
LINE
  8
0
 10
150.091
 20
4.86212
 11
150.081
 21
4.79387
  0
LINE
  8
0
 10
150.081
 20
4.79387
 11
150.065
 21
4.72644
  0
LINE
  8
0
 10
150.065
 20
4.72644
 11
150.046
 21
4.66008
  0
LINE
  8
0
 10
150.046
 20
4.66008
 11
150.023
 21
4.59506
  0
LINE
  8
0
 10
150.023
 20
4.59506
 11
149.995
 21
4.53163
  0
LINE
  8
0
 10
149.995
 20
4.53163
 11
149.964
 21
4.47006
  0
LINE
  8
0
 10
149.964
 20
4.47006
 11
149.929
 21
4.41058
  0
LINE
  8
0
 10
149.929
 20
4.41058
 11
149.89
 21
4.35342
  0
LINE
  8
0
 10
149.89
 20
4.35342
 11
149.848
 21
4.29883
  0
LINE
  8
0
 10
149.848
 20
4.29883
 11
149.802
 21
4.24699
  0
LINE
  8
0
 10
149.802
 20
4.24699
 11
149.753
 21
4.19812
  0
LINE
  8
0
 10
149.753
 20
4.19812
 11
149.701
 21
4.15244
  0
LINE
  8
0
 10
149.701
 20
4.15244
 11
149.647
 21
4.11008
  0
LINE
  8
0
 10
149.647
 20
4.11008
 11
149.589
 21
4.07123
  0
LINE
  8
0
 10
149.589
 20
4.07123
 11
149.53
 21
4.03606
  0
LINE
  8
0
 10
149.53
 20
4.03606
 11
149.468
 21
4.00468
  0
LINE
  8
0
 10
149.468
 20
4.00468
 11
149.405
 21
3.97723
  0
LINE
  8
0
 10
149.405
 20
3.97723
 11
149.34
 21
3.95383
  0
LINE
  8
0
 10
149.34
 20
3.95383
 11
149.274
 21
3.93456
  0
LINE
  8
0
 10
149.274
 20
3.93456
 11
149.206
 21
3.91948
  0
LINE
  8
0
 10
149.206
 20
3.91948
 11
149.138
 21
3.90866
  0
LINE
  8
0
 10
149.138
 20
3.90866
 11
149.069
 21
3.90216
  0
LINE
  8
0
 10
149.069
 20
3.90216
 11
149
 21
3.89999
  0
LINE
  8
0
 10
149
 20
3.89999
 11
148.931
 21
3.90216
  0
LINE
  8
0
 10
168.931
 20
3.90216
 11
168.862
 21
3.90866
  0
LINE
  8
0
 10
168.862
 20
3.90866
 11
168.794
 21
3.91948
  0
LINE
  8
0
 10
168.794
 20
3.91948
 11
168.726
 21
3.93456
  0
LINE
  8
0
 10
168.726
 20
3.93456
 11
168.66
 21
3.95383
  0
LINE
  8
0
 10
168.66
 20
3.95383
 11
168.595
 21
3.97723
  0
LINE
  8
0
 10
168.595
 20
3.97723
 11
168.532
 21
4.00468
  0
LINE
  8
0
 10
168.532
 20
4.00468
 11
168.47
 21
4.03606
  0
LINE
  8
0
 10
168.47
 20
4.03606
 11
168.411
 21
4.07123
  0
LINE
  8
0
 10
168.411
 20
4.07123
 11
168.353
 21
4.11008
  0
LINE
  8
0
 10
168.353
 20
4.11008
 11
168.299
 21
4.15244
  0
LINE
  8
0
 10
168.299
 20
4.15244
 11
168.247
 21
4.19812
  0
LINE
  8
0
 10
168.247
 20
4.19812
 11
168.198
 21
4.24699
  0
LINE
  8
0
 10
168.198
 20
4.24699
 11
168.152
 21
4.29883
  0
LINE
  8
0
 10
168.152
 20
4.29883
 11
168.11
 21
4.35342
  0
LINE
  8
0
 10
168.11
 20
4.35342
 11
168.071
 21
4.41058
  0
LINE
  8
0
 10
168.071
 20
4.41058
 11
168.036
 21
4.47006
  0
LINE
  8
0
 10
168.036
 20
4.47006
 11
168.005
 21
4.53163
  0
LINE
  8
0
 10
168.005
 20
4.53163
 11
167.977
 21
4.59506
  0
LINE
  8
0
 10
167.977
 20
4.59506
 11
167.954
 21
4.66008
  0
LINE
  8
0
 10
167.954
 20
4.66008
 11
167.935
 21
4.72644
  0
LINE
  8
0
 10
167.935
 20
4.72644
 11
167.919
 21
4.79387
  0
LINE
  8
0
 10
167.919
 20
4.79387
 11
167.909
 21
4.86212
  0
LINE
  8
0
 10
167.909
 20
4.86212
 11
167.902
 21
4.93092
  0
LINE
  8
0
 10
167.902
 20
4.93092
 11
167.9
 21
5
  0
LINE
  8
0
 10
167.9
 20
5
 11
167.902
 21
5.06906
  0
LINE
  8
0
 10
167.902
 20
5.06906
 11
167.909
 21
5.13786
  0
LINE
  8
0
 10
167.909
 20
5.13786
 11
167.919
 21
5.20612
  0
LINE
  8
0
 10
167.919
 20
5.20612
 11
167.935
 21
5.27354
  0
LINE
  8
0
 10
167.935
 20
5.27354
 11
167.954
 21
5.3399
  0
LINE
  8
0
 10
167.954
 20
5.3399
 11
167.977
 21
5.40492
  0
LINE
  8
0
 10
167.977
 20
5.40492
 11
168.005
 21
5.46835
  0
LINE
  8
0
 10
168.005
 20
5.46835
 11
168.036
 21
5.52992
  0
LINE
  8
0
 10
168.036
 20
5.52992
 11
168.071
 21
5.5894
  0
LINE
  8
0
 10
168.071
 20
5.5894
 11
168.11
 21
5.64656
  0
LINE
  8
0
 10
168.11
 20
5.64656
 11
168.152
 21
5.70116
  0
LINE
  8
0
 10
168.152
 20
5.70116
 11
168.198
 21
5.75299
  0
LINE
  8
0
 10
168.198
 20
5.75299
 11
168.247
 21
5.80186
  0
LINE
  8
0
 10
168.247
 20
5.80186
 11
168.299
 21
5.84755
  0
LINE
  8
0
 10
168.299
 20
5.84755
 11
168.353
 21
5.88991
  0
LINE
  8
0
 10
168.353
 20
5.88991
 11
168.411
 21
5.92876
  0
LINE
  8
0
 10
168.411
 20
5.92876
 11
168.47
 21
5.96393
  0
LINE
  8
0
 10
168.47
 20
5.96393
 11
168.532
 21
5.9953
  0
LINE
  8
0
 10
168.532
 20
5.9953
 11
168.595
 21
6.02275
  0
LINE
  8
0
 10
168.595
 20
6.02275
 11
168.66
 21
6.04616
  0
LINE
  8
0
 10
168.66
 20
6.04616
 11
168.726
 21
6.06543
  0
LINE
  8
0
 10
168.726
 20
6.06543
 11
168.794
 21
6.08051
  0
LINE
  8
0
 10
168.794
 20
6.08051
 11
168.862
 21
6.09132
  0
LINE
  8
0
 10
168.862
 20
6.09132
 11
168.931
 21
6.09782
  0
LINE
  8
0
 10
168.931
 20
6.09782
 11
169
 21
6.09999
  0
LINE
  8
0
 10
169
 20
6.09999
 11
169.069
 21
6.09782
  0
LINE
  8
0
 10
169.069
 20
6.09782
 11
169.138
 21
6.09132
  0
LINE
  8
0
 10
169.138
 20
6.09132
 11
169.206
 21
6.08051
  0
LINE
  8
0
 10
169.206
 20
6.08051
 11
169.274
 21
6.06543
  0
LINE
  8
0
 10
169.274
 20
6.06543
 11
169.34
 21
6.04616
  0
LINE
  8
0
 10
169.34
 20
6.04616
 11
169.405
 21
6.02275
  0
LINE
  8
0
 10
169.405
 20
6.02275
 11
169.468
 21
5.9953
  0
LINE
  8
0
 10
169.468
 20
5.9953
 11
169.53
 21
5.96393
  0
LINE
  8
0
 10
169.53
 20
5.96393
 11
169.589
 21
5.92876
  0
LINE
  8
0
 10
169.589
 20
5.92876
 11
169.647
 21
5.88991
  0
LINE
  8
0
 10
169.647
 20
5.88991
 11
169.701
 21
5.84755
  0
LINE
  8
0
 10
169.701
 20
5.84755
 11
169.753
 21
5.80186
  0
LINE
  8
0
 10
169.753
 20
5.80186
 11
169.802
 21
5.75299
  0
LINE
  8
0
 10
169.802
 20
5.75299
 11
169.848
 21
5.70116
  0
LINE
  8
0
 10
169.848
 20
5.70116
 11
169.89
 21
5.64656
  0
LINE
  8
0
 10
169.89
 20
5.64656
 11
169.929
 21
5.5894
  0
LINE
  8
0
 10
169.929
 20
5.5894
 11
169.964
 21
5.52992
  0
LINE
  8
0
 10
169.964
 20
5.52992
 11
169.995
 21
5.46835
  0
LINE
  8
0
 10
169.995
 20
5.46835
 11
170.023
 21
5.40492
  0
LINE
  8
0
 10
170.023
 20
5.40492
 11
170.046
 21
5.3399
  0
LINE
  8
0
 10
170.046
 20
5.3399
 11
170.065
 21
5.27354
  0
LINE
  8
0
 10
170.065
 20
5.27354
 11
170.081
 21
5.20612
  0
LINE
  8
0
 10
170.081
 20
5.20612
 11
170.091
 21
5.13786
  0
LINE
  8
0
 10
170.091
 20
5.13786
 11
170.098
 21
5.06906
  0
LINE
  8
0
 10
170.098
 20
5.06906
 11
170.1
 21
5
  0
LINE
  8
0
 10
170.1
 20
5
 11
170.098
 21
4.93092
  0
LINE
  8
0
 10
170.098
 20
4.93092
 11
170.091
 21
4.86212
  0
LINE
  8
0
 10
170.091
 20
4.86212
 11
170.081
 21
4.79387
  0
LINE
  8
0
 10
170.081
 20
4.79387
 11
170.065
 21
4.72644
  0
LINE
  8
0
 10
170.065
 20
4.72644
 11
170.046
 21
4.66008
  0
LINE
  8
0
 10
170.046
 20
4.66008
 11
170.023
 21
4.59506
  0
LINE
  8
0
 10
170.023
 20
4.59506
 11
169.995
 21
4.53163
  0
LINE
  8
0
 10
169.995
 20
4.53163
 11
169.964
 21
4.47006
  0
LINE
  8
0
 10
169.964
 20
4.47006
 11
169.929
 21
4.41058
  0
LINE
  8
0
 10
169.929
 20
4.41058
 11
169.89
 21
4.35342
  0
LINE
  8
0
 10
169.89
 20
4.35342
 11
169.848
 21
4.29883
  0
LINE
  8
0
 10
169.848
 20
4.29883
 11
169.802
 21
4.24699
  0
LINE
  8
0
 10
169.802
 20
4.24699
 11
169.753
 21
4.19812
  0
LINE
  8
0
 10
169.753
 20
4.19812
 11
169.701
 21
4.15244
  0
LINE
  8
0
 10
169.701
 20
4.15244
 11
169.647
 21
4.11008
  0
LINE
  8
0
 10
169.647
 20
4.11008
 11
169.589
 21
4.07123
  0
LINE
  8
0
 10
169.589
 20
4.07123
 11
169.53
 21
4.03606
  0
LINE
  8
0
 10
169.53
 20
4.03606
 11
169.468
 21
4.00468
  0
LINE
  8
0
 10
169.468
 20
4.00468
 11
169.405
 21
3.97723
  0
LINE
  8
0
 10
169.405
 20
3.97723
 11
169.34
 21
3.95383
  0
LINE
  8
0
 10
169.34
 20
3.95383
 11
169.274
 21
3.93456
  0
LINE
  8
0
 10
169.274
 20
3.93456
 11
169.206
 21
3.91948
  0
LINE
  8
0
 10
169.206
 20
3.91948
 11
169.138
 21
3.90866
  0
LINE
  8
0
 10
169.138
 20
3.90866
 11
169.069
 21
3.90216
  0
LINE
  8
0
 10
169.069
 20
3.90216
 11
169
 21
3.89999
  0
LINE
  8
0
 10
169
 20
3.89999
 11
168.931
 21
3.90216
  0
LINE
  8
0
 10
8.92621
 20
1.32732
 11
8.85272
 21
1.33426
  0
LINE
  8
0
 10
8.85272
 20
1.33426
 11
8.77982
 21
1.34581
  0
LINE
  8
0
 10
8.77982
 20
1.34581
 11
8.70778
 21
1.36191
  0
LINE
  8
0
 10
8.70778
 20
1.36191
 11
8.6369
 21
1.38251
  0
LINE
  8
0
 10
8.6369
 20
1.38251
 11
8.56744
 21
1.4075
  0
LINE
  8
0
 10
8.56744
 20
1.4075
 11
8.49969
 21
1.43681
  0
LINE
  8
0
 10
8.49969
 20
1.43681
 11
8.43393
 21
1.47034
  0
LINE
  8
0
 10
8.43393
 20
1.47034
 11
8.37039
 21
1.5079
  0
LINE
  8
0
 10
8.37039
 20
1.5079
 11
8.30934
 21
1.54939
  0
LINE
  8
0
 10
8.30934
 20
1.54939
 11
8.25102
 21
1.59464
  0
LINE
  8
0
 10
8.25102
 20
1.59464
 11
8.19565
 21
1.64345
  0
LINE
  8
0
 10
8.19565
 20
1.64345
 11
8.14345
 21
1.69565
  0
LINE
  8
0
 10
8.14345
 20
1.69565
 11
8.09464
 21
1.75102
  0
LINE
  8
0
 10
8.09464
 20
1.75102
 11
8.04939
 21
1.80934
  0
LINE
  8
0
 10
8.04939
 20
1.80934
 11
8.0079
 21
1.87039
  0
LINE
  8
0
 10
8.0079
 20
1.87039
 11
7.97034
 21
1.93393
  0
LINE
  8
0
 10
7.97034
 20
1.93393
 11
7.93681
 21
1.99969
  0
LINE
  8
0
 10
7.93681
 20
1.99969
 11
7.9075
 21
2.06744
  0
LINE
  8
0
 10
7.9075
 20
2.06744
 11
7.88251
 21
2.1369
  0
LINE
  8
0
 10
7.88251
 20
2.1369
 11
7.86191
 21
2.20778
  0
LINE
  8
0
 10
7.86191
 20
2.20778
 11
7.84581
 21
2.27982
  0
LINE
  8
0
 10
7.84581
 20
2.27982
 11
7.83426
 21
2.35272
  0
LINE
  8
0
 10
7.83426
 20
2.35272
 11
7.82732
 21
2.42621
  0
LINE
  8
0
 10
7.82732
 20
2.42621
 11
7.825
 21
2.5
  0
LINE
  8
0
 10
7.825
 20
2.5
 11
7.82732
 21
2.57378
  0
LINE
  8
0
 10
7.82732
 20
2.57378
 11
7.83426
 21
2.64726
  0
LINE
  8
0
 10
7.83426
 20
2.64726
 11
7.84581
 21
2.72017
  0
LINE
  8
0
 10
7.84581
 20
2.72017
 11
7.86191
 21
2.79221
  0
LINE
  8
0
 10
7.86191
 20
2.79221
 11
7.88251
 21
2.86308
  0
LINE
  8
0
 10
7.88251
 20
2.86308
 11
7.9075
 21
2.93254
  0
LINE
  8
0
 10
7.9075
 20
2.93254
 11
7.93681
 21
3.00029
  0
LINE
  8
0
 10
7.93681
 20
3.00029
 11
7.97034
 21
3.06606
  0
LINE
  8
0
 10
7.97034
 20
3.06606
 11
8.0079
 21
3.12959
  0
LINE
  8
0
 10
8.0079
 20
3.12959
 11
8.04939
 21
3.19064
  0
LINE
  8
0
 10
8.04939
 20
3.19064
 11
8.09464
 21
3.24896
  0
LINE
  8
0
 10
8.09464
 20
3.24896
 11
8.14345
 21
3.30434
  0
LINE
  8
0
 10
8.14345
 20
3.30434
 11
8.19565
 21
3.35654
  0
LINE
  8
0
 10
8.19565
 20
3.35654
 11
8.25102
 21
3.40535
  0
LINE
  8
0
 10
8.25102
 20
3.40535
 11
8.30934
 21
3.45059
  0
LINE
  8
0
 10
8.30934
 20
3.45059
 11
8.37039
 21
3.49208
  0
LINE
  8
0
 10
8.37039
 20
3.49208
 11
8.43393
 21
3.52965
  0
LINE
  8
0
 10
8.43393
 20
3.52965
 11
8.49969
 21
3.56317
  0
LINE
  8
0
 10
8.49969
 20
3.56317
 11
8.56744
 21
3.59248
  0
LINE
  8
0
 10
8.56744
 20
3.59248
 11
8.6369
 21
3.61748
  0
LINE
  8
0
 10
8.6369
 20
3.61748
 11
8.70778
 21
3.63808
  0
LINE
  8
0
 10
8.70778
 20
3.63808
 11
8.77982
 21
3.65417
  0
LINE
  8
0
 10
8.77982
 20
3.65417
 11
8.85272
 21
3.66573
  0
LINE
  8
0
 10
8.85272
 20
3.66573
 11
8.92621
 21
3.67267
  0
LINE
  8
0
 10
8.92621
 20
3.67267
 11
9
 21
3.67499
  0
LINE
  8
0
 10
9
 20
3.67499
 11
9.07378
 21
3.67267
  0
LINE
  8
0
 10
9.07378
 20
3.67267
 11
9.14726
 21
3.66573
  0
LINE
  8
0
 10
9.14726
 20
3.66573
 11
9.22017
 21
3.65417
  0
LINE
  8
0
 10
9.22017
 20
3.65417
 11
9.29221
 21
3.63808
  0
LINE
  8
0
 10
9.29221
 20
3.63808
 11
9.36308
 21
3.61748
  0
LINE
  8
0
 10
9.36308
 20
3.61748
 11
9.43254
 21
3.59248
  0
LINE
  8
0
 10
9.43254
 20
3.59248
 11
9.50029
 21
3.56317
  0
LINE
  8
0
 10
9.50029
 20
3.56317
 11
9.56606
 21
3.52965
  0
LINE
  8
0
 10
9.56606
 20
3.52965
 11
9.62959
 21
3.49208
  0
LINE
  8
0
 10
9.62959
 20
3.49208
 11
9.69064
 21
3.45059
  0
LINE
  8
0
 10
9.69064
 20
3.45059
 11
9.74896
 21
3.40535
  0
LINE
  8
0
 10
9.74896
 20
3.40535
 11
9.80434
 21
3.35654
  0
LINE
  8
0
 10
9.80434
 20
3.35654
 11
9.85654
 21
3.30434
  0
LINE
  8
0
 10
9.85654
 20
3.30434
 11
9.90535
 21
3.24896
  0
LINE
  8
0
 10
9.90535
 20
3.24896
 11
9.95059
 21
3.19064
  0
LINE
  8
0
 10
9.95059
 20
3.19064
 11
9.99208
 21
3.12959
  0
LINE
  8
0
 10
9.99208
 20
3.12959
 11
10.0296
 21
3.06606
  0
LINE
  8
0
 10
10.0296
 20
3.06606
 11
10.0632
 21
3.00029
  0
LINE
  8
0
 10
10.0632
 20
3.00029
 11
10.0925
 21
2.93254
  0
LINE
  8
0
 10
10.0925
 20
2.93254
 11
10.1175
 21
2.86308
  0
LINE
  8
0
 10
10.1175
 20
2.86308
 11
10.1381
 21
2.79221
  0
LINE
  8
0
 10
10.1381
 20
2.79221
 11
10.1542
 21
2.72017
  0
LINE
  8
0
 10
10.1542
 20
2.72017
 11
10.1657
 21
2.64726
  0
LINE
  8
0
 10
10.1657
 20
2.64726
 11
10.1727
 21
2.57378
  0
LINE
  8
0
 10
10.1727
 20
2.57378
 11
10.175
 21
2.5
  0
LINE
  8
0
 10
10.175
 20
2.5
 11
10.1727
 21
2.42621
  0
LINE
  8
0
 10
10.1727
 20
2.42621
 11
10.1657
 21
2.35272
  0
LINE
  8
0
 10
10.1657
 20
2.35272
 11
10.1542
 21
2.27982
  0
LINE
  8
0
 10
10.1542
 20
2.27982
 11
10.1381
 21
2.20778
  0
LINE
  8
0
 10
10.1381
 20
2.20778
 11
10.1175
 21
2.1369
  0
LINE
  8
0
 10
10.1175
 20
2.1369
 11
10.0925
 21
2.06744
  0
LINE
  8
0
 10
10.0925
 20
2.06744
 11
10.0632
 21
1.99969
  0
LINE
  8
0
 10
10.0632
 20
1.99969
 11
10.0296
 21
1.93393
  0
LINE
  8
0
 10
10.0296
 20
1.93393
 11
9.99208
 21
1.87039
  0
LINE
  8
0
 10
9.99208
 20
1.87039
 11
9.95059
 21
1.80934
  0
LINE
  8
0
 10
9.95059
 20
1.80934
 11
9.90535
 21
1.75102
  0
LINE
  8
0
 10
9.90535
 20
1.75102
 11
9.85654
 21
1.69565
  0
LINE
  8
0
 10
9.85654
 20
1.69565
 11
9.80434
 21
1.64345
  0
LINE
  8
0
 10
9.80434
 20
1.64345
 11
9.74896
 21
1.59464
  0
LINE
  8
0
 10
9.74896
 20
1.59464
 11
9.69064
 21
1.54939
  0
LINE
  8
0
 10
9.69064
 20
1.54939
 11
9.62959
 21
1.5079
  0
LINE
  8
0
 10
9.62959
 20
1.5079
 11
9.56606
 21
1.47034
  0
LINE
  8
0
 10
9.56606
 20
1.47034
 11
9.50029
 21
1.43681
  0
LINE
  8
0
 10
9.50029
 20
1.43681
 11
9.43254
 21
1.4075
  0
LINE
  8
0
 10
9.43254
 20
1.4075
 11
9.36308
 21
1.38251
  0
LINE
  8
0
 10
9.36308
 20
1.38251
 11
9.29221
 21
1.36191
  0
LINE
  8
0
 10
9.29221
 20
1.36191
 11
9.22017
 21
1.34581
  0
LINE
  8
0
 10
9.22017
 20
1.34581
 11
9.14726
 21
1.33426
  0
LINE
  8
0
 10
9.14726
 20
1.33426
 11
9.07378
 21
1.32732
  0
LINE
  8
0
 10
9.07378
 20
1.32732
 11
9
 21
1.325
  0
LINE
  8
0
 10
9
 20
1.325
 11
8.92621
 21
1.32732
  0
LINE
  8
0
 10
308.926
 20
1.32732
 11
308.853
 21
1.33426
  0
LINE
  8
0
 10
308.853
 20
1.33426
 11
308.78
 21
1.34581
  0
LINE
  8
0
 10
308.78
 20
1.34581
 11
308.708
 21
1.36191
  0
LINE
  8
0
 10
308.708
 20
1.36191
 11
308.637
 21
1.38251
  0
LINE
  8
0
 10
308.637
 20
1.38251
 11
308.567
 21
1.4075
  0
LINE
  8
0
 10
308.567
 20
1.4075
 11
308.5
 21
1.43681
  0
LINE
  8
0
 10
308.5
 20
1.43681
 11
308.434
 21
1.47034
  0
LINE
  8
0
 10
308.434
 20
1.47034
 11
308.37
 21
1.5079
  0
LINE
  8
0
 10
308.37
 20
1.5079
 11
308.309
 21
1.54939
  0
LINE
  8
0
 10
308.309
 20
1.54939
 11
308.251
 21
1.59464
  0
LINE
  8
0
 10
308.251
 20
1.59464
 11
308.196
 21
1.64345
  0
LINE
  8
0
 10
308.196
 20
1.64345
 11
308.143
 21
1.69565
  0
LINE
  8
0
 10
308.143
 20
1.69565
 11
308.095
 21
1.75102
  0
LINE
  8
0
 10
308.095
 20
1.75102
 11
308.049
 21
1.80934
  0
LINE
  8
0
 10
308.049
 20
1.80934
 11
308.008
 21
1.87039
  0
LINE
  8
0
 10
308.008
 20
1.87039
 11
307.97
 21
1.93393
  0
LINE
  8
0
 10
307.97
 20
1.93393
 11
307.937
 21
1.99969
  0
LINE
  8
0
 10
307.937
 20
1.99969
 11
307.908
 21
2.06744
  0
LINE
  8
0
 10
307.908
 20
2.06744
 11
307.883
 21
2.1369
  0
LINE
  8
0
 10
307.883
 20
2.1369
 11
307.862
 21
2.20778
  0
LINE
  8
0
 10
307.862
 20
2.20778
 11
307.846
 21
2.27982
  0
LINE
  8
0
 10
307.846
 20
2.27982
 11
307.834
 21
2.35272
  0
LINE
  8
0
 10
307.834
 20
2.35272
 11
307.827
 21
2.42621
  0
LINE
  8
0
 10
307.827
 20
2.42621
 11
307.825
 21
2.5
  0
LINE
  8
0
 10
307.825
 20
2.5
 11
307.827
 21
2.57378
  0
LINE
  8
0
 10
307.827
 20
2.57378
 11
307.834
 21
2.64726
  0
LINE
  8
0
 10
307.834
 20
2.64726
 11
307.846
 21
2.72017
  0
LINE
  8
0
 10
307.846
 20
2.72017
 11
307.862
 21
2.79221
  0
LINE
  8
0
 10
307.862
 20
2.79221
 11
307.883
 21
2.86308
  0
LINE
  8
0
 10
307.883
 20
2.86308
 11
307.908
 21
2.93254
  0
LINE
  8
0
 10
307.908
 20
2.93254
 11
307.937
 21
3.00029
  0
LINE
  8
0
 10
307.937
 20
3.00029
 11
307.97
 21
3.06606
  0
LINE
  8
0
 10
307.97
 20
3.06606
 11
308.008
 21
3.12959
  0
LINE
  8
0
 10
308.008
 20
3.12959
 11
308.049
 21
3.19064
  0
LINE
  8
0
 10
308.049
 20
3.19064
 11
308.095
 21
3.24896
  0
LINE
  8
0
 10
308.095
 20
3.24896
 11
308.143
 21
3.30434
  0
LINE
  8
0
 10
308.143
 20
3.30434
 11
308.196
 21
3.35654
  0
LINE
  8
0
 10
308.196
 20
3.35654
 11
308.251
 21
3.40535
  0
LINE
  8
0
 10
308.251
 20
3.40535
 11
308.309
 21
3.45059
  0
LINE
  8
0
 10
308.309
 20
3.45059
 11
308.37
 21
3.49208
  0
LINE
  8
0
 10
308.37
 20
3.49208
 11
308.434
 21
3.52965
  0
LINE
  8
0
 10
308.434
 20
3.52965
 11
308.5
 21
3.56317
  0
LINE
  8
0
 10
308.5
 20
3.56317
 11
308.567
 21
3.59248
  0
LINE
  8
0
 10
308.567
 20
3.59248
 11
308.637
 21
3.61748
  0
LINE
  8
0
 10
308.637
 20
3.61748
 11
308.708
 21
3.63808
  0
LINE
  8
0
 10
308.708
 20
3.63808
 11
308.78
 21
3.65417
  0
LINE
  8
0
 10
308.78
 20
3.65417
 11
308.853
 21
3.66573
  0
LINE
  8
0
 10
308.853
 20
3.66573
 11
308.926
 21
3.67267
  0
LINE
  8
0
 10
308.926
 20
3.67267
 11
309
 21
3.67499
  0
LINE
  8
0
 10
309
 20
3.67499
 11
309.074
 21
3.67267
  0
LINE
  8
0
 10
309.074
 20
3.67267
 11
309.147
 21
3.66573
  0
LINE
  8
0
 10
309.147
 20
3.66573
 11
309.22
 21
3.65417
  0
LINE
  8
0
 10
309.22
 20
3.65417
 11
309.292
 21
3.63808
  0
LINE
  8
0
 10
309.292
 20
3.63808
 11
309.363
 21
3.61748
  0
LINE
  8
0
 10
309.363
 20
3.61748
 11
309.433
 21
3.59248
  0
LINE
  8
0
 10
309.433
 20
3.59248
 11
309.5
 21
3.56317
  0
LINE
  8
0
 10
309.5
 20
3.56317
 11
309.566
 21
3.52965
  0
LINE
  8
0
 10
309.566
 20
3.52965
 11
309.63
 21
3.49208
  0
LINE
  8
0
 10
309.63
 20
3.49208
 11
309.691
 21
3.45059
  0
LINE
  8
0
 10
309.691
 20
3.45059
 11
309.749
 21
3.40535
  0
LINE
  8
0
 10
309.749
 20
3.40535
 11
309.804
 21
3.35654
  0
LINE
  8
0
 10
309.804
 20
3.35654
 11
309.857
 21
3.30434
  0
LINE
  8
0
 10
309.857
 20
3.30434
 11
309.905
 21
3.24896
  0
LINE
  8
0
 10
309.905
 20
3.24896
 11
309.951
 21
3.19064
  0
LINE
  8
0
 10
309.951
 20
3.19064
 11
309.992
 21
3.12959
  0
LINE
  8
0
 10
309.992
 20
3.12959
 11
310.03
 21
3.06606
  0
LINE
  8
0
 10
310.03
 20
3.06606
 11
310.063
 21
3.00029
  0
LINE
  8
0
 10
310.063
 20
3.00029
 11
310.092
 21
2.93254
  0
LINE
  8
0
 10
310.092
 20
2.93254
 11
310.117
 21
2.86308
  0
LINE
  8
0
 10
310.117
 20
2.86308
 11
310.138
 21
2.79221
  0
LINE
  8
0
 10
310.138
 20
2.79221
 11
310.154
 21
2.72017
  0
LINE
  8
0
 10
310.154
 20
2.72017
 11
310.166
 21
2.64726
  0
LINE
  8
0
 10
310.166
 20
2.64726
 11
310.173
 21
2.57378
  0
LINE
  8
0
 10
310.173
 20
2.57378
 11
310.175
 21
2.5
  0
LINE
  8
0
 10
310.175
 20
2.5
 11
310.173
 21
2.42621
  0
LINE
  8
0
 10
310.173
 20
2.42621
 11
310.166
 21
2.35272
  0
LINE
  8
0
 10
310.166
 20
2.35272
 11
310.154
 21
2.27982
  0
LINE
  8
0
 10
310.154
 20
2.27982
 11
310.138
 21
2.20778
  0
LINE
  8
0
 10
310.138
 20
2.20778
 11
310.117
 21
2.1369
  0
LINE
  8
0
 10
310.117
 20
2.1369
 11
310.092
 21
2.06744
  0
LINE
  8
0
 10
310.092
 20
2.06744
 11
310.063
 21
1.99969
  0
LINE
  8
0
 10
310.063
 20
1.99969
 11
310.03
 21
1.93393
  0
LINE
  8
0
 10
310.03
 20
1.93393
 11
309.992
 21
1.87039
  0
LINE
  8
0
 10
309.992
 20
1.87039
 11
309.951
 21
1.80934
  0
LINE
  8
0
 10
309.951
 20
1.80934
 11
309.905
 21
1.75102
  0
LINE
  8
0
 10
309.905
 20
1.75102
 11
309.857
 21
1.69565
  0
LINE
  8
0
 10
309.857
 20
1.69565
 11
309.804
 21
1.64345
  0
LINE
  8
0
 10
309.804
 20
1.64345
 11
309.749
 21
1.59464
  0
LINE
  8
0
 10
309.749
 20
1.59464
 11
309.691
 21
1.54939
  0
LINE
  8
0
 10
309.691
 20
1.54939
 11
309.63
 21
1.5079
  0
LINE
  8
0
 10
309.63
 20
1.5079
 11
309.566
 21
1.47034
  0
LINE
  8
0
 10
309.566
 20
1.47034
 11
309.5
 21
1.43681
  0
LINE
  8
0
 10
309.5
 20
1.43681
 11
309.433
 21
1.4075
  0
LINE
  8
0
 10
309.433
 20
1.4075
 11
309.363
 21
1.38251
  0
LINE
  8
0
 10
309.363
 20
1.38251
 11
309.292
 21
1.36191
  0
LINE
  8
0
 10
309.292
 20
1.36191
 11
309.22
 21
1.34581
  0
LINE
  8
0
 10
309.22
 20
1.34581
 11
309.147
 21
1.33426
  0
LINE
  8
0
 10
309.147
 20
1.33426
 11
309.074
 21
1.32732
  0
LINE
  8
0
 10
309.074
 20
1.32732
 11
309
 21
1.325
  0
LINE
  8
0
 10
309
 20
1.325
 11
308.926
 21
1.32732
  0
ENDSEC
  0
SECTION
  2
OBJECTS
  0
DICTIONARY
  0
ENDSEC
  0
EOF
