  0
SECTION
  2
BLOCKS
  0
ENDSEC
  0
SECTION
  2
ENTITIES
  0
LINE
  8
0
 10
21.1564
 20
-10.5782
 11
41.844
 21
-3.13023
  0
LINE
  8
0
 10
41.844
 20
-3.13023
 11
62.9585
 21
3.0041
  0
LINE
  8
0
 10
62.9585
 20
3.0041
 11
84.4165
 21
7.80054
  0
LINE
  8
0
 10
84.4165
 20
7.80054
 11
106.133
 21
11.2401
  0
LINE
  8
0
 10
106.133
 20
11.2401
 11
128.023
 21
13.3093
  0
LINE
  8
0
 10
128.023
 20
13.3093
 11
150
 21
14
  0
LINE
  8
0
 10
150
 20
14
 11
171.977
 21
13.3093
  0
LINE
  8
0
 10
171.977
 20
13.3093
 11
193.867
 21
11.2401
  0
LINE
  8
0
 10
193.867
 20
11.2401
 11
215.583
 21
7.80054
  0
LINE
  8
0
 10
215.583
 20
7.80054
 11
237.041
 21
3.0041
  0
LINE
  8
0
 10
237.041
 20
3.0041
 11
258.156
 21
-3.13023
  0
LINE
  8
0
 10
258.156
 20
-3.13023
 11
278.844
 21
-10.5782
  0
LINE
  8
0
 10
278.844
 20
-10.5782
 11
291.373
 21
-16
  0
LINE
  8
0
 10
291.373
 20
-16
 11
309
 21
-16
  0
LINE
  8
0
 10
309
 20
-16
 11
309
 21
11.2744
  0
LINE
  8
0
 10
309
 20
11.2744
 11
297.352
 21
19.1902
  0
LINE
  8
0
 10
297.352
 20
19.1902
 11
282.482
 21
27.9843
  0
LINE
  8
0
 10
282.482
 20
27.9843
 11
267.089
 21
35.8274
  0
LINE
  8
0
 10
267.089
 20
35.8274
 11
251.234
 21
42.6885
  0
LINE
  8
0
 10
251.234
 20
42.6885
 11
234.98
 21
48.5405
  0
LINE
  8
0
 10
234.98
 20
48.5405
 11
218.39
 21
53.3604
  0
LINE
  8
0
 10
218.39
 20
53.3604
 11
201.53
 21
57.129
  0
LINE
  8
0
 10
201.53
 20
57.129
 11
184.467
 21
59.8315
  0
LINE
  8
0
 10
184.467
 20
59.8315
 11
167.267
 21
61.4573
  0
LINE
  8
0
 10
167.267
 20
61.4573
 11
150
 21
62
  0
LINE
  8
0
 10
150
 20
62
 11
132.733
 21
61.4573
  0
LINE
  8
0
 10
132.733
 20
61.4573
 11
115.533
 21
59.8315
  0
LINE
  8
0
 10
115.533
 20
59.8315
 11
98.4701
 21
57.129
  0
LINE
  8
0
 10
98.4701
 20
57.129
 11
81.6103
 21
53.3604
  0
LINE
  8
0
 10
81.6103
 20
53.3604
 11
65.0203
 21
48.5405
  0
LINE
  8
0
 10
65.0203
 20
48.5405
 11
48.7657
 21
42.6885
  0
LINE
  8
0
 10
48.7657
 20
42.6885
 11
32.9107
 21
35.8274
  0
LINE
  8
0
 10
32.9107
 20
35.8274
 11
17.5177
 21
27.9843
  0
LINE
  8
0
 10
17.5177
 20
27.9843
 11
2.64763
 21
19.1902
  0
LINE
  8
0
 10
2.64763
 20
19.1902
 11
-9
 21
11.2744
  0
LINE
  8
0
 10
-9
 20
11.2744
 11
-9
 21
-16
  0
LINE
  8
0
 10
-9
 20
-16
 11
8.62743
 21
-16
  0
LINE
  8
0
 10
8.62743
 20
-16
 11
21.1564
 21
-10.5782
  0
LINE
  8
0
 10
134.411
 20
55.0778
 11
134.321
 21
55.0862
  0
LINE
  8
0
 10
134.321
 20
55.0862
 11
134.233
 21
55.1002
  0
LINE
  8
0
 10
134.233
 20
55.1002
 11
134.146
 21
55.1198
  0
LINE
  8
0
 10
134.146
 20
55.1198
 11
134.06
 21
55.1447
  0
LINE
  8
0
 10
134.06
 20
55.1447
 11
133.975
 21
55.1751
  0
LINE
  8
0
 10
133.975
 20
55.1751
 11
133.893
 21
55.2106
  0
LINE
  8
0
 10
133.893
 20
55.2106
 11
133.814
 21
55.2513
  0
LINE
  8
0
 10
133.814
 20
55.2513
 11
133.736
 21
55.2968
  0
LINE
  8
0
 10
133.736
 20
55.2968
 11
133.662
 21
55.3471
  0
LINE
  8
0
 10
133.662
 20
55.3471
 11
133.592
 21
55.402
  0
LINE
  8
0
 10
133.592
 20
55.402
 11
133.525
 21
55.4612
  0
LINE
  8
0
 10
133.525
 20
55.4612
 11
133.461
 21
55.5245
  0
LINE
  8
0
 10
133.461
 20
55.5245
 11
133.402
 21
55.5917
  0
LINE
  8
0
 10
133.402
 20
55.5917
 11
133.347
 21
55.6624
  0
LINE
  8
0
 10
133.347
 20
55.6624
 11
133.297
 21
55.7364
  0
LINE
  8
0
 10
133.297
 20
55.7364
 11
133.251
 21
55.8135
  0
LINE
  8
0
 10
133.251
 20
55.8135
 11
133.211
 21
55.8932
  0
LINE
  8
0
 10
133.211
 20
55.8932
 11
133.175
 21
55.9754
  0
LINE
  8
0
 10
133.175
 20
55.9754
 11
133.145
 21
56.0596
  0
LINE
  8
0
 10
133.145
 20
56.0596
 11
133.12
 21
56.1456
  0
LINE
  8
0
 10
133.12
 20
56.1456
 11
133.1
 21
56.233
  0
LINE
  8
0
 10
133.1
 20
56.233
 11
133.086
 21
56.3214
  0
LINE
  8
0
 10
133.086
 20
56.3214
 11
133.078
 21
56.4105
  0
LINE
  8
0
 10
133.078
 20
56.4105
 11
133.075
 21
56.5
  0
LINE
  8
0
 10
133.075
 20
56.5
 11
133.078
 21
56.5895
  0
LINE
  8
0
 10
133.078
 20
56.5895
 11
133.086
 21
56.6786
  0
LINE
  8
0
 10
133.086
 20
56.6786
 11
133.1
 21
56.767
  0
LINE
  8
0
 10
133.1
 20
56.767
 11
133.12
 21
56.8544
  0
LINE
  8
0
 10
133.12
 20
56.8544
 11
133.145
 21
56.9403
  0
LINE
  8
0
 10
133.145
 20
56.9403
 11
133.175
 21
57.0246
  0
LINE
  8
0
 10
133.175
 20
57.0246
 11
133.211
 21
57.1067
  0
LINE
  8
0
 10
133.211
 20
57.1067
 11
133.251
 21
57.1865
  0
LINE
  8
0
 10
133.251
 20
57.1865
 11
133.297
 21
57.2635
  0
LINE
  8
0
 10
133.297
 20
57.2635
 11
133.347
 21
57.3376
  0
LINE
  8
0
 10
133.347
 20
57.3376
 11
133.402
 21
57.4083
  0
LINE
  8
0
 10
133.402
 20
57.4083
 11
133.461
 21
57.4755
  0
LINE
  8
0
 10
133.461
 20
57.4755
 11
133.525
 21
57.5388
  0
LINE
  8
0
 10
133.525
 20
57.5388
 11
133.592
 21
57.598
  0
LINE
  8
0
 10
133.592
 20
57.598
 11
133.662
 21
57.6528
  0
LINE
  8
0
 10
133.662
 20
57.6528
 11
133.736
 21
57.7032
  0
LINE
  8
0
 10
133.736
 20
57.7032
 11
133.814
 21
57.7487
  0
LINE
  8
0
 10
133.814
 20
57.7487
 11
133.893
 21
57.7894
  0
LINE
  8
0
 10
133.893
 20
57.7894
 11
133.975
 21
57.8249
  0
LINE
  8
0
 10
133.975
 20
57.8249
 11
134.06
 21
57.8553
  0
LINE
  8
0
 10
134.06
 20
57.8553
 11
134.146
 21
57.8802
  0
LINE
  8
0
 10
134.146
 20
57.8802
 11
134.233
 21
57.8997
  0
LINE
  8
0
 10
134.233
 20
57.8997
 11
134.321
 21
57.9138
  0
LINE
  8
0
 10
134.321
 20
57.9138
 11
134.411
 21
57.9222
  0
LINE
  8
0
 10
134.411
 20
57.9222
 11
134.5
 21
57.925
  0
LINE
  8
0
 10
134.5
 20
57.925
 11
134.589
 21
57.9222
  0
LINE
  8
0
 10
134.589
 20
57.9222
 11
134.679
 21
57.9138
  0
LINE
  8
0
 10
134.679
 20
57.9138
 11
134.767
 21
57.8997
  0
LINE
  8
0
 10
134.767
 20
57.8997
 11
134.854
 21
57.8802
  0
LINE
  8
0
 10
134.854
 20
57.8802
 11
134.94
 21
57.8553
  0
LINE
  8
0
 10
134.94
 20
57.8553
 11
135.025
 21
57.8249
  0
LINE
  8
0
 10
135.025
 20
57.8249
 11
135.107
 21
57.7894
  0
LINE
  8
0
 10
135.107
 20
57.7894
 11
135.187
 21
57.7487
  0
LINE
  8
0
 10
135.187
 20
57.7487
 11
135.264
 21
57.7032
  0
LINE
  8
0
 10
135.264
 20
57.7032
 11
135.338
 21
57.6528
  0
LINE
  8
0
 10
135.338
 20
57.6528
 11
135.408
 21
57.598
  0
LINE
  8
0
 10
135.408
 20
57.598
 11
135.475
 21
57.5388
  0
LINE
  8
0
 10
135.475
 20
57.5388
 11
135.539
 21
57.4755
  0
LINE
  8
0
 10
135.539
 20
57.4755
 11
135.598
 21
57.4083
  0
LINE
  8
0
 10
135.598
 20
57.4083
 11
135.653
 21
57.3376
  0
LINE
  8
0
 10
135.653
 20
57.3376
 11
135.703
 21
57.2635
  0
LINE
  8
0
 10
135.703
 20
57.2635
 11
135.749
 21
57.1865
  0
LINE
  8
0
 10
135.749
 20
57.1865
 11
135.789
 21
57.1067
  0
LINE
  8
0
 10
135.789
 20
57.1067
 11
135.825
 21
57.0246
  0
LINE
  8
0
 10
135.825
 20
57.0246
 11
135.855
 21
56.9403
  0
LINE
  8
0
 10
135.855
 20
56.9403
 11
135.88
 21
56.8544
  0
LINE
  8
0
 10
135.88
 20
56.8544
 11
135.9
 21
56.767
  0
LINE
  8
0
 10
135.9
 20
56.767
 11
135.914
 21
56.6786
  0
LINE
  8
0
 10
135.914
 20
56.6786
 11
135.922
 21
56.5895
  0
LINE
  8
0
 10
135.922
 20
56.5895
 11
135.925
 21
56.5
  0
LINE
  8
0
 10
135.925
 20
56.5
 11
135.922
 21
56.4105
  0
LINE
  8
0
 10
135.922
 20
56.4105
 11
135.914
 21
56.3214
  0
LINE
  8
0
 10
135.914
 20
56.3214
 11
135.9
 21
56.233
  0
LINE
  8
0
 10
135.9
 20
56.233
 11
135.88
 21
56.1456
  0
LINE
  8
0
 10
135.88
 20
56.1456
 11
135.855
 21
56.0596
  0
LINE
  8
0
 10
135.855
 20
56.0596
 11
135.825
 21
55.9754
  0
LINE
  8
0
 10
135.825
 20
55.9754
 11
135.789
 21
55.8932
  0
LINE
  8
0
 10
135.789
 20
55.8932
 11
135.749
 21
55.8135
  0
LINE
  8
0
 10
135.749
 20
55.8135
 11
135.703
 21
55.7364
  0
LINE
  8
0
 10
135.703
 20
55.7364
 11
135.653
 21
55.6624
  0
LINE
  8
0
 10
135.653
 20
55.6624
 11
135.598
 21
55.5917
  0
LINE
  8
0
 10
135.598
 20
55.5917
 11
135.539
 21
55.5245
  0
LINE
  8
0
 10
135.539
 20
55.5245
 11
135.475
 21
55.4612
  0
LINE
  8
0
 10
135.475
 20
55.4612
 11
135.408
 21
55.402
  0
LINE
  8
0
 10
135.408
 20
55.402
 11
135.338
 21
55.3471
  0
LINE
  8
0
 10
135.338
 20
55.3471
 11
135.264
 21
55.2968
  0
LINE
  8
0
 10
135.264
 20
55.2968
 11
135.187
 21
55.2513
  0
LINE
  8
0
 10
135.187
 20
55.2513
 11
135.107
 21
55.2106
  0
LINE
  8
0
 10
135.107
 20
55.2106
 11
135.025
 21
55.1751
  0
LINE
  8
0
 10
135.025
 20
55.1751
 11
134.94
 21
55.1447
  0
LINE
  8
0
 10
134.94
 20
55.1447
 11
134.854
 21
55.1198
  0
LINE
  8
0
 10
134.854
 20
55.1198
 11
134.767
 21
55.1002
  0
LINE
  8
0
 10
134.767
 20
55.1002
 11
134.679
 21
55.0862
  0
LINE
  8
0
 10
134.679
 20
55.0862
 11
134.589
 21
55.0778
  0
LINE
  8
0
 10
134.589
 20
55.0778
 11
134.5
 21
55.075
  0
LINE
  8
0
 10
134.5
 20
55.075
 11
134.411
 21
55.0778
  0
LINE
  8
0
 10
165.411
 20
55.0778
 11
165.321
 21
55.0862
  0
LINE
  8
0
 10
165.321
 20
55.0862
 11
165.233
 21
55.1002
  0
LINE
  8
0
 10
165.233
 20
55.1002
 11
165.146
 21
55.1198
  0
LINE
  8
0
 10
165.146
 20
55.1198
 11
165.06
 21
55.1447
  0
LINE
  8
0
 10
165.06
 20
55.1447
 11
164.975
 21
55.1751
  0
LINE
  8
0
 10
164.975
 20
55.1751
 11
164.893
 21
55.2106
  0
LINE
  8
0
 10
164.893
 20
55.2106
 11
164.813
 21
55.2513
  0
LINE
  8
0
 10
164.813
 20
55.2513
 11
164.736
 21
55.2968
  0
LINE
  8
0
 10
164.736
 20
55.2968
 11
164.662
 21
55.3471
  0
LINE
  8
0
 10
164.662
 20
55.3471
 11
164.592
 21
55.402
  0
LINE
  8
0
 10
164.592
 20
55.402
 11
164.525
 21
55.4612
  0
LINE
  8
0
 10
164.525
 20
55.4612
 11
164.461
 21
55.5245
  0
LINE
  8
0
 10
164.461
 20
55.5245
 11
164.402
 21
55.5917
  0
LINE
  8
0
 10
164.402
 20
55.5917
 11
164.347
 21
55.6624
  0
LINE
  8
0
 10
164.347
 20
55.6624
 11
164.297
 21
55.7364
  0
LINE
  8
0
 10
164.297
 20
55.7364
 11
164.251
 21
55.8135
  0
LINE
  8
0
 10
164.251
 20
55.8135
 11
164.211
 21
55.8932
  0
LINE
  8
0
 10
164.211
 20
55.8932
 11
164.175
 21
55.9754
  0
LINE
  8
0
 10
164.175
 20
55.9754
 11
164.145
 21
56.0596
  0
LINE
  8
0
 10
164.145
 20
56.0596
 11
164.12
 21
56.1456
  0
LINE
  8
0
 10
164.12
 20
56.1456
 11
164.1
 21
56.233
  0
LINE
  8
0
 10
164.1
 20
56.233
 11
164.086
 21
56.3214
  0
LINE
  8
0
 10
164.086
 20
56.3214
 11
164.078
 21
56.4105
  0
LINE
  8
0
 10
164.078
 20
56.4105
 11
164.075
 21
56.5
  0
LINE
  8
0
 10
164.075
 20
56.5
 11
164.078
 21
56.5895
  0
LINE
  8
0
 10
164.078
 20
56.5895
 11
164.086
 21
56.6786
  0
LINE
  8
0
 10
164.086
 20
56.6786
 11
164.1
 21
56.767
  0
LINE
  8
0
 10
164.1
 20
56.767
 11
164.12
 21
56.8544
  0
LINE
  8
0
 10
164.12
 20
56.8544
 11
164.145
 21
56.9403
  0
LINE
  8
0
 10
164.145
 20
56.9403
 11
164.175
 21
57.0246
  0
LINE
  8
0
 10
164.175
 20
57.0246
 11
164.211
 21
57.1067
  0
LINE
  8
0
 10
164.211
 20
57.1067
 11
164.251
 21
57.1865
  0
LINE
  8
0
 10
164.251
 20
57.1865
 11
164.297
 21
57.2635
  0
LINE
  8
0
 10
164.297
 20
57.2635
 11
164.347
 21
57.3376
  0
LINE
  8
0
 10
164.347
 20
57.3376
 11
164.402
 21
57.4083
  0
LINE
  8
0
 10
164.402
 20
57.4083
 11
164.461
 21
57.4755
  0
LINE
  8
0
 10
164.461
 20
57.4755
 11
164.525
 21
57.5388
  0
LINE
  8
0
 10
164.525
 20
57.5388
 11
164.592
 21
57.598
  0
LINE
  8
0
 10
164.592
 20
57.598
 11
164.662
 21
57.6528
  0
LINE
  8
0
 10
164.662
 20
57.6528
 11
164.736
 21
57.7032
  0
LINE
  8
0
 10
164.736
 20
57.7032
 11
164.813
 21
57.7487
  0
LINE
  8
0
 10
164.813
 20
57.7487
 11
164.893
 21
57.7894
  0
LINE
  8
0
 10
164.893
 20
57.7894
 11
164.975
 21
57.8249
  0
LINE
  8
0
 10
164.975
 20
57.8249
 11
165.06
 21
57.8553
  0
LINE
  8
0
 10
165.06
 20
57.8553
 11
165.146
 21
57.8802
  0
LINE
  8
0
 10
165.146
 20
57.8802
 11
165.233
 21
57.8997
  0
LINE
  8
0
 10
165.233
 20
57.8997
 11
165.321
 21
57.9138
  0
LINE
  8
0
 10
165.321
 20
57.9138
 11
165.411
 21
57.9222
  0
LINE
  8
0
 10
165.411
 20
57.9222
 11
165.5
 21
57.925
  0
LINE
  8
0
 10
165.5
 20
57.925
 11
165.589
 21
57.9222
  0
LINE
  8
0
 10
165.589
 20
57.9222
 11
165.679
 21
57.9138
  0
LINE
  8
0
 10
165.679
 20
57.9138
 11
165.767
 21
57.8997
  0
LINE
  8
0
 10
165.767
 20
57.8997
 11
165.854
 21
57.8802
  0
LINE
  8
0
 10
165.854
 20
57.8802
 11
165.94
 21
57.8553
  0
LINE
  8
0
 10
165.94
 20
57.8553
 11
166.025
 21
57.8249
  0
LINE
  8
0
 10
166.025
 20
57.8249
 11
166.107
 21
57.7894
  0
LINE
  8
0
 10
166.107
 20
57.7894
 11
166.186
 21
57.7487
  0
LINE
  8
0
 10
166.186
 20
57.7487
 11
166.264
 21
57.7032
  0
LINE
  8
0
 10
166.264
 20
57.7032
 11
166.338
 21
57.6528
  0
LINE
  8
0
 10
166.338
 20
57.6528
 11
166.408
 21
57.598
  0
LINE
  8
0
 10
166.408
 20
57.598
 11
166.475
 21
57.5388
  0
LINE
  8
0
 10
166.475
 20
57.5388
 11
166.539
 21
57.4755
  0
LINE
  8
0
 10
166.539
 20
57.4755
 11
166.598
 21
57.4083
  0
LINE
  8
0
 10
166.598
 20
57.4083
 11
166.653
 21
57.3376
  0
LINE
  8
0
 10
166.653
 20
57.3376
 11
166.703
 21
57.2635
  0
LINE
  8
0
 10
166.703
 20
57.2635
 11
166.749
 21
57.1865
  0
LINE
  8
0
 10
166.749
 20
57.1865
 11
166.789
 21
57.1067
  0
LINE
  8
0
 10
166.789
 20
57.1067
 11
166.825
 21
57.0246
  0
LINE
  8
0
 10
166.825
 20
57.0246
 11
166.855
 21
56.9403
  0
LINE
  8
0
 10
166.855
 20
56.9403
 11
166.88
 21
56.8544
  0
LINE
  8
0
 10
166.88
 20
56.8544
 11
166.9
 21
56.767
  0
LINE
  8
0
 10
166.9
 20
56.767
 11
166.914
 21
56.6786
  0
LINE
  8
0
 10
166.914
 20
56.6786
 11
166.922
 21
56.5895
  0
LINE
  8
0
 10
166.922
 20
56.5895
 11
166.925
 21
56.5
  0
LINE
  8
0
 10
166.925
 20
56.5
 11
166.922
 21
56.4105
  0
LINE
  8
0
 10
166.922
 20
56.4105
 11
166.914
 21
56.3214
  0
LINE
  8
0
 10
166.914
 20
56.3214
 11
166.9
 21
56.233
  0
LINE
  8
0
 10
166.9
 20
56.233
 11
166.88
 21
56.1456
  0
LINE
  8
0
 10
166.88
 20
56.1456
 11
166.855
 21
56.0596
  0
LINE
  8
0
 10
166.855
 20
56.0596
 11
166.825
 21
55.9754
  0
LINE
  8
0
 10
166.825
 20
55.9754
 11
166.789
 21
55.8932
  0
LINE
  8
0
 10
166.789
 20
55.8932
 11
166.749
 21
55.8135
  0
LINE
  8
0
 10
166.749
 20
55.8135
 11
166.703
 21
55.7364
  0
LINE
  8
0
 10
166.703
 20
55.7364
 11
166.653
 21
55.6624
  0
LINE
  8
0
 10
166.653
 20
55.6624
 11
166.598
 21
55.5917
  0
LINE
  8
0
 10
166.598
 20
55.5917
 11
166.539
 21
55.5245
  0
LINE
  8
0
 10
166.539
 20
55.5245
 11
166.475
 21
55.4612
  0
LINE
  8
0
 10
166.475
 20
55.4612
 11
166.408
 21
55.402
  0
LINE
  8
0
 10
166.408
 20
55.402
 11
166.338
 21
55.3471
  0
LINE
  8
0
 10
166.338
 20
55.3471
 11
166.264
 21
55.2968
  0
LINE
  8
0
 10
166.264
 20
55.2968
 11
166.186
 21
55.2513
  0
LINE
  8
0
 10
166.186
 20
55.2513
 11
166.107
 21
55.2106
  0
LINE
  8
0
 10
166.107
 20
55.2106
 11
166.025
 21
55.1751
  0
LINE
  8
0
 10
166.025
 20
55.1751
 11
165.94
 21
55.1447
  0
LINE
  8
0
 10
165.94
 20
55.1447
 11
165.854
 21
55.1198
  0
LINE
  8
0
 10
165.854
 20
55.1198
 11
165.767
 21
55.1002
  0
LINE
  8
0
 10
165.767
 20
55.1002
 11
165.679
 21
55.0862
  0
LINE
  8
0
 10
165.679
 20
55.0862
 11
165.589
 21
55.0778
  0
LINE
  8
0
 10
165.589
 20
55.0778
 11
165.5
 21
55.075
  0
LINE
  8
0
 10
165.5
 20
55.075
 11
165.411
 21
55.0778
  0
LINE
  8
0
 10
149.278
 20
29.5227
 11
148.559
 21
29.5907
  0
LINE
  8
0
 10
148.559
 20
29.5907
 11
147.845
 21
29.7037
  0
LINE
  8
0
 10
147.845
 20
29.7037
 11
147.14
 21
29.8613
  0
LINE
  8
0
 10
147.14
 20
29.8613
 11
146.446
 21
30.0629
  0
LINE
  8
0
 10
146.446
 20
30.0629
 11
145.767
 21
30.3076
  0
LINE
  8
0
 10
145.767
 20
30.3076
 11
145.104
 21
30.5945
  0
LINE
  8
0
 10
145.104
 20
30.5945
 11
144.46
 21
30.9225
  0
LINE
  8
0
 10
144.46
 20
30.9225
 11
143.838
 21
31.2902
  0
LINE
  8
0
 10
143.838
 20
31.2902
 11
143.24
 21
31.6963
  0
LINE
  8
0
 10
143.24
 20
31.6963
 11
142.67
 21
32.1391
  0
LINE
  8
0
 10
142.67
 20
32.1391
 11
142.128
 21
32.6169
  0
LINE
  8
0
 10
142.128
 20
32.6169
 11
141.617
 21
33.1277
  0
LINE
  8
0
 10
141.617
 20
33.1277
 11
141.139
 21
33.6696
  0
LINE
  8
0
 10
141.139
 20
33.6696
 11
140.696
 21
34.2405
  0
LINE
  8
0
 10
140.696
 20
34.2405
 11
140.29
 21
34.838
  0
LINE
  8
0
 10
140.29
 20
34.838
 11
139.922
 21
35.4598
  0
LINE
  8
0
 10
139.922
 20
35.4598
 11
139.594
 21
36.1035
  0
LINE
  8
0
 10
139.594
 20
36.1035
 11
139.308
 21
36.7666
  0
LINE
  8
0
 10
139.308
 20
36.7666
 11
139.063
 21
37.4463
  0
LINE
  8
0
 10
139.063
 20
37.4463
 11
138.861
 21
38.1401
  0
LINE
  8
0
 10
138.861
 20
38.1401
 11
138.704
 21
38.8451
  0
LINE
  8
0
 10
138.704
 20
38.8451
 11
138.591
 21
39.5587
  0
LINE
  8
0
 10
138.591
 20
39.5587
 11
138.523
 21
40.2779
  0
LINE
  8
0
 10
138.523
 20
40.2779
 11
138.5
 21
41
  0
LINE
  8
0
 10
138.5
 20
41
 11
138.523
 21
41.7221
  0
LINE
  8
0
 10
138.523
 20
41.7221
 11
138.591
 21
42.4413
  0
LINE
  8
0
 10
138.591
 20
42.4413
 11
138.704
 21
43.1549
  0
LINE
  8
0
 10
138.704
 20
43.1549
 11
138.861
 21
43.8599
  0
LINE
  8
0
 10
138.861
 20
43.8599
 11
139.063
 21
44.5537
  0
LINE
  8
0
 10
139.063
 20
44.5537
 11
139.308
 21
45.2334
  0
LINE
  8
0
 10
139.308
 20
45.2334
 11
139.594
 21
45.8965
  0
LINE
  8
0
 10
139.594
 20
45.8965
 11
139.922
 21
46.5402
  0
LINE
  8
0
 10
139.922
 20
46.5402
 11
140.29
 21
47.162
  0
LINE
  8
0
 10
140.29
 20
47.162
 11
140.696
 21
47.7595
  0
LINE
  8
0
 10
140.696
 20
47.7595
 11
141.139
 21
48.3304
  0
LINE
  8
0
 10
141.139
 20
48.3304
 11
141.617
 21
48.8723
  0
LINE
  8
0
 10
141.617
 20
48.8723
 11
142.128
 21
49.3831
  0
LINE
  8
0
 10
142.128
 20
49.3831
 11
142.67
 21
49.8609
  0
LINE
  8
0
 10
142.67
 20
49.8609
 11
143.24
 21
50.3037
  0
LINE
  8
0
 10
143.24
 20
50.3037
 11
143.838
 21
50.7098
  0
LINE
  8
0
 10
143.838
 20
50.7098
 11
144.46
 21
51.0775
  0
LINE
  8
0
 10
144.46
 20
51.0775
 11
145.104
 21
51.4055
  0
LINE
  8
0
 10
145.104
 20
51.4055
 11
145.767
 21
51.6924
  0
LINE
  8
0
 10
145.767
 20
51.6924
 11
146.446
 21
51.9371
  0
LINE
  8
0
 10
146.446
 20
51.9371
 11
147.14
 21
52.1387
  0
LINE
  8
0
 10
147.14
 20
52.1387
 11
147.845
 21
52.2963
  0
LINE
  8
0
 10
147.845
 20
52.2963
 11
148.559
 21
52.4093
  0
LINE
  8
0
 10
148.559
 20
52.4093
 11
149.278
 21
52.4773
  0
LINE
  8
0
 10
149.278
 20
52.4773
 11
150
 21
52.5
  0
LINE
  8
0
 10
150
 20
52.5
 11
150.722
 21
52.4773
  0
LINE
  8
0
 10
150.722
 20
52.4773
 11
151.441
 21
52.4093
  0
LINE
  8
0
 10
151.441
 20
52.4093
 11
152.155
 21
52.2963
  0
LINE
  8
0
 10
152.155
 20
52.2963
 11
152.86
 21
52.1387
  0
LINE
  8
0
 10
152.86
 20
52.1387
 11
153.554
 21
51.9371
  0
LINE
  8
0
 10
153.554
 20
51.9371
 11
154.233
 21
51.6924
  0
LINE
  8
0
 10
154.233
 20
51.6924
 11
154.896
 21
51.4055
  0
LINE
  8
0
 10
154.896
 20
51.4055
 11
155.54
 21
51.0775
  0
LINE
  8
0
 10
155.54
 20
51.0775
 11
156.162
 21
50.7098
  0
LINE
  8
0
 10
156.162
 20
50.7098
 11
156.76
 21
50.3037
  0
LINE
  8
0
 10
156.76
 20
50.3037
 11
157.33
 21
49.8609
  0
LINE
  8
0
 10
157.33
 20
49.8609
 11
157.872
 21
49.3831
  0
LINE
  8
0
 10
157.872
 20
49.3831
 11
158.383
 21
48.8723
  0
LINE
  8
0
 10
158.383
 20
48.8723
 11
158.861
 21
48.3304
  0
LINE
  8
0
 10
158.861
 20
48.3304
 11
159.304
 21
47.7595
  0
LINE
  8
0
 10
159.304
 20
47.7595
 11
159.71
 21
47.162
  0
LINE
  8
0
 10
159.71
 20
47.162
 11
160.078
 21
46.5402
  0
LINE
  8
0
 10
160.078
 20
46.5402
 11
160.406
 21
45.8965
  0
LINE
  8
0
 10
160.406
 20
45.8965
 11
160.692
 21
45.2334
  0
LINE
  8
0
 10
160.692
 20
45.2334
 11
160.937
 21
44.5537
  0
LINE
  8
0
 10
160.937
 20
44.5537
 11
161.139
 21
43.8599
  0
LINE
  8
0
 10
161.139
 20
43.8599
 11
161.296
 21
43.1549
  0
LINE
  8
0
 10
161.296
 20
43.1549
 11
161.409
 21
42.4413
  0
LINE
  8
0
 10
161.409
 20
42.4413
 11
161.477
 21
41.7221
  0
LINE
  8
0
 10
161.477
 20
41.7221
 11
161.5
 21
41
  0
LINE
  8
0
 10
161.5
 20
41
 11
161.477
 21
40.2779
  0
LINE
  8
0
 10
161.477
 20
40.2779
 11
161.409
 21
39.5587
  0
LINE
  8
0
 10
161.409
 20
39.5587
 11
161.296
 21
38.8451
  0
LINE
  8
0
 10
161.296
 20
38.8451
 11
161.139
 21
38.1401
  0
LINE
  8
0
 10
161.139
 20
38.1401
 11
160.937
 21
37.4463
  0
LINE
  8
0
 10
160.937
 20
37.4463
 11
160.692
 21
36.7666
  0
LINE
  8
0
 10
160.692
 20
36.7666
 11
160.406
 21
36.1035
  0
LINE
  8
0
 10
160.406
 20
36.1035
 11
160.078
 21
35.4598
  0
LINE
  8
0
 10
160.078
 20
35.4598
 11
159.71
 21
34.838
  0
LINE
  8
0
 10
159.71
 20
34.838
 11
159.304
 21
34.2405
  0
LINE
  8
0
 10
159.304
 20
34.2405
 11
158.861
 21
33.6696
  0
LINE
  8
0
 10
158.861
 20
33.6696
 11
158.383
 21
33.1277
  0
LINE
  8
0
 10
158.383
 20
33.1277
 11
157.872
 21
32.6169
  0
LINE
  8
0
 10
157.872
 20
32.6169
 11
157.33
 21
32.1391
  0
LINE
  8
0
 10
157.33
 20
32.1391
 11
156.76
 21
31.6963
  0
LINE
  8
0
 10
156.76
 20
31.6963
 11
156.162
 21
31.2902
  0
LINE
  8
0
 10
156.162
 20
31.2902
 11
155.54
 21
30.9225
  0
LINE
  8
0
 10
155.54
 20
30.9225
 11
154.896
 21
30.5945
  0
LINE
  8
0
 10
154.896
 20
30.5945
 11
154.233
 21
30.3076
  0
LINE
  8
0
 10
154.233
 20
30.3076
 11
153.554
 21
30.0629
  0
LINE
  8
0
 10
153.554
 20
30.0629
 11
152.86
 21
29.8613
  0
LINE
  8
0
 10
152.86
 20
29.8613
 11
152.155
 21
29.7037
  0
LINE
  8
0
 10
152.155
 20
29.7037
 11
151.441
 21
29.5907
  0
LINE
  8
0
 10
151.441
 20
29.5907
 11
150.722
 21
29.5227
  0
LINE
  8
0
 10
150.722
 20
29.5227
 11
150
 21
29.5
  0
LINE
  8
0
 10
150
 20
29.5
 11
149.278
 21
29.5227
  0
LINE
  8
0
 10
134.411
 20
24.0778
 11
134.321
 21
24.0862
  0
LINE
  8
0
 10
134.321
 20
24.0862
 11
134.233
 21
24.1003
  0
LINE
  8
0
 10
134.233
 20
24.1003
 11
134.146
 21
24.1198
  0
LINE
  8
0
 10
134.146
 20
24.1198
 11
134.06
 21
24.1447
  0
LINE
  8
0
 10
134.06
 20
24.1447
 11
133.975
 21
24.1751
  0
LINE
  8
0
 10
133.975
 20
24.1751
 11
133.893
 21
24.2106
  0
LINE
  8
0
 10
133.893
 20
24.2106
 11
133.814
 21
24.2513
  0
LINE
  8
0
 10
133.814
 20
24.2513
 11
133.736
 21
24.2968
  0
LINE
  8
0
 10
133.736
 20
24.2968
 11
133.662
 21
24.3472
  0
LINE
  8
0
 10
133.662
 20
24.3472
 11
133.592
 21
24.402
  0
LINE
  8
0
 10
133.592
 20
24.402
 11
133.525
 21
24.4612
  0
LINE
  8
0
 10
133.525
 20
24.4612
 11
133.461
 21
24.5245
  0
LINE
  8
0
 10
133.461
 20
24.5245
 11
133.402
 21
24.5917
  0
LINE
  8
0
 10
133.402
 20
24.5917
 11
133.347
 21
24.6624
  0
LINE
  8
0
 10
133.347
 20
24.6624
 11
133.297
 21
24.7365
  0
LINE
  8
0
 10
133.297
 20
24.7365
 11
133.251
 21
24.8135
  0
LINE
  8
0
 10
133.251
 20
24.8135
 11
133.211
 21
24.8933
  0
LINE
  8
0
 10
133.211
 20
24.8933
 11
133.175
 21
24.9754
  0
LINE
  8
0
 10
133.175
 20
24.9754
 11
133.145
 21
25.0597
  0
LINE
  8
0
 10
133.145
 20
25.0597
 11
133.12
 21
25.1456
  0
LINE
  8
0
 10
133.12
 20
25.1456
 11
133.1
 21
25.233
  0
LINE
  8
0
 10
133.1
 20
25.233
 11
133.086
 21
25.3214
  0
LINE
  8
0
 10
133.086
 20
25.3214
 11
133.078
 21
25.4105
  0
LINE
  8
0
 10
133.078
 20
25.4105
 11
133.075
 21
25.5
  0
LINE
  8
0
 10
133.075
 20
25.5
 11
133.078
 21
25.5895
  0
LINE
  8
0
 10
133.078
 20
25.5895
 11
133.086
 21
25.6786
  0
LINE
  8
0
 10
133.086
 20
25.6786
 11
133.1
 21
25.767
  0
LINE
  8
0
 10
133.1
 20
25.767
 11
133.12
 21
25.8544
  0
LINE
  8
0
 10
133.12
 20
25.8544
 11
133.145
 21
25.9404
  0
LINE
  8
0
 10
133.145
 20
25.9404
 11
133.175
 21
26.0246
  0
LINE
  8
0
 10
133.175
 20
26.0246
 11
133.211
 21
26.1068
  0
LINE
  8
0
 10
133.211
 20
26.1068
 11
133.251
 21
26.1865
  0
LINE
  8
0
 10
133.251
 20
26.1865
 11
133.297
 21
26.2636
  0
LINE
  8
0
 10
133.297
 20
26.2636
 11
133.347
 21
26.3376
  0
LINE
  8
0
 10
133.347
 20
26.3376
 11
133.402
 21
26.4083
  0
LINE
  8
0
 10
133.402
 20
26.4083
 11
133.461
 21
26.4755
  0
LINE
  8
0
 10
133.461
 20
26.4755
 11
133.525
 21
26.5388
  0
LINE
  8
0
 10
133.525
 20
26.5388
 11
133.592
 21
26.598
  0
LINE
  8
0
 10
133.592
 20
26.598
 11
133.662
 21
26.6529
  0
LINE
  8
0
 10
133.662
 20
26.6529
 11
133.736
 21
26.7032
  0
LINE
  8
0
 10
133.736
 20
26.7032
 11
133.814
 21
26.7487
  0
LINE
  8
0
 10
133.814
 20
26.7487
 11
133.893
 21
26.7894
  0
LINE
  8
0
 10
133.893
 20
26.7894
 11
133.975
 21
26.8249
  0
LINE
  8
0
 10
133.975
 20
26.8249
 11
134.06
 21
26.8553
  0
LINE
  8
0
 10
134.06
 20
26.8553
 11
134.146
 21
26.8802
  0
LINE
  8
0
 10
134.146
 20
26.8802
 11
134.233
 21
26.8998
  0
LINE
  8
0
 10
134.233
 20
26.8998
 11
134.321
 21
26.9138
  0
LINE
  8
0
 10
134.321
 20
26.9138
 11
134.411
 21
26.9222
  0
LINE
  8
0
 10
134.411
 20
26.9222
 11
134.5
 21
26.925
  0
LINE
  8
0
 10
134.5
 20
26.925
 11
134.589
 21
26.9222
  0
LINE
  8
0
 10
134.589
 20
26.9222
 11
134.679
 21
26.9138
  0
LINE
  8
0
 10
134.679
 20
26.9138
 11
134.767
 21
26.8998
  0
LINE
  8
0
 10
134.767
 20
26.8998
 11
134.854
 21
26.8802
  0
LINE
  8
0
 10
134.854
 20
26.8802
 11
134.94
 21
26.8553
  0
LINE
  8
0
 10
134.94
 20
26.8553
 11
135.025
 21
26.8249
  0
LINE
  8
0
 10
135.025
 20
26.8249
 11
135.107
 21
26.7894
  0
LINE
  8
0
 10
135.107
 20
26.7894
 11
135.187
 21
26.7487
  0
LINE
  8
0
 10
135.187
 20
26.7487
 11
135.264
 21
26.7032
  0
LINE
  8
0
 10
135.264
 20
26.7032
 11
135.338
 21
26.6529
  0
LINE
  8
0
 10
135.338
 20
26.6529
 11
135.408
 21
26.598
  0
LINE
  8
0
 10
135.408
 20
26.598
 11
135.475
 21
26.5388
  0
LINE
  8
0
 10
135.475
 20
26.5388
 11
135.539
 21
26.4755
  0
LINE
  8
0
 10
135.539
 20
26.4755
 11
135.598
 21
26.4083
  0
LINE
  8
0
 10
135.598
 20
26.4083
 11
135.653
 21
26.3376
  0
LINE
  8
0
 10
135.653
 20
26.3376
 11
135.703
 21
26.2636
  0
LINE
  8
0
 10
135.703
 20
26.2636
 11
135.749
 21
26.1865
  0
LINE
  8
0
 10
135.749
 20
26.1865
 11
135.789
 21
26.1068
  0
LINE
  8
0
 10
135.789
 20
26.1068
 11
135.825
 21
26.0246
  0
LINE
  8
0
 10
135.825
 20
26.0246
 11
135.855
 21
25.9404
  0
LINE
  8
0
 10
135.855
 20
25.9404
 11
135.88
 21
25.8544
  0
LINE
  8
0
 10
135.88
 20
25.8544
 11
135.9
 21
25.767
  0
LINE
  8
0
 10
135.9
 20
25.767
 11
135.914
 21
25.6786
  0
LINE
  8
0
 10
135.914
 20
25.6786
 11
135.922
 21
25.5895
  0
LINE
  8
0
 10
135.922
 20
25.5895
 11
135.925
 21
25.5
  0
LINE
  8
0
 10
135.925
 20
25.5
 11
135.922
 21
25.4105
  0
LINE
  8
0
 10
135.922
 20
25.4105
 11
135.914
 21
25.3214
  0
LINE
  8
0
 10
135.914
 20
25.3214
 11
135.9
 21
25.233
  0
LINE
  8
0
 10
135.9
 20
25.233
 11
135.88
 21
25.1456
  0
LINE
  8
0
 10
135.88
 20
25.1456
 11
135.855
 21
25.0597
  0
LINE
  8
0
 10
135.855
 20
25.0597
 11
135.825
 21
24.9754
  0
LINE
  8
0
 10
135.825
 20
24.9754
 11
135.789
 21
24.8933
  0
LINE
  8
0
 10
135.789
 20
24.8933
 11
135.749
 21
24.8135
  0
LINE
  8
0
 10
135.749
 20
24.8135
 11
135.703
 21
24.7365
  0
LINE
  8
0
 10
135.703
 20
24.7365
 11
135.653
 21
24.6624
  0
LINE
  8
0
 10
135.653
 20
24.6624
 11
135.598
 21
24.5917
  0
LINE
  8
0
 10
135.598
 20
24.5917
 11
135.539
 21
24.5245
  0
LINE
  8
0
 10
135.539
 20
24.5245
 11
135.475
 21
24.4612
  0
LINE
  8
0
 10
135.475
 20
24.4612
 11
135.408
 21
24.402
  0
LINE
  8
0
 10
135.408
 20
24.402
 11
135.338
 21
24.3472
  0
LINE
  8
0
 10
135.338
 20
24.3472
 11
135.264
 21
24.2968
  0
LINE
  8
0
 10
135.264
 20
24.2968
 11
135.187
 21
24.2513
  0
LINE
  8
0
 10
135.187
 20
24.2513
 11
135.107
 21
24.2106
  0
LINE
  8
0
 10
135.107
 20
24.2106
 11
135.025
 21
24.1751
  0
LINE
  8
0
 10
135.025
 20
24.1751
 11
134.94
 21
24.1447
  0
LINE
  8
0
 10
134.94
 20
24.1447
 11
134.854
 21
24.1198
  0
LINE
  8
0
 10
134.854
 20
24.1198
 11
134.767
 21
24.1003
  0
LINE
  8
0
 10
134.767
 20
24.1003
 11
134.679
 21
24.0862
  0
LINE
  8
0
 10
134.679
 20
24.0862
 11
134.589
 21
24.0778
  0
LINE
  8
0
 10
134.589
 20
24.0778
 11
134.5
 21
24.075
  0
LINE
  8
0
 10
134.5
 20
24.075
 11
134.411
 21
24.0778
  0
LINE
  8
0
 10
165.411
 20
24.0778
 11
165.321
 21
24.0862
  0
LINE
  8
0
 10
165.321
 20
24.0862
 11
165.233
 21
24.1003
  0
LINE
  8
0
 10
165.233
 20
24.1003
 11
165.146
 21
24.1198
  0
LINE
  8
0
 10
165.146
 20
24.1198
 11
165.06
 21
24.1447
  0
LINE
  8
0
 10
165.06
 20
24.1447
 11
164.975
 21
24.1751
  0
LINE
  8
0
 10
164.975
 20
24.1751
 11
164.893
 21
24.2106
  0
LINE
  8
0
 10
164.893
 20
24.2106
 11
164.813
 21
24.2513
  0
LINE
  8
0
 10
164.813
 20
24.2513
 11
164.736
 21
24.2968
  0
LINE
  8
0
 10
164.736
 20
24.2968
 11
164.662
 21
24.3472
  0
LINE
  8
0
 10
164.662
 20
24.3472
 11
164.592
 21
24.402
  0
LINE
  8
0
 10
164.592
 20
24.402
 11
164.525
 21
24.4612
  0
LINE
  8
0
 10
164.525
 20
24.4612
 11
164.461
 21
24.5245
  0
LINE
  8
0
 10
164.461
 20
24.5245
 11
164.402
 21
24.5917
  0
LINE
  8
0
 10
164.402
 20
24.5917
 11
164.347
 21
24.6624
  0
LINE
  8
0
 10
164.347
 20
24.6624
 11
164.297
 21
24.7365
  0
LINE
  8
0
 10
164.297
 20
24.7365
 11
164.251
 21
24.8135
  0
LINE
  8
0
 10
164.251
 20
24.8135
 11
164.211
 21
24.8933
  0
LINE
  8
0
 10
164.211
 20
24.8933
 11
164.175
 21
24.9754
  0
LINE
  8
0
 10
164.175
 20
24.9754
 11
164.145
 21
25.0597
  0
LINE
  8
0
 10
164.145
 20
25.0597
 11
164.12
 21
25.1456
  0
LINE
  8
0
 10
164.12
 20
25.1456
 11
164.1
 21
25.233
  0
LINE
  8
0
 10
164.1
 20
25.233
 11
164.086
 21
25.3214
  0
LINE
  8
0
 10
164.086
 20
25.3214
 11
164.078
 21
25.4105
  0
LINE
  8
0
 10
164.078
 20
25.4105
 11
164.075
 21
25.5
  0
LINE
  8
0
 10
164.075
 20
25.5
 11
164.078
 21
25.5895
  0
LINE
  8
0
 10
164.078
 20
25.5895
 11
164.086
 21
25.6786
  0
LINE
  8
0
 10
164.086
 20
25.6786
 11
164.1
 21
25.767
  0
LINE
  8
0
 10
164.1
 20
25.767
 11
164.12
 21
25.8544
  0
LINE
  8
0
 10
164.12
 20
25.8544
 11
164.145
 21
25.9404
  0
LINE
  8
0
 10
164.145
 20
25.9404
 11
164.175
 21
26.0246
  0
LINE
  8
0
 10
164.175
 20
26.0246
 11
164.211
 21
26.1068
  0
LINE
  8
0
 10
164.211
 20
26.1068
 11
164.251
 21
26.1865
  0
LINE
  8
0
 10
164.251
 20
26.1865
 11
164.297
 21
26.2636
  0
LINE
  8
0
 10
164.297
 20
26.2636
 11
164.347
 21
26.3376
  0
LINE
  8
0
 10
164.347
 20
26.3376
 11
164.402
 21
26.4083
  0
LINE
  8
0
 10
164.402
 20
26.4083
 11
164.461
 21
26.4755
  0
LINE
  8
0
 10
164.461
 20
26.4755
 11
164.525
 21
26.5388
  0
LINE
  8
0
 10
164.525
 20
26.5388
 11
164.592
 21
26.598
  0
LINE
  8
0
 10
164.592
 20
26.598
 11
164.662
 21
26.6529
  0
LINE
  8
0
 10
164.662
 20
26.6529
 11
164.736
 21
26.7032
  0
LINE
  8
0
 10
164.736
 20
26.7032
 11
164.813
 21
26.7487
  0
LINE
  8
0
 10
164.813
 20
26.7487
 11
164.893
 21
26.7894
  0
LINE
  8
0
 10
164.893
 20
26.7894
 11
164.975
 21
26.8249
  0
LINE
  8
0
 10
164.975
 20
26.8249
 11
165.06
 21
26.8553
  0
LINE
  8
0
 10
165.06
 20
26.8553
 11
165.146
 21
26.8802
  0
LINE
  8
0
 10
165.146
 20
26.8802
 11
165.233
 21
26.8998
  0
LINE
  8
0
 10
165.233
 20
26.8998
 11
165.321
 21
26.9138
  0
LINE
  8
0
 10
165.321
 20
26.9138
 11
165.411
 21
26.9222
  0
LINE
  8
0
 10
165.411
 20
26.9222
 11
165.5
 21
26.925
  0
LINE
  8
0
 10
165.5
 20
26.925
 11
165.589
 21
26.9222
  0
LINE
  8
0
 10
165.589
 20
26.9222
 11
165.679
 21
26.9138
  0
LINE
  8
0
 10
165.679
 20
26.9138
 11
165.767
 21
26.8998
  0
LINE
  8
0
 10
165.767
 20
26.8998
 11
165.854
 21
26.8802
  0
LINE
  8
0
 10
165.854
 20
26.8802
 11
165.94
 21
26.8553
  0
LINE
  8
0
 10
165.94
 20
26.8553
 11
166.025
 21
26.8249
  0
LINE
  8
0
 10
166.025
 20
26.8249
 11
166.107
 21
26.7894
  0
LINE
  8
0
 10
166.107
 20
26.7894
 11
166.186
 21
26.7487
  0
LINE
  8
0
 10
166.186
 20
26.7487
 11
166.264
 21
26.7032
  0
LINE
  8
0
 10
166.264
 20
26.7032
 11
166.338
 21
26.6529
  0
LINE
  8
0
 10
166.338
 20
26.6529
 11
166.408
 21
26.598
  0
LINE
  8
0
 10
166.408
 20
26.598
 11
166.475
 21
26.5388
  0
LINE
  8
0
 10
166.475
 20
26.5388
 11
166.539
 21
26.4755
  0
LINE
  8
0
 10
166.539
 20
26.4755
 11
166.598
 21
26.4083
  0
LINE
  8
0
 10
166.598
 20
26.4083
 11
166.653
 21
26.3376
  0
LINE
  8
0
 10
166.653
 20
26.3376
 11
166.703
 21
26.2636
  0
LINE
  8
0
 10
166.703
 20
26.2636
 11
166.749
 21
26.1865
  0
LINE
  8
0
 10
166.749
 20
26.1865
 11
166.789
 21
26.1068
  0
LINE
  8
0
 10
166.789
 20
26.1068
 11
166.825
 21
26.0246
  0
LINE
  8
0
 10
166.825
 20
26.0246
 11
166.855
 21
25.9404
  0
LINE
  8
0
 10
166.855
 20
25.9404
 11
166.88
 21
25.8544
  0
LINE
  8
0
 10
166.88
 20
25.8544
 11
166.9
 21
25.767
  0
LINE
  8
0
 10
166.9
 20
25.767
 11
166.914
 21
25.6786
  0
LINE
  8
0
 10
166.914
 20
25.6786
 11
166.922
 21
25.5895
  0
LINE
  8
0
 10
166.922
 20
25.5895
 11
166.925
 21
25.5
  0
LINE
  8
0
 10
166.925
 20
25.5
 11
166.922
 21
25.4105
  0
LINE
  8
0
 10
166.922
 20
25.4105
 11
166.914
 21
25.3214
  0
LINE
  8
0
 10
166.914
 20
25.3214
 11
166.9
 21
25.233
  0
LINE
  8
0
 10
166.9
 20
25.233
 11
166.88
 21
25.1456
  0
LINE
  8
0
 10
166.88
 20
25.1456
 11
166.855
 21
25.0597
  0
LINE
  8
0
 10
166.855
 20
25.0597
 11
166.825
 21
24.9754
  0
LINE
  8
0
 10
166.825
 20
24.9754
 11
166.789
 21
24.8933
  0
LINE
  8
0
 10
166.789
 20
24.8933
 11
166.749
 21
24.8135
  0
LINE
  8
0
 10
166.749
 20
24.8135
 11
166.703
 21
24.7365
  0
LINE
  8
0
 10
166.703
 20
24.7365
 11
166.653
 21
24.6624
  0
LINE
  8
0
 10
166.653
 20
24.6624
 11
166.598
 21
24.5917
  0
LINE
  8
0
 10
166.598
 20
24.5917
 11
166.539
 21
24.5245
  0
LINE
  8
0
 10
166.539
 20
24.5245
 11
166.475
 21
24.4612
  0
LINE
  8
0
 10
166.475
 20
24.4612
 11
166.408
 21
24.402
  0
LINE
  8
0
 10
166.408
 20
24.402
 11
166.338
 21
24.3472
  0
LINE
  8
0
 10
166.338
 20
24.3472
 11
166.264
 21
24.2968
  0
LINE
  8
0
 10
166.264
 20
24.2968
 11
166.186
 21
24.2513
  0
LINE
  8
0
 10
166.186
 20
24.2513
 11
166.107
 21
24.2106
  0
LINE
  8
0
 10
166.107
 20
24.2106
 11
166.025
 21
24.1751
  0
LINE
  8
0
 10
166.025
 20
24.1751
 11
165.94
 21
24.1447
  0
LINE
  8
0
 10
165.94
 20
24.1447
 11
165.854
 21
24.1198
  0
LINE
  8
0
 10
165.854
 20
24.1198
 11
165.767
 21
24.1003
  0
LINE
  8
0
 10
165.767
 20
24.1003
 11
165.679
 21
24.0862
  0
LINE
  8
0
 10
165.679
 20
24.0862
 11
165.589
 21
24.0778
  0
LINE
  8
0
 10
165.589
 20
24.0778
 11
165.5
 21
24.075
  0
LINE
  8
0
 10
165.5
 20
24.075
 11
165.411
 21
24.0778
  0
LINE
  8
0
 10
304.911
 20
5.5778
 11
304.821
 21
5.58623
  0
LINE
  8
0
 10
304.821
 20
5.58623
 11
304.733
 21
5.60023
  0
LINE
  8
0
 10
304.733
 20
5.60023
 11
304.646
 21
5.61977
  0
LINE
  8
0
 10
304.646
 20
5.61977
 11
304.56
 21
5.64473
  0
LINE
  8
0
 10
304.56
 20
5.64473
 11
304.475
 21
5.67506
  0
LINE
  8
0
 10
304.475
 20
5.67506
 11
304.393
 21
5.71062
  0
LINE
  8
0
 10
304.393
 20
5.71062
 11
304.313
 21
5.75125
  0
LINE
  8
0
 10
304.313
 20
5.75125
 11
304.236
 21
5.79683
  0
LINE
  8
0
 10
304.236
 20
5.79683
 11
304.162
 21
5.84714
  0
LINE
  8
0
 10
304.162
 20
5.84714
 11
304.092
 21
5.90201
  0
LINE
  8
0
 10
304.092
 20
5.90201
 11
304.025
 21
5.96121
  0
LINE
  8
0
 10
304.025
 20
5.96121
 11
303.961
 21
6.02451
  0
LINE
  8
0
 10
303.961
 20
6.02451
 11
303.902
 21
6.09166
  0
LINE
  8
0
 10
303.902
 20
6.09166
 11
303.847
 21
6.1624
  0
LINE
  8
0
 10
303.847
 20
6.1624
 11
303.797
 21
6.23643
  0
LINE
  8
0
 10
303.797
 20
6.23643
 11
303.751
 21
6.31349
  0
LINE
  8
0
 10
303.751
 20
6.31349
 11
303.711
 21
6.39325
  0
LINE
  8
0
 10
303.711
 20
6.39325
 11
303.675
 21
6.47542
  0
LINE
  8
0
 10
303.675
 20
6.47542
 11
303.645
 21
6.55965
  0
LINE
  8
0
 10
303.645
 20
6.55965
 11
303.62
 21
6.64561
  0
LINE
  8
0
 10
303.62
 20
6.64561
 11
303.6
 21
6.73297
  0
LINE
  8
0
 10
303.6
 20
6.73297
 11
303.586
 21
6.8214
  0
LINE
  8
0
 10
303.586
 20
6.8214
 11
303.578
 21
6.91052
  0
LINE
  8
0
 10
303.578
 20
6.91052
 11
303.575
 21
7
  0
LINE
  8
0
 10
303.575
 20
7
 11
303.578
 21
7.08946
  0
LINE
  8
0
 10
303.578
 20
7.08946
 11
303.586
 21
7.17859
  0
LINE
  8
0
 10
303.586
 20
7.17859
 11
303.6
 21
7.26701
  0
LINE
  8
0
 10
303.6
 20
7.26701
 11
303.62
 21
7.35437
  0
LINE
  8
0
 10
303.62
 20
7.35437
 11
303.645
 21
7.44034
  0
LINE
  8
0
 10
303.645
 20
7.44034
 11
303.675
 21
7.52457
  0
LINE
  8
0
 10
303.675
 20
7.52457
 11
303.711
 21
7.60674
  0
LINE
  8
0
 10
303.711
 20
7.60674
 11
303.751
 21
7.68649
  0
LINE
  8
0
 10
303.751
 20
7.68649
 11
303.797
 21
7.76355
  0
LINE
  8
0
 10
303.797
 20
7.76355
 11
303.847
 21
7.83759
  0
LINE
  8
0
 10
303.847
 20
7.83759
 11
303.902
 21
7.90833
  0
LINE
  8
0
 10
303.902
 20
7.90833
 11
303.961
 21
7.97548
  0
LINE
  8
0
 10
303.961
 20
7.97548
 11
304.025
 21
8.03877
  0
LINE
  8
0
 10
304.025
 20
8.03877
 11
304.092
 21
8.09798
  0
LINE
  8
0
 10
304.092
 20
8.09798
 11
304.162
 21
8.15285
  0
LINE
  8
0
 10
304.162
 20
8.15285
 11
304.236
 21
8.20316
  0
LINE
  8
0
 10
304.236
 20
8.20316
 11
304.313
 21
8.24873
  0
LINE
  8
0
 10
304.313
 20
8.24873
 11
304.393
 21
8.28937
  0
LINE
  8
0
 10
304.393
 20
8.28937
 11
304.475
 21
8.32492
  0
LINE
  8
0
 10
304.475
 20
8.32492
 11
304.56
 21
8.35526
  0
LINE
  8
0
 10
304.56
 20
8.35526
 11
304.646
 21
8.38022
  0
LINE
  8
0
 10
304.646
 20
8.38022
 11
304.733
 21
8.39975
  0
LINE
  8
0
 10
304.733
 20
8.39975
 11
304.821
 21
8.41376
  0
LINE
  8
0
 10
304.821
 20
8.41376
 11
304.911
 21
8.42218
  0
LINE
  8
0
 10
304.911
 20
8.42218
 11
305
 21
8.42499
  0
LINE
  8
0
 10
305
 20
8.42499
 11
305.089
 21
8.42218
  0
LINE
  8
0
 10
305.089
 20
8.42218
 11
305.179
 21
8.41376
  0
LINE
  8
0
 10
305.179
 20
8.41376
 11
305.267
 21
8.39975
  0
LINE
  8
0
 10
305.267
 20
8.39975
 11
305.354
 21
8.38022
  0
LINE
  8
0
 10
305.354
 20
8.38022
 11
305.44
 21
8.35526
  0
LINE
  8
0
 10
305.44
 20
8.35526
 11
305.525
 21
8.32492
  0
LINE
  8
0
 10
305.525
 20
8.32492
 11
305.607
 21
8.28937
  0
LINE
  8
0
 10
305.607
 20
8.28937
 11
305.686
 21
8.24873
  0
LINE
  8
0
 10
305.686
 20
8.24873
 11
305.764
 21
8.20316
  0
LINE
  8
0
 10
305.764
 20
8.20316
 11
305.838
 21
8.15285
  0
LINE
  8
0
 10
305.838
 20
8.15285
 11
305.908
 21
8.09798
  0
LINE
  8
0
 10
305.908
 20
8.09798
 11
305.975
 21
8.03877
  0
LINE
  8
0
 10
305.975
 20
8.03877
 11
306.039
 21
7.97548
  0
LINE
  8
0
 10
306.039
 20
7.97548
 11
306.098
 21
7.90833
  0
LINE
  8
0
 10
306.098
 20
7.90833
 11
306.153
 21
7.83759
  0
LINE
  8
0
 10
306.153
 20
7.83759
 11
306.203
 21
7.76355
  0
LINE
  8
0
 10
306.203
 20
7.76355
 11
306.249
 21
7.68649
  0
LINE
  8
0
 10
306.249
 20
7.68649
 11
306.289
 21
7.60674
  0
LINE
  8
0
 10
306.289
 20
7.60674
 11
306.325
 21
7.52457
  0
LINE
  8
0
 10
306.325
 20
7.52457
 11
306.355
 21
7.44034
  0
LINE
  8
0
 10
306.355
 20
7.44034
 11
306.38
 21
7.35437
  0
LINE
  8
0
 10
306.38
 20
7.35437
 11
306.4
 21
7.26701
  0
LINE
  8
0
 10
306.4
 20
7.26701
 11
306.414
 21
7.17859
  0
LINE
  8
0
 10
306.414
 20
7.17859
 11
306.422
 21
7.08946
  0
LINE
  8
0
 10
306.422
 20
7.08946
 11
306.425
 21
7
  0
LINE
  8
0
 10
306.425
 20
7
 11
306.422
 21
6.91052
  0
LINE
  8
0
 10
306.422
 20
6.91052
 11
306.414
 21
6.8214
  0
LINE
  8
0
 10
306.414
 20
6.8214
 11
306.4
 21
6.73297
  0
LINE
  8
0
 10
306.4
 20
6.73297
 11
306.38
 21
6.64561
  0
LINE
  8
0
 10
306.38
 20
6.64561
 11
306.355
 21
6.55965
  0
LINE
  8
0
 10
306.355
 20
6.55965
 11
306.325
 21
6.47542
  0
LINE
  8
0
 10
306.325
 20
6.47542
 11
306.289
 21
6.39325
  0
LINE
  8
0
 10
306.289
 20
6.39325
 11
306.249
 21
6.31349
  0
LINE
  8
0
 10
306.249
 20
6.31349
 11
306.203
 21
6.23643
  0
LINE
  8
0
 10
306.203
 20
6.23643
 11
306.153
 21
6.1624
  0
LINE
  8
0
 10
306.153
 20
6.1624
 11
306.098
 21
6.09166
  0
LINE
  8
0
 10
306.098
 20
6.09166
 11
306.039
 21
6.02451
  0
LINE
  8
0
 10
306.039
 20
6.02451
 11
305.975
 21
5.96121
  0
LINE
  8
0
 10
305.975
 20
5.96121
 11
305.908
 21
5.90201
  0
LINE
  8
0
 10
305.908
 20
5.90201
 11
305.838
 21
5.84714
  0
LINE
  8
0
 10
305.838
 20
5.84714
 11
305.764
 21
5.79683
  0
LINE
  8
0
 10
305.764
 20
5.79683
 11
305.686
 21
5.75125
  0
LINE
  8
0
 10
305.686
 20
5.75125
 11
305.607
 21
5.71062
  0
LINE
  8
0
 10
305.607
 20
5.71062
 11
305.525
 21
5.67506
  0
LINE
  8
0
 10
305.525
 20
5.67506
 11
305.44
 21
5.64473
  0
LINE
  8
0
 10
305.44
 20
5.64473
 11
305.354
 21
5.61977
  0
LINE
  8
0
 10
305.354
 20
5.61977
 11
305.267
 21
5.60023
  0
LINE
  8
0
 10
305.267
 20
5.60023
 11
305.179
 21
5.58623
  0
LINE
  8
0
 10
305.179
 20
5.58623
 11
305.089
 21
5.5778
  0
LINE
  8
0
 10
305.089
 20
5.5778
 11
305
 21
5.575
  0
LINE
  8
0
 10
305
 20
5.575
 11
304.911
 21
5.5778
  0
LINE
  8
0
 10
294.911
 20
5.5778
 11
294.821
 21
5.58623
  0
LINE
  8
0
 10
294.821
 20
5.58623
 11
294.733
 21
5.60023
  0
LINE
  8
0
 10
294.733
 20
5.60023
 11
294.646
 21
5.61977
  0
LINE
  8
0
 10
294.646
 20
5.61977
 11
294.56
 21
5.64473
  0
LINE
  8
0
 10
294.56
 20
5.64473
 11
294.475
 21
5.67506
  0
LINE
  8
0
 10
294.475
 20
5.67506
 11
294.393
 21
5.71062
  0
LINE
  8
0
 10
294.393
 20
5.71062
 11
294.313
 21
5.75125
  0
LINE
  8
0
 10
294.313
 20
5.75125
 11
294.236
 21
5.79683
  0
LINE
  8
0
 10
294.236
 20
5.79683
 11
294.162
 21
5.84714
  0
LINE
  8
0
 10
294.162
 20
5.84714
 11
294.092
 21
5.90201
  0
LINE
  8
0
 10
294.092
 20
5.90201
 11
294.025
 21
5.96121
  0
LINE
  8
0
 10
294.025
 20
5.96121
 11
293.961
 21
6.02451
  0
LINE
  8
0
 10
293.961
 20
6.02451
 11
293.902
 21
6.09166
  0
LINE
  8
0
 10
293.902
 20
6.09166
 11
293.847
 21
6.1624
  0
LINE
  8
0
 10
293.847
 20
6.1624
 11
293.797
 21
6.23643
  0
LINE
  8
0
 10
293.797
 20
6.23643
 11
293.751
 21
6.31349
  0
LINE
  8
0
 10
293.751
 20
6.31349
 11
293.711
 21
6.39325
  0
LINE
  8
0
 10
293.711
 20
6.39325
 11
293.675
 21
6.47542
  0
LINE
  8
0
 10
293.675
 20
6.47542
 11
293.645
 21
6.55965
  0
LINE
  8
0
 10
293.645
 20
6.55965
 11
293.62
 21
6.64561
  0
LINE
  8
0
 10
293.62
 20
6.64561
 11
293.6
 21
6.73297
  0
LINE
  8
0
 10
293.6
 20
6.73297
 11
293.586
 21
6.8214
  0
LINE
  8
0
 10
293.586
 20
6.8214
 11
293.578
 21
6.91052
  0
LINE
  8
0
 10
293.578
 20
6.91052
 11
293.575
 21
7
  0
LINE
  8
0
 10
293.575
 20
7
 11
293.578
 21
7.08946
  0
LINE
  8
0
 10
293.578
 20
7.08946
 11
293.586
 21
7.17859
  0
LINE
  8
0
 10
293.586
 20
7.17859
 11
293.6
 21
7.26701
  0
LINE
  8
0
 10
293.6
 20
7.26701
 11
293.62
 21
7.35437
  0
LINE
  8
0
 10
293.62
 20
7.35437
 11
293.645
 21
7.44034
  0
LINE
  8
0
 10
293.645
 20
7.44034
 11
293.675
 21
7.52457
  0
LINE
  8
0
 10
293.675
 20
7.52457
 11
293.711
 21
7.60674
  0
LINE
  8
0
 10
293.711
 20
7.60674
 11
293.751
 21
7.68649
  0
LINE
  8
0
 10
293.751
 20
7.68649
 11
293.797
 21
7.76355
  0
LINE
  8
0
 10
293.797
 20
7.76355
 11
293.847
 21
7.83759
  0
LINE
  8
0
 10
293.847
 20
7.83759
 11
293.902
 21
7.90833
  0
LINE
  8
0
 10
293.902
 20
7.90833
 11
293.961
 21
7.97548
  0
LINE
  8
0
 10
293.961
 20
7.97548
 11
294.025
 21
8.03877
  0
LINE
  8
0
 10
294.025
 20
8.03877
 11
294.092
 21
8.09798
  0
LINE
  8
0
 10
294.092
 20
8.09798
 11
294.162
 21
8.15285
  0
LINE
  8
0
 10
294.162
 20
8.15285
 11
294.236
 21
8.20316
  0
LINE
  8
0
 10
294.236
 20
8.20316
 11
294.313
 21
8.24873
  0
LINE
  8
0
 10
294.313
 20
8.24873
 11
294.393
 21
8.28937
  0
LINE
  8
0
 10
294.393
 20
8.28937
 11
294.475
 21
8.32492
  0
LINE
  8
0
 10
294.475
 20
8.32492
 11
294.56
 21
8.35526
  0
LINE
  8
0
 10
294.56
 20
8.35526
 11
294.646
 21
8.38022
  0
LINE
  8
0
 10
294.646
 20
8.38022
 11
294.733
 21
8.39975
  0
LINE
  8
0
 10
294.733
 20
8.39975
 11
294.821
 21
8.41376
  0
LINE
  8
0
 10
294.821
 20
8.41376
 11
294.911
 21
8.42218
  0
LINE
  8
0
 10
294.911
 20
8.42218
 11
295
 21
8.42499
  0
LINE
  8
0
 10
295
 20
8.42499
 11
295.089
 21
8.42218
  0
LINE
  8
0
 10
295.089
 20
8.42218
 11
295.179
 21
8.41376
  0
LINE
  8
0
 10
295.179
 20
8.41376
 11
295.267
 21
8.39975
  0
LINE
  8
0
 10
295.267
 20
8.39975
 11
295.354
 21
8.38022
  0
LINE
  8
0
 10
295.354
 20
8.38022
 11
295.44
 21
8.35526
  0
LINE
  8
0
 10
295.44
 20
8.35526
 11
295.525
 21
8.32492
  0
LINE
  8
0
 10
295.525
 20
8.32492
 11
295.607
 21
8.28937
  0
LINE
  8
0
 10
295.607
 20
8.28937
 11
295.686
 21
8.24873
  0
LINE
  8
0
 10
295.686
 20
8.24873
 11
295.764
 21
8.20316
  0
LINE
  8
0
 10
295.764
 20
8.20316
 11
295.838
 21
8.15285
  0
LINE
  8
0
 10
295.838
 20
8.15285
 11
295.908
 21
8.09798
  0
LINE
  8
0
 10
295.908
 20
8.09798
 11
295.975
 21
8.03877
  0
LINE
  8
0
 10
295.975
 20
8.03877
 11
296.039
 21
7.97548
  0
LINE
  8
0
 10
296.039
 20
7.97548
 11
296.098
 21
7.90833
  0
LINE
  8
0
 10
296.098
 20
7.90833
 11
296.153
 21
7.83759
  0
LINE
  8
0
 10
296.153
 20
7.83759
 11
296.203
 21
7.76355
  0
LINE
  8
0
 10
296.203
 20
7.76355
 11
296.249
 21
7.68649
  0
LINE
  8
0
 10
296.249
 20
7.68649
 11
296.289
 21
7.60674
  0
LINE
  8
0
 10
296.289
 20
7.60674
 11
296.325
 21
7.52457
  0
LINE
  8
0
 10
296.325
 20
7.52457
 11
296.355
 21
7.44034
  0
LINE
  8
0
 10
296.355
 20
7.44034
 11
296.38
 21
7.35437
  0
LINE
  8
0
 10
296.38
 20
7.35437
 11
296.4
 21
7.26701
  0
LINE
  8
0
 10
296.4
 20
7.26701
 11
296.414
 21
7.17859
  0
LINE
  8
0
 10
296.414
 20
7.17859
 11
296.422
 21
7.08946
  0
LINE
  8
0
 10
296.422
 20
7.08946
 11
296.425
 21
7
  0
LINE
  8
0
 10
296.425
 20
7
 11
296.422
 21
6.91052
  0
LINE
  8
0
 10
296.422
 20
6.91052
 11
296.414
 21
6.8214
  0
LINE
  8
0
 10
296.414
 20
6.8214
 11
296.4
 21
6.73297
  0
LINE
  8
0
 10
296.4
 20
6.73297
 11
296.38
 21
6.64561
  0
LINE
  8
0
 10
296.38
 20
6.64561
 11
296.355
 21
6.55965
  0
LINE
  8
0
 10
296.355
 20
6.55965
 11
296.325
 21
6.47542
  0
LINE
  8
0
 10
296.325
 20
6.47542
 11
296.289
 21
6.39325
  0
LINE
  8
0
 10
296.289
 20
6.39325
 11
296.249
 21
6.31349
  0
LINE
  8
0
 10
296.249
 20
6.31349
 11
296.203
 21
6.23643
  0
LINE
  8
0
 10
296.203
 20
6.23643
 11
296.153
 21
6.1624
  0
LINE
  8
0
 10
296.153
 20
6.1624
 11
296.098
 21
6.09166
  0
LINE
  8
0
 10
296.098
 20
6.09166
 11
296.039
 21
6.02451
  0
LINE
  8
0
 10
296.039
 20
6.02451
 11
295.975
 21
5.96121
  0
LINE
  8
0
 10
295.975
 20
5.96121
 11
295.908
 21
5.90201
  0
LINE
  8
0
 10
295.908
 20
5.90201
 11
295.838
 21
5.84714
  0
LINE
  8
0
 10
295.838
 20
5.84714
 11
295.764
 21
5.79683
  0
LINE
  8
0
 10
295.764
 20
5.79683
 11
295.686
 21
5.75125
  0
LINE
  8
0
 10
295.686
 20
5.75125
 11
295.607
 21
5.71062
  0
LINE
  8
0
 10
295.607
 20
5.71062
 11
295.525
 21
5.67506
  0
LINE
  8
0
 10
295.525
 20
5.67506
 11
295.44
 21
5.64473
  0
LINE
  8
0
 10
295.44
 20
5.64473
 11
295.354
 21
5.61977
  0
LINE
  8
0
 10
295.354
 20
5.61977
 11
295.267
 21
5.60023
  0
LINE
  8
0
 10
295.267
 20
5.60023
 11
295.179
 21
5.58623
  0
LINE
  8
0
 10
295.179
 20
5.58623
 11
295.089
 21
5.5778
  0
LINE
  8
0
 10
295.089
 20
5.5778
 11
295
 21
5.575
  0
LINE
  8
0
 10
295
 20
5.575
 11
294.911
 21
5.5778
  0
LINE
  8
0
 10
4.91052
 20
5.5778
 11
4.8214
 21
5.58623
  0
LINE
  8
0
 10
4.8214
 20
5.58623
 11
4.73297
 21
5.60023
  0
LINE
  8
0
 10
4.73297
 20
5.60023
 11
4.64561
 21
5.61977
  0
LINE
  8
0
 10
4.64561
 20
5.61977
 11
4.55965
 21
5.64473
  0
LINE
  8
0
 10
4.55965
 20
5.64473
 11
4.47542
 21
5.67506
  0
LINE
  8
0
 10
4.47542
 20
5.67506
 11
4.39325
 21
5.71062
  0
LINE
  8
0
 10
4.39325
 20
5.71062
 11
4.31349
 21
5.75125
  0
LINE
  8
0
 10
4.31349
 20
5.75125
 11
4.23643
 21
5.79683
  0
LINE
  8
0
 10
4.23643
 20
5.79683
 11
4.1624
 21
5.84714
  0
LINE
  8
0
 10
4.1624
 20
5.84714
 11
4.09166
 21
5.90201
  0
LINE
  8
0
 10
4.09166
 20
5.90201
 11
4.02451
 21
5.96121
  0
LINE
  8
0
 10
4.02451
 20
5.96121
 11
3.96121
 21
6.02451
  0
LINE
  8
0
 10
3.96121
 20
6.02451
 11
3.90201
 21
6.09166
  0
LINE
  8
0
 10
3.90201
 20
6.09166
 11
3.84714
 21
6.1624
  0
LINE
  8
0
 10
3.84714
 20
6.1624
 11
3.79683
 21
6.23643
  0
LINE
  8
0
 10
3.79683
 20
6.23643
 11
3.75125
 21
6.31349
  0
LINE
  8
0
 10
3.75125
 20
6.31349
 11
3.71062
 21
6.39325
  0
LINE
  8
0
 10
3.71062
 20
6.39325
 11
3.67506
 21
6.47542
  0
LINE
  8
0
 10
3.67506
 20
6.47542
 11
3.64473
 21
6.55965
  0
LINE
  8
0
 10
3.64473
 20
6.55965
 11
3.61977
 21
6.64561
  0
LINE
  8
0
 10
3.61977
 20
6.64561
 11
3.60023
 21
6.73297
  0
LINE
  8
0
 10
3.60023
 20
6.73297
 11
3.58623
 21
6.8214
  0
LINE
  8
0
 10
3.58623
 20
6.8214
 11
3.5778
 21
6.91052
  0
LINE
  8
0
 10
3.5778
 20
6.91052
 11
3.575
 21
7
  0
LINE
  8
0
 10
3.575
 20
7
 11
3.5778
 21
7.08946
  0
LINE
  8
0
 10
3.5778
 20
7.08946
 11
3.58623
 21
7.17859
  0
LINE
  8
0
 10
3.58623
 20
7.17859
 11
3.60023
 21
7.26701
  0
LINE
  8
0
 10
3.60023
 20
7.26701
 11
3.61977
 21
7.35437
  0
LINE
  8
0
 10
3.61977
 20
7.35437
 11
3.64473
 21
7.44034
  0
LINE
  8
0
 10
3.64473
 20
7.44034
 11
3.67506
 21
7.52457
  0
LINE
  8
0
 10
3.67506
 20
7.52457
 11
3.71062
 21
7.60674
  0
LINE
  8
0
 10
3.71062
 20
7.60674
 11
3.75125
 21
7.68649
  0
LINE
  8
0
 10
3.75125
 20
7.68649
 11
3.79683
 21
7.76355
  0
LINE
  8
0
 10
3.79683
 20
7.76355
 11
3.84714
 21
7.83759
  0
LINE
  8
0
 10
3.84714
 20
7.83759
 11
3.90201
 21
7.90833
  0
LINE
  8
0
 10
3.90201
 20
7.90833
 11
3.96121
 21
7.97548
  0
LINE
  8
0
 10
3.96121
 20
7.97548
 11
4.02451
 21
8.03877
  0
LINE
  8
0
 10
4.02451
 20
8.03877
 11
4.09166
 21
8.09798
  0
LINE
  8
0
 10
4.09166
 20
8.09798
 11
4.1624
 21
8.15285
  0
LINE
  8
0
 10
4.1624
 20
8.15285
 11
4.23643
 21
8.20316
  0
LINE
  8
0
 10
4.23643
 20
8.20316
 11
4.31349
 21
8.24873
  0
LINE
  8
0
 10
4.31349
 20
8.24873
 11
4.39325
 21
8.28937
  0
LINE
  8
0
 10
4.39325
 20
8.28937
 11
4.47542
 21
8.32492
  0
LINE
  8
0
 10
4.47542
 20
8.32492
 11
4.55965
 21
8.35526
  0
LINE
  8
0
 10
4.55965
 20
8.35526
 11
4.64561
 21
8.38022
  0
LINE
  8
0
 10
4.64561
 20
8.38022
 11
4.73297
 21
8.39975
  0
LINE
  8
0
 10
4.73297
 20
8.39975
 11
4.8214
 21
8.41376
  0
LINE
  8
0
 10
4.8214
 20
8.41376
 11
4.91052
 21
8.42218
  0
LINE
  8
0
 10
4.91052
 20
8.42218
 11
5
 21
8.42499
  0
LINE
  8
0
 10
5
 20
8.42499
 11
5.08946
 21
8.42218
  0
LINE
  8
0
 10
5.08946
 20
8.42218
 11
5.17859
 21
8.41376
  0
LINE
  8
0
 10
5.17859
 20
8.41376
 11
5.26701
 21
8.39975
  0
LINE
  8
0
 10
5.26701
 20
8.39975
 11
5.35437
 21
8.38022
  0
LINE
  8
0
 10
5.35437
 20
8.38022
 11
5.44034
 21
8.35526
  0
LINE
  8
0
 10
5.44034
 20
8.35526
 11
5.52457
 21
8.32492
  0
LINE
  8
0
 10
5.52457
 20
8.32492
 11
5.60674
 21
8.28937
  0
LINE
  8
0
 10
5.60674
 20
8.28937
 11
5.68649
 21
8.24873
  0
LINE
  8
0
 10
5.68649
 20
8.24873
 11
5.76355
 21
8.20316
  0
LINE
  8
0
 10
5.76355
 20
8.20316
 11
5.83759
 21
8.15285
  0
LINE
  8
0
 10
5.83759
 20
8.15285
 11
5.90833
 21
8.09798
  0
LINE
  8
0
 10
5.90833
 20
8.09798
 11
5.97548
 21
8.03877
  0
LINE
  8
0
 10
5.97548
 20
8.03877
 11
6.03877
 21
7.97548
  0
LINE
  8
0
 10
6.03877
 20
7.97548
 11
6.09798
 21
7.90833
  0
LINE
  8
0
 10
6.09798
 20
7.90833
 11
6.15285
 21
7.83759
  0
LINE
  8
0
 10
6.15285
 20
7.83759
 11
6.20316
 21
7.76355
  0
LINE
  8
0
 10
6.20316
 20
7.76355
 11
6.24873
 21
7.68649
  0
LINE
  8
0
 10
6.24873
 20
7.68649
 11
6.28937
 21
7.60674
  0
LINE
  8
0
 10
6.28937
 20
7.60674
 11
6.32492
 21
7.52457
  0
LINE
  8
0
 10
6.32492
 20
7.52457
 11
6.35526
 21
7.44034
  0
LINE
  8
0
 10
6.35526
 20
7.44034
 11
6.38022
 21
7.35437
  0
LINE
  8
0
 10
6.38022
 20
7.35437
 11
6.39975
 21
7.26701
  0
LINE
  8
0
 10
6.39975
 20
7.26701
 11
6.41376
 21
7.17859
  0
LINE
  8
0
 10
6.41376
 20
7.17859
 11
6.42218
 21
7.08946
  0
LINE
  8
0
 10
6.42218
 20
7.08946
 11
6.42499
 21
7
  0
LINE
  8
0
 10
6.42499
 20
7
 11
6.42218
 21
6.91052
  0
LINE
  8
0
 10
6.42218
 20
6.91052
 11
6.41376
 21
6.8214
  0
LINE
  8
0
 10
6.41376
 20
6.8214
 11
6.39975
 21
6.73297
  0
LINE
  8
0
 10
6.39975
 20
6.73297
 11
6.38022
 21
6.64561
  0
LINE
  8
0
 10
6.38022
 20
6.64561
 11
6.35526
 21
6.55965
  0
LINE
  8
0
 10
6.35526
 20
6.55965
 11
6.32492
 21
6.47542
  0
LINE
  8
0
 10
6.32492
 20
6.47542
 11
6.28937
 21
6.39325
  0
LINE
  8
0
 10
6.28937
 20
6.39325
 11
6.24873
 21
6.31349
  0
LINE
  8
0
 10
6.24873
 20
6.31349
 11
6.20316
 21
6.23643
  0
LINE
  8
0
 10
6.20316
 20
6.23643
 11
6.15285
 21
6.1624
  0
LINE
  8
0
 10
6.15285
 20
6.1624
 11
6.09798
 21
6.09166
  0
LINE
  8
0
 10
6.09798
 20
6.09166
 11
6.03877
 21
6.02451
  0
LINE
  8
0
 10
6.03877
 20
6.02451
 11
5.97548
 21
5.96121
  0
LINE
  8
0
 10
5.97548
 20
5.96121
 11
5.90833
 21
5.90201
  0
LINE
  8
0
 10
5.90833
 20
5.90201
 11
5.83759
 21
5.84714
  0
LINE
  8
0
 10
5.83759
 20
5.84714
 11
5.76355
 21
5.79683
  0
LINE
  8
0
 10
5.76355
 20
5.79683
 11
5.68649
 21
5.75125
  0
LINE
  8
0
 10
5.68649
 20
5.75125
 11
5.60674
 21
5.71062
  0
LINE
  8
0
 10
5.60674
 20
5.71062
 11
5.52457
 21
5.67506
  0
LINE
  8
0
 10
5.52457
 20
5.67506
 11
5.44034
 21
5.64473
  0
LINE
  8
0
 10
5.44034
 20
5.64473
 11
5.35437
 21
5.61977
  0
LINE
  8
0
 10
5.35437
 20
5.61977
 11
5.26701
 21
5.60023
  0
LINE
  8
0
 10
5.26701
 20
5.60023
 11
5.17859
 21
5.58623
  0
LINE
  8
0
 10
5.17859
 20
5.58623
 11
5.08946
 21
5.5778
  0
LINE
  8
0
 10
5.08946
 20
5.5778
 11
5
 21
5.575
  0
LINE
  8
0
 10
5
 20
5.575
 11
4.91052
 21
5.5778
  0
LINE
  8
0
 10
-5.08948
 20
5.5778
 11
-5.1786
 21
5.58623
  0
LINE
  8
0
 10
-5.1786
 20
5.58623
 11
-5.26703
 21
5.60023
  0
LINE
  8
0
 10
-5.26703
 20
5.60023
 11
-5.35439
 21
5.61977
  0
LINE
  8
0
 10
-5.35439
 20
5.61977
 11
-5.44035
 21
5.64473
  0
LINE
  8
0
 10
-5.44035
 20
5.64473
 11
-5.52458
 21
5.67506
  0
LINE
  8
0
 10
-5.52458
 20
5.67506
 11
-5.60675
 21
5.71062
  0
LINE
  8
0
 10
-5.60675
 20
5.71062
 11
-5.68651
 21
5.75125
  0
LINE
  8
0
 10
-5.68651
 20
5.75125
 11
-5.76357
 21
5.79683
  0
LINE
  8
0
 10
-5.76357
 20
5.79683
 11
-5.8376
 21
5.84714
  0
LINE
  8
0
 10
-5.8376
 20
5.84714
 11
-5.90834
 21
5.90201
  0
LINE
  8
0
 10
-5.90834
 20
5.90201
 11
-5.97549
 21
5.96121
  0
LINE
  8
0
 10
-5.97549
 20
5.96121
 11
-6.03879
 21
6.02451
  0
LINE
  8
0
 10
-6.03879
 20
6.02451
 11
-6.09799
 21
6.09166
  0
LINE
  8
0
 10
-6.09799
 20
6.09166
 11
-6.15286
 21
6.1624
  0
LINE
  8
0
 10
-6.15286
 20
6.1624
 11
-6.20317
 21
6.23643
  0
LINE
  8
0
 10
-6.20317
 20
6.23643
 11
-6.24875
 21
6.31349
  0
LINE
  8
0
 10
-6.24875
 20
6.31349
 11
-6.28938
 21
6.39325
  0
LINE
  8
0
 10
-6.28938
 20
6.39325
 11
-6.32494
 21
6.47542
  0
LINE
  8
0
 10
-6.32494
 20
6.47542
 11
-6.35527
 21
6.55965
  0
LINE
  8
0
 10
-6.35527
 20
6.55965
 11
-6.38023
 21
6.64561
  0
LINE
  8
0
 10
-6.38023
 20
6.64561
 11
-6.39977
 21
6.73297
  0
LINE
  8
0
 10
-6.39977
 20
6.73297
 11
-6.41377
 21
6.8214
  0
LINE
  8
0
 10
-6.41377
 20
6.8214
 11
-6.4222
 21
6.91052
  0
LINE
  8
0
 10
-6.4222
 20
6.91052
 11
-6.425
 21
7
  0
LINE
  8
0
 10
-6.425
 20
7
 11
-6.4222
 21
7.08946
  0
LINE
  8
0
 10
-6.4222
 20
7.08946
 11
-6.41377
 21
7.17859
  0
LINE
  8
0
 10
-6.41377
 20
7.17859
 11
-6.39977
 21
7.26701
  0
LINE
  8
0
 10
-6.39977
 20
7.26701
 11
-6.38023
 21
7.35437
  0
LINE
  8
0
 10
-6.38023
 20
7.35437
 11
-6.35527
 21
7.44034
  0
LINE
  8
0
 10
-6.35527
 20
7.44034
 11
-6.32494
 21
7.52457
  0
LINE
  8
0
 10
-6.32494
 20
7.52457
 11
-6.28938
 21
7.60674
  0
LINE
  8
0
 10
-6.28938
 20
7.60674
 11
-6.24875
 21
7.68649
  0
LINE
  8
0
 10
-6.24875
 20
7.68649
 11
-6.20317
 21
7.76355
  0
LINE
  8
0
 10
-6.20317
 20
7.76355
 11
-6.15286
 21
7.83759
  0
LINE
  8
0
 10
-6.15286
 20
7.83759
 11
-6.09799
 21
7.90833
  0
LINE
  8
0
 10
-6.09799
 20
7.90833
 11
-6.03879
 21
7.97548
  0
LINE
  8
0
 10
-6.03879
 20
7.97548
 11
-5.97549
 21
8.03877
  0
LINE
  8
0
 10
-5.97549
 20
8.03877
 11
-5.90834
 21
8.09798
  0
LINE
  8
0
 10
-5.90834
 20
8.09798
 11
-5.8376
 21
8.15285
  0
LINE
  8
0
 10
-5.8376
 20
8.15285
 11
-5.76357
 21
8.20316
  0
LINE
  8
0
 10
-5.76357
 20
8.20316
 11
-5.68651
 21
8.24873
  0
LINE
  8
0
 10
-5.68651
 20
8.24873
 11
-5.60675
 21
8.28937
  0
LINE
  8
0
 10
-5.60675
 20
8.28937
 11
-5.52458
 21
8.32492
  0
LINE
  8
0
 10
-5.52458
 20
8.32492
 11
-5.44035
 21
8.35526
  0
LINE
  8
0
 10
-5.44035
 20
8.35526
 11
-5.35439
 21
8.38022
  0
LINE
  8
0
 10
-5.35439
 20
8.38022
 11
-5.26703
 21
8.39975
  0
LINE
  8
0
 10
-5.26703
 20
8.39975
 11
-5.1786
 21
8.41376
  0
LINE
  8
0
 10
-5.1786
 20
8.41376
 11
-5.08948
 21
8.42218
  0
LINE
  8
0
 10
-5.08948
 20
8.42218
 11
-5
 21
8.42499
  0
LINE
  8
0
 10
-5
 20
8.42499
 11
-4.91054
 21
8.42218
  0
LINE
  8
0
 10
-4.91054
 20
8.42218
 11
-4.82141
 21
8.41376
  0
LINE
  8
0
 10
-4.82141
 20
8.41376
 11
-4.73299
 21
8.39975
  0
LINE
  8
0
 10
-4.73299
 20
8.39975
 11
-4.64563
 21
8.38022
  0
LINE
  8
0
 10
-4.64563
 20
8.38022
 11
-4.55966
 21
8.35526
  0
LINE
  8
0
 10
-4.55966
 20
8.35526
 11
-4.47543
 21
8.32492
  0
LINE
  8
0
 10
-4.47543
 20
8.32492
 11
-4.39326
 21
8.28937
  0
LINE
  8
0
 10
-4.39326
 20
8.28937
 11
-4.31351
 21
8.24873
  0
LINE
  8
0
 10
-4.31351
 20
8.24873
 11
-4.23645
 21
8.20316
  0
LINE
  8
0
 10
-4.23645
 20
8.20316
 11
-4.16241
 21
8.15285
  0
LINE
  8
0
 10
-4.16241
 20
8.15285
 11
-4.09167
 21
8.09798
  0
LINE
  8
0
 10
-4.09167
 20
8.09798
 11
-4.02452
 21
8.03877
  0
LINE
  8
0
 10
-4.02452
 20
8.03877
 11
-3.96123
 21
7.97548
  0
LINE
  8
0
 10
-3.96123
 20
7.97548
 11
-3.90202
 21
7.90833
  0
LINE
  8
0
 10
-3.90202
 20
7.90833
 11
-3.84715
 21
7.83759
  0
LINE
  8
0
 10
-3.84715
 20
7.83759
 11
-3.79684
 21
7.76355
  0
LINE
  8
0
 10
-3.79684
 20
7.76355
 11
-3.75127
 21
7.68649
  0
LINE
  8
0
 10
-3.75127
 20
7.68649
 11
-3.71063
 21
7.60674
  0
LINE
  8
0
 10
-3.71063
 20
7.60674
 11
-3.67508
 21
7.52457
  0
LINE
  8
0
 10
-3.67508
 20
7.52457
 11
-3.64474
 21
7.44034
  0
LINE
  8
0
 10
-3.64474
 20
7.44034
 11
-3.61978
 21
7.35437
  0
LINE
  8
0
 10
-3.61978
 20
7.35437
 11
-3.60025
 21
7.26701
  0
LINE
  8
0
 10
-3.60025
 20
7.26701
 11
-3.58624
 21
7.17859
  0
LINE
  8
0
 10
-3.58624
 20
7.17859
 11
-3.57782
 21
7.08946
  0
LINE
  8
0
 10
-3.57782
 20
7.08946
 11
-3.57501
 21
7
  0
LINE
  8
0
 10
-3.57501
 20
7
 11
-3.57782
 21
6.91052
  0
LINE
  8
0
 10
-3.57782
 20
6.91052
 11
-3.58624
 21
6.8214
  0
LINE
  8
0
 10
-3.58624
 20
6.8214
 11
-3.60025
 21
6.73297
  0
LINE
  8
0
 10
-3.60025
 20
6.73297
 11
-3.61978
 21
6.64561
  0
LINE
  8
0
 10
-3.61978
 20
6.64561
 11
-3.64474
 21
6.55965
  0
LINE
  8
0
 10
-3.64474
 20
6.55965
 11
-3.67508
 21
6.47542
  0
LINE
  8
0
 10
-3.67508
 20
6.47542
 11
-3.71063
 21
6.39325
  0
LINE
  8
0
 10
-3.71063
 20
6.39325
 11
-3.75127
 21
6.31349
  0
LINE
  8
0
 10
-3.75127
 20
6.31349
 11
-3.79684
 21
6.23643
  0
LINE
  8
0
 10
-3.79684
 20
6.23643
 11
-3.84715
 21
6.1624
  0
LINE
  8
0
 10
-3.84715
 20
6.1624
 11
-3.90202
 21
6.09166
  0
LINE
  8
0
 10
-3.90202
 20
6.09166
 11
-3.96123
 21
6.02451
  0
LINE
  8
0
 10
-3.96123
 20
6.02451
 11
-4.02452
 21
5.96121
  0
LINE
  8
0
 10
-4.02452
 20
5.96121
 11
-4.09167
 21
5.90201
  0
LINE
  8
0
 10
-4.09167
 20
5.90201
 11
-4.16241
 21
5.84714
  0
LINE
  8
0
 10
-4.16241
 20
5.84714
 11
-4.23645
 21
5.79683
  0
LINE
  8
0
 10
-4.23645
 20
5.79683
 11
-4.31351
 21
5.75125
  0
LINE
  8
0
 10
-4.31351
 20
5.75125
 11
-4.39326
 21
5.71062
  0
LINE
  8
0
 10
-4.39326
 20
5.71062
 11
-4.47543
 21
5.67506
  0
LINE
  8
0
 10
-4.47543
 20
5.67506
 11
-4.55966
 21
5.64473
  0
LINE
  8
0
 10
-4.55966
 20
5.64473
 11
-4.64563
 21
5.61977
  0
LINE
  8
0
 10
-4.64563
 20
5.61977
 11
-4.73299
 21
5.60023
  0
LINE
  8
0
 10
-4.73299
 20
5.60023
 11
-4.82141
 21
5.58623
  0
LINE
  8
0
 10
-4.82141
 20
5.58623
 11
-4.91054
 21
5.5778
  0
LINE
  8
0
 10
-4.91054
 20
5.5778
 11
-5.00002
 21
5.575
  0
LINE
  8
0
 10
-5.00002
 20
5.575
 11
-5.08948
 21
5.5778
  0
LINE
  8
0
 10
299.796
 20
-3.24359
 11
299.593
 21
-3.22438
  0
LINE
  8
0
 10
299.593
 20
-3.22438
 11
299.391
 21
-3.19244
  0
LINE
  8
0
 10
299.391
 20
-3.19244
 11
299.192
 21
-3.1479
  0
LINE
  8
0
 10
299.192
 20
-3.1479
 11
298.996
 21
-3.09094
  0
LINE
  8
0
 10
298.996
 20
-3.09094
 11
298.804
 21
-3.02177
  0
LINE
  8
0
 10
298.804
 20
-3.02177
 11
298.616
 21
-2.94069
  0
LINE
  8
0
 10
298.616
 20
-2.94069
 11
298.434
 21
-2.84801
  0
LINE
  8
0
 10
298.434
 20
-2.84801
 11
298.259
 21
-2.74408
  0
LINE
  8
0
 10
298.259
 20
-2.74408
 11
298.09
 21
-2.62932
  0
LINE
  8
0
 10
298.09
 20
-2.62932
 11
297.928
 21
-2.50418
  0
LINE
  8
0
 10
297.928
 20
-2.50418
 11
297.775
 21
-2.36916
  0
LINE
  8
0
 10
297.775
 20
-2.36916
 11
297.631
 21
-2.22479
  0
LINE
  8
0
 10
297.631
 20
-2.22479
 11
297.496
 21
-2.07164
  0
LINE
  8
0
 10
297.496
 20
-2.07164
 11
297.371
 21
-1.91031
  0
LINE
  8
0
 10
297.371
 20
-1.91031
 11
297.256
 21
-1.74144
  0
LINE
  8
0
 10
297.256
 20
-1.74144
 11
297.152
 21
-1.5657
  0
LINE
  8
0
 10
297.152
 20
-1.5657
 11
297.059
 21
-1.38379
  0
LINE
  8
0
 10
297.059
 20
-1.38379
 11
296.978
 21
-1.19641
  0
LINE
  8
0
 10
296.978
 20
-1.19641
 11
296.909
 21
-1.00432
  0
LINE
  8
0
 10
296.909
 20
-1.00432
 11
296.852
 21
-0.808243
  0
LINE
  8
0
 10
296.852
 20
-0.808243
 11
296.808
 21
-0.608994
  0
LINE
  8
0
 10
296.808
 20
-0.608994
 11
296.776
 21
-0.407333
  0
LINE
  8
0
 10
296.776
 20
-0.407333
 11
296.756
 21
-0.204071
  0
LINE
  8
0
 10
296.756
 20
-0.204071
 11
296.75
 21
0
  0
LINE
  8
0
 10
296.75
 20
0
 11
296.756
 21
0.204056
  0
LINE
  8
0
 10
296.756
 20
0.204056
 11
296.776
 21
0.407318
  0
LINE
  8
0
 10
296.776
 20
0.407318
 11
296.808
 21
0.608978
  0
LINE
  8
0
 10
296.808
 20
0.608978
 11
296.852
 21
0.808228
  0
LINE
  8
0
 10
296.852
 20
0.808228
 11
296.909
 21
1.0043
  0
LINE
  8
0
 10
296.909
 20
1.0043
 11
296.978
 21
1.1964
  0
LINE
  8
0
 10
296.978
 20
1.1964
 11
297.059
 21
1.38377
  0
LINE
  8
0
 10
297.059
 20
1.38377
 11
297.152
 21
1.56569
  0
LINE
  8
0
 10
297.152
 20
1.56569
 11
297.256
 21
1.74142
  0
LINE
  8
0
 10
297.256
 20
1.74142
 11
297.371
 21
1.91029
  0
LINE
  8
0
 10
297.371
 20
1.91029
 11
297.496
 21
2.07162
  0
LINE
  8
0
 10
297.496
 20
2.07162
 11
297.631
 21
2.22478
  0
LINE
  8
0
 10
297.631
 20
2.22478
 11
297.775
 21
2.36914
  0
LINE
  8
0
 10
297.775
 20
2.36914
 11
297.928
 21
2.50417
  0
LINE
  8
0
 10
297.928
 20
2.50417
 11
298.09
 21
2.6293
  0
LINE
  8
0
 10
298.09
 20
2.6293
 11
298.259
 21
2.74406
  0
LINE
  8
0
 10
298.259
 20
2.74406
 11
298.434
 21
2.84799
  0
LINE
  8
0
 10
298.434
 20
2.84799
 11
298.616
 21
2.94067
  0
LINE
  8
0
 10
298.616
 20
2.94067
 11
298.804
 21
3.02176
  0
LINE
  8
0
 10
298.804
 20
3.02176
 11
298.996
 21
3.09093
  0
LINE
  8
0
 10
298.996
 20
3.09093
 11
299.192
 21
3.14789
  0
LINE
  8
0
 10
299.192
 20
3.14789
 11
299.391
 21
3.19243
  0
LINE
  8
0
 10
299.391
 20
3.19243
 11
299.593
 21
3.22437
  0
LINE
  8
0
 10
299.593
 20
3.22437
 11
299.796
 21
3.24358
  0
LINE
  8
0
 10
299.796
 20
3.24358
 11
300
 21
3.25
  0
LINE
  8
0
 10
300
 20
3.25
 11
300.204
 21
3.24358
  0
LINE
  8
0
 10
300.204
 20
3.24358
 11
300.407
 21
3.22437
  0
LINE
  8
0
 10
300.407
 20
3.22437
 11
300.609
 21
3.19243
  0
LINE
  8
0
 10
300.609
 20
3.19243
 11
300.808
 21
3.14789
  0
LINE
  8
0
 10
300.808
 20
3.14789
 11
301.004
 21
3.09093
  0
LINE
  8
0
 10
301.004
 20
3.09093
 11
301.196
 21
3.02176
  0
LINE
  8
0
 10
301.196
 20
3.02176
 11
301.384
 21
2.94067
  0
LINE
  8
0
 10
301.384
 20
2.94067
 11
301.566
 21
2.84799
  0
LINE
  8
0
 10
301.566
 20
2.84799
 11
301.741
 21
2.74406
  0
LINE
  8
0
 10
301.741
 20
2.74406
 11
301.91
 21
2.6293
  0
LINE
  8
0
 10
301.91
 20
2.6293
 11
302.072
 21
2.50417
  0
LINE
  8
0
 10
302.072
 20
2.50417
 11
302.225
 21
2.36914
  0
LINE
  8
0
 10
302.225
 20
2.36914
 11
302.369
 21
2.22478
  0
LINE
  8
0
 10
302.369
 20
2.22478
 11
302.504
 21
2.07162
  0
LINE
  8
0
 10
302.504
 20
2.07162
 11
302.629
 21
1.91029
  0
LINE
  8
0
 10
302.629
 20
1.91029
 11
302.744
 21
1.74142
  0
LINE
  8
0
 10
302.744
 20
1.74142
 11
302.848
 21
1.56569
  0
LINE
  8
0
 10
302.848
 20
1.56569
 11
302.941
 21
1.38377
  0
LINE
  8
0
 10
302.941
 20
1.38377
 11
303.022
 21
1.1964
  0
LINE
  8
0
 10
303.022
 20
1.1964
 11
303.091
 21
1.0043
  0
LINE
  8
0
 10
303.091
 20
1.0043
 11
303.148
 21
0.808228
  0
LINE
  8
0
 10
303.148
 20
0.808228
 11
303.192
 21
0.608978
  0
LINE
  8
0
 10
303.192
 20
0.608978
 11
303.224
 21
0.407318
  0
LINE
  8
0
 10
303.224
 20
0.407318
 11
303.244
 21
0.204056
  0
LINE
  8
0
 10
303.244
 20
0.204056
 11
303.25
 21
0
  0
LINE
  8
0
 10
303.25
 20
0
 11
303.244
 21
-0.204071
  0
LINE
  8
0
 10
303.244
 20
-0.204071
 11
303.224
 21
-0.407333
  0
LINE
  8
0
 10
303.224
 20
-0.407333
 11
303.192
 21
-0.608994
  0
LINE
  8
0
 10
303.192
 20
-0.608994
 11
303.148
 21
-0.808243
  0
LINE
  8
0
 10
303.148
 20
-0.808243
 11
303.091
 21
-1.00432
  0
LINE
  8
0
 10
303.091
 20
-1.00432
 11
303.022
 21
-1.19641
  0
LINE
  8
0
 10
303.022
 20
-1.19641
 11
302.941
 21
-1.38379
  0
LINE
  8
0
 10
302.941
 20
-1.38379
 11
302.848
 21
-1.5657
  0
LINE
  8
0
 10
302.848
 20
-1.5657
 11
302.744
 21
-1.74144
  0
LINE
  8
0
 10
302.744
 20
-1.74144
 11
302.629
 21
-1.91031
  0
LINE
  8
0
 10
302.629
 20
-1.91031
 11
302.504
 21
-2.07164
  0
LINE
  8
0
 10
302.504
 20
-2.07164
 11
302.369
 21
-2.22479
  0
LINE
  8
0
 10
302.369
 20
-2.22479
 11
302.225
 21
-2.36916
  0
LINE
  8
0
 10
302.225
 20
-2.36916
 11
302.072
 21
-2.50418
  0
LINE
  8
0
 10
302.072
 20
-2.50418
 11
301.91
 21
-2.62932
  0
LINE
  8
0
 10
301.91
 20
-2.62932
 11
301.741
 21
-2.74408
  0
LINE
  8
0
 10
301.741
 20
-2.74408
 11
301.566
 21
-2.84801
  0
LINE
  8
0
 10
301.566
 20
-2.84801
 11
301.384
 21
-2.94069
  0
LINE
  8
0
 10
301.384
 20
-2.94069
 11
301.196
 21
-3.02177
  0
LINE
  8
0
 10
301.196
 20
-3.02177
 11
301.004
 21
-3.09094
  0
LINE
  8
0
 10
301.004
 20
-3.09094
 11
300.808
 21
-3.1479
  0
LINE
  8
0
 10
300.808
 20
-3.1479
 11
300.609
 21
-3.19244
  0
LINE
  8
0
 10
300.609
 20
-3.19244
 11
300.407
 21
-3.22438
  0
LINE
  8
0
 10
300.407
 20
-3.22438
 11
300.204
 21
-3.24359
  0
LINE
  8
0
 10
300.204
 20
-3.24359
 11
300
 21
-3.25
  0
LINE
  8
0
 10
300
 20
-3.25
 11
299.796
 21
-3.24359
  0
LINE
  8
0
 10
-0.204071
 20
-3.24359
 11
-0.407333
 21
-3.22438
  0
LINE
  8
0
 10
-0.407333
 20
-3.22438
 11
-0.608994
 21
-3.19244
  0
LINE
  8
0
 10
-0.608994
 20
-3.19244
 11
-0.808243
 21
-3.1479
  0
LINE
  8
0
 10
-0.808243
 20
-3.1479
 11
-1.00432
 21
-3.09094
  0
LINE
  8
0
 10
-1.00432
 20
-3.09094
 11
-1.19641
 21
-3.02177
  0
LINE
  8
0
 10
-1.19641
 20
-3.02177
 11
-1.38379
 21
-2.94069
  0
LINE
  8
0
 10
-1.38379
 20
-2.94069
 11
-1.5657
 21
-2.84801
  0
LINE
  8
0
 10
-1.5657
 20
-2.84801
 11
-1.74144
 21
-2.74408
  0
LINE
  8
0
 10
-1.74144
 20
-2.74408
 11
-1.91031
 21
-2.62932
  0
LINE
  8
0
 10
-1.91031
 20
-2.62932
 11
-2.07164
 21
-2.50418
  0
LINE
  8
0
 10
-2.07164
 20
-2.50418
 11
-2.22479
 21
-2.36916
  0
LINE
  8
0
 10
-2.22479
 20
-2.36916
 11
-2.36916
 21
-2.22479
  0
LINE
  8
0
 10
-2.36916
 20
-2.22479
 11
-2.50418
 21
-2.07164
  0
LINE
  8
0
 10
-2.50418
 20
-2.07164
 11
-2.62932
 21
-1.91031
  0
LINE
  8
0
 10
-2.62932
 20
-1.91031
 11
-2.74408
 21
-1.74144
  0
LINE
  8
0
 10
-2.74408
 20
-1.74144
 11
-2.84801
 21
-1.5657
  0
LINE
  8
0
 10
-2.84801
 20
-1.5657
 11
-2.94069
 21
-1.38379
  0
LINE
  8
0
 10
-2.94069
 20
-1.38379
 11
-3.02177
 21
-1.19641
  0
LINE
  8
0
 10
-3.02177
 20
-1.19641
 11
-3.09094
 21
-1.00432
  0
LINE
  8
0
 10
-3.09094
 20
-1.00432
 11
-3.1479
 21
-0.808243
  0
LINE
  8
0
 10
-3.1479
 20
-0.808243
 11
-3.19244
 21
-0.608994
  0
LINE
  8
0
 10
-3.19244
 20
-0.608994
 11
-3.22438
 21
-0.407333
  0
LINE
  8
0
 10
-3.22438
 20
-0.407333
 11
-3.24359
 21
-0.204071
  0
LINE
  8
0
 10
-3.24359
 20
-0.204071
 11
-3.25
 21
0
  0
LINE
  8
0
 10
-3.25
 20
0
 11
-3.24359
 21
0.204056
  0
LINE
  8
0
 10
-3.24359
 20
0.204056
 11
-3.22438
 21
0.407318
  0
LINE
  8
0
 10
-3.22438
 20
0.407318
 11
-3.19244
 21
0.608978
  0
LINE
  8
0
 10
-3.19244
 20
0.608978
 11
-3.1479
 21
0.808228
  0
LINE
  8
0
 10
-3.1479
 20
0.808228
 11
-3.09094
 21
1.0043
  0
LINE
  8
0
 10
-3.09094
 20
1.0043
 11
-3.02177
 21
1.1964
  0
LINE
  8
0
 10
-3.02177
 20
1.1964
 11
-2.94069
 21
1.38377
  0
LINE
  8
0
 10
-2.94069
 20
1.38377
 11
-2.84801
 21
1.56569
  0
LINE
  8
0
 10
-2.84801
 20
1.56569
 11
-2.74408
 21
1.74142
  0
LINE
  8
0
 10
-2.74408
 20
1.74142
 11
-2.62932
 21
1.91029
  0
LINE
  8
0
 10
-2.62932
 20
1.91029
 11
-2.50418
 21
2.07162
  0
LINE
  8
0
 10
-2.50418
 20
2.07162
 11
-2.36916
 21
2.22478
  0
LINE
  8
0
 10
-2.36916
 20
2.22478
 11
-2.22479
 21
2.36914
  0
LINE
  8
0
 10
-2.22479
 20
2.36914
 11
-2.07164
 21
2.50417
  0
LINE
  8
0
 10
-2.07164
 20
2.50417
 11
-1.91031
 21
2.6293
  0
LINE
  8
0
 10
-1.91031
 20
2.6293
 11
-1.74144
 21
2.74406
  0
LINE
  8
0
 10
-1.74144
 20
2.74406
 11
-1.5657
 21
2.84799
  0
LINE
  8
0
 10
-1.5657
 20
2.84799
 11
-1.38379
 21
2.94067
  0
LINE
  8
0
 10
-1.38379
 20
2.94067
 11
-1.19641
 21
3.02176
  0
LINE
  8
0
 10
-1.19641
 20
3.02176
 11
-1.00432
 21
3.09093
  0
LINE
  8
0
 10
-1.00432
 20
3.09093
 11
-0.808243
 21
3.14789
  0
LINE
  8
0
 10
-0.808243
 20
3.14789
 11
-0.608994
 21
3.19243
  0
LINE
  8
0
 10
-0.608994
 20
3.19243
 11
-0.407333
 21
3.22437
  0
LINE
  8
0
 10
-0.407333
 20
3.22437
 11
-0.204071
 21
3.24358
  0
LINE
  8
0
 10
-0.204071
 20
3.24358
 11
0
 21
3.25
  0
LINE
  8
0
 10
0
 20
3.25
 11
0.204056
 21
3.24358
  0
LINE
  8
0
 10
0.204056
 20
3.24358
 11
0.407318
 21
3.22437
  0
LINE
  8
0
 10
0.407318
 20
3.22437
 11
0.608978
 21
3.19243
  0
LINE
  8
0
 10
0.608978
 20
3.19243
 11
0.808228
 21
3.14789
  0
LINE
  8
0
 10
0.808228
 20
3.14789
 11
1.0043
 21
3.09093
  0
LINE
  8
0
 10
1.0043
 20
3.09093
 11
1.1964
 21
3.02176
  0
LINE
  8
0
 10
1.1964
 20
3.02176
 11
1.38377
 21
2.94067
  0
LINE
  8
0
 10
1.38377
 20
2.94067
 11
1.56569
 21
2.84799
  0
LINE
  8
0
 10
1.56569
 20
2.84799
 11
1.74142
 21
2.74406
  0
LINE
  8
0
 10
1.74142
 20
2.74406
 11
1.91029
 21
2.6293
  0
LINE
  8
0
 10
1.91029
 20
2.6293
 11
2.07162
 21
2.50417
  0
LINE
  8
0
 10
2.07162
 20
2.50417
 11
2.22478
 21
2.36914
  0
LINE
  8
0
 10
2.22478
 20
2.36914
 11
2.36914
 21
2.22478
  0
LINE
  8
0
 10
2.36914
 20
2.22478
 11
2.50417
 21
2.07162
  0
LINE
  8
0
 10
2.50417
 20
2.07162
 11
2.6293
 21
1.91029
  0
LINE
  8
0
 10
2.6293
 20
1.91029
 11
2.74406
 21
1.74142
  0
LINE
  8
0
 10
2.74406
 20
1.74142
 11
2.84799
 21
1.56569
  0
LINE
  8
0
 10
2.84799
 20
1.56569
 11
2.94067
 21
1.38377
  0
LINE
  8
0
 10
2.94067
 20
1.38377
 11
3.02176
 21
1.1964
  0
LINE
  8
0
 10
3.02176
 20
1.1964
 11
3.09093
 21
1.0043
  0
LINE
  8
0
 10
3.09093
 20
1.0043
 11
3.14789
 21
0.808228
  0
LINE
  8
0
 10
3.14789
 20
0.808228
 11
3.19243
 21
0.608978
  0
LINE
  8
0
 10
3.19243
 20
0.608978
 11
3.22437
 21
0.407318
  0
LINE
  8
0
 10
3.22437
 20
0.407318
 11
3.24358
 21
0.204056
  0
LINE
  8
0
 10
3.24358
 20
0.204056
 11
3.25
 21
0
  0
LINE
  8
0
 10
3.25
 20
0
 11
3.24358
 21
-0.204071
  0
LINE
  8
0
 10
3.24358
 20
-0.204071
 11
3.22437
 21
-0.407333
  0
LINE
  8
0
 10
3.22437
 20
-0.407333
 11
3.19243
 21
-0.608994
  0
LINE
  8
0
 10
3.19243
 20
-0.608994
 11
3.14789
 21
-0.808243
  0
LINE
  8
0
 10
3.14789
 20
-0.808243
 11
3.09093
 21
-1.00432
  0
LINE
  8
0
 10
3.09093
 20
-1.00432
 11
3.02176
 21
-1.19641
  0
LINE
  8
0
 10
3.02176
 20
-1.19641
 11
2.94067
 21
-1.38379
  0
LINE
  8
0
 10
2.94067
 20
-1.38379
 11
2.84799
 21
-1.5657
  0
LINE
  8
0
 10
2.84799
 20
-1.5657
 11
2.74406
 21
-1.74144
  0
LINE
  8
0
 10
2.74406
 20
-1.74144
 11
2.6293
 21
-1.91031
  0
LINE
  8
0
 10
2.6293
 20
-1.91031
 11
2.50417
 21
-2.07164
  0
LINE
  8
0
 10
2.50417
 20
-2.07164
 11
2.36914
 21
-2.22479
  0
LINE
  8
0
 10
2.36914
 20
-2.22479
 11
2.22478
 21
-2.36916
  0
LINE
  8
0
 10
2.22478
 20
-2.36916
 11
2.07162
 21
-2.50418
  0
LINE
  8
0
 10
2.07162
 20
-2.50418
 11
1.91029
 21
-2.62932
  0
LINE
  8
0
 10
1.91029
 20
-2.62932
 11
1.74142
 21
-2.74408
  0
LINE
  8
0
 10
1.74142
 20
-2.74408
 11
1.56569
 21
-2.84801
  0
LINE
  8
0
 10
1.56569
 20
-2.84801
 11
1.38377
 21
-2.94069
  0
LINE
  8
0
 10
1.38377
 20
-2.94069
 11
1.1964
 21
-3.02177
  0
LINE
  8
0
 10
1.1964
 20
-3.02177
 11
1.0043
 21
-3.09094
  0
LINE
  8
0
 10
1.0043
 20
-3.09094
 11
0.808228
 21
-3.1479
  0
LINE
  8
0
 10
0.808228
 20
-3.1479
 11
0.608978
 21
-3.19244
  0
LINE
  8
0
 10
0.608978
 20
-3.19244
 11
0.407318
 21
-3.22438
  0
LINE
  8
0
 10
0.407318
 20
-3.22438
 11
0.204056
 21
-3.24359
  0
LINE
  8
0
 10
0.204056
 20
-3.24359
 11
0
 21
-3.25
  0
LINE
  8
0
 10
0
 20
-3.25
 11
-0.204071
 21
-3.24359
  0
LINE
  8
0
 10
294.911
 20
-13.4222
 11
294.821
 21
-13.4138
  0
LINE
  8
0
 10
294.821
 20
-13.4138
 11
294.733
 21
-13.3998
  0
LINE
  8
0
 10
294.733
 20
-13.3998
 11
294.646
 21
-13.3802
  0
LINE
  8
0
 10
294.646
 20
-13.3802
 11
294.56
 21
-13.3553
  0
LINE
  8
0
 10
294.56
 20
-13.3553
 11
294.475
 21
-13.3249
  0
LINE
  8
0
 10
294.475
 20
-13.3249
 11
294.393
 21
-13.2894
  0
LINE
  8
0
 10
294.393
 20
-13.2894
 11
294.313
 21
-13.2487
  0
LINE
  8
0
 10
294.313
 20
-13.2487
 11
294.236
 21
-13.2032
  0
LINE
  8
0
 10
294.236
 20
-13.2032
 11
294.162
 21
-13.1529
  0
LINE
  8
0
 10
294.162
 20
-13.1529
 11
294.092
 21
-13.098
  0
LINE
  8
0
 10
294.092
 20
-13.098
 11
294.025
 21
-13.0388
  0
LINE
  8
0
 10
294.025
 20
-13.0388
 11
293.961
 21
-12.9755
  0
LINE
  8
0
 10
293.961
 20
-12.9755
 11
293.902
 21
-12.9083
  0
LINE
  8
0
 10
293.902
 20
-12.9083
 11
293.847
 21
-12.8376
  0
LINE
  8
0
 10
293.847
 20
-12.8376
 11
293.797
 21
-12.7636
  0
LINE
  8
0
 10
293.797
 20
-12.7636
 11
293.751
 21
-12.6865
  0
LINE
  8
0
 10
293.751
 20
-12.6865
 11
293.711
 21
-12.6068
  0
LINE
  8
0
 10
293.711
 20
-12.6068
 11
293.675
 21
-12.5246
  0
LINE
  8
0
 10
293.675
 20
-12.5246
 11
293.645
 21
-12.4404
  0
LINE
  8
0
 10
293.645
 20
-12.4404
 11
293.62
 21
-12.3544
  0
LINE
  8
0
 10
293.62
 20
-12.3544
 11
293.6
 21
-12.267
  0
LINE
  8
0
 10
293.6
 20
-12.267
 11
293.586
 21
-12.1786
  0
LINE
  8
0
 10
293.586
 20
-12.1786
 11
293.578
 21
-12.0895
  0
LINE
  8
0
 10
293.578
 20
-12.0895
 11
293.575
 21
-12
  0
LINE
  8
0
 10
293.575
 20
-12
 11
293.578
 21
-11.9105
  0
LINE
  8
0
 10
293.578
 20
-11.9105
 11
293.586
 21
-11.8214
  0
LINE
  8
0
 10
293.586
 20
-11.8214
 11
293.6
 21
-11.733
  0
LINE
  8
0
 10
293.6
 20
-11.733
 11
293.62
 21
-11.6456
  0
LINE
  8
0
 10
293.62
 20
-11.6456
 11
293.645
 21
-11.5597
  0
LINE
  8
0
 10
293.645
 20
-11.5597
 11
293.675
 21
-11.4754
  0
LINE
  8
0
 10
293.675
 20
-11.4754
 11
293.711
 21
-11.3933
  0
LINE
  8
0
 10
293.711
 20
-11.3933
 11
293.751
 21
-11.3135
  0
LINE
  8
0
 10
293.751
 20
-11.3135
 11
293.797
 21
-11.2365
  0
LINE
  8
0
 10
293.797
 20
-11.2365
 11
293.847
 21
-11.1624
  0
LINE
  8
0
 10
293.847
 20
-11.1624
 11
293.902
 21
-11.0917
  0
LINE
  8
0
 10
293.902
 20
-11.0917
 11
293.961
 21
-11.0245
  0
LINE
  8
0
 10
293.961
 20
-11.0245
 11
294.025
 21
-10.9612
  0
LINE
  8
0
 10
294.025
 20
-10.9612
 11
294.092
 21
-10.902
  0
LINE
  8
0
 10
294.092
 20
-10.902
 11
294.162
 21
-10.8472
  0
LINE
  8
0
 10
294.162
 20
-10.8472
 11
294.236
 21
-10.7968
  0
LINE
  8
0
 10
294.236
 20
-10.7968
 11
294.313
 21
-10.7513
  0
LINE
  8
0
 10
294.313
 20
-10.7513
 11
294.393
 21
-10.7106
  0
LINE
  8
0
 10
294.393
 20
-10.7106
 11
294.475
 21
-10.6751
  0
LINE
  8
0
 10
294.475
 20
-10.6751
 11
294.56
 21
-10.6447
  0
LINE
  8
0
 10
294.56
 20
-10.6447
 11
294.646
 21
-10.6198
  0
LINE
  8
0
 10
294.646
 20
-10.6198
 11
294.733
 21
-10.6003
  0
LINE
  8
0
 10
294.733
 20
-10.6003
 11
294.821
 21
-10.5862
  0
LINE
  8
0
 10
294.821
 20
-10.5862
 11
294.911
 21
-10.5778
  0
LINE
  8
0
 10
294.911
 20
-10.5778
 11
295
 21
-10.575
  0
LINE
  8
0
 10
295
 20
-10.575
 11
295.089
 21
-10.5778
  0
LINE
  8
0
 10
295.089
 20
-10.5778
 11
295.179
 21
-10.5862
  0
LINE
  8
0
 10
295.179
 20
-10.5862
 11
295.267
 21
-10.6003
  0
LINE
  8
0
 10
295.267
 20
-10.6003
 11
295.354
 21
-10.6198
  0
LINE
  8
0
 10
295.354
 20
-10.6198
 11
295.44
 21
-10.6447
  0
LINE
  8
0
 10
295.44
 20
-10.6447
 11
295.525
 21
-10.6751
  0
LINE
  8
0
 10
295.525
 20
-10.6751
 11
295.607
 21
-10.7106
  0
LINE
  8
0
 10
295.607
 20
-10.7106
 11
295.686
 21
-10.7513
  0
LINE
  8
0
 10
295.686
 20
-10.7513
 11
295.764
 21
-10.7968
  0
LINE
  8
0
 10
295.764
 20
-10.7968
 11
295.838
 21
-10.8472
  0
LINE
  8
0
 10
295.838
 20
-10.8472
 11
295.908
 21
-10.902
  0
LINE
  8
0
 10
295.908
 20
-10.902
 11
295.975
 21
-10.9612
  0
LINE
  8
0
 10
295.975
 20
-10.9612
 11
296.039
 21
-11.0245
  0
LINE
  8
0
 10
296.039
 20
-11.0245
 11
296.098
 21
-11.0917
  0
LINE
  8
0
 10
296.098
 20
-11.0917
 11
296.153
 21
-11.1624
  0
LINE
  8
0
 10
296.153
 20
-11.1624
 11
296.203
 21
-11.2365
  0
LINE
  8
0
 10
296.203
 20
-11.2365
 11
296.249
 21
-11.3135
  0
LINE
  8
0
 10
296.249
 20
-11.3135
 11
296.289
 21
-11.3933
  0
LINE
  8
0
 10
296.289
 20
-11.3933
 11
296.325
 21
-11.4754
  0
LINE
  8
0
 10
296.325
 20
-11.4754
 11
296.355
 21
-11.5597
  0
LINE
  8
0
 10
296.355
 20
-11.5597
 11
296.38
 21
-11.6456
  0
LINE
  8
0
 10
296.38
 20
-11.6456
 11
296.4
 21
-11.733
  0
LINE
  8
0
 10
296.4
 20
-11.733
 11
296.414
 21
-11.8214
  0
LINE
  8
0
 10
296.414
 20
-11.8214
 11
296.422
 21
-11.9105
  0
LINE
  8
0
 10
296.422
 20
-11.9105
 11
296.425
 21
-12
  0
LINE
  8
0
 10
296.425
 20
-12
 11
296.422
 21
-12.0895
  0
LINE
  8
0
 10
296.422
 20
-12.0895
 11
296.414
 21
-12.1786
  0
LINE
  8
0
 10
296.414
 20
-12.1786
 11
296.4
 21
-12.267
  0
LINE
  8
0
 10
296.4
 20
-12.267
 11
296.38
 21
-12.3544
  0
LINE
  8
0
 10
296.38
 20
-12.3544
 11
296.355
 21
-12.4404
  0
LINE
  8
0
 10
296.355
 20
-12.4404
 11
296.325
 21
-12.5246
  0
LINE
  8
0
 10
296.325
 20
-12.5246
 11
296.289
 21
-12.6068
  0
LINE
  8
0
 10
296.289
 20
-12.6068
 11
296.249
 21
-12.6865
  0
LINE
  8
0
 10
296.249
 20
-12.6865
 11
296.203
 21
-12.7636
  0
LINE
  8
0
 10
296.203
 20
-12.7636
 11
296.153
 21
-12.8376
  0
LINE
  8
0
 10
296.153
 20
-12.8376
 11
296.098
 21
-12.9083
  0
LINE
  8
0
 10
296.098
 20
-12.9083
 11
296.039
 21
-12.9755
  0
LINE
  8
0
 10
296.039
 20
-12.9755
 11
295.975
 21
-13.0388
  0
LINE
  8
0
 10
295.975
 20
-13.0388
 11
295.908
 21
-13.098
  0
LINE
  8
0
 10
295.908
 20
-13.098
 11
295.838
 21
-13.1529
  0
LINE
  8
0
 10
295.838
 20
-13.1529
 11
295.764
 21
-13.2032
  0
LINE
  8
0
 10
295.764
 20
-13.2032
 11
295.686
 21
-13.2487
  0
LINE
  8
0
 10
295.686
 20
-13.2487
 11
295.607
 21
-13.2894
  0
LINE
  8
0
 10
295.607
 20
-13.2894
 11
295.525
 21
-13.3249
  0
LINE
  8
0
 10
295.525
 20
-13.3249
 11
295.44
 21
-13.3553
  0
LINE
  8
0
 10
295.44
 20
-13.3553
 11
295.354
 21
-13.3802
  0
LINE
  8
0
 10
295.354
 20
-13.3802
 11
295.267
 21
-13.3998
  0
LINE
  8
0
 10
295.267
 20
-13.3998
 11
295.179
 21
-13.4138
  0
LINE
  8
0
 10
295.179
 20
-13.4138
 11
295.089
 21
-13.4222
  0
LINE
  8
0
 10
295.089
 20
-13.4222
 11
295
 21
-13.425
  0
LINE
  8
0
 10
295
 20
-13.425
 11
294.911
 21
-13.4222
  0
LINE
  8
0
 10
304.911
 20
-13.4222
 11
304.821
 21
-13.4138
  0
LINE
  8
0
 10
304.821
 20
-13.4138
 11
304.733
 21
-13.3998
  0
LINE
  8
0
 10
304.733
 20
-13.3998
 11
304.646
 21
-13.3802
  0
LINE
  8
0
 10
304.646
 20
-13.3802
 11
304.56
 21
-13.3553
  0
LINE
  8
0
 10
304.56
 20
-13.3553
 11
304.475
 21
-13.3249
  0
LINE
  8
0
 10
304.475
 20
-13.3249
 11
304.393
 21
-13.2894
  0
LINE
  8
0
 10
304.393
 20
-13.2894
 11
304.313
 21
-13.2487
  0
LINE
  8
0
 10
304.313
 20
-13.2487
 11
304.236
 21
-13.2032
  0
LINE
  8
0
 10
304.236
 20
-13.2032
 11
304.162
 21
-13.1529
  0
LINE
  8
0
 10
304.162
 20
-13.1529
 11
304.092
 21
-13.098
  0
LINE
  8
0
 10
304.092
 20
-13.098
 11
304.025
 21
-13.0388
  0
LINE
  8
0
 10
304.025
 20
-13.0388
 11
303.961
 21
-12.9755
  0
LINE
  8
0
 10
303.961
 20
-12.9755
 11
303.902
 21
-12.9083
  0
LINE
  8
0
 10
303.902
 20
-12.9083
 11
303.847
 21
-12.8376
  0
LINE
  8
0
 10
303.847
 20
-12.8376
 11
303.797
 21
-12.7636
  0
LINE
  8
0
 10
303.797
 20
-12.7636
 11
303.751
 21
-12.6865
  0
LINE
  8
0
 10
303.751
 20
-12.6865
 11
303.711
 21
-12.6068
  0
LINE
  8
0
 10
303.711
 20
-12.6068
 11
303.675
 21
-12.5246
  0
LINE
  8
0
 10
303.675
 20
-12.5246
 11
303.645
 21
-12.4404
  0
LINE
  8
0
 10
303.645
 20
-12.4404
 11
303.62
 21
-12.3544
  0
LINE
  8
0
 10
303.62
 20
-12.3544
 11
303.6
 21
-12.267
  0
LINE
  8
0
 10
303.6
 20
-12.267
 11
303.586
 21
-12.1786
  0
LINE
  8
0
 10
303.586
 20
-12.1786
 11
303.578
 21
-12.0895
  0
LINE
  8
0
 10
303.578
 20
-12.0895
 11
303.575
 21
-12
  0
LINE
  8
0
 10
303.575
 20
-12
 11
303.578
 21
-11.9105
  0
LINE
  8
0
 10
303.578
 20
-11.9105
 11
303.586
 21
-11.8214
  0
LINE
  8
0
 10
303.586
 20
-11.8214
 11
303.6
 21
-11.733
  0
LINE
  8
0
 10
303.6
 20
-11.733
 11
303.62
 21
-11.6456
  0
LINE
  8
0
 10
303.62
 20
-11.6456
 11
303.645
 21
-11.5597
  0
LINE
  8
0
 10
303.645
 20
-11.5597
 11
303.675
 21
-11.4754
  0
LINE
  8
0
 10
303.675
 20
-11.4754
 11
303.711
 21
-11.3933
  0
LINE
  8
0
 10
303.711
 20
-11.3933
 11
303.751
 21
-11.3135
  0
LINE
  8
0
 10
303.751
 20
-11.3135
 11
303.797
 21
-11.2365
  0
LINE
  8
0
 10
303.797
 20
-11.2365
 11
303.847
 21
-11.1624
  0
LINE
  8
0
 10
303.847
 20
-11.1624
 11
303.902
 21
-11.0917
  0
LINE
  8
0
 10
303.902
 20
-11.0917
 11
303.961
 21
-11.0245
  0
LINE
  8
0
 10
303.961
 20
-11.0245
 11
304.025
 21
-10.9612
  0
LINE
  8
0
 10
304.025
 20
-10.9612
 11
304.092
 21
-10.902
  0
LINE
  8
0
 10
304.092
 20
-10.902
 11
304.162
 21
-10.8472
  0
LINE
  8
0
 10
304.162
 20
-10.8472
 11
304.236
 21
-10.7968
  0
LINE
  8
0
 10
304.236
 20
-10.7968
 11
304.313
 21
-10.7513
  0
LINE
  8
0
 10
304.313
 20
-10.7513
 11
304.393
 21
-10.7106
  0
LINE
  8
0
 10
304.393
 20
-10.7106
 11
304.475
 21
-10.6751
  0
LINE
  8
0
 10
304.475
 20
-10.6751
 11
304.56
 21
-10.6447
  0
LINE
  8
0
 10
304.56
 20
-10.6447
 11
304.646
 21
-10.6198
  0
LINE
  8
0
 10
304.646
 20
-10.6198
 11
304.733
 21
-10.6003
  0
LINE
  8
0
 10
304.733
 20
-10.6003
 11
304.821
 21
-10.5862
  0
LINE
  8
0
 10
304.821
 20
-10.5862
 11
304.911
 21
-10.5778
  0
LINE
  8
0
 10
304.911
 20
-10.5778
 11
305
 21
-10.575
  0
LINE
  8
0
 10
305
 20
-10.575
 11
305.089
 21
-10.5778
  0
LINE
  8
0
 10
305.089
 20
-10.5778
 11
305.179
 21
-10.5862
  0
LINE
  8
0
 10
305.179
 20
-10.5862
 11
305.267
 21
-10.6003
  0
LINE
  8
0
 10
305.267
 20
-10.6003
 11
305.354
 21
-10.6198
  0
LINE
  8
0
 10
305.354
 20
-10.6198
 11
305.44
 21
-10.6447
  0
LINE
  8
0
 10
305.44
 20
-10.6447
 11
305.525
 21
-10.6751
  0
LINE
  8
0
 10
305.525
 20
-10.6751
 11
305.607
 21
-10.7106
  0
LINE
  8
0
 10
305.607
 20
-10.7106
 11
305.686
 21
-10.7513
  0
LINE
  8
0
 10
305.686
 20
-10.7513
 11
305.764
 21
-10.7968
  0
LINE
  8
0
 10
305.764
 20
-10.7968
 11
305.838
 21
-10.8472
  0
LINE
  8
0
 10
305.838
 20
-10.8472
 11
305.908
 21
-10.902
  0
LINE
  8
0
 10
305.908
 20
-10.902
 11
305.975
 21
-10.9612
  0
LINE
  8
0
 10
305.975
 20
-10.9612
 11
306.039
 21
-11.0245
  0
LINE
  8
0
 10
306.039
 20
-11.0245
 11
306.098
 21
-11.0917
  0
LINE
  8
0
 10
306.098
 20
-11.0917
 11
306.153
 21
-11.1624
  0
LINE
  8
0
 10
306.153
 20
-11.1624
 11
306.203
 21
-11.2365
  0
LINE
  8
0
 10
306.203
 20
-11.2365
 11
306.249
 21
-11.3135
  0
LINE
  8
0
 10
306.249
 20
-11.3135
 11
306.289
 21
-11.3933
  0
LINE
  8
0
 10
306.289
 20
-11.3933
 11
306.325
 21
-11.4754
  0
LINE
  8
0
 10
306.325
 20
-11.4754
 11
306.355
 21
-11.5597
  0
LINE
  8
0
 10
306.355
 20
-11.5597
 11
306.38
 21
-11.6456
  0
LINE
  8
0
 10
306.38
 20
-11.6456
 11
306.4
 21
-11.733
  0
LINE
  8
0
 10
306.4
 20
-11.733
 11
306.414
 21
-11.8214
  0
LINE
  8
0
 10
306.414
 20
-11.8214
 11
306.422
 21
-11.9105
  0
LINE
  8
0
 10
306.422
 20
-11.9105
 11
306.425
 21
-12
  0
LINE
  8
0
 10
306.425
 20
-12
 11
306.422
 21
-12.0895
  0
LINE
  8
0
 10
306.422
 20
-12.0895
 11
306.414
 21
-12.1786
  0
LINE
  8
0
 10
306.414
 20
-12.1786
 11
306.4
 21
-12.267
  0
LINE
  8
0
 10
306.4
 20
-12.267
 11
306.38
 21
-12.3544
  0
LINE
  8
0
 10
306.38
 20
-12.3544
 11
306.355
 21
-12.4404
  0
LINE
  8
0
 10
306.355
 20
-12.4404
 11
306.325
 21
-12.5246
  0
LINE
  8
0
 10
306.325
 20
-12.5246
 11
306.289
 21
-12.6068
  0
LINE
  8
0
 10
306.289
 20
-12.6068
 11
306.249
 21
-12.6865
  0
LINE
  8
0
 10
306.249
 20
-12.6865
 11
306.203
 21
-12.7636
  0
LINE
  8
0
 10
306.203
 20
-12.7636
 11
306.153
 21
-12.8376
  0
LINE
  8
0
 10
306.153
 20
-12.8376
 11
306.098
 21
-12.9083
  0
LINE
  8
0
 10
306.098
 20
-12.9083
 11
306.039
 21
-12.9755
  0
LINE
  8
0
 10
306.039
 20
-12.9755
 11
305.975
 21
-13.0388
  0
LINE
  8
0
 10
305.975
 20
-13.0388
 11
305.908
 21
-13.098
  0
LINE
  8
0
 10
305.908
 20
-13.098
 11
305.838
 21
-13.1529
  0
LINE
  8
0
 10
305.838
 20
-13.1529
 11
305.764
 21
-13.2032
  0
LINE
  8
0
 10
305.764
 20
-13.2032
 11
305.686
 21
-13.2487
  0
LINE
  8
0
 10
305.686
 20
-13.2487
 11
305.607
 21
-13.2894
  0
LINE
  8
0
 10
305.607
 20
-13.2894
 11
305.525
 21
-13.3249
  0
LINE
  8
0
 10
305.525
 20
-13.3249
 11
305.44
 21
-13.3553
  0
LINE
  8
0
 10
305.44
 20
-13.3553
 11
305.354
 21
-13.3802
  0
LINE
  8
0
 10
305.354
 20
-13.3802
 11
305.267
 21
-13.3998
  0
LINE
  8
0
 10
305.267
 20
-13.3998
 11
305.179
 21
-13.4138
  0
LINE
  8
0
 10
305.179
 20
-13.4138
 11
305.089
 21
-13.4222
  0
LINE
  8
0
 10
305.089
 20
-13.4222
 11
305
 21
-13.425
  0
LINE
  8
0
 10
305
 20
-13.425
 11
304.911
 21
-13.4222
  0
LINE
  8
0
 10
4.91052
 20
-13.4222
 11
4.8214
 21
-13.4138
  0
LINE
  8
0
 10
4.8214
 20
-13.4138
 11
4.73297
 21
-13.3998
  0
LINE
  8
0
 10
4.73297
 20
-13.3998
 11
4.64561
 21
-13.3802
  0
LINE
  8
0
 10
4.64561
 20
-13.3802
 11
4.55965
 21
-13.3553
  0
LINE
  8
0
 10
4.55965
 20
-13.3553
 11
4.47542
 21
-13.3249
  0
LINE
  8
0
 10
4.47542
 20
-13.3249
 11
4.39325
 21
-13.2894
  0
LINE
  8
0
 10
4.39325
 20
-13.2894
 11
4.31349
 21
-13.2487
  0
LINE
  8
0
 10
4.31349
 20
-13.2487
 11
4.23643
 21
-13.2032
  0
LINE
  8
0
 10
4.23643
 20
-13.2032
 11
4.1624
 21
-13.1529
  0
LINE
  8
0
 10
4.1624
 20
-13.1529
 11
4.09166
 21
-13.098
  0
LINE
  8
0
 10
4.09166
 20
-13.098
 11
4.02451
 21
-13.0388
  0
LINE
  8
0
 10
4.02451
 20
-13.0388
 11
3.96121
 21
-12.9755
  0
LINE
  8
0
 10
3.96121
 20
-12.9755
 11
3.90201
 21
-12.9083
  0
LINE
  8
0
 10
3.90201
 20
-12.9083
 11
3.84714
 21
-12.8376
  0
LINE
  8
0
 10
3.84714
 20
-12.8376
 11
3.79683
 21
-12.7636
  0
LINE
  8
0
 10
3.79683
 20
-12.7636
 11
3.75125
 21
-12.6865
  0
LINE
  8
0
 10
3.75125
 20
-12.6865
 11
3.71062
 21
-12.6068
  0
LINE
  8
0
 10
3.71062
 20
-12.6068
 11
3.67506
 21
-12.5246
  0
LINE
  8
0
 10
3.67506
 20
-12.5246
 11
3.64473
 21
-12.4404
  0
LINE
  8
0
 10
3.64473
 20
-12.4404
 11
3.61977
 21
-12.3544
  0
LINE
  8
0
 10
3.61977
 20
-12.3544
 11
3.60023
 21
-12.267
  0
LINE
  8
0
 10
3.60023
 20
-12.267
 11
3.58623
 21
-12.1786
  0
LINE
  8
0
 10
3.58623
 20
-12.1786
 11
3.5778
 21
-12.0895
  0
LINE
  8
0
 10
3.5778
 20
-12.0895
 11
3.575
 21
-12
  0
LINE
  8
0
 10
3.575
 20
-12
 11
3.5778
 21
-11.9105
  0
LINE
  8
0
 10
3.5778
 20
-11.9105
 11
3.58623
 21
-11.8214
  0
LINE
  8
0
 10
3.58623
 20
-11.8214
 11
3.60023
 21
-11.733
  0
LINE
  8
0
 10
3.60023
 20
-11.733
 11
3.61977
 21
-11.6456
  0
LINE
  8
0
 10
3.61977
 20
-11.6456
 11
3.64473
 21
-11.5597
  0
LINE
  8
0
 10
3.64473
 20
-11.5597
 11
3.67506
 21
-11.4754
  0
LINE
  8
0
 10
3.67506
 20
-11.4754
 11
3.71062
 21
-11.3933
  0
LINE
  8
0
 10
3.71062
 20
-11.3933
 11
3.75125
 21
-11.3135
  0
LINE
  8
0
 10
3.75125
 20
-11.3135
 11
3.79683
 21
-11.2365
  0
LINE
  8
0
 10
3.79683
 20
-11.2365
 11
3.84714
 21
-11.1624
  0
LINE
  8
0
 10
3.84714
 20
-11.1624
 11
3.90201
 21
-11.0917
  0
LINE
  8
0
 10
3.90201
 20
-11.0917
 11
3.96121
 21
-11.0245
  0
LINE
  8
0
 10
3.96121
 20
-11.0245
 11
4.02451
 21
-10.9612
  0
LINE
  8
0
 10
4.02451
 20
-10.9612
 11
4.09166
 21
-10.902
  0
LINE
  8
0
 10
4.09166
 20
-10.902
 11
4.1624
 21
-10.8472
  0
LINE
  8
0
 10
4.1624
 20
-10.8472
 11
4.23643
 21
-10.7968
  0
LINE
  8
0
 10
4.23643
 20
-10.7968
 11
4.31349
 21
-10.7513
  0
LINE
  8
0
 10
4.31349
 20
-10.7513
 11
4.39325
 21
-10.7106
  0
LINE
  8
0
 10
4.39325
 20
-10.7106
 11
4.47542
 21
-10.6751
  0
LINE
  8
0
 10
4.47542
 20
-10.6751
 11
4.55965
 21
-10.6447
  0
LINE
  8
0
 10
4.55965
 20
-10.6447
 11
4.64561
 21
-10.6198
  0
LINE
  8
0
 10
4.64561
 20
-10.6198
 11
4.73297
 21
-10.6003
  0
LINE
  8
0
 10
4.73297
 20
-10.6003
 11
4.8214
 21
-10.5862
  0
LINE
  8
0
 10
4.8214
 20
-10.5862
 11
4.91052
 21
-10.5778
  0
LINE
  8
0
 10
4.91052
 20
-10.5778
 11
5
 21
-10.575
  0
LINE
  8
0
 10
5
 20
-10.575
 11
5.08946
 21
-10.5778
  0
LINE
  8
0
 10
5.08946
 20
-10.5778
 11
5.17859
 21
-10.5862
  0
LINE
  8
0
 10
5.17859
 20
-10.5862
 11
5.26701
 21
-10.6003
  0
LINE
  8
0
 10
5.26701
 20
-10.6003
 11
5.35437
 21
-10.6198
  0
LINE
  8
0
 10
5.35437
 20
-10.6198
 11
5.44034
 21
-10.6447
  0
LINE
  8
0
 10
5.44034
 20
-10.6447
 11
5.52457
 21
-10.6751
  0
LINE
  8
0
 10
5.52457
 20
-10.6751
 11
5.60674
 21
-10.7106
  0
LINE
  8
0
 10
5.60674
 20
-10.7106
 11
5.68649
 21
-10.7513
  0
LINE
  8
0
 10
5.68649
 20
-10.7513
 11
5.76355
 21
-10.7968
  0
LINE
  8
0
 10
5.76355
 20
-10.7968
 11
5.83759
 21
-10.8472
  0
LINE
  8
0
 10
5.83759
 20
-10.8472
 11
5.90833
 21
-10.902
  0
LINE
  8
0
 10
5.90833
 20
-10.902
 11
5.97548
 21
-10.9612
  0
LINE
  8
0
 10
5.97548
 20
-10.9612
 11
6.03877
 21
-11.0245
  0
LINE
  8
0
 10
6.03877
 20
-11.0245
 11
6.09798
 21
-11.0917
  0
LINE
  8
0
 10
6.09798
 20
-11.0917
 11
6.15285
 21
-11.1624
  0
LINE
  8
0
 10
6.15285
 20
-11.1624
 11
6.20316
 21
-11.2365
  0
LINE
  8
0
 10
6.20316
 20
-11.2365
 11
6.24873
 21
-11.3135
  0
LINE
  8
0
 10
6.24873
 20
-11.3135
 11
6.28937
 21
-11.3933
  0
LINE
  8
0
 10
6.28937
 20
-11.3933
 11
6.32492
 21
-11.4754
  0
LINE
  8
0
 10
6.32492
 20
-11.4754
 11
6.35526
 21
-11.5597
  0
LINE
  8
0
 10
6.35526
 20
-11.5597
 11
6.38022
 21
-11.6456
  0
LINE
  8
0
 10
6.38022
 20
-11.6456
 11
6.39975
 21
-11.733
  0
LINE
  8
0
 10
6.39975
 20
-11.733
 11
6.41376
 21
-11.8214
  0
LINE
  8
0
 10
6.41376
 20
-11.8214
 11
6.42218
 21
-11.9105
  0
LINE
  8
0
 10
6.42218
 20
-11.9105
 11
6.42499
 21
-12
  0
LINE
  8
0
 10
6.42499
 20
-12
 11
6.42218
 21
-12.0895
  0
LINE
  8
0
 10
6.42218
 20
-12.0895
 11
6.41376
 21
-12.1786
  0
LINE
  8
0
 10
6.41376
 20
-12.1786
 11
6.39975
 21
-12.267
  0
LINE
  8
0
 10
6.39975
 20
-12.267
 11
6.38022
 21
-12.3544
  0
LINE
  8
0
 10
6.38022
 20
-12.3544
 11
6.35526
 21
-12.4404
  0
LINE
  8
0
 10
6.35526
 20
-12.4404
 11
6.32492
 21
-12.5246
  0
LINE
  8
0
 10
6.32492
 20
-12.5246
 11
6.28937
 21
-12.6068
  0
LINE
  8
0
 10
6.28937
 20
-12.6068
 11
6.24873
 21
-12.6865
  0
LINE
  8
0
 10
6.24873
 20
-12.6865
 11
6.20316
 21
-12.7636
  0
LINE
  8
0
 10
6.20316
 20
-12.7636
 11
6.15285
 21
-12.8376
  0
LINE
  8
0
 10
6.15285
 20
-12.8376
 11
6.09798
 21
-12.9083
  0
LINE
  8
0
 10
6.09798
 20
-12.9083
 11
6.03877
 21
-12.9755
  0
LINE
  8
0
 10
6.03877
 20
-12.9755
 11
5.97548
 21
-13.0388
  0
LINE
  8
0
 10
5.97548
 20
-13.0388
 11
5.90833
 21
-13.098
  0
LINE
  8
0
 10
5.90833
 20
-13.098
 11
5.83759
 21
-13.1529
  0
LINE
  8
0
 10
5.83759
 20
-13.1529
 11
5.76355
 21
-13.2032
  0
LINE
  8
0
 10
5.76355
 20
-13.2032
 11
5.68649
 21
-13.2487
  0
LINE
  8
0
 10
5.68649
 20
-13.2487
 11
5.60674
 21
-13.2894
  0
LINE
  8
0
 10
5.60674
 20
-13.2894
 11
5.52457
 21
-13.3249
  0
LINE
  8
0
 10
5.52457
 20
-13.3249
 11
5.44034
 21
-13.3553
  0
LINE
  8
0
 10
5.44034
 20
-13.3553
 11
5.35437
 21
-13.3802
  0
LINE
  8
0
 10
5.35437
 20
-13.3802
 11
5.26701
 21
-13.3998
  0
LINE
  8
0
 10
5.26701
 20
-13.3998
 11
5.17859
 21
-13.4138
  0
LINE
  8
0
 10
5.17859
 20
-13.4138
 11
5.08946
 21
-13.4222
  0
LINE
  8
0
 10
5.08946
 20
-13.4222
 11
5
 21
-13.425
  0
LINE
  8
0
 10
5
 20
-13.425
 11
4.91052
 21
-13.4222
  0
LINE
  8
0
 10
-5.08948
 20
-13.4222
 11
-5.1786
 21
-13.4138
  0
LINE
  8
0
 10
-5.1786
 20
-13.4138
 11
-5.26703
 21
-13.3998
  0
LINE
  8
0
 10
-5.26703
 20
-13.3998
 11
-5.35439
 21
-13.3802
  0
LINE
  8
0
 10
-5.35439
 20
-13.3802
 11
-5.44035
 21
-13.3553
  0
LINE
  8
0
 10
-5.44035
 20
-13.3553
 11
-5.52458
 21
-13.3249
  0
LINE
  8
0
 10
-5.52458
 20
-13.3249
 11
-5.60675
 21
-13.2894
  0
LINE
  8
0
 10
-5.60675
 20
-13.2894
 11
-5.68651
 21
-13.2487
  0
LINE
  8
0
 10
-5.68651
 20
-13.2487
 11
-5.76357
 21
-13.2032
  0
LINE
  8
0
 10
-5.76357
 20
-13.2032
 11
-5.8376
 21
-13.1529
  0
LINE
  8
0
 10
-5.8376
 20
-13.1529
 11
-5.90834
 21
-13.098
  0
LINE
  8
0
 10
-5.90834
 20
-13.098
 11
-5.97549
 21
-13.0388
  0
LINE
  8
0
 10
-5.97549
 20
-13.0388
 11
-6.03879
 21
-12.9755
  0
LINE
  8
0
 10
-6.03879
 20
-12.9755
 11
-6.09799
 21
-12.9083
  0
LINE
  8
0
 10
-6.09799
 20
-12.9083
 11
-6.15286
 21
-12.8376
  0
LINE
  8
0
 10
-6.15286
 20
-12.8376
 11
-6.20317
 21
-12.7636
  0
LINE
  8
0
 10
-6.20317
 20
-12.7636
 11
-6.24875
 21
-12.6865
  0
LINE
  8
0
 10
-6.24875
 20
-12.6865
 11
-6.28938
 21
-12.6068
  0
LINE
  8
0
 10
-6.28938
 20
-12.6068
 11
-6.32494
 21
-12.5246
  0
LINE
  8
0
 10
-6.32494
 20
-12.5246
 11
-6.35527
 21
-12.4404
  0
LINE
  8
0
 10
-6.35527
 20
-12.4404
 11
-6.38023
 21
-12.3544
  0
LINE
  8
0
 10
-6.38023
 20
-12.3544
 11
-6.39977
 21
-12.267
  0
LINE
  8
0
 10
-6.39977
 20
-12.267
 11
-6.41377
 21
-12.1786
  0
LINE
  8
0
 10
-6.41377
 20
-12.1786
 11
-6.4222
 21
-12.0895
  0
LINE
  8
0
 10
-6.4222
 20
-12.0895
 11
-6.425
 21
-12
  0
LINE
  8
0
 10
-6.425
 20
-12
 11
-6.4222
 21
-11.9105
  0
LINE
  8
0
 10
-6.4222
 20
-11.9105
 11
-6.41377
 21
-11.8214
  0
LINE
  8
0
 10
-6.41377
 20
-11.8214
 11
-6.39977
 21
-11.733
  0
LINE
  8
0
 10
-6.39977
 20
-11.733
 11
-6.38023
 21
-11.6456
  0
LINE
  8
0
 10
-6.38023
 20
-11.6456
 11
-6.35527
 21
-11.5597
  0
LINE
  8
0
 10
-6.35527
 20
-11.5597
 11
-6.32494
 21
-11.4754
  0
LINE
  8
0
 10
-6.32494
 20
-11.4754
 11
-6.28938
 21
-11.3933
  0
LINE
  8
0
 10
-6.28938
 20
-11.3933
 11
-6.24875
 21
-11.3135
  0
LINE
  8
0
 10
-6.24875
 20
-11.3135
 11
-6.20317
 21
-11.2365
  0
LINE
  8
0
 10
-6.20317
 20
-11.2365
 11
-6.15286
 21
-11.1624
  0
LINE
  8
0
 10
-6.15286
 20
-11.1624
 11
-6.09799
 21
-11.0917
  0
LINE
  8
0
 10
-6.09799
 20
-11.0917
 11
-6.03879
 21
-11.0245
  0
LINE
  8
0
 10
-6.03879
 20
-11.0245
 11
-5.97549
 21
-10.9612
  0
LINE
  8
0
 10
-5.97549
 20
-10.9612
 11
-5.90834
 21
-10.902
  0
LINE
  8
0
 10
-5.90834
 20
-10.902
 11
-5.8376
 21
-10.8472
  0
LINE
  8
0
 10
-5.8376
 20
-10.8472
 11
-5.76357
 21
-10.7968
  0
LINE
  8
0
 10
-5.76357
 20
-10.7968
 11
-5.68651
 21
-10.7513
  0
LINE
  8
0
 10
-5.68651
 20
-10.7513
 11
-5.60675
 21
-10.7106
  0
LINE
  8
0
 10
-5.60675
 20
-10.7106
 11
-5.52458
 21
-10.6751
  0
LINE
  8
0
 10
-5.52458
 20
-10.6751
 11
-5.44035
 21
-10.6447
  0
LINE
  8
0
 10
-5.44035
 20
-10.6447
 11
-5.35439
 21
-10.6198
  0
LINE
  8
0
 10
-5.35439
 20
-10.6198
 11
-5.26703
 21
-10.6003
  0
LINE
  8
0
 10
-5.26703
 20
-10.6003
 11
-5.1786
 21
-10.5862
  0
LINE
  8
0
 10
-5.1786
 20
-10.5862
 11
-5.08948
 21
-10.5778
  0
LINE
  8
0
 10
-5.08948
 20
-10.5778
 11
-5
 21
-10.575
  0
LINE
  8
0
 10
-5
 20
-10.575
 11
-4.91054
 21
-10.5778
  0
LINE
  8
0
 10
-4.91054
 20
-10.5778
 11
-4.82141
 21
-10.5862
  0
LINE
  8
0
 10
-4.82141
 20
-10.5862
 11
-4.73299
 21
-10.6003
  0
LINE
  8
0
 10
-4.73299
 20
-10.6003
 11
-4.64563
 21
-10.6198
  0
LINE
  8
0
 10
-4.64563
 20
-10.6198
 11
-4.55966
 21
-10.6447
  0
LINE
  8
0
 10
-4.55966
 20
-10.6447
 11
-4.47543
 21
-10.6751
  0
LINE
  8
0
 10
-4.47543
 20
-10.6751
 11
-4.39326
 21
-10.7106
  0
LINE
  8
0
 10
-4.39326
 20
-10.7106
 11
-4.31351
 21
-10.7513
  0
LINE
  8
0
 10
-4.31351
 20
-10.7513
 11
-4.23645
 21
-10.7968
  0
LINE
  8
0
 10
-4.23645
 20
-10.7968
 11
-4.16241
 21
-10.8472
  0
LINE
  8
0
 10
-4.16241
 20
-10.8472
 11
-4.09167
 21
-10.902
  0
LINE
  8
0
 10
-4.09167
 20
-10.902
 11
-4.02452
 21
-10.9612
  0
LINE
  8
0
 10
-4.02452
 20
-10.9612
 11
-3.96123
 21
-11.0245
  0
LINE
  8
0
 10
-3.96123
 20
-11.0245
 11
-3.90202
 21
-11.0917
  0
LINE
  8
0
 10
-3.90202
 20
-11.0917
 11
-3.84715
 21
-11.1624
  0
LINE
  8
0
 10
-3.84715
 20
-11.1624
 11
-3.79684
 21
-11.2365
  0
LINE
  8
0
 10
-3.79684
 20
-11.2365
 11
-3.75127
 21
-11.3135
  0
LINE
  8
0
 10
-3.75127
 20
-11.3135
 11
-3.71063
 21
-11.3933
  0
LINE
  8
0
 10
-3.71063
 20
-11.3933
 11
-3.67508
 21
-11.4754
  0
LINE
  8
0
 10
-3.67508
 20
-11.4754
 11
-3.64474
 21
-11.5597
  0
LINE
  8
0
 10
-3.64474
 20
-11.5597
 11
-3.61978
 21
-11.6456
  0
LINE
  8
0
 10
-3.61978
 20
-11.6456
 11
-3.60025
 21
-11.733
  0
LINE
  8
0
 10
-3.60025
 20
-11.733
 11
-3.58624
 21
-11.8214
  0
LINE
  8
0
 10
-3.58624
 20
-11.8214
 11
-3.57782
 21
-11.9105
  0
LINE
  8
0
 10
-3.57782
 20
-11.9105
 11
-3.57501
 21
-12
  0
LINE
  8
0
 10
-3.57501
 20
-12
 11
-3.57782
 21
-12.0895
  0
LINE
  8
0
 10
-3.57782
 20
-12.0895
 11
-3.58624
 21
-12.1786
  0
LINE
  8
0
 10
-3.58624
 20
-12.1786
 11
-3.60025
 21
-12.267
  0
LINE
  8
0
 10
-3.60025
 20
-12.267
 11
-3.61978
 21
-12.3544
  0
LINE
  8
0
 10
-3.61978
 20
-12.3544
 11
-3.64474
 21
-12.4404
  0
LINE
  8
0
 10
-3.64474
 20
-12.4404
 11
-3.67508
 21
-12.5246
  0
LINE
  8
0
 10
-3.67508
 20
-12.5246
 11
-3.71063
 21
-12.6068
  0
LINE
  8
0
 10
-3.71063
 20
-12.6068
 11
-3.75127
 21
-12.6865
  0
LINE
  8
0
 10
-3.75127
 20
-12.6865
 11
-3.79684
 21
-12.7636
  0
LINE
  8
0
 10
-3.79684
 20
-12.7636
 11
-3.84715
 21
-12.8376
  0
LINE
  8
0
 10
-3.84715
 20
-12.8376
 11
-3.90202
 21
-12.9083
  0
LINE
  8
0
 10
-3.90202
 20
-12.9083
 11
-3.96123
 21
-12.9755
  0
LINE
  8
0
 10
-3.96123
 20
-12.9755
 11
-4.02452
 21
-13.0388
  0
LINE
  8
0
 10
-4.02452
 20
-13.0388
 11
-4.09167
 21
-13.098
  0
LINE
  8
0
 10
-4.09167
 20
-13.098
 11
-4.16241
 21
-13.1529
  0
LINE
  8
0
 10
-4.16241
 20
-13.1529
 11
-4.23645
 21
-13.2032
  0
LINE
  8
0
 10
-4.23645
 20
-13.2032
 11
-4.31351
 21
-13.2487
  0
LINE
  8
0
 10
-4.31351
 20
-13.2487
 11
-4.39326
 21
-13.2894
  0
LINE
  8
0
 10
-4.39326
 20
-13.2894
 11
-4.47543
 21
-13.3249
  0
LINE
  8
0
 10
-4.47543
 20
-13.3249
 11
-4.55966
 21
-13.3553
  0
LINE
  8
0
 10
-4.55966
 20
-13.3553
 11
-4.64563
 21
-13.3802
  0
LINE
  8
0
 10
-4.64563
 20
-13.3802
 11
-4.73299
 21
-13.3998
  0
LINE
  8
0
 10
-4.73299
 20
-13.3998
 11
-4.82141
 21
-13.4138
  0
LINE
  8
0
 10
-4.82141
 20
-13.4138
 11
-4.91054
 21
-13.4222
  0
LINE
  8
0
 10
-4.91054
 20
-13.4222
 11
-5.00002
 21
-13.425
  0
LINE
  8
0
 10
-5.00002
 20
-13.425
 11
-5.08948
 21
-13.4222
  0
ENDSEC
  0
SECTION
  2
OBJECTS
  0
DICTIONARY
  0
ENDSEC
  0
EOF
